# MagicaVoxel @ Ephtracy

# group
o 

# material
mtllib KibidkaAndBarrier-2.mtl
usemtl palette

# normals
vn -1 0 0
vn 1 0 0
vn 0 0 1
vn 0 0 -1
vn 0 -1 0
vn 0 1 0

# texcoords
vt 0.142578 0.5
vt 0.201172 0.5
vt 0.369141 0.5
vt 0.373047 0.5
vt 0.537109 0.5
vt 0.662109 0.5

# verts
v 4.6 4.2 2
v 4.6 4.2 -2
v 4.6 5 2
v 4.6 5 -2
v 4.7 1.6 1.5
v 4.7 1.6 -1.5
v 4.7 1.8 1.3
v 4.7 1.8 -1.3
v 4.7 3 1.3
v 4.7 3 -1.3
v 4.7 3.2 1.5
v 4.7 3.2 -1.5
v 4.8 0 1.8
v 4.8 0 -1.8
v 4.8 0.3 1.5
v 4.8 0.3 -1.5
v 4.8 1.6 1.5
v 4.8 1.6 -1.5
v 4.8 3.2 1.5
v 4.8 3.2 -1.5
v 4.8 4.2 1.8
v 4.8 4.2 1.5
v 4.8 4.2 -1.5
v 4.8 4.2 -1.8
v 5.1 1.6 1.9
v 5.1 1.6 1.8
v 5.1 1.6 -1.8
v 5.1 1.6 -1.9
v 5.1 1.8 1.3
v 5.1 1.8 -1.3
v 5.1 3 1.3
v 5.1 3 -1.3
v 5.1 3.2 1.9
v 5.1 3.2 1.8
v 5.1 3.2 -1.8
v 5.1 3.2 -1.9
v 7.9 1.8 1.9
v 7.9 1.8 1.5
v 7.9 1.8 -1.5
v 7.9 1.8 -1.9
v 7.9 3 1.9
v 7.9 3 1.5
v 7.9 3 -1.5
v 7.9 3 -1.9
v 5.3 1.8 1.9
v 5.3 1.8 1.5
v 5.3 1.8 -1.5
v 5.3 1.8 -1.9
v 5.3 3 1.9
v 5.3 3 1.5
v 5.3 3 -1.5
v 5.3 3 -1.9
v 8.1 1.6 1.9
v 8.1 1.6 1.8
v 8.1 1.6 -1.8
v 8.1 1.6 -1.9
v 8.1 3.2 1.9
v 8.1 3.2 1.8
v 8.1 3.2 -1.8
v 8.1 3.2 -1.9
v 8.4 0 1.8
v 8.4 0 1.1
v 8.4 0 -1.1
v 8.4 0 -1.8
v 8.4 0.3 1.5
v 8.4 0.3 1.1
v 8.4 0.3 -1.1
v 8.4 0.3 -1.5
v 8.4 3.7 1.1
v 8.4 3.7 -1.1
v 8.4 4.2 1.8
v 8.4 4.2 1.5
v 8.4 4.2 -1.5
v 8.4 4.2 -1.8
v 8.5 0 1.1
v 8.5 0 -1.1
v 8.5 0.2 0.7
v 8.5 0.2 -0.7
v 8.5 0.3 0.6
v 8.5 0.3 -0.6
v 8.5 0.4 0.4
v 8.5 0.4 -0.4
v 8.5 0.5 0.3
v 8.5 0.5 -0.3
v 8.5 1.7 -0.8
v 8.5 1.7 -1
v 8.5 1.8 0.3
v 8.5 1.8 -0.3
v 8.5 1.8 -0.8
v 8.5 1.8 -0.9
v 8.5 1.9 0.3
v 8.5 1.9 -0.3
v 8.5 2 -0.9
v 8.5 2 -1
v 8.5 3.1 0.3
v 8.5 3.1 -0.3
v 8.5 3.2 0.4
v 8.5 3.2 -0.4
v 8.5 3.4 0.6
v 8.5 3.4 -0.6
v 8.5 3.5 0.7
v 8.5 3.5 -0.7
v 8.5 3.7 1.1
v 8.5 3.7 -1.1
v 8.6 1.7 -0.8
v 8.6 1.7 -1
v 8.6 1.8 -0.8
v 8.6 1.8 -0.9
v 8.6 2 -0.9
v 8.6 2 -1
v 8.6 4.2 2
v 8.6 4.2 -2
v 8.6 5 2
v 8.6 5 -2
v 4.6 4.2 2
v 4.6 5 2
v 8.6 4.2 2
v 8.6 5 2
v 5.1 1.6 1.9
v 5.1 3.2 1.9
v 5.3 1.8 1.9
v 5.3 3 1.9
v 7.9 1.8 1.9
v 7.9 3 1.9
v 8.1 1.6 1.9
v 8.1 3.2 1.9
v 4.8 0 1.8
v 4.8 4.2 1.8
v 5.1 0.3 1.8
v 5.1 1.6 1.8
v 5.1 3.2 1.8
v 5.1 4.2 1.8
v 8.1 0.3 1.8
v 8.1 1.6 1.8
v 8.1 3.2 1.8
v 8.1 4.2 1.8
v 8.4 0 1.8
v 8.4 4.2 1.8
v 4.7 1.6 1.5
v 4.7 3.2 1.5
v 4.8 1.6 1.5
v 4.8 3.2 1.5
v 5.3 1.8 1.5
v 5.3 3 1.5
v 7.9 1.8 1.5
v 7.9 3 1.5
v 8.4 0 1.1
v 8.4 0.3 1.1
v 8.4 3.7 1.1
v 8.5 0 1.1
v 8.5 3.7 1.1
v 8.5 1.7 -0.8
v 8.5 1.8 -0.8
v 8.6 1.7 -0.8
v 8.6 1.8 -0.8
v 8.5 1.8 -0.9
v 8.5 2 -0.9
v 8.6 1.8 -0.9
v 8.6 2 -0.9
v 4.7 1.8 -1.3
v 4.7 3 -1.3
v 5.1 1.8 -1.3
v 5.1 3 -1.3
v 4.7 1.8 1.3
v 4.7 3 1.3
v 5.1 1.8 1.3
v 5.1 3 1.3
v 8.5 1.7 -1
v 8.5 2 -1
v 8.6 1.7 -1
v 8.6 2 -1
v 8.4 0 -1.1
v 8.4 0.3 -1.1
v 8.4 3.7 -1.1
v 8.5 0 -1.1
v 8.5 3.7 -1.1
v 4.7 1.6 -1.5
v 4.7 3.2 -1.5
v 4.8 1.6 -1.5
v 4.8 3.2 -1.5
v 5.3 1.8 -1.5
v 5.3 3 -1.5
v 7.9 1.8 -1.5
v 7.9 3 -1.5
v 4.8 0 -1.8
v 4.8 4.2 -1.8
v 5.1 0.3 -1.8
v 5.1 1.6 -1.8
v 5.1 3.2 -1.8
v 5.1 4.2 -1.8
v 8.1 0.3 -1.8
v 8.1 1.6 -1.8
v 8.1 3.2 -1.8
v 8.1 4.2 -1.8
v 8.4 0 -1.8
v 8.4 4.2 -1.8
v 5.1 1.6 -1.9
v 5.1 3.2 -1.9
v 5.3 1.8 -1.9
v 5.3 3 -1.9
v 7.9 1.8 -1.9
v 7.9 3 -1.9
v 8.1 1.6 -1.9
v 8.1 3.2 -1.9
v 4.6 4.2 -2
v 4.6 5 -2
v 8.6 4.2 -2
v 8.6 5 -2
v 4.8 0 1.8
v 8.4 0 1.8
v 4.9 0 1.7
v 8.3 0 1.7
v 8.3 0 1.1
v 8.4 0 1.1
v 8.5 0 1.1
v 8.3 0 -1.1
v 8.4 0 -1.1
v 8.5 0 -1.1
v 4.9 0 -1.7
v 8.3 0 -1.7
v 4.8 0 -1.8
v 8.4 0 -1.8
v 5.1 1.6 1.9
v 8.1 1.6 1.9
v 5.1 1.6 1.8
v 8.1 1.6 1.8
v 4.7 1.6 1.5
v 4.8 1.6 1.5
v 4.7 1.6 -1.5
v 4.8 1.6 -1.5
v 5.1 1.6 -1.8
v 8.1 1.6 -1.8
v 5.1 1.6 -1.9
v 8.1 1.6 -1.9
v 8.5 1.7 -0.8
v 8.6 1.7 -0.8
v 8.5 1.7 -1
v 8.6 1.7 -1
v 5.3 3 1.9
v 7.9 3 1.9
v 5.3 3 1.5
v 7.9 3 1.5
v 4.7 3 1.3
v 5.1 3 1.3
v 4.7 3 -1.3
v 5.1 3 -1.3
v 5.3 3 -1.5
v 7.9 3 -1.5
v 5.3 3 -1.9
v 7.9 3 -1.9
v 4.6 4.2 2
v 8.6 4.2 2
v 4.8 4.2 1.8
v 5.1 4.2 1.8
v 8.1 4.2 1.8
v 8.4 4.2 1.8
v 4.8 4.2 1.5
v 8.4 4.2 1.5
v 4.8 4.2 -1.5
v 8.4 4.2 -1.5
v 4.8 4.2 -1.8
v 5.1 4.2 -1.8
v 8.1 4.2 -1.8
v 8.4 4.2 -1.8
v 4.6 4.2 -2
v 8.6 4.2 -2
v 5.3 1.8 1.9
v 7.9 1.8 1.9
v 5.3 1.8 1.5
v 7.9 1.8 1.5
v 4.7 1.8 1.3
v 5.1 1.8 1.3
v 8.5 1.8 -0.8
v 8.6 1.8 -0.8
v 8.5 1.8 -0.9
v 8.6 1.8 -0.9
v 4.7 1.8 -1.3
v 5.1 1.8 -1.3
v 5.3 1.8 -1.5
v 7.9 1.8 -1.5
v 5.3 1.8 -1.9
v 7.9 1.8 -1.9
v 8.5 2 -0.9
v 8.6 2 -0.9
v 8.5 2 -1
v 8.6 2 -1
v 5.1 3.2 1.9
v 8.1 3.2 1.9
v 5.1 3.2 1.8
v 8.1 3.2 1.8
v 4.7 3.2 1.5
v 4.8 3.2 1.5
v 4.7 3.2 -1.5
v 4.8 3.2 -1.5
v 5.1 3.2 -1.8
v 8.1 3.2 -1.8
v 5.1 3.2 -1.9
v 8.1 3.2 -1.9
v 8.4 3.7 1.1
v 8.5 3.7 1.1
v 8.4 3.7 -1.1
v 8.5 3.7 -1.1
v 4.6 5 2
v 8.6 5 2
v 4.6 5 -2
v 8.6 5 -2

# faces
f 3/6/1 2/6/1 1/6/1
f 4/6/1 2/6/1 3/6/1
f 7/4/1 6/4/1 5/4/1
f 8/4/1 6/4/1 7/4/1
f 9/4/1 7/4/1 5/4/1
f 10/4/1 6/4/1 8/4/1
f 11/4/1 9/4/1 5/4/1
f 11/4/1 10/4/1 9/4/1
f 12/4/1 6/4/1 10/4/1
f 12/4/1 10/4/1 11/4/1
f 15/3/1 14/3/1 13/3/1
f 16/3/1 14/3/1 15/3/1
f 17/3/1 15/3/1 13/3/1
f 17/4/1 16/4/1 15/4/1
f 18/3/1 14/3/1 16/3/1
f 18/4/1 16/4/1 17/4/1
f 19/3/1 17/3/1 13/3/1
f 20/3/1 14/3/1 18/3/1
f 21/3/1 19/3/1 13/3/1
f 22/4/1 20/4/1 19/4/1
f 22/3/1 19/3/1 21/3/1
f 23/3/1 14/3/1 20/3/1
f 23/4/1 20/4/1 22/4/1
f 24/3/1 14/3/1 23/3/1
f 31/1/1 30/1/1 29/1/1
f 32/1/1 30/1/1 31/1/1
f 33/4/1 26/4/1 25/4/1
f 34/4/1 26/4/1 33/4/1
f 35/4/1 28/4/1 27/4/1
f 36/4/1 28/4/1 35/4/1
f 41/4/1 38/4/1 37/4/1
f 42/4/1 38/4/1 41/4/1
f 43/4/1 40/4/1 39/4/1
f 44/4/1 40/4/1 43/4/1
f 45/4/2 46/4/2 49/4/2
f 49/4/2 46/4/2 50/4/2
f 47/4/2 48/4/2 51/4/2
f 51/4/2 48/4/2 52/4/2
f 53/4/2 54/4/2 57/4/2
f 57/4/2 54/4/2 58/4/2
f 55/4/2 56/4/2 59/4/2
f 59/4/2 56/4/2 60/4/2
f 61/3/2 62/3/2 65/3/2
f 65/3/2 62/3/2 66/3/2
f 63/3/2 64/3/2 67/3/2
f 67/3/2 64/3/2 68/3/2
f 65/4/2 66/4/2 69/4/2
f 67/4/2 68/4/2 70/4/2
f 61/3/2 65/3/2 71/3/2
f 69/4/2 70/4/2 72/4/2
f 71/3/2 65/3/2 72/3/2
f 65/4/2 69/4/2 72/4/2
f 68/3/2 64/3/2 73/3/2
f 72/4/2 70/4/2 73/4/2
f 70/4/2 68/4/2 73/4/2
f 73/3/2 64/3/2 74/3/2
f 75/5/2 76/5/2 77/5/2
f 77/5/2 76/5/2 78/5/2
f 77/2/2 78/2/2 79/2/2
f 79/2/2 78/2/2 80/2/2
f 79/5/2 80/5/2 81/5/2
f 81/5/2 80/5/2 82/5/2
f 81/2/2 82/2/2 83/2/2
f 83/2/2 82/2/2 84/2/2
f 78/5/2 76/5/2 85/5/2
f 85/5/2 76/5/2 86/5/2
f 81/2/2 83/2/2 87/2/2
f 83/5/2 84/5/2 87/5/2
f 84/2/2 82/2/2 88/2/2
f 87/5/2 84/5/2 88/5/2
f 78/5/2 85/5/2 89/5/2
f 81/2/2 87/2/2 91/2/2
f 87/2/2 88/2/2 91/2/2
f 88/2/2 82/2/2 92/2/2
f 91/2/2 88/2/2 92/2/2
f 89/5/2 90/5/2 93/5/2
f 86/5/2 76/5/2 94/5/2
f 81/2/2 91/2/2 95/2/2
f 91/5/2 92/5/2 95/5/2
f 92/2/2 82/2/2 96/2/2
f 95/5/2 92/5/2 96/5/2
f 81/2/2 95/2/2 97/2/2
f 79/5/2 81/5/2 97/5/2
f 95/2/2 96/2/2 97/2/2
f 96/2/2 82/2/2 98/2/2
f 97/2/2 96/2/2 98/2/2
f 82/5/2 80/5/2 98/5/2
f 79/5/2 97/5/2 99/5/2
f 77/2/2 79/2/2 99/2/2
f 97/5/2 98/5/2 99/5/2
f 98/5/2 80/5/2 100/5/2
f 99/5/2 98/5/2 100/5/2
f 80/2/2 78/2/2 100/2/2
f 75/5/2 77/5/2 101/5/2
f 77/2/2 99/2/2 101/2/2
f 99/2/2 100/2/2 101/2/2
f 100/2/2 78/2/2 102/2/2
f 101/2/2 100/2/2 102/2/2
f 89/5/2 93/5/2 102/5/2
f 78/5/2 89/5/2 102/5/2
f 93/5/2 94/5/2 102/5/2
f 75/5/2 101/5/2 103/5/2
f 101/5/2 102/5/2 103/5/2
f 102/5/2 94/5/2 104/5/2
f 103/5/2 102/5/2 104/5/2
f 94/5/2 76/5/2 104/5/2
f 105/2/2 106/2/2 107/2/2
f 107/2/2 106/2/2 108/2/2
f 108/2/2 106/2/2 109/2/2
f 109/2/2 106/2/2 110/2/2
f 111/6/2 112/6/2 113/6/2
f 113/6/2 112/6/2 114/6/2
f 117/6/3 116/6/3 115/6/3
f 118/6/3 116/6/3 117/6/3
f 121/4/3 120/4/3 119/4/3
f 122/4/3 120/4/3 121/4/3
f 123/4/3 121/4/3 119/4/3
f 124/4/3 120/4/3 122/4/3
f 125/4/3 123/4/3 119/4/3
f 125/4/3 124/4/3 123/4/3
f 126/4/3 120/4/3 124/4/3
f 126/4/3 124/4/3 125/4/3
f 129/3/3 128/3/3 127/3/3
f 130/3/3 128/3/3 129/3/3
f 131/3/3 128/3/3 130/3/3
f 132/3/3 128/3/3 131/3/3
f 133/3/3 129/3/3 127/3/3
f 133/4/3 130/4/3 129/4/3
f 134/4/3 130/4/3 133/4/3
f 135/4/3 132/4/3 131/4/3
f 136/4/3 132/4/3 135/4/3
f 137/3/3 134/3/3 133/3/3
f 137/3/3 133/3/3 127/3/3
f 137/3/3 136/3/3 135/3/3
f 137/3/3 135/3/3 134/3/3
f 138/3/3 136/3/3 137/3/3
f 141/4/3 140/4/3 139/4/3
f 142/4/3 140/4/3 141/4/3
f 145/1/3 144/1/3 143/1/3
f 146/1/3 144/1/3 145/1/3
f 150/5/3 148/5/3 147/5/3
f 150/5/3 149/5/3 148/5/3
f 151/5/3 149/5/3 150/5/3
f 154/2/3 153/2/3 152/2/3
f 155/2/3 153/2/3 154/2/3
f 158/2/3 157/2/3 156/2/3
f 159/2/3 157/2/3 158/2/3
f 162/4/3 161/4/3 160/4/3
f 163/4/3 161/4/3 162/4/3
f 164/4/4 165/4/4 166/4/4
f 166/4/4 165/4/4 167/4/4
f 168/2/4 169/2/4 170/2/4
f 170/2/4 169/2/4 171/2/4
f 172/5/4 173/5/4 175/5/4
f 173/5/4 174/5/4 175/5/4
f 175/5/4 174/5/4 176/5/4
f 177/4/4 178/4/4 179/4/4
f 179/4/4 178/4/4 180/4/4
f 181/1/4 182/1/4 183/1/4
f 183/1/4 182/1/4 184/1/4
f 185/3/4 186/3/4 187/3/4
f 187/3/4 186/3/4 188/3/4
f 188/3/4 186/3/4 189/3/4
f 189/3/4 186/3/4 190/3/4
f 185/3/4 187/3/4 191/3/4
f 187/4/4 188/4/4 191/4/4
f 191/4/4 188/4/4 192/4/4
f 189/4/4 190/4/4 193/4/4
f 193/4/4 190/4/4 194/4/4
f 191/3/4 192/3/4 195/3/4
f 185/3/4 191/3/4 195/3/4
f 193/3/4 194/3/4 195/3/4
f 192/3/4 193/3/4 195/3/4
f 195/3/4 194/3/4 196/3/4
f 197/4/4 198/4/4 199/4/4
f 199/4/4 198/4/4 200/4/4
f 197/4/4 199/4/4 201/4/4
f 200/4/4 198/4/4 202/4/4
f 197/4/4 201/4/4 203/4/4
f 201/4/4 202/4/4 203/4/4
f 202/4/4 198/4/4 204/4/4
f 203/4/4 202/4/4 204/4/4
f 205/6/4 206/6/4 207/6/4
f 207/6/4 206/6/4 208/6/4
f 211/3/5 210/3/5 209/3/5
f 212/3/5 210/3/5 211/3/5
f 213/4/5 212/4/5 211/4/5
f 213/3/5 210/3/5 212/3/5
f 214/3/5 210/3/5 213/3/5
f 216/4/5 213/4/5 211/4/5
f 216/5/5 215/5/5 214/5/5
f 216/5/5 214/5/5 213/5/5
f 217/5/5 215/5/5 216/5/5
f 218/5/5 215/5/5 217/5/5
f 219/3/5 211/3/5 209/3/5
f 219/4/5 216/4/5 211/4/5
f 220/3/5 217/3/5 216/3/5
f 220/4/5 216/4/5 219/4/5
f 221/3/5 219/3/5 209/3/5
f 221/3/5 220/3/5 219/3/5
f 222/3/5 217/3/5 220/3/5
f 222/3/5 220/3/5 221/3/5
f 225/4/5 224/4/5 223/4/5
f 226/4/5 224/4/5 225/4/5
f 229/4/5 228/4/5 227/4/5
f 230/4/5 228/4/5 229/4/5
f 233/4/5 232/4/5 231/4/5
f 234/4/5 232/4/5 233/4/5
f 237/2/5 236/2/5 235/2/5
f 238/2/5 236/2/5 237/2/5
f 241/4/5 240/4/5 239/4/5
f 242/4/5 240/4/5 241/4/5
f 245/4/5 244/4/5 243/4/5
f 246/4/5 244/4/5 245/4/5
f 249/4/5 248/4/5 247/4/5
f 250/4/5 248/4/5 249/4/5
f 253/6/5 252/6/5 251/6/5
f 254/6/5 252/6/5 253/6/5
f 255/6/5 252/6/5 254/6/5
f 256/6/5 252/6/5 255/6/5
f 257/6/5 253/6/5 251/6/5
f 258/6/5 252/6/5 256/6/5
f 259/6/5 257/6/5 251/6/5
f 260/6/5 252/6/5 258/6/5
f 261/6/5 259/6/5 251/6/5
f 264/6/5 252/6/5 260/6/5
f 265/6/5 263/6/5 262/6/5
f 265/6/5 264/6/5 263/6/5
f 265/6/5 261/6/5 251/6/5
f 265/6/5 262/6/5 261/6/5
f 266/6/5 252/6/5 264/6/5
f 266/6/5 264/6/5 265/6/5
f 267/4/6 268/4/6 269/4/6
f 269/4/6 268/4/6 270/4/6
f 273/2/6 274/2/6 275/2/6
f 275/2/6 274/2/6 276/2/6
f 271/4/6 272/4/6 277/4/6
f 277/4/6 272/4/6 278/4/6
f 279/4/6 280/4/6 281/4/6
f 281/4/6 280/4/6 282/4/6
f 283/2/6 284/2/6 285/2/6
f 285/2/6 284/2/6 286/2/6
f 287/4/6 288/4/6 289/4/6
f 289/4/6 288/4/6 290/4/6
f 291/4/6 292/4/6 293/4/6
f 293/4/6 292/4/6 294/4/6
f 295/4/6 296/4/6 297/4/6
f 297/4/6 296/4/6 298/4/6
f 299/5/6 300/5/6 301/5/6
f 301/5/6 300/5/6 302/5/6
f 303/6/6 304/6/6 305/6/6
f 305/6/6 304/6/6 306/6/6
