# Blender 4.0.2
# www.blender.org
mtllib body.001.mtl
o body.001
v 0.300000 2.299999 0.300000
v -0.100000 2.299999 0.300000
v -0.300000 2.299999 0.300000
v 0.400000 2.400000 0.300000
v 0.300000 2.400000 0.300000
v 0.200000 2.400000 0.300000
v -0.100000 2.400000 0.300000
v -0.300000 2.400000 0.300000
v -0.400000 2.400000 0.300000
v 0.400000 2.500000 0.300000
v 0.300000 2.500000 0.300000
v 0.200000 2.500000 0.300000
v -0.300000 2.500000 0.300000
v -0.400000 2.500000 0.300000
v 0.400000 2.599999 0.300000
v 0.300000 2.599999 0.300000
v 0.100000 2.599999 0.300000
v -0.100000 2.599999 0.300000
v 0.300000 2.700000 0.300000
v 0.100000 2.700000 0.300000
v -0.100000 2.700000 0.300000
v 0.400000 2.799999 0.300000
v 0.300000 2.799999 0.300000
v -0.100000 2.799999 0.300000
v -0.300000 2.799999 0.300000
v 0.400000 2.900000 0.300000
v 0.300000 2.900000 0.300000
v 0.200000 2.900000 0.300000
v -0.300000 2.900000 0.300000
v -0.400000 2.900000 0.300000
v -0.300000 3.000000 0.300000
v -0.400000 3.000000 0.300000
v -0.300000 3.099999 0.300000
v -0.400000 3.099999 0.300000
v -0.300000 3.200000 0.300000
v 0.400000 3.299999 0.300000
v 0.300000 3.299999 0.300000
v -0.300000 3.299999 0.300000
v -0.400000 3.299999 0.300000
v 0.300000 3.400000 0.300000
v -0.200000 3.400000 0.300000
v -0.400000 3.400000 0.300000
v 0.100000 2.099999 0.200000
v -0.100000 2.099999 0.200000
v -0.300000 2.099999 0.200000
v -0.400000 2.099999 0.200000
v 0.100000 2.200000 0.200000
v -0.100000 2.200000 0.200000
v -0.400000 2.200000 0.200000
v 0.300000 2.299999 0.200000
v 0.500000 2.400000 0.200000
v 0.500000 2.500000 0.200000
v 0.400000 2.599999 0.200000
v -0.400000 2.599999 0.200000
v -0.000000 2.900000 0.200000
v -0.100000 2.900000 0.200000
v 0.200000 3.000000 0.200000
v -0.000000 3.000000 0.200000
v -0.000000 3.099999 0.200000
v 0.100000 3.200000 0.200000
v -0.000000 3.200000 0.200000
v -0.200000 3.200000 0.200000
v 0.100000 3.299999 0.200000
v -0.200000 3.500000 0.200000
v 0.400000 2.000000 -0.200000
v -0.200000 2.000000 -0.200000
v -0.200000 2.099999 -0.200000
v -0.400000 2.099999 -0.200000
v 0.100000 2.200000 -0.200000
v -0.200000 2.200000 -0.200000
v -0.300000 2.200000 -0.200000
v 0.300000 2.299999 -0.200000
v 0.100000 2.299999 -0.200000
v -0.200000 2.299999 -0.200000
v -0.300000 2.299999 -0.200000
v -0.500000 2.299999 -0.200000
v -0.500000 2.700000 -0.200000
v -0.000000 2.900000 -0.200000
v -0.400000 2.900000 -0.200000
v -0.500000 2.900000 -0.200000
v -0.100000 3.000000 -0.200000
v 0.100000 3.299999 -0.200000
v -0.100000 3.299999 -0.200000
v 0.100000 3.400000 -0.200000
v -0.100000 3.400000 -0.200000
v 0.400000 3.500000 -0.200000
v 0.200000 3.500000 -0.200000
v 0.400000 3.599999 -0.200000
v -0.200000 3.599999 -0.200000
v 0.300000 2.299999 -0.300000
v 0.300000 2.400000 -0.300000
v 0.100000 2.400000 -0.300000
v 0.300000 2.599999 -0.300000
v 0.200000 2.599999 -0.300000
v -0.000000 2.599999 -0.300000
v 0.300000 2.700000 -0.300000
v 0.200000 2.700000 -0.300000
v -0.000000 2.700000 -0.300000
v -0.100000 2.700000 -0.300000
v -0.300000 2.700000 -0.300000
v -0.400000 2.700000 -0.300000
v 0.300000 2.799999 -0.300000
v -0.000000 2.799999 -0.300000
v -0.100000 2.799999 -0.300000
v -0.300000 2.799999 -0.300000
v 0.300000 2.900000 -0.300000
v 0.200000 2.900000 -0.300000
v -0.200000 2.900000 -0.300000
v 0.500000 2.299999 0.200000
v 0.500000 2.599999 0.200000
v 0.500000 2.799999 0.200000
v 0.500000 2.500000 0.100000
v 0.500000 2.599999 0.100000
v 0.500000 2.799999 -0.000000
v 0.500000 2.299999 -0.100000
v 0.500000 2.400000 -0.100000
v 0.500000 2.500000 -0.100000
v 0.500000 2.599999 -0.100000
v 0.500000 2.299999 -0.200000
v 0.500000 2.900000 -0.200000
v 0.400000 3.400000 0.300000
v 0.400000 3.500000 0.300000
v 0.400000 2.000000 0.200000
v 0.400000 2.099999 0.200000
v 0.400000 2.200000 0.200000
v 0.400000 2.299999 0.200000
v 0.400000 2.400000 0.200000
v 0.400000 2.500000 0.200000
v 0.400000 2.799999 0.200000
v 0.400000 3.500000 0.200000
v 0.400000 2.900000 -0.000000
v 0.400000 3.000000 -0.000000
v 0.400000 3.099999 -0.000000
v 0.400000 3.299999 -0.000000
v 0.400000 3.400000 -0.000000
v 0.400000 3.500000 -0.000000
v 0.400000 3.099999 -0.100000
v 0.400000 3.200000 -0.100000
v 0.400000 3.400000 -0.100000
v 0.400000 3.500000 -0.100000
v 0.400000 2.099999 -0.200000
v 0.400000 2.200000 -0.200000
v 0.400000 2.299999 -0.200000
v 0.400000 3.000000 -0.200000
v 0.400000 3.099999 -0.200000
v 0.400000 3.200000 -0.200000
v 0.400000 2.299999 -0.300000
v -0.200000 2.900000 0.300000
v -0.200000 3.500000 0.300000
v -0.200000 2.900000 0.200000
v -0.200000 3.299999 0.200000
v -0.200000 3.400000 0.200000
v -0.200000 2.900000 -0.200000
v -0.200000 3.500000 -0.200000
v -0.200000 3.500000 -0.300000
v 0.200000 2.900000 0.200000
v 0.200000 3.099999 0.200000
v 0.200000 3.200000 0.200000
v 0.200000 3.000000 -0.200000
v 0.200000 3.500000 -0.300000
v -0.400000 2.599999 0.300000
v -0.400000 2.700000 0.300000
v -0.400000 3.200000 0.300000
v -0.400000 3.500000 0.300000
v -0.400000 2.400000 0.200000
v -0.400000 2.500000 0.200000
v -0.400000 2.700000 0.200000
v -0.400000 3.200000 0.100000
v -0.400000 3.299999 0.100000
v -0.400000 3.400000 0.100000
v -0.400000 3.500000 0.100000
v -0.400000 2.000000 0.000000
v -0.400000 2.099999 0.000000
v -0.400000 2.900000 0.000000
v -0.400000 3.000000 0.000000
v -0.400000 3.099999 0.000000
v -0.400000 3.400000 0.000000
v -0.400000 3.500000 0.000000
v -0.400000 2.000000 -0.100000
v -0.400000 2.099999 -0.100000
v -0.400000 2.200000 -0.100000
v -0.400000 2.299999 -0.100000
v -0.400000 3.099999 -0.100000
v -0.400000 3.200000 -0.100000
v -0.400000 2.000000 -0.200000
v -0.400000 2.200000 -0.200000
v -0.400000 2.299999 -0.200000
v -0.400000 2.599999 -0.200000
v -0.400000 2.700000 -0.200000
v -0.400000 3.099999 -0.200000
v -0.400000 3.200000 -0.200000
v -0.400000 3.400000 -0.200000
v -0.400000 2.299999 -0.300000
v -0.400000 2.599999 -0.300000
v -0.400000 3.500000 -0.300000
v -0.500000 2.299999 0.200000
v -0.500000 2.400000 0.200000
v -0.500000 2.500000 0.200000
v -0.500000 2.599999 0.200000
v -0.500000 2.700000 0.200000
v -0.500000 2.900000 0.200000
v -0.500000 2.400000 0.100000
v -0.500000 2.500000 0.100000
v -0.500000 2.599999 0.100000
v -0.500000 2.700000 0.100000
v -0.500000 2.599999 -0.100000
v -0.500000 2.700000 -0.100000
v -0.500000 2.599999 -0.200000
v -0.200000 2.000000 -0.100000
v -0.300000 2.000000 0.200000
v -0.300000 2.000000 0.000000
v -0.400000 2.000000 0.200000
v 0.400000 2.299999 0.300000
v 0.400000 2.299999 -0.100000
v 0.100000 2.299999 -0.300000
v -0.100000 2.299999 0.200000
v -0.300000 2.299999 0.200000
v -0.400000 2.299999 0.300000
v -0.400000 2.299999 0.200000
v 0.500000 2.900000 0.200000
v 0.500000 2.900000 -0.000000
v 0.400000 2.900000 0.200000
v 0.400000 2.900000 -0.200000
v 0.200000 2.900000 -0.200000
v -0.000000 2.900000 -0.300000
v -0.100000 2.900000 0.300000
v -0.100000 2.900000 -0.200000
v -0.400000 2.900000 0.200000
v 0.400000 3.500000 -0.300000
v 0.200000 3.500000 0.300000
v 0.200000 3.500000 0.200000
v -0.400000 3.500000 0.200000
v -0.400000 3.500000 -0.200000
v 0.400000 3.599999 0.200000
v 0.200000 3.599999 0.200000
v 0.200000 3.599999 -0.200000
v -0.200000 3.599999 0.200000
v -0.400000 3.599999 0.200000
v -0.400000 3.599999 -0.200000
vn -0.0000 -0.0000 1.0000
vn -0.0000 -0.0000 -1.0000
vn 1.0000 -0.0000 -0.0000
vn -1.0000 -0.0000 -0.0000
vn -0.0000 -1.0000 -0.0000
vn -0.0000 1.0000 -0.0000
vt 0.341797 0.500000
vt 0.369141 0.500000
vt 0.373047 0.500000
vt 0.990234 0.500000
vt 0.017578 0.500000
s 0
usemtl palette.020
f 4/1/1 1/1/1 213/1/1
f 5/2/1 2/2/1 1/2/1
f 5/1/1 1/1/1 4/1/1
f 6/2/1 2/2/1 5/2/1
f 7/1/1 3/1/1 2/1/1
f 7/2/1 2/2/1 6/2/1
f 8/2/1 218/2/1 3/2/1
f 8/1/1 3/1/1 7/1/1
f 9/2/1 218/2/1 8/2/1
f 10/2/1 5/2/1 4/2/1
f 11/1/1 6/1/1 5/1/1
f 11/2/1 5/2/1 10/2/1
f 12/2/1 7/2/1 6/2/1
f 12/1/1 6/1/1 11/1/1
f 12/2/1 8/2/1 7/2/1
f 13/3/1 9/3/1 8/3/1
f 13/2/1 8/2/1 12/2/1
f 14/3/1 9/3/1 13/3/1
f 15/3/1 11/3/1 10/3/1
f 16/2/1 12/2/1 11/2/1
f 16/3/1 11/3/1 15/3/1
f 16/2/1 13/2/1 12/2/1
f 16/2/1 14/2/1 13/2/1
f 17/2/1 14/2/1 16/2/1
f 18/2/1 14/2/1 17/2/1
f 161/2/1 14/2/1 18/2/1
f 19/2/1 16/2/1 15/2/1
f 19/1/1 17/1/1 16/1/1
f 20/2/1 18/2/1 17/2/1
f 20/1/1 17/1/1 19/1/1
f 21/1/1 161/1/1 18/1/1
f 21/2/1 18/2/1 20/2/1
f 162/1/1 161/1/1 21/1/1
f 22/2/1 20/2/1 19/2/1
f 22/2/1 19/2/1 15/2/1
f 22/2/1 162/2/1 21/2/1
f 22/2/1 21/2/1 20/2/1
f 23/2/1 162/2/1 22/2/1
f 24/2/1 162/2/1 23/2/1
f 25/2/1 162/2/1 24/2/1
f 26/3/1 23/3/1 22/3/1
f 27/2/1 24/2/1 23/2/1
f 27/3/1 23/3/1 26/3/1
f 28/2/1 24/2/1 27/2/1
f 226/3/1 25/3/1 24/3/1
f 226/2/1 24/2/1 28/2/1
f 148/3/1 25/3/1 226/3/1
f 29/2/1 162/2/1 25/2/1
f 29/3/1 25/3/1 148/3/1
f 30/2/1 162/2/1 29/2/1
f 31/1/1 30/1/1 29/1/1
f 31/2/1 29/2/1 148/2/1
f 32/1/1 30/1/1 31/1/1
f 33/2/1 31/2/1 148/2/1
f 33/3/1 32/3/1 31/3/1
f 34/3/1 32/3/1 33/3/1
f 35/2/1 33/2/1 148/2/1
f 35/2/1 34/2/1 33/2/1
f 163/2/1 34/2/1 35/2/1
f 36/2/1 28/2/1 27/2/1
f 36/2/1 27/2/1 26/2/1
f 37/2/1 28/2/1 36/2/1
f 38/1/1 163/1/1 35/1/1
f 38/2/1 35/2/1 148/2/1
f 39/1/1 163/1/1 38/1/1
f 121/1/1 37/1/1 36/1/1
f 40/2/1 28/2/1 37/2/1
f 40/1/1 37/1/1 121/1/1
f 41/2/1 38/2/1 148/2/1
f 41/2/1 39/2/1 38/2/1
f 42/2/1 39/2/1 41/2/1
f 122/2/1 40/2/1 121/2/1
f 230/2/1 28/2/1 40/2/1
f 230/2/1 40/2/1 122/2/1
f 149/3/1 42/3/1 41/3/1
f 164/3/1 42/3/1 149/3/1
f 124/2/1 210/2/1 123/2/1
f 43/2/1 210/2/1 124/2/1
f 44/2/1 210/2/1 43/2/1
f 45/3/1 212/3/1 210/3/1
f 45/2/1 210/2/1 44/2/1
f 46/3/1 212/3/1 45/3/1
f 125/4/1 43/4/1 124/4/1
f 47/5/1 44/5/1 43/5/1
f 47/4/1 43/4/1 125/4/1
f 48/4/1 45/4/1 44/4/1
f 48/5/1 44/5/1 47/5/1
f 48/4/1 46/4/1 45/4/1
f 49/4/1 46/4/1 48/4/1
f 126/2/1 47/2/1 125/2/1
f 126/2/1 48/2/1 47/2/1
f 126/2/1 49/2/1 48/2/1
f 50/2/1 49/2/1 126/2/1
f 216/2/1 49/2/1 50/2/1
f 217/2/1 49/2/1 216/2/1
f 219/2/1 49/2/1 217/2/1
f 51/1/1 126/1/1 109/1/1
f 127/1/1 126/1/1 51/1/1
f 165/2/1 196/2/1 219/2/1
f 197/2/1 196/2/1 165/2/1
f 52/2/1 127/2/1 51/2/1
f 128/2/1 127/2/1 52/2/1
f 166/3/1 197/3/1 165/3/1
f 198/3/1 197/3/1 166/3/1
f 110/3/1 128/3/1 52/3/1
f 53/3/1 128/3/1 110/3/1
f 54/2/1 198/2/1 166/2/1
f 199/2/1 198/2/1 54/2/1
f 167/1/1 199/1/1 54/1/1
f 200/1/1 199/1/1 167/1/1
f 111/2/1 53/2/1 110/2/1
f 129/2/1 53/2/1 111/2/1
f 220/3/1 129/3/1 111/3/1
f 222/3/1 129/3/1 220/3/1
f 228/2/1 200/2/1 167/2/1
f 201/2/1 200/2/1 228/2/1
f 57/1/1 55/1/1 156/1/1
f 58/2/1 150/2/1 56/2/1
f 58/1/1 55/1/1 57/1/1
f 58/2/1 56/2/1 55/2/1
f 157/2/1 58/2/1 57/2/1
f 59/2/1 150/2/1 58/2/1
f 59/2/1 58/2/1 157/2/1
f 158/3/1 59/3/1 157/3/1
f 60/3/1 59/3/1 158/3/1
f 61/2/1 150/2/1 59/2/1
f 61/3/1 59/3/1 60/3/1
f 62/2/1 150/2/1 61/2/1
f 63/2/1 60/2/1 158/2/1
f 63/1/1 61/1/1 60/1/1
f 63/1/1 62/1/1 61/1/1
f 151/1/1 62/1/1 63/1/1
f 152/2/1 151/2/1 63/2/1
f 231/2/1 63/2/1 158/2/1
f 231/2/1 152/2/1 63/2/1
f 64/2/1 152/2/1 231/2/1
f 234/2/1 231/2/1 130/2/1
f 235/2/1 231/2/1 234/2/1
f 237/2/1 232/2/1 64/2/1
f 238/2/1 232/2/1 237/2/1
f 65/2/2 66/2/2 141/2/2
f 66/1/2 185/1/2 67/1/2
f 141/2/2 66/2/2 67/2/2
f 67/1/2 185/1/2 68/1/2
f 141/4/2 67/4/2 142/4/2
f 67/4/2 68/4/2 142/4/2
f 142/4/2 68/4/2 69/4/2
f 69/4/2 68/4/2 70/4/2
f 70/4/2 68/4/2 71/4/2
f 71/4/2 68/4/2 186/4/2
f 142/2/2 69/2/2 143/2/2
f 143/2/2 69/2/2 72/2/2
f 69/1/2 70/1/2 73/1/2
f 72/2/2 69/2/2 73/2/2
f 70/2/2 71/2/2 74/2/2
f 73/1/2 70/1/2 74/1/2
f 71/3/2 186/3/2 75/3/2
f 74/2/2 71/2/2 75/2/2
f 75/3/2 186/3/2 187/3/2
f 187/2/2 76/2/2 188/2/2
f 188/2/2 76/2/2 208/2/2
f 188/1/2 208/1/2 189/1/2
f 189/1/2 208/1/2 77/1/2
f 119/2/2 143/2/2 120/2/2
f 120/2/2 143/2/2 223/2/2
f 189/2/2 77/2/2 79/2/2
f 79/2/2 77/2/2 80/2/2
f 224/1/2 78/1/2 159/1/2
f 78/1/2 227/1/2 159/1/2
f 227/2/2 153/2/2 81/2/2
f 159/1/2 227/1/2 81/1/2
f 159/2/2 81/2/2 82/2/2
f 81/2/2 153/2/2 83/2/2
f 82/2/2 81/2/2 83/2/2
f 159/2/2 82/2/2 84/2/2
f 82/3/2 83/3/2 84/3/2
f 83/2/2 153/2/2 85/2/2
f 84/3/2 83/3/2 85/3/2
f 159/2/2 84/2/2 87/2/2
f 84/2/2 85/2/2 87/2/2
f 85/2/2 153/2/2 154/2/2
f 87/2/2 85/2/2 154/2/2
f 86/2/2 87/2/2 88/2/2
f 88/2/2 87/2/2 236/2/2
f 154/2/2 233/2/2 89/2/2
f 89/2/2 233/2/2 239/2/2
f 147/2/2 90/2/2 91/2/2
f 90/3/2 215/3/2 91/3/2
f 215/2/2 193/2/2 92/2/2
f 91/3/2 215/3/2 92/3/2
f 147/2/2 91/2/2 93/2/2
f 91/2/2 92/2/2 93/2/2
f 93/2/2 92/2/2 94/2/2
f 92/2/2 193/2/2 95/2/2
f 94/2/2 92/2/2 95/2/2
f 95/2/2 193/2/2 194/2/2
f 93/1/2 94/1/2 96/1/2
f 147/2/2 93/2/2 96/2/2
f 94/2/2 95/2/2 97/2/2
f 96/1/2 94/1/2 97/1/2
f 95/1/2 194/1/2 98/1/2
f 97/2/2 95/2/2 98/2/2
f 98/1/2 194/1/2 99/1/2
f 99/1/2 194/1/2 100/1/2
f 100/1/2 194/1/2 101/1/2
f 96/2/2 97/2/2 102/2/2
f 147/2/2 96/2/2 102/2/2
f 97/2/2 98/2/2 102/2/2
f 98/2/2 99/2/2 102/2/2
f 102/2/2 99/2/2 103/2/2
f 99/3/2 100/3/2 104/3/2
f 103/2/2 99/2/2 104/2/2
f 100/2/2 101/2/2 105/2/2
f 104/3/2 100/3/2 105/3/2
f 102/3/2 103/3/2 106/3/2
f 147/2/2 102/2/2 106/2/2
f 106/3/2 103/3/2 107/3/2
f 103/2/2 104/2/2 225/2/2
f 107/3/2 103/3/2 225/3/2
f 104/2/2 105/2/2 225/2/2
f 225/2/2 105/2/2 108/2/2
f 106/2/2 107/2/2 229/2/2
f 147/2/2 106/2/2 229/2/2
f 229/2/2 107/2/2 160/2/2
f 108/2/2 105/2/2 155/2/2
f 105/2/2 101/2/2 195/2/2
f 155/2/2 105/2/2 195/2/2
f 112/2/3 52/2/3 51/2/3
f 112/3/3 110/3/3 52/3/3
f 113/2/3 111/2/3 110/2/3
f 113/3/3 110/3/3 112/3/3
f 114/3/3 220/3/3 111/3/3
f 114/2/3 111/2/3 113/2/3
f 221/3/3 220/3/3 114/3/3
f 115/1/3 51/1/3 109/1/3
f 116/2/3 112/2/3 51/2/3
f 116/1/3 51/1/3 115/1/3
f 117/1/3 113/1/3 112/1/3
f 117/2/3 112/2/3 116/2/3
f 118/2/3 114/2/3 113/2/3
f 118/1/3 113/1/3 117/1/3
f 118/2/3 221/2/3 114/2/3
f 119/2/3 116/2/3 115/2/3
f 119/2/3 117/2/3 116/2/3
f 119/2/3 118/2/3 117/2/3
f 120/2/3 221/2/3 118/2/3
f 120/2/3 118/2/3 119/2/3
f 126/1/3 4/1/3 213/1/3
f 127/2/3 10/2/3 4/2/3
f 127/1/3 4/1/3 126/1/3
f 128/3/3 15/3/3 10/3/3
f 128/2/3 10/2/3 127/2/3
f 53/2/3 22/2/3 15/2/3
f 53/3/3 15/3/3 128/3/3
f 129/3/3 26/3/3 22/3/3
f 129/2/3 22/2/3 53/2/3
f 222/2/3 36/2/3 26/2/3
f 222/3/3 26/3/3 129/3/3
f 130/2/3 122/2/3 121/2/3
f 131/2/3 36/2/3 222/2/3
f 132/2/3 36/2/3 131/2/3
f 133/2/3 36/2/3 132/2/3
f 134/1/3 121/1/3 36/1/3
f 134/2/3 36/2/3 133/2/3
f 135/2/3 234/2/3 130/2/3
f 135/1/3 121/1/3 134/1/3
f 135/2/3 130/2/3 121/2/3
f 136/2/3 234/2/3 135/2/3
f 214/2/3 126/2/3 125/2/3
f 137/2/3 134/2/3 133/2/3
f 137/3/3 133/3/3 132/3/3
f 137/2/3 135/2/3 134/2/3
f 138/2/3 135/2/3 137/2/3
f 139/1/3 136/1/3 135/1/3
f 139/2/3 135/2/3 138/2/3
f 140/2/3 234/2/3 136/2/3
f 140/1/3 136/1/3 139/1/3
f 65/2/3 124/2/3 123/2/3
f 141/4/3 125/4/3 124/4/3
f 141/2/3 124/2/3 65/2/3
f 142/2/3 214/2/3 125/2/3
f 142/4/3 125/4/3 141/4/3
f 143/2/3 214/2/3 142/2/3
f 223/2/3 132/2/3 131/2/3
f 144/3/3 137/3/3 132/3/3
f 144/2/3 132/2/3 223/2/3
f 145/1/3 138/1/3 137/1/3
f 145/3/3 137/3/3 144/3/3
f 146/2/3 139/2/3 138/2/3
f 146/1/3 138/1/3 145/1/3
f 146/2/3 140/2/3 139/2/3
f 86/2/3 234/2/3 140/2/3
f 86/2/3 140/2/3 146/2/3
f 88/2/3 234/2/3 86/2/3
f 147/2/3 145/2/3 144/2/3
f 147/2/3 86/2/3 146/2/3
f 147/2/3 223/2/3 143/2/3
f 147/2/3 146/2/3 145/2/3
f 147/2/3 144/2/3 223/2/3
f 229/2/3 86/2/3 147/2/3
f 150/2/3 41/2/3 148/2/3
f 62/2/3 41/2/3 150/2/3
f 151/2/3 41/2/3 62/2/3
f 152/3/3 149/3/3 41/3/3
f 152/2/3 41/2/3 151/2/3
f 64/3/3 149/3/3 152/3/3
f 154/2/3 237/2/3 64/2/3
f 89/2/3 237/2/3 154/2/3
f 108/2/3 154/2/3 153/2/3
f 155/2/3 154/2/3 108/2/3
f 28/2/4 230/2/4 156/2/4
f 156/2/4 230/2/4 57/2/4
f 57/2/4 230/2/4 157/2/4
f 157/2/4 230/2/4 158/2/4
f 158/2/4 230/2/4 231/2/4
f 231/2/4 235/2/4 87/2/4
f 87/2/4 235/2/4 236/2/4
f 224/2/4 159/2/4 107/2/4
f 159/2/4 87/2/4 107/2/4
f 107/2/4 87/2/4 160/2/4
f 218/2/4 9/2/4 219/2/4
f 9/3/4 14/3/4 165/3/4
f 219/2/4 9/2/4 165/2/4
f 14/2/4 161/2/4 166/2/4
f 165/3/4 14/3/4 166/3/4
f 161/1/4 162/1/4 54/1/4
f 166/2/4 161/2/4 54/2/4
f 162/2/4 30/2/4 167/2/4
f 54/1/4 162/1/4 167/1/4
f 30/1/4 32/1/4 228/1/4
f 167/2/4 30/2/4 228/2/4
f 42/3/4 164/3/4 232/3/4
f 34/2/4 163/2/4 168/2/4
f 163/1/4 39/1/4 168/1/4
f 39/2/4 42/2/4 169/2/4
f 168/1/4 39/1/4 169/1/4
f 42/3/4 232/3/4 170/3/4
f 169/2/4 42/2/4 170/2/4
f 232/2/4 238/2/4 171/2/4
f 170/3/4 232/3/4 171/3/4
f 212/3/4 46/3/4 172/3/4
f 46/4/4 49/4/4 173/4/4
f 172/3/4 46/3/4 173/3/4
f 228/1/4 32/1/4 174/1/4
f 32/3/4 34/3/4 175/3/4
f 174/1/4 32/1/4 175/1/4
f 169/2/4 170/2/4 176/2/4
f 175/3/4 34/3/4 176/3/4
f 168/2/4 169/2/4 176/2/4
f 34/2/4 168/2/4 176/2/4
f 170/2/4 171/2/4 176/2/4
f 176/2/4 171/2/4 177/2/4
f 171/2/4 238/2/4 178/2/4
f 177/2/4 171/2/4 178/2/4
f 172/2/4 173/2/4 179/2/4
f 173/4/4 49/4/4 180/4/4
f 179/2/4 173/2/4 180/2/4
f 49/2/4 219/2/4 181/2/4
f 180/4/4 49/4/4 181/4/4
f 181/2/4 219/2/4 182/2/4
f 174/2/4 175/2/4 183/2/4
f 176/2/4 177/2/4 183/2/4
f 175/2/4 176/2/4 183/2/4
f 183/2/4 177/2/4 184/2/4
f 179/1/4 180/1/4 185/1/4
f 180/4/4 181/4/4 68/4/4
f 185/1/4 180/1/4 68/1/4
f 181/3/4 182/3/4 186/3/4
f 68/4/4 181/4/4 186/4/4
f 186/3/4 182/3/4 187/3/4
f 174/2/4 183/2/4 79/2/4
f 183/1/4 184/1/4 190/1/4
f 79/2/4 183/2/4 190/2/4
f 184/2/4 177/2/4 191/2/4
f 190/1/4 184/1/4 191/1/4
f 177/1/4 178/1/4 192/1/4
f 191/2/4 177/2/4 192/2/4
f 178/2/4 238/2/4 233/2/4
f 192/1/4 178/1/4 233/1/4
f 233/2/4 238/2/4 239/2/4
f 187/2/4 188/2/4 193/2/4
f 188/1/4 189/1/4 194/1/4
f 193/2/4 188/2/4 194/2/4
f 79/2/4 190/2/4 101/2/4
f 194/1/4 189/1/4 101/1/4
f 191/2/4 192/2/4 101/2/4
f 190/2/4 191/2/4 101/2/4
f 192/2/4 233/2/4 101/2/4
f 189/2/4 79/2/4 101/2/4
f 101/2/4 233/2/4 195/2/4
f 196/2/4 197/2/4 202/2/4
f 197/3/4 198/3/4 202/3/4
f 198/2/4 199/2/4 203/2/4
f 202/3/4 198/3/4 203/3/4
f 199/1/4 200/1/4 204/1/4
f 203/2/4 199/2/4 204/2/4
f 200/2/4 201/2/4 205/2/4
f 204/1/4 200/1/4 205/1/4
f 203/2/4 204/2/4 206/2/4
f 202/2/4 203/2/4 206/2/4
f 204/2/4 205/2/4 206/2/4
f 205/2/4 201/2/4 207/2/4
f 206/2/4 205/2/4 207/2/4
f 202/2/4 206/2/4 76/2/4
f 196/2/4 202/2/4 76/2/4
f 206/1/4 207/1/4 208/1/4
f 76/2/4 206/2/4 208/2/4
f 207/2/4 201/2/4 77/2/4
f 208/1/4 207/1/4 77/1/4
f 77/2/4 201/2/4 80/2/4
f 209/2/5 65/2/5 123/2/5
f 66/2/5 65/2/5 209/2/5
f 210/2/5 209/2/5 123/2/5
f 211/2/5 209/2/5 210/2/5
f 212/3/5 211/3/5 210/3/5
f 172/2/5 209/2/5 211/2/5
f 172/3/5 211/3/5 212/3/5
f 179/1/5 66/1/5 209/1/5
f 179/2/5 209/2/5 172/2/5
f 185/1/5 66/1/5 179/1/5
f 126/1/5 115/1/5 109/1/5
f 214/2/5 119/2/5 115/2/5
f 214/1/5 115/1/5 126/1/5
f 143/2/5 119/2/5 214/2/5
f 1/1/5 126/1/5 213/1/5
f 50/1/5 126/1/5 1/1/5
f 72/2/5 147/2/5 143/2/5
f 90/2/5 147/2/5 72/2/5
f 73/3/5 90/3/5 72/3/5
f 215/3/5 90/3/5 73/3/5
f 2/2/5 50/2/5 1/2/5
f 216/2/5 50/2/5 2/2/5
f 74/2/5 215/2/5 73/2/5
f 3/1/5 216/1/5 2/1/5
f 217/1/5 216/1/5 3/1/5
f 75/2/5 215/2/5 74/2/5
f 218/2/5 217/2/5 3/2/5
f 219/2/5 217/2/5 218/2/5
f 187/2/5 215/2/5 75/2/5
f 193/2/5 215/2/5 187/2/5
f 196/2/5 182/2/5 219/2/5
f 196/2/5 187/2/5 182/2/5
f 76/2/5 187/2/5 196/2/5
f 220/3/6 221/3/6 222/3/6
f 221/2/6 120/2/6 131/2/6
f 222/3/6 221/3/6 131/3/6
f 131/2/6 120/2/6 223/2/6
f 28/2/6 156/2/6 55/2/6
f 224/3/6 107/3/6 78/3/6
f 78/3/6 107/3/6 225/3/6
f 28/2/6 55/2/6 226/2/6
f 226/2/6 55/2/6 56/2/6
f 78/2/6 225/2/6 227/2/6
f 226/3/6 56/3/6 148/3/6
f 148/3/6 56/3/6 150/3/6
f 227/2/6 225/2/6 153/2/6
f 153/2/6 225/2/6 108/2/6
f 228/2/6 174/2/6 201/2/6
f 174/2/6 79/2/6 201/2/6
f 201/2/6 79/2/6 80/2/6
f 122/2/6 130/2/6 230/2/6
f 230/2/6 130/2/6 231/2/6
f 86/2/6 229/2/6 87/2/6
f 87/2/6 229/2/6 160/2/6
f 231/2/6 87/2/6 64/2/6
f 64/2/6 87/2/6 154/2/6
f 149/3/6 64/3/6 164/3/6
f 164/3/6 64/3/6 232/3/6
f 154/2/6 155/2/6 233/2/6
f 233/2/6 155/2/6 195/2/6
f 234/2/6 88/2/6 235/2/6
f 235/2/6 88/2/6 236/2/6
f 237/2/6 89/2/6 238/2/6
f 238/2/6 89/2/6 239/2/6
