# Blender 4.0.2
# www.blender.org
mtllib head.001.mtl
o head.001
v 0.200000 3.700000 0.300000
v 0.100000 3.700000 0.300000
v -0.100000 3.700000 0.300000
v 0.100000 3.799999 0.300000
v -0.100000 3.799999 0.300000
v 0.200000 3.900000 0.300000
v 0.100000 3.900000 0.300000
v -0.100000 3.900000 0.300000
v -0.200000 3.900000 0.300000
v 0.100000 4.000000 0.300000
v -0.100000 4.000000 0.300000
v 0.200000 4.099999 0.300000
v -0.200000 4.099999 0.300000
v 0.300000 3.700000 0.200000
v 0.200000 3.700000 0.200000
v -0.200000 3.700000 0.200000
v 0.200000 3.799999 0.200000
v -0.200000 3.799999 0.200000
v -0.300000 3.799999 0.200000
v 0.200000 3.900000 0.200000
v -0.200000 3.900000 0.200000
v 0.200000 4.000000 0.200000
v 0.300000 4.099999 0.200000
v 0.199999 4.199999 0.200000
v -0.200000 4.199999 0.200000
v 0.199999 4.300000 0.200000
v 0.300000 4.199999 0.100000
v -0.200000 4.199999 0.100000
v -0.300000 4.199999 0.100000
v 0.100000 3.500000 -0.100000
v -0.100000 3.599999 -0.100000
v 0.300000 3.700000 -0.100000
v 0.100000 3.700000 -0.100000
v -0.300000 3.700000 -0.100000
v 0.200000 3.799999 -0.100000
v 0.199999 4.099999 -0.100000
v -0.200000 4.099999 -0.100000
v 0.199999 4.199999 -0.100000
v -0.100000 3.599999 -0.200000
v -0.200000 3.700000 -0.200000
v 0.300000 3.799999 -0.200000
v -0.200000 3.799999 -0.200000
v 0.100000 4.000000 -0.200000
v -0.100000 4.000000 -0.200000
v 0.300000 4.099999 -0.200000
v -0.200000 4.099999 -0.200000
v -0.100000 3.700000 -0.300000
v -0.100000 4.000000 -0.300000
v 0.300000 3.799999 0.200000
v 0.300000 4.000000 0.200000
v 0.300000 3.799999 0.100000
v 0.300000 4.000000 0.100000
v 0.300000 3.900000 -0.000000
v 0.300000 4.099999 -0.000000
v 0.300000 3.799999 -0.100000
v 0.300000 3.900000 -0.100000
v 0.300000 4.099999 -0.100000
v 0.200000 4.000000 0.300000
v 0.200000 3.700000 0.100000
v 0.200000 4.099999 0.100000
v 0.200000 3.599999 -0.100000
v 0.200000 3.700000 -0.100000
v 0.199999 4.300000 -0.100000
v 0.200000 3.799999 -0.200000
v 0.199999 4.099999 -0.200000
v 0.199999 4.199999 -0.200000
v 0.100000 3.500000 0.300000
v 0.100000 3.599999 0.100000
v 0.100000 3.700000 -0.200000
v 0.100000 4.000000 -0.300000
v -0.100000 3.500000 0.100000
v -0.100000 3.599999 0.100000
v -0.100000 3.500000 -0.100000
v -0.200000 3.700000 0.300000
v -0.200000 4.000000 0.300000
v -0.200000 4.000000 0.200000
v -0.200000 3.599999 -0.100000
v -0.200000 3.799999 -0.100000
v -0.200000 4.300000 -0.100000
v -0.300000 3.700000 0.200000
v -0.300000 4.000000 0.200000
v -0.300000 3.799999 0.100000
v -0.300000 4.000000 0.100000
v -0.300000 4.099999 0.100000
v -0.300000 3.900000 0.000000
v -0.300000 4.099999 0.000000
v -0.300000 3.799999 -0.100000
v -0.300000 3.900000 -0.100000
v -0.300001 4.099999 -0.100000
v -0.300001 4.199999 -0.100000
v -0.300000 3.799999 -0.200000
v -0.300001 4.099999 -0.200000
v 0.100000 3.500000 0.100000
v -0.100000 3.500000 0.300000
v 0.200000 3.599999 0.300000
v 0.200000 3.599999 0.100000
v 0.100000 3.599999 0.300000
v 0.100000 3.599999 -0.100000
v 0.100000 3.599999 -0.200000
v -0.100000 3.599999 0.300000
v -0.200000 3.599999 0.300000
v -0.200000 3.599999 0.100000
v 0.300000 3.700000 0.100000
v 0.200000 3.700000 -0.200000
v 0.100000 3.700000 -0.300000
v -0.100000 3.700000 -0.100000
v -0.100000 3.700000 -0.200000
v -0.200000 3.700000 0.100000
v -0.200000 3.700000 -0.100000
v -0.300000 3.700000 0.100000
v 0.300000 4.099999 0.100000
v 0.200000 4.099999 0.200000
v -0.200000 4.099999 0.200000
v -0.200000 4.099999 0.100000
v -0.300000 4.099999 0.200000
v 0.300000 4.199999 -0.100000
v 0.199999 4.199999 0.100000
v -0.200000 4.199999 -0.100000
v -0.200000 4.199999 -0.200000
v -0.200000 4.300000 0.200000
vn -0.0000 -0.0000 1.0000
vn -0.0000 -0.0000 -1.0000
vn 1.0000 -0.0000 -0.0000
vn -1.0000 -0.0000 -0.0000
vn -0.0000 -1.0000 -0.0000
vn -0.0000 1.0000 -0.0000
vt 0.994141 0.500000
vt 0.033203 0.500000
vt 0.060547 0.500000
vt 0.873047 0.500000
s 0
usemtl palette.021
f 97/1/1 94/1/1 67/1/1
f 100/1/1 94/1/1 97/1/1
f 1/1/1 97/1/1 95/1/1
f 1/1/1 101/1/1 100/1/1
f 1/1/1 100/1/1 97/1/1
f 2/1/1 101/1/1 1/1/1
f 3/1/1 101/1/1 2/1/1
f 74/1/1 101/1/1 3/1/1
f 4/2/1 2/2/1 1/2/1
f 4/3/1 3/3/1 2/3/1
f 5/2/1 74/2/1 3/2/1
f 5/3/1 3/3/1 4/3/1
f 6/2/1 4/2/1 1/2/1
f 6/2/1 5/2/1 4/2/1
f 7/2/1 5/2/1 6/2/1
f 8/2/1 74/2/1 5/2/1
f 8/2/1 5/2/1 7/2/1
f 9/2/1 74/2/1 8/2/1
f 58/4/1 7/4/1 6/4/1
f 10/2/1 8/2/1 7/2/1
f 10/4/1 7/4/1 58/4/1
f 11/4/1 9/4/1 8/4/1
f 11/2/1 8/2/1 10/2/1
f 75/4/1 9/4/1 11/4/1
f 12/1/1 10/1/1 58/1/1
f 12/1/1 11/1/1 10/1/1
f 12/1/1 75/1/1 11/1/1
f 13/1/1 75/1/1 12/1/1
f 49/1/1 15/1/1 14/1/1
f 17/1/1 15/1/1 49/1/1
f 18/1/1 80/1/1 16/1/1
f 19/1/1 80/1/1 18/1/1
f 20/2/1 17/2/1 49/2/1
f 21/2/1 19/2/1 18/2/1
f 50/2/1 20/2/1 49/2/1
f 22/2/1 20/2/1 50/2/1
f 76/2/1 19/2/1 21/2/1
f 81/2/1 19/2/1 76/2/1
f 23/1/1 22/1/1 50/1/1
f 112/1/1 22/1/1 23/1/1
f 113/1/1 81/1/1 76/1/1
f 115/1/1 81/1/1 113/1/1
f 24/2/1 113/2/1 112/2/1
f 25/2/1 113/2/1 24/2/1
f 26/1/1 25/1/1 24/1/1
f 120/1/1 25/1/1 26/1/1
f 27/1/1 60/1/1 111/1/1
f 117/1/1 60/1/1 27/1/1
f 28/1/1 84/1/1 114/1/1
f 29/1/1 84/1/1 28/1/1
f 30/2/2 73/2/2 98/2/2
f 98/2/2 73/2/2 31/2/2
f 61/2/2 98/2/2 62/2/2
f 62/2/2 98/2/2 33/2/2
f 31/2/2 77/2/2 106/2/2
f 106/2/2 77/2/2 109/2/2
f 32/2/2 62/2/2 55/2/2
f 55/2/2 62/2/2 35/2/2
f 109/2/2 34/2/2 78/2/2
f 78/2/2 34/2/2 87/2/2
f 57/1/2 36/1/2 116/1/2
f 116/1/2 36/1/2 38/1/2
f 37/1/2 89/1/2 118/1/2
f 118/1/2 89/1/2 90/1/2
f 38/1/2 118/1/2 63/1/2
f 63/1/2 118/1/2 79/1/2
f 99/2/2 39/2/2 69/2/2
f 69/2/2 39/2/2 107/2/2
f 104/1/2 69/1/2 64/1/2
f 107/1/2 40/1/2 42/1/2
f 41/1/2 64/1/2 43/1/2
f 64/1/2 69/1/2 43/1/2
f 42/1/2 91/1/2 44/1/2
f 107/1/2 42/1/2 44/1/2
f 41/1/2 43/1/2 45/1/2
f 43/1/2 44/1/2 45/1/2
f 45/1/2 44/1/2 65/1/2
f 44/1/2 91/1/2 46/1/2
f 65/1/2 44/1/2 46/1/2
f 46/1/2 91/1/2 92/1/2
f 65/1/2 46/1/2 66/1/2
f 66/1/2 46/1/2 119/1/2
f 105/1/2 47/1/2 70/1/2
f 70/1/2 47/1/2 48/1/2
f 103/1/3 49/1/3 14/1/3
f 51/2/3 50/2/3 49/2/3
f 51/1/3 49/1/3 103/1/3
f 52/1/3 23/1/3 50/1/3
f 52/2/3 50/2/3 51/2/3
f 111/1/3 23/1/3 52/1/3
f 53/2/3 51/2/3 103/2/3
f 53/2/3 52/2/3 51/2/3
f 53/2/3 111/2/3 52/2/3
f 54/1/3 27/1/3 111/1/3
f 54/2/3 111/2/3 53/2/3
f 32/2/3 53/2/3 103/2/3
f 55/2/3 53/2/3 32/2/3
f 56/1/3 54/1/3 53/1/3
f 56/2/3 53/2/3 55/2/3
f 57/1/3 27/1/3 54/1/3
f 57/1/3 54/1/3 56/1/3
f 116/1/3 27/1/3 57/1/3
f 41/1/3 56/1/3 55/1/3
f 41/1/3 57/1/3 56/1/3
f 45/1/3 57/1/3 41/1/3
f 15/1/3 1/1/3 95/1/3
f 15/2/3 6/2/3 1/2/3
f 17/2/3 6/2/3 15/2/3
f 20/4/3 58/4/3 6/4/3
f 20/2/3 6/2/3 17/2/3
f 22/1/3 12/1/3 58/1/3
f 22/4/3 58/4/3 20/4/3
f 112/1/3 12/1/3 22/1/3
f 96/1/3 15/1/3 95/1/3
f 59/1/3 15/1/3 96/1/3
f 60/2/3 24/2/3 112/2/3
f 117/1/3 26/1/3 24/1/3
f 117/2/3 24/2/3 60/2/3
f 61/2/3 59/2/3 96/2/3
f 62/2/3 59/2/3 61/2/3
f 38/1/3 26/1/3 117/1/3
f 63/1/3 26/1/3 38/1/3
f 104/1/3 35/1/3 62/1/3
f 64/1/3 35/1/3 104/1/3
f 65/1/3 38/1/3 36/1/3
f 66/1/3 38/1/3 65/1/3
f 93/1/3 97/1/3 67/1/3
f 68/1/3 97/1/3 93/1/3
f 30/2/3 68/2/3 93/2/3
f 98/2/3 68/2/3 30/2/3
f 99/2/3 33/2/3 98/2/3
f 69/2/3 33/2/3 99/2/3
f 105/1/3 43/1/3 69/1/3
f 70/1/3 43/1/3 105/1/3
f 94/1/4 100/1/4 71/1/4
f 71/1/4 100/1/4 72/1/4
f 71/2/4 72/2/4 73/2/4
f 73/2/4 72/2/4 31/2/4
f 31/2/4 106/2/4 39/2/4
f 39/2/4 106/2/4 107/2/4
f 107/1/4 44/1/4 47/1/4
f 47/1/4 44/1/4 48/1/4
f 101/1/4 74/1/4 16/1/4
f 74/2/4 9/2/4 16/2/4
f 16/2/4 9/2/4 18/2/4
f 9/4/4 75/4/4 21/4/4
f 18/2/4 9/2/4 21/2/4
f 75/1/4 13/1/4 76/1/4
f 21/4/4 75/4/4 76/4/4
f 76/1/4 13/1/4 113/1/4
f 101/1/4 16/1/4 102/1/4
f 102/1/4 16/1/4 108/1/4
f 113/2/4 25/2/4 114/2/4
f 25/1/4 120/1/4 28/1/4
f 114/2/4 25/2/4 28/2/4
f 102/2/4 108/2/4 77/2/4
f 77/2/4 108/2/4 109/2/4
f 28/1/4 120/1/4 118/1/4
f 118/1/4 120/1/4 79/1/4
f 109/1/4 78/1/4 40/1/4
f 40/1/4 78/1/4 42/1/4
f 37/1/4 118/1/4 46/1/4
f 46/1/4 118/1/4 119/1/4
f 80/1/4 19/1/4 110/1/4
f 19/2/4 81/2/4 82/2/4
f 110/1/4 19/1/4 82/1/4
f 81/1/4 115/1/4 83/1/4
f 82/2/4 81/2/4 83/2/4
f 83/1/4 115/1/4 84/1/4
f 110/2/4 82/2/4 85/2/4
f 82/2/4 83/2/4 85/2/4
f 83/2/4 84/2/4 85/2/4
f 84/1/4 29/1/4 86/1/4
f 85/2/4 84/2/4 86/2/4
f 110/2/4 85/2/4 34/2/4
f 34/2/4 85/2/4 87/2/4
f 85/1/4 86/1/4 88/1/4
f 87/2/4 85/2/4 88/2/4
f 86/1/4 29/1/4 89/1/4
f 88/1/4 86/1/4 89/1/4
f 89/1/4 29/1/4 90/1/4
f 87/1/4 88/1/4 91/1/4
f 88/1/4 89/1/4 91/1/4
f 91/1/4 89/1/4 92/1/4
f 94/1/5 93/1/5 67/1/5
f 71/2/5 30/2/5 93/2/5
f 71/1/5 93/1/5 94/1/5
f 73/2/5 30/2/5 71/2/5
f 97/1/5 96/1/5 95/1/5
f 68/2/5 61/2/5 96/2/5
f 68/1/5 96/1/5 97/1/5
f 98/2/5 61/2/5 68/2/5
f 31/2/5 99/2/5 98/2/5
f 39/2/5 99/2/5 31/2/5
f 101/1/5 72/1/5 100/1/5
f 102/2/5 31/2/5 72/2/5
f 102/1/5 72/1/5 101/1/5
f 77/2/5 31/2/5 102/2/5
f 15/1/5 103/1/5 14/1/5
f 59/2/5 32/2/5 103/2/5
f 59/1/5 103/1/5 15/1/5
f 62/2/5 32/2/5 59/2/5
f 33/1/5 104/1/5 62/1/5
f 69/1/5 104/1/5 33/1/5
f 107/1/5 105/1/5 69/1/5
f 47/1/5 105/1/5 107/1/5
f 109/1/5 107/1/5 106/1/5
f 40/1/5 107/1/5 109/1/5
f 80/1/5 108/1/5 16/1/5
f 110/2/5 109/2/5 108/2/5
f 110/1/5 108/1/5 80/1/5
f 34/2/5 109/2/5 110/2/5
f 35/1/5 41/1/5 55/1/5
f 64/1/5 41/1/5 35/1/5
f 87/1/5 42/1/5 78/1/5
f 91/1/5 42/1/5 87/1/5
f 43/1/6 70/1/6 44/1/6
f 44/1/6 70/1/6 48/1/6
f 23/1/6 111/1/6 112/1/6
f 112/1/6 111/1/6 60/1/6
f 57/1/6 45/1/6 36/1/6
f 36/1/6 45/1/6 65/1/6
f 12/1/6 112/1/6 13/1/6
f 13/1/6 112/1/6 113/1/6
f 113/1/6 114/1/6 115/1/6
f 115/1/6 114/1/6 84/1/6
f 37/1/6 46/1/6 89/1/6
f 89/1/6 46/1/6 92/1/6
f 27/1/6 116/1/6 117/1/6
f 117/1/6 116/1/6 38/1/6
f 38/1/6 66/1/6 118/1/6
f 118/1/6 66/1/6 119/1/6
f 28/1/6 118/1/6 29/1/6
f 29/1/6 118/1/6 90/1/6
f 26/1/6 63/1/6 120/1/6
f 120/1/6 63/1/6 79/1/6
