# Blender 4.0.2
# www.blender.org
mtllib shinL.001.mtl
o shinL.001
v 0.300000 -0.000000 0.200000
v 0.300000 0.100000 0.100000
v 0.200000 0.599999 0.100000
v 0.300000 0.699999 0.100000
v 0.200000 0.699999 0.100000
v 0.300000 0.899999 0.100000
v 0.200000 0.899999 0.100000
v 0.300000 0.999999 0.100000
v 0.200000 0.999999 0.100000
v 0.300000 -0.000000 -0.100000
v 0.300000 0.400000 -0.100000
v 0.100000 0.399999 -0.100000
v 0.300000 0.500000 -0.100000
v 0.200000 0.500000 -0.100000
v 0.200000 0.599999 -0.100000
v 0.200000 0.699999 -0.100000
v 0.100000 0.699999 -0.100000
v 0.200000 0.799999 -0.100000
v 0.200000 0.899999 -0.100000
v 0.200000 0.999999 -0.100000
v 0.300000 1.100000 -0.100000
v 0.300000 0.400000 0.100000
v 0.300000 0.599999 0.100000
v 0.300000 1.100000 0.100000
v 0.300000 0.500000 -0.000000
v 0.300000 0.599999 -0.000000
v 0.300000 0.699999 -0.000000
v 0.300000 0.899999 -0.000000
v 0.300000 0.999999 -0.000000
v 0.300000 0.599999 -0.100000
v 0.300000 0.899999 -0.100000
v 0.300000 0.999999 -0.100000
v 0.100000 -0.000000 0.200000
v 0.100000 0.100000 0.200000
v 0.100000 0.100000 0.100000
v 0.100000 0.399999 0.100000
v 0.100000 1.100000 0.100000
v 0.100000 0.699999 -0.000000
v 0.100000 0.799999 -0.000000
v 0.100000 -0.000000 -0.100000
v 0.100000 0.799999 -0.100000
v 0.100000 1.100000 -0.100000
v 0.300000 0.100000 0.200000
vn -0.0000 -0.0000 1.0000
vn -0.0000 -0.0000 -1.0000
vn 1.0000 -0.0000 -0.0000
vn -1.0000 -0.0000 -0.0000
vn -0.0000 -1.0000 -0.0000
vn -0.0000 1.0000 -0.0000
vt 0.990234 0.500000
vt 0.369141 0.500000
vt 0.373047 0.500000
vt 0.341797 0.500000
s 0
usemtl palette.014
f 43/1/1 33/1/1 1/1/1
f 34/1/1 33/1/1 43/1/1
f 22/1/1 35/1/1 2/1/1
f 36/1/1 35/1/1 22/1/1
f 23/2/1 36/2/1 22/2/1
f 3/2/1 36/2/1 23/2/1
f 4/3/1 3/3/1 23/3/1
f 5/2/1 36/2/1 3/2/1
f 5/3/1 3/3/1 4/3/1
f 6/2/1 5/2/1 4/2/1
f 7/2/1 36/2/1 5/2/1
f 7/2/1 5/2/1 6/2/1
f 8/4/1 7/4/1 6/4/1
f 9/2/1 36/2/1 7/2/1
f 9/4/1 7/4/1 8/4/1
f 24/2/1 9/2/1 8/2/1
f 37/2/1 36/2/1 9/2/1
f 37/2/1 9/2/1 24/2/1
f 10/1/2 40/1/2 11/1/2
f 11/1/2 40/1/2 12/1/2
f 11/2/2 12/2/2 13/2/2
f 13/2/2 12/2/2 14/2/2
f 13/3/2 14/3/2 30/3/2
f 14/2/2 12/2/2 15/2/2
f 30/3/2 14/3/2 15/3/2
f 30/2/2 15/2/2 16/2/2
f 15/2/2 12/2/2 16/2/2
f 16/2/2 12/2/2 17/2/2
f 30/2/2 16/2/2 18/2/2
f 16/4/2 17/4/2 18/4/2
f 18/4/2 17/4/2 41/4/2
f 30/2/2 18/2/2 31/2/2
f 18/2/2 41/2/2 31/2/2
f 31/2/2 41/2/2 19/2/2
f 31/3/2 19/3/2 32/3/2
f 19/2/2 41/2/2 20/2/2
f 32/3/2 19/3/2 20/3/2
f 32/2/2 20/2/2 21/2/2
f 20/2/2 41/2/2 42/2/2
f 21/2/2 20/2/2 42/2/2
f 2/1/3 43/1/3 1/1/3
f 25/2/3 23/2/3 22/2/3
f 26/3/3 4/3/3 23/3/3
f 26/2/3 23/2/3 25/2/3
f 27/2/3 6/2/3 4/2/3
f 27/3/3 4/3/3 26/3/3
f 28/4/3 8/4/3 6/4/3
f 28/2/3 6/2/3 27/2/3
f 29/2/3 24/2/3 8/2/3
f 29/4/3 8/4/3 28/4/3
f 10/1/3 2/1/3 1/1/3
f 10/1/3 22/1/3 2/1/3
f 11/2/3 25/2/3 22/2/3
f 11/1/3 22/1/3 10/1/3
f 13/3/3 26/3/3 25/3/3
f 13/2/3 25/2/3 11/2/3
f 30/2/3 28/2/3 27/2/3
f 30/3/3 26/3/3 13/3/3
f 30/2/3 27/2/3 26/2/3
f 31/3/3 29/3/3 28/3/3
f 31/2/3 28/2/3 30/2/3
f 32/2/3 24/2/3 29/2/3
f 32/3/3 29/3/3 31/3/3
f 21/2/3 24/2/3 32/2/3
f 33/1/4 34/1/4 35/1/4
f 36/2/4 37/2/4 38/2/4
f 38/2/4 37/2/4 39/2/4
f 33/1/4 35/1/4 40/1/4
f 35/1/4 36/1/4 40/1/4
f 36/2/4 38/2/4 12/2/4
f 40/1/4 36/1/4 12/1/4
f 38/4/4 39/4/4 17/4/4
f 12/2/4 38/2/4 17/2/4
f 39/2/4 37/2/4 41/2/4
f 17/4/4 39/4/4 41/4/4
f 41/2/4 37/2/4 42/2/4
f 33/1/5 10/1/5 1/1/5
f 40/1/5 10/1/5 33/1/5
f 43/1/6 2/1/6 34/1/6
f 34/1/6 2/1/6 35/1/6
f 24/2/6 21/2/6 37/2/6
f 37/2/6 21/2/6 42/2/6
