# Blender 4.0.2
# www.blender.org
mtllib shinR.001.mtl
o shinR.001
v -0.100000 -0.000000 0.200000
v -0.300000 0.100000 0.200000
v -0.100000 0.100000 0.100000
v -0.300000 0.100000 0.100000
v -0.300000 0.399999 0.100000
v -0.100000 0.500000 0.100000
v -0.300000 0.599999 0.100000
v -0.100000 0.699999 0.100000
v -0.200000 0.699999 0.100000
v -0.200000 0.799999 0.100000
v -0.100000 -0.000000 -0.100000
v -0.300000 0.399999 -0.100000
v -0.300000 1.100000 -0.100000
v -0.100000 0.399999 0.100000
v -0.100000 0.599999 0.100000
v -0.100000 0.799999 0.100000
v -0.100000 1.100000 0.100000
v -0.100000 0.500000 0.000000
v -0.100000 0.599999 0.000000
v -0.100000 0.699999 0.000000
v -0.100000 0.799999 0.000000
v -0.100000 0.399999 -0.100000
v -0.100000 1.100000 -0.100000
v -0.300000 0.500000 0.100000
v -0.300000 1.100000 0.100000
v -0.300000 0.500000 0.000000
v -0.300000 0.599999 0.000000
v -0.300000 -0.000000 -0.100000
v -0.300000 -0.000000 0.200000
v -0.100000 0.100000 0.200000
vn -0.0000 -0.0000 1.0000
vn -0.0000 -0.0000 -1.0000
vn 1.0000 -0.0000 -0.0000
vn -1.0000 -0.0000 -0.0000
vn -0.0000 -1.0000 -0.0000
vn -0.0000 1.0000 -0.0000
vt 0.990234 0.500000
vt 0.369141 0.500000
vt 0.341797 0.500000
vt 0.373047 0.500000
s 0
usemtl palette.018
f 30/1/1 29/1/1 1/1/1
f 2/1/1 29/1/1 30/1/1
f 14/1/1 4/1/1 3/1/1
f 5/1/1 4/1/1 14/1/1
f 6/2/1 5/2/1 14/2/1
f 24/2/1 5/2/1 6/2/1
f 15/3/1 24/3/1 6/3/1
f 7/3/1 24/3/1 15/3/1
f 8/2/1 7/2/1 15/2/1
f 9/2/1 7/2/1 8/2/1
f 16/4/1 9/4/1 8/4/1
f 10/2/1 7/2/1 9/2/1
f 10/4/1 9/4/1 16/4/1
f 17/2/1 10/2/1 16/2/1
f 25/2/1 7/2/1 10/2/1
f 25/2/1 10/2/1 17/2/1
f 11/1/2 28/1/2 22/1/2
f 22/1/2 28/1/2 12/1/2
f 22/2/2 12/2/2 23/2/2
f 23/2/2 12/2/2 13/2/2
f 3/1/3 30/1/3 1/1/3
f 18/2/3 6/2/3 14/2/3
f 18/3/3 15/3/3 6/3/3
f 19/2/3 8/2/3 15/2/3
f 19/3/3 15/3/3 18/3/3
f 20/4/3 16/4/3 8/4/3
f 20/2/3 8/2/3 19/2/3
f 21/2/3 17/2/3 16/2/3
f 21/4/3 16/4/3 20/4/3
f 11/1/3 3/1/3 1/1/3
f 11/1/3 14/1/3 3/1/3
f 22/2/3 21/2/3 20/2/3
f 22/1/3 14/1/3 11/1/3
f 22/2/3 20/2/3 19/2/3
f 22/2/3 18/2/3 14/2/3
f 22/2/3 19/2/3 18/2/3
f 23/2/3 17/2/3 21/2/3
f 23/2/3 21/2/3 22/2/3
f 29/1/4 2/1/4 4/1/4
f 5/2/4 24/2/4 26/2/4
f 24/3/4 7/3/4 26/3/4
f 7/2/4 25/2/4 27/2/4
f 26/3/4 7/3/4 27/3/4
f 29/1/4 4/1/4 28/1/4
f 4/1/4 5/1/4 28/1/4
f 26/2/4 27/2/4 12/2/4
f 28/1/4 5/1/4 12/1/4
f 5/2/4 26/2/4 12/2/4
f 27/2/4 25/2/4 13/2/4
f 12/2/4 27/2/4 13/2/4
f 29/1/5 11/1/5 1/1/5
f 28/1/5 11/1/5 29/1/5
f 30/1/6 3/1/6 2/1/6
f 2/1/6 3/1/6 4/1/6
f 17/2/6 23/2/6 25/2/6
f 25/2/6 23/2/6 13/2/6
