# Blender 4.0.2
# www.blender.org
mtllib thighL.001.mtl
o thighL.001
v 0.300000 1.100000 0.100000
v 0.100000 1.100000 0.100000
v 0.200000 1.399999 0.100000
v 0.300000 1.500000 0.100000
v 0.200000 1.500000 0.100000
v 0.100000 1.500000 0.100000
v 0.200000 1.600000 0.100000
v 0.100000 2.000000 0.100000
v 0.100000 1.100000 -0.100000
v 0.200000 1.299999 -0.100000
v 0.200000 1.399999 -0.100000
v 0.200000 1.700000 -0.100000
v 0.200000 1.799999 -0.100000
v 0.300000 1.399999 0.100000
v 0.300000 1.399999 -0.000000
v 0.300000 1.500000 -0.000000
v 0.300000 1.700000 -0.000000
v 0.300000 1.799999 -0.000000
v 0.300000 1.100000 -0.100000
v 0.300000 1.700000 -0.100000
v 0.300000 1.799999 -0.100000
v 0.300000 2.000000 -0.100000
v 0.100000 1.600000 0.100000
v 0.100000 1.299999 -0.000000
v 0.100000 1.399999 -0.000000
v 0.100000 1.500000 -0.000000
v 0.100000 1.600000 -0.000000
v 0.100000 1.299999 -0.100000
v 0.100000 1.399999 -0.100000
v 0.300000 2.000000 0.100000
v 0.100000 2.000000 -0.100000
vn -0.0000 -0.0000 1.0000
vn -0.0000 -0.0000 -1.0000
vn 1.0000 -0.0000 -0.0000
vn -1.0000 -0.0000 -0.0000
vn -0.0000 -1.0000 -0.0000
vn -0.0000 1.0000 -0.0000
vt 0.369141 0.500000
vt 0.373047 0.500000
vt 0.341797 0.500000
s 0
usemtl palette.012
f 14/1/1 2/1/1 1/1/1
f 3/1/1 2/1/1 14/1/1
f 4/2/1 3/2/1 14/2/1
f 5/1/1 2/1/1 3/1/1
f 5/2/1 3/2/1 4/2/1
f 6/1/1 2/1/1 5/1/1
f 7/1/1 5/1/1 4/1/1
f 7/3/1 6/3/1 5/3/1
f 23/3/1 6/3/1 7/3/1
f 30/1/1 7/1/1 4/1/1
f 30/1/1 23/1/1 7/1/1
f 8/1/1 23/1/1 30/1/1
f 19/1/2 9/1/2 10/1/2
f 10/1/2 9/1/2 28/1/2
f 19/1/2 10/1/2 11/1/2
f 10/2/2 28/2/2 11/2/2
f 11/2/2 28/2/2 29/2/2
f 19/1/2 11/1/2 20/1/2
f 11/1/2 29/1/2 20/1/2
f 20/1/2 29/1/2 12/1/2
f 20/3/2 12/3/2 21/3/2
f 12/1/2 29/1/2 13/1/2
f 21/3/2 12/3/2 13/3/2
f 21/1/2 13/1/2 22/1/2
f 13/1/2 29/1/2 31/1/2
f 22/1/2 13/1/2 31/1/2
f 15/1/3 14/1/3 1/1/3
f 15/2/3 4/2/3 14/2/3
f 16/1/3 30/1/3 4/1/3
f 16/2/3 4/2/3 15/2/3
f 17/1/3 30/1/3 16/1/3
f 18/1/3 30/1/3 17/1/3
f 19/1/3 15/1/3 1/1/3
f 19/1/3 16/1/3 15/1/3
f 19/1/3 17/1/3 16/1/3
f 20/3/3 18/3/3 17/3/3
f 20/1/3 17/1/3 19/1/3
f 21/1/3 30/1/3 18/1/3
f 21/3/3 18/3/3 20/3/3
f 22/1/3 30/1/3 21/1/3
f 2/1/4 6/1/4 24/1/4
f 24/1/4 6/1/4 25/1/4
f 6/3/4 23/3/4 26/3/4
f 25/1/4 6/1/4 26/1/4
f 23/1/4 8/1/4 27/1/4
f 26/3/4 23/3/4 27/3/4
f 2/1/4 24/1/4 9/1/4
f 24/2/4 25/2/4 28/2/4
f 9/1/4 24/1/4 28/1/4
f 25/1/4 26/1/4 29/1/4
f 28/2/4 25/2/4 29/2/4
f 26/1/4 27/1/4 29/1/4
f 27/1/4 8/1/4 31/1/4
f 29/1/4 27/1/4 31/1/4
f 2/1/5 19/1/5 1/1/5
f 9/1/5 19/1/5 2/1/5
f 30/1/6 22/1/6 8/1/6
f 8/1/6 22/1/6 31/1/6
