# Blender 4.0.2
# www.blender.org
mtllib upper_armR.001.mtl
o upper_armR.001
v -0.600000 2.599999 0.100000
v -0.400000 2.700000 0.100000
v -0.500000 2.700000 0.100000
v -0.600000 3.400000 0.100000
v -0.400000 2.599999 -0.100000
v -0.500000 2.799999 -0.100000
v -0.500000 2.900000 -0.100000
v -0.400000 3.099999 -0.100000
v -0.500000 3.099999 -0.100000
v -0.400000 3.200000 -0.100000
v -0.500000 3.200000 -0.100000
v -0.400000 3.400000 -0.100000
v -0.600000 3.400000 -0.100000
v -0.400000 2.599999 0.000000
v -0.400000 2.700000 0.000000
v -0.400000 3.099999 0.000000
v -0.400000 3.200000 0.000000
v -0.600000 2.799999 0.000000
v -0.600000 2.900000 0.000000
v -0.600000 2.599999 -0.100000
v -0.600000 2.799999 -0.100000
v -0.600000 2.900000 -0.100000
v -0.400000 2.599999 0.100000
v -0.500000 2.599999 0.100000
v -0.500000 2.599999 0.000000
v -0.400000 3.400000 0.100000
vn -0.0000 -0.0000 1.0000
vn -0.0000 -0.0000 -1.0000
vn 1.0000 -0.0000 -0.0000
vn -1.0000 -0.0000 -0.0000
vn -0.0000 -1.0000 -0.0000
vn -0.0000 1.0000 -0.0000
vt 0.341797 0.500000
vt 0.369141 0.500000
s 0
usemtl palette.017
f 2/1/1 24/1/1 23/1/1
f 3/2/1 1/2/1 24/2/1
f 3/1/1 24/1/1 2/1/1
f 26/2/1 3/2/1 2/2/1
f 4/2/1 1/2/1 3/2/1
f 4/2/1 3/2/1 26/2/1
f 5/2/2 20/2/2 6/2/2
f 6/2/2 20/2/2 21/2/2
f 5/2/2 6/2/2 7/2/2
f 6/1/2 21/1/2 7/1/2
f 7/1/2 21/1/2 22/1/2
f 5/2/2 7/2/2 8/2/2
f 7/2/2 22/2/2 8/2/2
f 8/2/2 22/2/2 9/2/2
f 8/1/2 9/1/2 10/1/2
f 9/2/2 22/2/2 11/2/2
f 10/1/2 9/1/2 11/1/2
f 10/2/2 11/2/2 12/2/2
f 11/2/2 22/2/2 13/2/2
f 12/2/2 11/2/2 13/2/2
f 14/1/3 2/1/3 23/1/3
f 15/2/3 26/2/3 2/2/3
f 15/1/3 2/1/3 14/1/3
f 16/2/3 26/2/3 15/2/3
f 17/2/3 26/2/3 16/2/3
f 5/2/3 15/2/3 14/2/3
f 5/2/3 16/2/3 15/2/3
f 8/1/3 17/1/3 16/1/3
f 8/2/3 16/2/3 5/2/3
f 10/2/3 26/2/3 17/2/3
f 10/1/3 17/1/3 8/1/3
f 12/2/3 26/2/3 10/2/3
f 1/2/4 4/2/4 18/2/4
f 18/2/4 4/2/4 19/2/4
f 1/2/4 18/2/4 20/2/4
f 18/1/4 19/1/4 21/1/4
f 20/2/4 18/2/4 21/2/4
f 19/2/4 4/2/4 22/2/4
f 21/1/4 19/1/4 22/1/4
f 22/2/4 4/2/4 13/2/4
f 24/1/5 14/1/5 23/1/5
f 25/2/5 5/2/5 14/2/5
f 25/1/5 14/1/5 24/1/5
f 1/2/5 25/2/5 24/2/5
f 20/2/5 5/2/5 25/2/5
f 20/2/5 25/2/5 1/2/5
f 26/2/6 12/2/6 4/2/6
f 4/2/6 12/2/6 13/2/6
