# Blender 4.0.2
# www.blender.org
mtllib weapon.001.mtl
o weapon.001
v -0.100000 0.399999 -1.500000
v 0.100000 0.399999 -0.900000
v -0.100000 0.399999 -0.900000
v -0.100000 0.499999 -0.900000
v -0.100000 0.099999 -0.600000
v -0.100000 0.199999 -0.600000
v -0.100000 0.099999 -1.500000
v 0.100000 0.199999 -1.100000
v -0.100000 0.099999 -1.100000
v -0.100000 0.199999 -1.100000
v 0.100000 0.299999 -0.900000
v 0.100000 0.199999 -0.500000
v -0.100000 0.199999 -0.500000
v 0.100000 0.199999 -0.400000
v -0.100000 0.199999 -0.400000
v 0.100000 0.099999 -0.300000
v 0.100000 0.500000 1.200000
v -0.100000 0.400000 1.200000
v -0.100000 0.500000 1.200000
v 0.100000 -0.000001 -0.500000
v 0.100000 -0.000001 -0.300000
v 0.100000 0.099999 -1.500000
v -0.100000 0.199999 -0.700000
v 0.100000 0.199999 -0.600000
v -0.100000 0.299999 -0.900000
v -0.100000 0.300000 -0.500000
v 0.100000 0.300000 -0.400000
v -0.100000 0.300000 -0.400000
v -0.100000 0.399999 -0.400000
v -0.100000 0.099999 -0.300000
v 0.100000 0.299999 -1.600000
v 0.100000 0.299999 -1.500000
v -0.100000 0.299999 -1.500000
v 0.100000 0.499999 -0.700000
v -0.100000 0.499999 -0.700000
v 0.100000 0.499999 -0.400000
v -0.100000 0.499999 -0.400000
v 0.100000 -0.000001 -1.600000
v 0.100000 -0.000001 -1.500000
v 0.100000 0.099999 -1.100000
v 0.100000 0.099999 -0.600000
v 0.100000 0.099999 -0.500000
v 0.100000 0.099999 -0.400000
v 0.100000 0.199999 -1.000000
v 0.100000 0.199999 -0.900000
v 0.100000 0.199999 -0.700000
v 0.100000 0.299999 -1.000000
v 0.100000 0.299999 -0.700000
v 0.100000 0.300000 -0.500000
v 0.100000 0.399999 -1.500000
v 0.100000 0.399999 -0.700000
v 0.100000 0.399999 -0.400000
v 0.100000 0.400000 1.200000
v 0.100000 0.499999 -0.900000
v -0.100000 -0.000001 -1.600000
v -0.100000 -0.000001 -1.500000
v -0.100000 -0.000001 -0.500000
v -0.100000 -0.000001 -0.300000
v -0.100000 0.099999 -0.500000
v -0.100000 0.099999 -0.400000
v -0.100000 0.199999 -1.000000
v -0.100000 0.199999 -0.900000
v -0.100000 0.299999 -1.600000
v -0.100000 0.299999 -1.000000
v -0.100000 0.299999 -0.700000
v -0.100000 0.399999 -0.700000
vn -0.0000 -0.0000 -1.0000
vn -0.0000 -0.0000 1.0000
vn -0.0000 -1.0000 -0.0000
vn -0.0000 1.0000 -0.0000
vn 1.0000 -0.0000 -0.0000
vn -1.0000 -0.0000 -0.0000
vt 0.873047 0.500000
vt 0.673828 0.500000
vt 0.990234 0.500000
vt 0.994141 0.500000
s 0
usemtl palette.011
f 55/1/1 31/1/1 38/1/1
f 63/1/1 31/1/1 55/1/1
f 33/1/1 50/1/1 32/1/1
f 1/1/1 50/1/1 33/1/1
f 3/2/1 54/2/1 2/2/1
f 4/2/1 54/2/1 3/2/1
f 23/1/1 48/1/1 46/1/1
f 65/1/1 48/1/1 23/1/1
f 5/1/1 24/1/1 41/1/1
f 6/1/1 24/1/1 5/1/1
f 57/1/1 42/1/1 20/1/1
f 59/1/1 42/1/1 57/1/1
f 39/1/2 22/1/2 56/1/2
f 56/1/2 22/1/2 7/1/2
f 40/1/2 8/1/2 9/1/2
f 9/1/2 8/1/2 10/1/2
f 45/3/2 11/3/2 62/3/2
f 62/3/2 11/3/2 25/3/2
f 12/1/2 49/1/2 13/1/2
f 13/1/2 49/1/2 26/1/2
f 43/1/2 14/1/2 60/1/2
f 60/1/2 14/1/2 15/1/2
f 27/3/2 52/3/2 28/3/2
f 28/3/2 52/3/2 29/3/2
f 21/1/2 16/1/2 58/1/2
f 58/1/2 16/1/2 30/1/2
f 53/4/2 17/4/2 18/4/2
f 18/4/2 17/4/2 19/4/2
f 39/1/3 55/1/3 38/1/3
f 56/1/3 55/1/3 39/1/3
f 21/1/3 57/1/3 20/1/3
f 58/1/3 57/1/3 21/1/3
f 40/1/3 7/1/3 22/1/3
f 9/1/3 7/1/3 40/1/3
f 42/1/3 5/1/3 41/1/3
f 59/1/3 5/1/3 42/1/3
f 44/1/3 10/1/3 8/1/3
f 61/1/3 10/1/3 44/1/3
f 45/3/3 61/3/3 44/3/3
f 62/3/3 61/3/3 45/3/3
f 24/1/3 23/1/3 46/1/3
f 6/1/3 23/1/3 24/1/3
f 48/3/3 25/3/3 11/3/3
f 65/3/3 25/3/3 48/3/3
f 27/3/3 26/3/3 49/3/3
f 28/3/3 26/3/3 27/3/3
f 53/4/3 29/4/3 52/4/3
f 18/4/3 29/4/3 53/4/3
f 43/1/4 60/1/4 16/1/4
f 16/1/4 60/1/4 30/1/4
f 12/1/4 13/1/4 14/1/4
f 14/1/4 13/1/4 15/1/4
f 31/1/4 63/1/4 32/1/4
f 32/1/4 63/1/4 33/1/4
f 50/1/4 1/1/4 2/1/4
f 2/1/4 1/1/4 3/1/4
f 54/2/4 4/2/4 34/2/4
f 34/2/4 4/2/4 35/2/4
f 34/3/4 35/3/4 36/3/4
f 36/3/4 35/3/4 37/3/4
f 36/4/4 37/4/4 17/4/4
f 17/4/4 37/4/4 19/4/4
f 22/1/5 39/1/5 38/1/5
f 42/1/5 21/1/5 20/1/5
f 43/1/5 21/1/5 42/1/5
f 16/1/5 21/1/5 43/1/5
f 8/1/5 40/1/5 22/1/5
f 24/1/5 42/1/5 41/1/5
f 24/1/5 43/1/5 42/1/5
f 12/1/5 43/1/5 24/1/5
f 14/1/5 43/1/5 12/1/5
f 31/1/5 22/1/5 38/1/5
f 31/1/5 44/1/5 8/1/5
f 31/1/5 8/1/5 22/1/5
f 32/1/5 44/1/5 31/1/5
f 47/3/5 45/3/5 44/3/5
f 47/1/5 44/1/5 32/1/5
f 11/3/5 45/3/5 47/3/5
f 48/1/5 12/1/5 24/1/5
f 48/1/5 24/1/5 46/1/5
f 49/1/5 12/1/5 48/1/5
f 50/1/5 11/1/5 47/1/5
f 50/1/5 47/1/5 32/1/5
f 2/3/5 27/3/5 49/3/5
f 2/1/5 11/1/5 50/1/5
f 2/3/5 49/3/5 48/3/5
f 2/3/5 48/3/5 11/3/5
f 51/3/5 27/3/5 2/3/5
f 52/3/5 27/3/5 51/3/5
f 54/2/5 51/2/5 2/2/5
f 34/3/5 52/3/5 51/3/5
f 34/2/5 51/2/5 54/2/5
f 36/4/5 53/4/5 52/4/5
f 36/3/5 52/3/5 34/3/5
f 17/4/5 53/4/5 36/4/5
f 55/1/6 56/1/6 7/1/6
f 57/1/6 58/1/6 59/1/6
f 59/1/6 58/1/6 60/1/6
f 60/1/6 58/1/6 30/1/6
f 7/1/6 9/1/6 10/1/6
f 5/1/6 59/1/6 6/1/6
f 59/1/6 60/1/6 6/1/6
f 6/1/6 60/1/6 13/1/6
f 13/1/6 60/1/6 15/1/6
f 55/1/6 7/1/6 63/1/6
f 10/1/6 61/1/6 63/1/6
f 7/1/6 10/1/6 63/1/6
f 63/1/6 61/1/6 33/1/6
f 61/3/6 62/3/6 64/3/6
f 33/1/6 61/1/6 64/1/6
f 64/3/6 62/3/6 25/3/6
f 6/1/6 13/1/6 65/1/6
f 23/1/6 6/1/6 65/1/6
f 65/1/6 13/1/6 26/1/6
f 64/1/6 25/1/6 1/1/6
f 33/1/6 64/1/6 1/1/6
f 26/3/6 28/3/6 3/3/6
f 1/1/6 25/1/6 3/1/6
f 65/3/6 26/3/6 3/3/6
f 25/3/6 65/3/6 3/3/6
f 3/3/6 28/3/6 66/3/6
f 66/3/6 28/3/6 29/3/6
f 3/2/6 66/2/6 4/2/6
f 66/3/6 29/3/6 35/3/6
f 4/2/6 66/2/6 35/2/6
f 29/4/6 18/4/6 37/4/6
f 35/3/6 29/3/6 37/3/6
f 37/4/6 18/4/6 19/4/6
