# Blender 4.0.2
# www.blender.org
mtllib Weapon1.mtl
o weapon
v -0.100000 0.300000 -1.400000
v 0.100000 0.400000 -1.300000
v -0.100000 0.300000 -1.300000
v -0.100000 0.400000 -1.300000
v 0.100000 0.500000 -0.700000
v -0.100000 0.400000 -0.700000
v 0.100000 -0.000000 -1.300000
v 0.100000 0.100000 -1.300000
v -0.100000 -0.000000 -1.300000
v -0.100000 0.100000 -1.300000
v 0.100000 0.300000 -0.700000
v 0.100000 0.300000 -0.200000
v 0.100000 0.400000 -0.200000
v 0.100000 0.400000 1.400000
v 0.100000 0.500000 1.400000
v 0.100000 -0.000000 -1.400000
v -0.100000 -0.000000 -1.400000
v 0.100000 0.100000 -0.900000
v 0.100000 0.200000 -0.900000
v -0.100000 0.200000 -0.700000
v -0.100000 0.300000 -0.700000
v -0.100000 0.300000 -0.200000
v -0.100000 0.400000 -0.200000
v 0.100000 0.300000 -1.400000
v 0.100000 0.300000 -1.300000
v -0.100000 0.500000 -0.700000
v 0.100000 0.500000 -0.500000
v -0.100000 0.500000 -0.200000
v -0.100000 0.500000 1.400000
v 0.100000 0.200000 -0.800000
v 0.100000 0.200000 -0.700000
v 0.100000 0.300000 -0.800000
v 0.100000 0.400000 -0.700000
v 0.100000 0.400000 -0.500000
v 0.100000 0.500000 -0.200000
v -0.100000 0.100000 -0.900000
v -0.100000 0.200000 -0.900000
v -0.100000 0.200000 -0.800000
v -0.100000 0.300000 -0.800000
v -0.100000 0.400000 -0.500000
v -0.100000 0.400000 1.400000
v -0.100000 0.500000 -0.500000
vn -0.0000 -0.0000 -1.0000
vn -0.0000 -0.0000 1.0000
vn -0.0000 -1.0000 -0.0000
vn -0.0000 1.0000 -0.0000
vn 1.0000 -0.0000 -0.0000
vn -1.0000 -0.0000 -0.0000
vt 0.873047 0.500000
vt 0.673828 0.500000
vt 0.990234 0.500000
vt 0.994141 0.500000
s 0
usemtl palette.001
f 17/1/1 24/1/1 16/1/1
f 1/1/1 24/1/1 17/1/1
f 3/1/1 2/1/1 25/1/1
f 4/1/1 2/1/1 3/1/1
f 6/2/1 5/2/1 33/2/1
f 26/2/1 5/2/1 6/2/1
f 7/1/2 8/1/2 9/1/2
f 9/1/2 8/1/2 10/1/2
f 18/1/2 19/1/2 36/1/2
f 36/1/2 19/1/2 37/1/2
f 31/3/2 11/3/2 20/3/2
f 20/3/2 11/3/2 21/3/2
f 12/3/2 13/3/2 22/3/2
f 22/3/2 13/3/2 23/3/2
f 14/4/2 15/4/2 41/4/2
f 41/4/2 15/4/2 29/4/2
f 7/1/3 17/1/3 16/1/3
f 9/1/3 17/1/3 7/1/3
f 18/1/3 10/1/3 8/1/3
f 36/1/3 10/1/3 18/1/3
f 30/1/3 37/1/3 19/1/3
f 38/1/3 37/1/3 30/1/3
f 31/3/3 38/3/3 30/3/3
f 20/3/3 38/3/3 31/3/3
f 12/3/3 21/3/3 11/3/3
f 22/3/3 21/3/3 12/3/3
f 14/4/3 23/4/3 13/4/3
f 41/4/3 23/4/3 14/4/3
f 24/1/4 1/1/4 25/1/4
f 25/1/4 1/1/4 3/1/4
f 2/1/4 4/1/4 33/1/4
f 33/1/4 4/1/4 6/1/4
f 5/2/4 26/2/4 27/2/4
f 27/2/4 26/2/4 42/2/4
f 27/3/4 42/3/4 35/3/4
f 35/3/4 42/3/4 28/3/4
f 35/4/4 28/4/4 15/4/4
f 15/4/4 28/4/4 29/4/4
f 8/1/5 7/1/5 16/1/5
f 19/1/5 18/1/5 8/1/5
f 24/1/5 8/1/5 16/1/5
f 24/1/5 19/1/5 8/1/5
f 24/1/5 30/1/5 19/1/5
f 25/1/5 30/1/5 24/1/5
f 32/3/5 31/3/5 30/3/5
f 32/1/5 30/1/5 25/1/5
f 11/3/5 31/3/5 32/3/5
f 2/1/5 32/1/5 25/1/5
f 2/1/5 11/1/5 32/1/5
f 33/3/5 12/3/5 11/3/5
f 33/1/5 11/1/5 2/1/5
f 34/3/5 12/3/5 33/3/5
f 13/3/5 12/3/5 34/3/5
f 5/2/5 34/2/5 33/2/5
f 27/3/5 13/3/5 34/3/5
f 27/2/5 34/2/5 5/2/5
f 35/4/5 14/4/5 13/4/5
f 35/3/5 13/3/5 27/3/5
f 15/4/5 14/4/5 35/4/5
f 17/1/6 9/1/6 10/1/6
f 10/1/6 36/1/6 37/1/6
f 17/1/6 10/1/6 1/1/6
f 10/1/6 37/1/6 1/1/6
f 37/1/6 38/1/6 1/1/6
f 1/1/6 38/1/6 3/1/6
f 38/3/6 20/3/6 39/3/6
f 3/1/6 38/1/6 39/1/6
f 39/3/6 20/3/6 21/3/6
f 3/1/6 39/1/6 4/1/6
f 39/1/6 21/1/6 4/1/6
f 21/3/6 22/3/6 6/3/6
f 4/1/6 21/1/6 6/1/6
f 6/3/6 22/3/6 40/3/6
f 40/3/6 22/3/6 23/3/6
f 6/2/6 40/2/6 26/2/6
f 40/3/6 23/3/6 42/3/6
f 26/2/6 40/2/6 42/2/6
f 23/4/6 41/4/6 28/4/6
f 42/3/6 23/3/6 28/3/6
f 28/4/6 41/4/6 29/4/6
