# Blender 4.0.2
# www.blender.org
mtllib base_barrier.mtl
o Untitled
v -0.451926 0.000000 0.448551
v -0.451926 0.000000 -0.651449
v -0.451926 1.100000 -0.651449
v -0.451926 1.200000 -0.451449
v -0.451926 1.300000 0.448550
v -0.451926 1.300000 -0.351449
v -0.451926 1.300000 -0.451449
v 0.448074 1.100000 -0.651449
v 0.448074 1.200000 -0.451449
v 0.448074 1.300000 0.448550
v 0.448074 1.300000 0.348551
v 0.448074 1.400000 0.348551
v 0.448074 1.400000 -0.351449
v 0.448074 0.000000 0.448551
v -0.451926 1.300000 0.348551
v -0.451926 1.400000 0.348551
v 0.448074 1.300000 -0.351449
v -0.451926 1.100000 -0.551449
v 0.448074 1.200000 -0.551449
v 0.448074 0.000000 -0.651449
v 0.448074 1.100000 -0.551449
v -0.451926 1.200000 -0.551449
v 0.448074 1.300000 -0.451449
v -0.451926 1.400000 -0.351449
vn -1.0000 -0.0000 -0.0000
vn 1.0000 -0.0000 -0.0000
vn -0.0000 -0.0000 1.0000
vn -0.0000 -0.0000 -1.0000
vn -0.0000 -1.0000 -0.0000
vn -0.0000 1.0000 -0.0000
vt 0.982422 0.500000
s 0
usemtl palette
f 18/1/1 2/1/1 1/1/1
f 3/1/1 2/1/1 18/1/1
f 4/1/1 18/1/1 1/1/1
f 22/1/1 18/1/1 4/1/1
f 5/1/1 4/1/1 1/1/1
f 15/1/1 4/1/1 5/1/1
f 6/1/1 4/1/1 15/1/1
f 7/1/1 4/1/1 6/1/1
f 16/1/1 6/1/1 15/1/1
f 24/1/1 6/1/1 16/1/1
f 14/1/2 20/1/2 21/1/2
f 21/1/2 20/1/2 8/1/2
f 14/1/2 21/1/2 9/1/2
f 9/1/2 21/1/2 19/1/2
f 14/1/2 9/1/2 10/1/2
f 10/1/2 9/1/2 11/1/2
f 11/1/2 9/1/2 17/1/2
f 17/1/2 9/1/2 23/1/2
f 11/1/2 17/1/2 12/1/2
f 12/1/2 17/1/2 13/1/2
f 14/1/3 5/1/3 1/1/3
f 10/1/3 5/1/3 14/1/3
f 11/1/3 16/1/3 15/1/3
f 12/1/3 16/1/3 11/1/3
f 6/1/4 24/1/4 17/1/4
f 17/1/4 24/1/4 13/1/4
f 4/1/4 7/1/4 9/1/4
f 9/1/4 7/1/4 23/1/4
f 18/1/4 22/1/4 21/1/4
f 21/1/4 22/1/4 19/1/4
f 2/1/4 3/1/4 20/1/4
f 20/1/4 3/1/4 8/1/4
f 2/1/5 14/1/5 1/1/5
f 20/1/5 14/1/5 2/1/5
f 18/1/6 21/1/6 3/1/6
f 3/1/6 21/1/6 8/1/6
f 4/1/6 9/1/6 22/1/6
f 22/1/6 9/1/6 19/1/6
f 5/1/6 10/1/6 15/1/6
f 15/1/6 10/1/6 11/1/6
f 6/1/6 17/1/6 7/1/6
f 7/1/6 17/1/6 23/1/6
f 16/1/6 12/1/6 24/1/6
f 24/1/6 12/1/6 13/1/6
