# MagicaVoxel @ Ephtracy

# group
o FootR

# material
mtllib anon-7-FootR.mtl
usemtl palette

# normals
vn -1 0 0
vn 1 0 0
vn 0 0 1
vn 0 0 -1
vn 0 -1 0
vn 0 1 0

# texcoords
vt 0.00195313 0.5
vt 0.0644531 0.5
vt 0.115234 0.5
vt 0.876953 0.5
vt 0.958984 0.5

# verts
v -0.8 0 0.5
v -0.8 0 -0.3
v -0.8 0.1 0.5
v -0.8 0.1 0.2
v -0.8 0.1 0.1
v -0.8 0.1 -0.2
v -0.8 0.1 -0.3
v -0.8 0.2 0.5
v -0.8 0.2 0.4
v -0.8 0.2 0.3
v -0.8 0.2 0.2
v -0.8 0.2 0.1
v -0.8 0.2 0
v -0.8 0.2 -0.2
v -0.8 0.2 -0.3
v -0.8 0.3 0.4
v -0.8 0.3 0.3
v -0.8 0.3 0.2
v -0.8 0.3 0.1
v -0.8 0.3 0
v -0.8 0.3 -0.2
v -0.8 0.3 -0.3
v -0.8 0.4 0.3
v -0.8 0.4 0.2
v -0.8 0.4 0.1
v -0.8 0.4 0
v -0.8 0.4 -0.2
v -0.8 0.4 -0.3
v -0.8 0.5 0.2
v -0.8 0.5 0.1
v -0.8 0.5 0
v -0.8 0.5 -0.3
v -0.8 0.6 0.1
v -0.8 0.6 0
v -0.8 0.6 -0.3
v -0.7 0 0.6
v -0.7 0 0.5
v -0.7 0 -0.3
v -0.7 0 -0.4
v -0.7 0.1 0.6
v -0.7 0.1 0.5
v -0.7 0.1 -0.3
v -0.7 0.1 -0.4
v -0.7 0.2 0.6
v -0.7 0.2 0.5
v -0.7 0.2 0.4
v -0.7 0.2 -0.3
v -0.7 0.3 0.6
v -0.7 0.3 0.4
v -0.7 0.3 0.3
v -0.7 0.3 -0.3
v -0.7 0.3 -0.4
v -0.7 0.4 0.4
v -0.7 0.4 0.3
v -0.7 0.4 0.2
v -0.7 0.4 -0.3
v -0.7 0.4 -0.4
v -0.7 0.5 0.3
v -0.7 0.5 0.2
v -0.7 0.5 0.1
v -0.7 0.5 -0.3
v -0.7 0.6 0.2
v -0.7 0.6 0.1
v -0.7 0.6 0
v -0.7 0.6 -0.3
v -0.7 0.6 -0.4
v -0.7 0.7 0.1
v -0.7 0.7 0
v -0.7 0.7 -0.4
v -0.6 0 0.7
v -0.6 0 0.6
v -0.6 0.1 0.7
v -0.6 0.1 0.6
v -0.6 0.2 0.7
v -0.6 0.2 0.6
v -0.6 0.7 0.1
v -0.6 0.7 0
v -0.6 0.8 0.1
v -0.6 0.8 0
v -0.4 0 0.7
v -0.4 0 0.6
v -0.4 0.1 0.7
v -0.4 0.1 0.6
v -0.4 0.2 0.7
v -0.4 0.2 0.6
v -0.4 0.7 0.1
v -0.4 0.7 0
v -0.4 0.8 0.1
v -0.4 0.8 0
v -0.3 0 0.6
v -0.3 0 0.5
v -0.3 0 -0.3
v -0.3 0 -0.4
v -0.3 0.1 0.6
v -0.3 0.1 0.5
v -0.3 0.1 -0.3
v -0.3 0.1 -0.4
v -0.3 0.2 0.6
v -0.3 0.2 0.5
v -0.3 0.2 0.4
v -0.3 0.2 -0.3
v -0.3 0.3 0.6
v -0.3 0.3 0.4
v -0.3 0.3 0.3
v -0.3 0.3 -0.3
v -0.3 0.3 -0.4
v -0.3 0.4 0.4
v -0.3 0.4 0.3
v -0.3 0.4 0.2
v -0.3 0.4 -0.3
v -0.3 0.4 -0.4
v -0.3 0.5 0.3
v -0.3 0.5 0.2
v -0.3 0.5 0.1
v -0.3 0.5 -0.3
v -0.3 0.6 0.2
v -0.3 0.6 0.1
v -0.3 0.6 0
v -0.3 0.6 -0.3
v -0.3 0.6 -0.4
v -0.3 0.7 0.1
v -0.3 0.7 0
v -0.3 0.7 -0.4
v -0.2 0 0.5
v -0.2 0 -0.3
v -0.2 0.1 0.5
v -0.2 0.1 0.2
v -0.2 0.1 0.1
v -0.2 0.1 -0.2
v -0.2 0.1 -0.3
v -0.2 0.2 0.5
v -0.2 0.2 0.4
v -0.2 0.2 0.3
v -0.2 0.2 0.2
v -0.2 0.2 0.1
v -0.2 0.2 0
v -0.2 0.2 -0.2
v -0.2 0.2 -0.3
v -0.2 0.3 0.4
v -0.2 0.3 0.3
v -0.2 0.3 0.2
v -0.2 0.3 0.1
v -0.2 0.3 0
v -0.2 0.3 -0.2
v -0.2 0.3 -0.3
v -0.2 0.4 0.3
v -0.2 0.4 0.2
v -0.2 0.4 0.1
v -0.2 0.4 0
v -0.2 0.4 -0.2
v -0.2 0.4 -0.3
v -0.2 0.5 0.2
v -0.2 0.5 0.1
v -0.2 0.5 0
v -0.2 0.5 -0.3
v -0.2 0.6 0.1
v -0.2 0.6 0
v -0.2 0.6 -0.3
v -0.6 0 0.7
v -0.6 0.1 0.7
v -0.6 0.2 0.7
v -0.4 0 0.7
v -0.4 0.1 0.7
v -0.4 0.2 0.7
v -0.7 0 0.6
v -0.7 0.1 0.6
v -0.7 0.2 0.6
v -0.7 0.3 0.6
v -0.6 0 0.6
v -0.6 0.1 0.6
v -0.6 0.2 0.6
v -0.4 0 0.6
v -0.4 0.1 0.6
v -0.4 0.2 0.6
v -0.3 0 0.6
v -0.3 0.1 0.6
v -0.3 0.2 0.6
v -0.3 0.3 0.6
v -0.8 0 0.5
v -0.8 0.1 0.5
v -0.8 0.2 0.5
v -0.7 0 0.5
v -0.7 0.1 0.5
v -0.7 0.2 0.5
v -0.3 0 0.5
v -0.3 0.1 0.5
v -0.3 0.2 0.5
v -0.2 0 0.5
v -0.2 0.1 0.5
v -0.2 0.2 0.5
v -0.8 0.2 0.4
v -0.8 0.3 0.4
v -0.7 0.2 0.4
v -0.7 0.3 0.4
v -0.7 0.4 0.4
v -0.3 0.2 0.4
v -0.3 0.3 0.4
v -0.3 0.4 0.4
v -0.2 0.2 0.4
v -0.2 0.3 0.4
v -0.8 0.3 0.3
v -0.8 0.4 0.3
v -0.7 0.3 0.3
v -0.7 0.4 0.3
v -0.7 0.5 0.3
v -0.3 0.3 0.3
v -0.3 0.4 0.3
v -0.3 0.5 0.3
v -0.2 0.3 0.3
v -0.2 0.4 0.3
v -0.8 0.4 0.2
v -0.8 0.5 0.2
v -0.7 0.4 0.2
v -0.7 0.5 0.2
v -0.7 0.6 0.2
v -0.3 0.4 0.2
v -0.3 0.5 0.2
v -0.3 0.6 0.2
v -0.2 0.4 0.2
v -0.2 0.5 0.2
v -0.8 0.5 0.1
v -0.8 0.6 0.1
v -0.7 0.5 0.1
v -0.7 0.6 0.1
v -0.7 0.7 0.1
v -0.6 0.7 0.1
v -0.6 0.8 0.1
v -0.4 0.7 0.1
v -0.4 0.8 0.1
v -0.3 0.5 0.1
v -0.3 0.6 0.1
v -0.3 0.7 0.1
v -0.2 0.5 0.1
v -0.2 0.6 0.1
v -0.6 0.7 0
v -0.6 0.8 0
v -0.4 0.7 0
v -0.4 0.8 0
v -0.8 0 -0.3
v -0.8 0.1 -0.3
v -0.8 0.2 -0.3
v -0.8 0.3 -0.3
v -0.8 0.4 -0.3
v -0.8 0.5 -0.3
v -0.8 0.6 -0.3
v -0.7 0 -0.3
v -0.7 0.1 -0.3
v -0.7 0.2 -0.3
v -0.7 0.3 -0.3
v -0.7 0.4 -0.3
v -0.7 0.5 -0.3
v -0.7 0.6 -0.3
v -0.3 0 -0.3
v -0.3 0.1 -0.3
v -0.3 0.2 -0.3
v -0.3 0.3 -0.3
v -0.3 0.4 -0.3
v -0.3 0.5 -0.3
v -0.3 0.6 -0.3
v -0.2 0 -0.3
v -0.2 0.1 -0.3
v -0.2 0.2 -0.3
v -0.2 0.3 -0.3
v -0.2 0.4 -0.3
v -0.2 0.5 -0.3
v -0.2 0.6 -0.3
v -0.7 0 -0.4
v -0.7 0.1 -0.4
v -0.7 0.3 -0.4
v -0.7 0.4 -0.4
v -0.7 0.6 -0.4
v -0.7 0.7 -0.4
v -0.3 0 -0.4
v -0.3 0.1 -0.4
v -0.3 0.3 -0.4
v -0.3 0.4 -0.4
v -0.3 0.6 -0.4
v -0.3 0.7 -0.4
v -0.6 0 0.7
v -0.4 0 0.7
v -0.7 0 0.6
v -0.6 0 0.6
v -0.4 0 0.6
v -0.3 0 0.6
v -0.8 0 0.5
v -0.7 0 0.5
v -0.6 0 0.5
v -0.4 0 0.5
v -0.3 0 0.5
v -0.2 0 0.5
v -0.8 0 -0.3
v -0.7 0 -0.3
v -0.3 0 -0.3
v -0.2 0 -0.3
v -0.7 0 -0.4
v -0.3 0 -0.4
v -0.6 0.2 0.7
v -0.4 0.2 0.7
v -0.6 0.2 0.6
v -0.4 0.2 0.6
v -0.8 0.2 0.5
v -0.7 0.2 0.5
v -0.3 0.2 0.5
v -0.2 0.2 0.5
v -0.8 0.2 0.4
v -0.7 0.2 0.4
v -0.3 0.2 0.4
v -0.2 0.2 0.4
v -0.7 0.3 0.6
v -0.3 0.3 0.6
v -0.8 0.3 0.4
v -0.7 0.3 0.4
v -0.3 0.3 0.4
v -0.2 0.3 0.4
v -0.8 0.3 0.3
v -0.7 0.3 0.3
v -0.3 0.3 0.3
v -0.2 0.3 0.3
v -0.7 0.4 0.4
v -0.3 0.4 0.4
v -0.8 0.4 0.3
v -0.7 0.4 0.3
v -0.3 0.4 0.3
v -0.2 0.4 0.3
v -0.8 0.4 0.2
v -0.7 0.4 0.2
v -0.3 0.4 0.2
v -0.2 0.4 0.2
v -0.7 0.5 0.3
v -0.3 0.5 0.3
v -0.8 0.5 0.2
v -0.7 0.5 0.2
v -0.3 0.5 0.2
v -0.2 0.5 0.2
v -0.8 0.5 0.1
v -0.7 0.5 0.1
v -0.3 0.5 0.1
v -0.2 0.5 0.1
v -0.7 0.6 0.2
v -0.3 0.6 0.2
v -0.8 0.6 0.1
v -0.7 0.6 0.1
v -0.3 0.6 0.1
v -0.2 0.6 0.1
v -0.8 0.6 0
v -0.7 0.6 0
v -0.3 0.6 0
v -0.2 0.6 0
v -0.8 0.6 -0.3
v -0.7 0.6 -0.3
v -0.3 0.6 -0.3
v -0.2 0.6 -0.3
v -0.7 0.7 0.1
v -0.6 0.7 0.1
v -0.4 0.7 0.1
v -0.3 0.7 0.1
v -0.7 0.7 0
v -0.6 0.7 0
v -0.4 0.7 0
v -0.3 0.7 0
v -0.6 0.7 -0.3
v -0.4 0.7 -0.3
v -0.7 0.7 -0.4
v -0.3 0.7 -0.4
v -0.6 0.8 0.1
v -0.4 0.8 0.1
v -0.6 0.8 0
v -0.4 0.8 0

# faces
f 3/1/1 2/1/1 1/1/1
f 4/1/1 2/1/1 3/1/1
f 5/1/1 2/1/1 4/1/1
f 6/1/1 2/1/1 5/1/1
f 7/1/1 2/1/1 6/1/1
f 8/3/1 4/3/1 3/3/1
f 9/3/1 4/3/1 8/3/1
f 10/3/1 4/3/1 9/3/1
f 11/2/1 5/2/1 4/2/1
f 11/3/1 4/3/1 10/3/1
f 12/5/1 6/5/1 5/5/1
f 12/2/1 5/2/1 11/2/1
f 13/5/1 6/5/1 12/5/1
f 14/3/1 7/3/1 6/3/1
f 14/5/1 6/5/1 13/5/1
f 15/3/1 7/3/1 14/3/1
f 16/3/1 10/3/1 9/3/1
f 17/2/1 11/2/1 10/2/1
f 17/3/1 10/3/1 16/3/1
f 18/5/1 13/5/1 12/5/1
f 18/2/1 11/2/1 17/2/1
f 18/5/1 12/5/1 11/5/1
f 19/5/1 13/5/1 18/5/1
f 20/2/1 15/2/1 14/2/1
f 20/5/1 13/5/1 19/5/1
f 20/2/1 14/2/1 13/2/1
f 21/2/1 15/2/1 20/2/1
f 22/2/1 15/2/1 21/2/1
f 23/4/1 18/4/1 17/4/1
f 24/3/1 19/3/1 18/3/1
f 24/4/1 18/4/1 23/4/1
f 25/2/1 20/2/1 19/2/1
f 25/3/1 19/3/1 24/3/1
f 26/5/1 21/5/1 20/5/1
f 26/2/1 20/2/1 25/2/1
f 27/3/1 22/3/1 21/3/1
f 27/5/1 21/5/1 26/5/1
f 28/3/1 22/3/1 27/3/1
f 29/3/1 26/3/1 25/3/1
f 29/3/1 25/3/1 24/3/1
f 30/3/1 26/3/1 29/3/1
f 31/4/1 28/4/1 27/4/1
f 31/3/1 26/3/1 30/3/1
f 31/4/1 27/4/1 26/4/1
f 32/4/1 28/4/1 31/4/1
f 33/4/1 31/4/1 30/4/1
f 34/3/1 32/3/1 31/3/1
f 34/4/1 31/4/1 33/4/1
f 35/3/1 32/3/1 34/3/1
f 40/1/1 37/1/1 36/1/1
f 41/1/1 37/1/1 40/1/1
f 42/1/1 39/1/1 38/1/1
f 43/1/1 39/1/1 42/1/1
f 44/3/1 41/3/1 40/3/1
f 45/3/1 41/3/1 44/3/1
f 47/3/1 43/3/1 42/3/1
f 48/5/1 46/5/1 45/5/1
f 48/5/1 45/5/1 44/5/1
f 49/5/1 46/5/1 48/5/1
f 51/3/1 43/3/1 47/3/1
f 52/3/1 43/3/1 51/3/1
f 53/4/1 50/4/1 49/4/1
f 54/4/1 50/4/1 53/4/1
f 56/4/1 52/4/1 51/4/1
f 57/4/1 52/4/1 56/4/1
f 58/5/1 55/5/1 54/5/1
f 59/5/1 55/5/1 58/5/1
f 61/3/1 57/3/1 56/3/1
f 62/4/1 60/4/1 59/4/1
f 63/4/1 60/4/1 62/4/1
f 65/3/1 57/3/1 61/3/1
f 66/3/1 57/3/1 65/3/1
f 67/5/1 64/5/1 63/5/1
f 68/4/1 66/4/1 65/4/1
f 68/5/1 64/5/1 67/5/1
f 68/4/1 65/4/1 64/4/1
f 69/4/1 66/4/1 68/4/1
f 72/1/1 71/1/1 70/1/1
f 73/1/1 71/1/1 72/1/1
f 74/3/1 73/3/1 72/3/1
f 75/3/1 73/3/1 74/3/1
f 78/5/1 77/5/1 76/5/1
f 79/5/1 77/5/1 78/5/1
f 80/1/2 81/1/2 82/1/2
f 82/1/2 81/1/2 83/1/2
f 82/3/2 83/3/2 84/3/2
f 84/3/2 83/3/2 85/3/2
f 86/5/2 87/5/2 88/5/2
f 88/5/2 87/5/2 89/5/2
f 90/1/2 91/1/2 94/1/2
f 94/1/2 91/1/2 95/1/2
f 92/1/2 93/1/2 96/1/2
f 96/1/2 93/1/2 97/1/2
f 94/3/2 95/3/2 98/3/2
f 98/3/2 95/3/2 99/3/2
f 96/3/2 97/3/2 101/3/2
f 99/5/2 100/5/2 102/5/2
f 98/5/2 99/5/2 102/5/2
f 102/5/2 100/5/2 103/5/2
f 101/3/2 97/3/2 105/3/2
f 105/3/2 97/3/2 106/3/2
f 103/4/2 104/4/2 107/4/2
f 107/4/2 104/4/2 108/4/2
f 105/4/2 106/4/2 110/4/2
f 110/4/2 106/4/2 111/4/2
f 108/5/2 109/5/2 112/5/2
f 112/5/2 109/5/2 113/5/2
f 110/3/2 111/3/2 115/3/2
f 113/4/2 114/4/2 116/4/2
f 116/4/2 114/4/2 117/4/2
f 115/3/2 111/3/2 119/3/2
f 119/3/2 111/3/2 120/3/2
f 117/5/2 118/5/2 121/5/2
f 119/4/2 120/4/2 122/4/2
f 121/5/2 118/5/2 122/5/2
f 118/4/2 119/4/2 122/4/2
f 122/4/2 120/4/2 123/4/2
f 124/1/2 125/1/2 126/1/2
f 126/1/2 125/1/2 127/1/2
f 127/1/2 125/1/2 128/1/2
f 128/1/2 125/1/2 129/1/2
f 129/1/2 125/1/2 130/1/2
f 126/3/2 127/3/2 131/3/2
f 131/3/2 127/3/2 132/3/2
f 132/3/2 127/3/2 133/3/2
f 127/2/2 128/2/2 134/2/2
f 133/3/2 127/3/2 134/3/2
f 128/5/2 129/5/2 135/5/2
f 134/2/2 128/2/2 135/2/2
f 135/5/2 129/5/2 136/5/2
f 129/3/2 130/3/2 137/3/2
f 136/5/2 129/5/2 137/5/2
f 137/3/2 130/3/2 138/3/2
f 132/3/2 133/3/2 139/3/2
f 133/2/2 134/2/2 140/2/2
f 139/3/2 133/3/2 140/3/2
f 135/5/2 136/5/2 141/5/2
f 140/2/2 134/2/2 141/2/2
f 134/5/2 135/5/2 141/5/2
f 141/5/2 136/5/2 142/5/2
f 137/2/2 138/2/2 143/2/2
f 142/5/2 136/5/2 143/5/2
f 136/2/2 137/2/2 143/2/2
f 143/2/2 138/2/2 144/2/2
f 144/2/2 138/2/2 145/2/2
f 140/4/2 141/4/2 146/4/2
f 141/3/2 142/3/2 147/3/2
f 146/4/2 141/4/2 147/4/2
f 142/2/2 143/2/2 148/2/2
f 147/3/2 142/3/2 148/3/2
f 143/5/2 144/5/2 149/5/2
f 148/2/2 143/2/2 149/2/2
f 144/3/2 145/3/2 150/3/2
f 149/5/2 144/5/2 150/5/2
f 150/3/2 145/3/2 151/3/2
f 148/3/2 149/3/2 152/3/2
f 147/3/2 148/3/2 152/3/2
f 152/3/2 149/3/2 153/3/2
f 150/4/2 151/4/2 154/4/2
f 153/3/2 149/3/2 154/3/2
f 149/4/2 150/4/2 154/4/2
f 154/4/2 151/4/2 155/4/2
f 153/4/2 154/4/2 156/4/2
f 154/3/2 155/3/2 157/3/2
f 156/4/2 154/4/2 157/4/2
f 157/3/2 155/3/2 158/3/2
f 162/1/3 160/1/3 159/1/3
f 163/3/3 161/3/3 160/3/3
f 163/1/3 160/1/3 162/1/3
f 164/3/3 161/3/3 163/3/3
f 169/1/3 166/1/3 165/1/3
f 170/3/3 167/3/3 166/3/3
f 170/1/3 166/1/3 169/1/3
f 171/5/3 168/5/3 167/5/3
f 171/3/3 167/3/3 170/3/3
f 174/5/3 168/5/3 171/5/3
f 175/1/3 173/1/3 172/1/3
f 176/3/3 174/3/3 173/3/3
f 176/1/3 173/1/3 175/1/3
f 177/5/3 168/5/3 174/5/3
f 177/3/3 174/3/3 176/3/3
f 178/5/3 168/5/3 177/5/3
f 182/1/3 180/1/3 179/1/3
f 183/3/3 181/3/3 180/3/3
f 183/1/3 180/1/3 182/1/3
f 184/3/3 181/3/3 183/3/3
f 188/1/3 186/1/3 185/1/3
f 189/3/3 187/3/3 186/3/3
f 189/1/3 186/1/3 188/1/3
f 190/3/3 187/3/3 189/3/3
f 193/3/3 192/3/3 191/3/3
f 194/3/3 192/3/3 193/3/3
f 197/4/3 195/4/3 194/4/3
f 198/4/3 195/4/3 197/4/3
f 199/3/3 197/3/3 196/3/3
f 200/3/3 197/3/3 199/3/3
f 203/4/3 202/4/3 201/4/3
f 204/4/3 202/4/3 203/4/3
f 207/5/3 205/5/3 204/5/3
f 208/5/3 205/5/3 207/5/3
f 209/4/3 207/4/3 206/4/3
f 210/4/3 207/4/3 209/4/3
f 213/3/3 212/3/3 211/3/3
f 214/3/3 212/3/3 213/3/3
f 217/4/3 215/4/3 214/4/3
f 218/4/3 215/4/3 217/4/3
f 219/3/3 217/3/3 216/3/3
f 220/3/3 217/3/3 219/3/3
f 223/4/3 222/4/3 221/4/3
f 224/4/3 222/4/3 223/4/3
f 226/5/3 225/5/3 224/5/3
f 228/5/3 226/5/3 224/5/3
f 228/5/3 227/5/3 226/5/3
f 229/5/3 227/5/3 228/5/3
f 231/5/3 228/5/3 224/5/3
f 232/5/3 228/5/3 231/5/3
f 233/4/3 231/4/3 230/4/3
f 234/4/3 231/4/3 233/4/3
f 235/5/4 236/5/4 237/5/4
f 237/5/4 236/5/4 238/5/4
f 239/1/4 240/1/4 246/1/4
f 240/3/4 241/3/4 247/3/4
f 246/1/4 240/1/4 247/1/4
f 241/2/4 242/2/4 248/2/4
f 247/3/4 241/3/4 248/3/4
f 242/3/4 243/3/4 249/3/4
f 248/2/4 242/2/4 249/2/4
f 243/4/4 244/4/4 250/4/4
f 249/3/4 243/3/4 250/3/4
f 244/3/4 245/3/4 251/3/4
f 250/4/4 244/4/4 251/4/4
f 251/3/4 245/3/4 252/3/4
f 253/1/4 254/1/4 260/1/4
f 254/3/4 255/3/4 261/3/4
f 260/1/4 254/1/4 261/1/4
f 255/2/4 256/2/4 262/2/4
f 261/3/4 255/3/4 262/3/4
f 256/3/4 257/3/4 263/3/4
f 262/2/4 256/2/4 263/2/4
f 257/4/4 258/4/4 264/4/4
f 263/3/4 257/3/4 264/3/4
f 258/3/4 259/3/4 265/3/4
f 264/4/4 258/4/4 265/4/4
f 265/3/4 259/3/4 266/3/4
f 267/1/4 268/1/4 273/1/4
f 268/3/4 269/3/4 274/3/4
f 273/1/4 268/1/4 274/1/4
f 269/4/4 270/4/4 275/4/4
f 274/3/4 269/3/4 275/3/4
f 270/3/4 271/3/4 276/3/4
f 275/4/4 270/4/4 276/4/4
f 271/4/4 272/4/4 277/4/4
f 276/3/4 271/3/4 277/3/4
f 277/4/4 272/4/4 278/4/4
f 282/1/5 280/1/5 279/1/5
f 283/1/5 280/1/5 282/1/5
f 286/1/5 282/1/5 281/1/5
f 287/4/5 283/4/5 282/4/5
f 287/1/5 282/1/5 286/1/5
f 288/1/5 284/1/5 283/1/5
f 288/4/5 283/4/5 287/4/5
f 289/1/5 284/1/5 288/1/5
f 291/1/5 286/1/5 285/1/5
f 292/4/5 287/4/5 286/4/5
f 292/1/5 286/1/5 291/1/5
f 292/4/5 288/4/5 287/4/5
f 292/4/5 289/4/5 288/4/5
f 293/1/5 290/1/5 289/1/5
f 293/4/5 289/4/5 292/4/5
f 294/1/5 290/1/5 293/1/5
f 295/1/5 293/1/5 292/1/5
f 296/1/5 293/1/5 295/1/5
f 297/3/6 298/3/6 299/3/6
f 299/3/6 298/3/6 300/3/6
f 301/3/6 302/3/6 305/3/6
f 305/3/6 302/3/6 306/3/6
f 303/3/6 304/3/6 307/3/6
f 307/3/6 304/3/6 308/3/6
f 309/5/6 310/5/6 312/5/6
f 312/5/6 310/5/6 313/5/6
f 311/3/6 312/3/6 315/3/6
f 315/3/6 312/3/6 316/3/6
f 313/3/6 314/3/6 317/3/6
f 317/3/6 314/3/6 318/3/6
f 319/4/6 320/4/6 322/4/6
f 322/4/6 320/4/6 323/4/6
f 321/4/6 322/4/6 325/4/6
f 325/4/6 322/4/6 326/4/6
f 323/4/6 324/4/6 327/4/6
f 327/4/6 324/4/6 328/4/6
f 329/5/6 330/5/6 332/5/6
f 332/5/6 330/5/6 333/5/6
f 331/3/6 332/3/6 335/3/6
f 335/3/6 332/3/6 336/3/6
f 333/3/6 334/3/6 337/3/6
f 337/3/6 334/3/6 338/3/6
f 339/4/6 340/4/6 342/4/6
f 342/4/6 340/4/6 343/4/6
f 341/4/6 342/4/6 345/4/6
f 345/4/6 342/4/6 346/4/6
f 343/4/6 344/4/6 347/4/6
f 347/4/6 344/4/6 348/4/6
f 345/3/6 346/3/6 349/3/6
f 349/3/6 346/3/6 350/3/6
f 347/3/6 348/3/6 351/3/6
f 351/3/6 348/3/6 352/3/6
f 353/5/6 354/5/6 357/5/6
f 357/5/6 354/5/6 358/5/6
f 355/5/6 356/5/6 359/5/6
f 359/5/6 356/5/6 360/5/6
f 357/4/6 358/4/6 361/4/6
f 358/3/6 359/3/6 361/3/6
f 359/4/6 360/4/6 362/4/6
f 361/3/6 359/3/6 362/3/6
f 357/4/6 361/4/6 363/4/6
f 361/4/6 362/4/6 363/4/6
f 362/4/6 360/4/6 364/4/6
f 363/4/6 362/4/6 364/4/6
f 365/5/6 366/5/6 367/5/6
f 367/5/6 366/5/6 368/5/6
