# MagicaVoxel @ Ephtracy

# group
o wfl

# material
mtllib Gosling-1-wfl.mtl
usemtl palette

# normals
vn -1 0 0
vn 1 0 0
vn 0 0 1
vn 0 0 -1
vn 0 -1 0
vn 0 1 0

# texcoords
vt 0.986328 0.5
vt 0.990234 0.5
vt 0.994141 0.5

# verts
v -2 0 -3.2
v -2 0 -3.7
v -2 0.1 -3
v -2 0.1 -3.2
v -2 0.1 -3.7
v -2 0.1 -3.9
v -2 0.2 -2.9
v -2 0.2 -3
v -2 0.2 -3.2
v -2 0.2 -3.7
v -2 0.2 -3.9
v -2 0.2 -4
v -2 0.3 -3.1
v -2 0.3 -3.2
v -2 0.3 -3.7
v -2 0.3 -3.8
v -2 0.4 -2.8
v -2 0.4 -2.9
v -2 0.4 -3
v -2 0.4 -3.1
v -2 0.4 -3.3
v -2 0.4 -3.6
v -2 0.4 -3.8
v -2 0.4 -3.9
v -2 0.4 -4
v -2 0.4 -4.1
v -2 0.5 -3.2
v -2 0.5 -3.3
v -2 0.5 -3.4
v -2 0.5 -3.5
v -2 0.5 -3.6
v -2 0.5 -3.7
v -2 0.6 -3.3
v -2 0.6 -3.4
v -2 0.6 -3.5
v -2 0.6 -3.6
v -2 0.7 -3.3
v -2 0.7 -3.4
v -2 0.7 -3.5
v -2 0.7 -3.6
v -2 0.8 -3.2
v -2 0.8 -3.3
v -2 0.8 -3.4
v -2 0.8 -3.5
v -2 0.8 -3.6
v -2 0.8 -3.7
v -2 0.9 -2.8
v -2 0.9 -2.9
v -2 0.9 -3
v -2 0.9 -3.1
v -2 0.9 -3.3
v -2 0.9 -3.6
v -2 0.9 -3.8
v -2 0.9 -3.9
v -2 0.9 -4
v -2 0.9 -4.1
v -2 1 -3.1
v -2 1 -3.2
v -2 1 -3.7
v -2 1 -3.8
v -2 1.1 -2.9
v -2 1.1 -3
v -2 1.1 -3.2
v -2 1.1 -3.7
v -2 1.1 -3.9
v -2 1.1 -4
v -2 1.2 -3
v -2 1.2 -3.2
v -2 1.2 -3.7
v -2 1.2 -3.9
v -2 1.3 -3.2
v -2 1.3 -3.7
v -1.9 0.2 -3.2
v -1.9 0.2 -3.7
v -1.9 0.3 -3.1
v -1.9 0.3 -3.2
v -1.9 0.3 -3.4
v -1.9 0.3 -3.5
v -1.9 0.3 -3.7
v -1.9 0.3 -3.8
v -1.9 0.4 -3
v -1.9 0.4 -3.1
v -1.9 0.4 -3.2
v -1.9 0.4 -3.3
v -1.9 0.4 -3.4
v -1.9 0.4 -3.5
v -1.9 0.4 -3.6
v -1.9 0.4 -3.7
v -1.9 0.4 -3.8
v -1.9 0.4 -3.9
v -1.9 0.5 -3.2
v -1.9 0.5 -3.3
v -1.9 0.5 -3.6
v -1.9 0.5 -3.7
v -1.9 0.6 -3.1
v -1.9 0.6 -3.2
v -1.9 0.6 -3.7
v -1.9 0.6 -3.8
v -1.9 0.7 -3.1
v -1.9 0.7 -3.2
v -1.9 0.7 -3.7
v -1.9 0.7 -3.8
v -1.9 0.8 -3.2
v -1.9 0.8 -3.3
v -1.9 0.8 -3.6
v -1.9 0.8 -3.7
v -1.9 0.9 -3
v -1.9 0.9 -3.1
v -1.9 0.9 -3.2
v -1.9 0.9 -3.3
v -1.9 0.9 -3.4
v -1.9 0.9 -3.5
v -1.9 0.9 -3.6
v -1.9 0.9 -3.7
v -1.9 0.9 -3.8
v -1.9 0.9 -3.9
v -1.9 1 -3.1
v -1.9 1 -3.2
v -1.9 1 -3.4
v -1.9 1 -3.5
v -1.9 1 -3.7
v -1.9 1 -3.8
v -1.9 1.1 -3.2
v -1.9 1.1 -3.7
v -1.7 0.2 -3.2
v -1.7 0.2 -3.7
v -1.7 0.3 -3.1
v -1.7 0.3 -3.2
v -1.7 0.3 -3.4
v -1.7 0.3 -3.5
v -1.7 0.3 -3.7
v -1.7 0.3 -3.8
v -1.7 0.4 -3
v -1.7 0.4 -3.1
v -1.7 0.4 -3.2
v -1.7 0.4 -3.3
v -1.7 0.4 -3.4
v -1.7 0.4 -3.5
v -1.7 0.4 -3.6
v -1.7 0.4 -3.7
v -1.7 0.4 -3.8
v -1.7 0.4 -3.9
v -1.7 0.5 -3.2
v -1.7 0.5 -3.3
v -1.7 0.5 -3.6
v -1.7 0.5 -3.7
v -1.7 0.6 -3.1
v -1.7 0.6 -3.2
v -1.7 0.6 -3.7
v -1.7 0.6 -3.8
v -1.7 0.7 -3.1
v -1.7 0.7 -3.2
v -1.7 0.7 -3.7
v -1.7 0.7 -3.8
v -1.7 0.8 -3.2
v -1.7 0.8 -3.3
v -1.7 0.8 -3.6
v -1.7 0.8 -3.7
v -1.7 0.9 -3
v -1.7 0.9 -3.1
v -1.7 0.9 -3.2
v -1.7 0.9 -3.3
v -1.7 0.9 -3.4
v -1.7 0.9 -3.5
v -1.7 0.9 -3.6
v -1.7 0.9 -3.7
v -1.7 0.9 -3.8
v -1.7 0.9 -3.9
v -1.7 1 -3.1
v -1.7 1 -3.2
v -1.7 1 -3.4
v -1.7 1 -3.5
v -1.7 1 -3.7
v -1.7 1 -3.8
v -1.7 1.1 -3.2
v -1.7 1.1 -3.7
v -1.8 0.2 -3.2
v -1.8 0.2 -3.7
v -1.8 0.3 -3.1
v -1.8 0.3 -3.2
v -1.8 0.3 -3.4
v -1.8 0.3 -3.5
v -1.8 0.3 -3.7
v -1.8 0.3 -3.8
v -1.8 0.4 -3
v -1.8 0.4 -3.1
v -1.8 0.4 -3.2
v -1.8 0.4 -3.3
v -1.8 0.4 -3.4
v -1.8 0.4 -3.5
v -1.8 0.4 -3.6
v -1.8 0.4 -3.7
v -1.8 0.4 -3.8
v -1.8 0.4 -3.9
v -1.8 0.5 -3.2
v -1.8 0.5 -3.3
v -1.8 0.5 -3.6
v -1.8 0.5 -3.7
v -1.8 0.6 -3.1
v -1.8 0.6 -3.2
v -1.8 0.6 -3.7
v -1.8 0.6 -3.8
v -1.8 0.7 -3.1
v -1.8 0.7 -3.2
v -1.8 0.7 -3.7
v -1.8 0.7 -3.8
v -1.8 0.8 -3.2
v -1.8 0.8 -3.3
v -1.8 0.8 -3.6
v -1.8 0.8 -3.7
v -1.8 0.9 -3
v -1.8 0.9 -3.1
v -1.8 0.9 -3.2
v -1.8 0.9 -3.3
v -1.8 0.9 -3.4
v -1.8 0.9 -3.5
v -1.8 0.9 -3.6
v -1.8 0.9 -3.7
v -1.8 0.9 -3.8
v -1.8 0.9 -3.9
v -1.8 1 -3.1
v -1.8 1 -3.2
v -1.8 1 -3.4
v -1.8 1 -3.5
v -1.8 1 -3.7
v -1.8 1 -3.8
v -1.8 1.1 -3.2
v -1.8 1.1 -3.7
v -1.4 0 -3.2
v -1.4 0 -3.7
v -1.4 0.1 -3
v -1.4 0.1 -3.2
v -1.4 0.1 -3.7
v -1.4 0.1 -3.9
v -1.4 0.2 -2.9
v -1.4 0.2 -3
v -1.4 0.2 -3.9
v -1.4 0.2 -4
v -1.4 0.4 -2.8
v -1.4 0.4 -2.9
v -1.4 0.4 -4
v -1.4 0.4 -4.1
v -1.4 0.9 -2.8
v -1.4 0.9 -2.9
v -1.4 0.9 -4
v -1.4 0.9 -4.1
v -1.4 1.1 -2.9
v -1.4 1.1 -3
v -1.4 1.1 -3.9
v -1.4 1.1 -4
v -1.4 1.2 -3
v -1.4 1.2 -3.2
v -1.4 1.2 -3.7
v -1.4 1.2 -3.9
v -1.4 1.3 -3.2
v -1.4 1.3 -3.7
v -2 0.4 -2.8
v -2 0.9 -2.8
v -1.4 0.4 -2.8
v -1.4 0.9 -2.8
v -2 0.2 -2.9
v -2 0.4 -2.9
v -2 0.9 -2.9
v -2 1.1 -2.9
v -1.4 0.2 -2.9
v -1.4 0.4 -2.9
v -1.4 0.9 -2.9
v -1.4 1.1 -2.9
v -2 0.1 -3
v -2 0.2 -3
v -2 1.1 -3
v -2 1.2 -3
v -1.4 0.1 -3
v -1.4 0.2 -3
v -1.4 1.1 -3
v -1.4 1.2 -3
v -2 0 -3.2
v -2 0.1 -3.2
v -2 0.5 -3.2
v -2 0.8 -3.2
v -2 1.2 -3.2
v -2 1.3 -3.2
v -1.9 0.5 -3.2
v -1.9 0.6 -3.2
v -1.9 0.7 -3.2
v -1.9 0.8 -3.2
v -1.8 0.5 -3.2
v -1.8 0.6 -3.2
v -1.8 0.7 -3.2
v -1.8 0.8 -3.2
v -1.7 0.5 -3.2
v -1.7 0.6 -3.2
v -1.7 0.7 -3.2
v -1.7 0.8 -3.2
v -1.4 0 -3.2
v -1.4 0.1 -3.2
v -1.4 1.2 -3.2
v -1.4 1.3 -3.2
v -2 0.4 -3.3
v -2 0.5 -3.3
v -2 0.8 -3.3
v -2 0.9 -3.3
v -1.9 0.4 -3.3
v -1.9 0.5 -3.3
v -1.9 0.8 -3.3
v -1.9 0.9 -3.3
v -1.8 0.4 -3.3
v -1.8 0.5 -3.3
v -1.8 0.8 -3.3
v -1.8 0.9 -3.3
v -1.7 0.4 -3.3
v -1.7 0.5 -3.3
v -1.7 0.8 -3.3
v -1.7 0.9 -3.3
v -2 0.2 -3.7
v -2 0.3 -3.7
v -2 1 -3.7
v -2 1.1 -3.7
v -1.9 0.2 -3.7
v -1.9 0.3 -3.7
v -1.9 1 -3.7
v -1.9 1.1 -3.7
v -1.8 0.2 -3.7
v -1.8 0.3 -3.7
v -1.8 1 -3.7
v -1.8 1.1 -3.7
v -1.7 0.2 -3.7
v -1.7 0.3 -3.7
v -1.7 1 -3.7
v -1.7 1.1 -3.7
v -2 0.3 -3.8
v -2 0.4 -3.8
v -2 0.9 -3.8
v -2 1 -3.8
v -1.9 0.3 -3.8
v -1.9 0.4 -3.8
v -1.9 0.9 -3.8
v -1.9 1 -3.8
v -1.8 0.3 -3.8
v -1.8 0.4 -3.8
v -1.8 0.9 -3.8
v -1.8 1 -3.8
v -1.7 0.3 -3.8
v -1.7 0.4 -3.8
v -1.7 0.9 -3.8
v -1.7 1 -3.8
v -2 0.4 -3.9
v -2 0.9 -3.9
v -1.9 0.4 -3.9
v -1.9 0.9 -3.9
v -1.8 0.4 -3.9
v -1.8 0.9 -3.9
v -1.7 0.4 -3.9
v -1.7 0.9 -3.9
v -2 0.4 -3
v -2 0.9 -3
v -1.9 0.4 -3
v -1.9 0.9 -3
v -1.8 0.4 -3
v -1.8 0.9 -3
v -1.7 0.4 -3
v -1.7 0.9 -3
v -2 0.3 -3.1
v -2 0.4 -3.1
v -2 0.9 -3.1
v -2 1 -3.1
v -1.9 0.3 -3.1
v -1.9 0.4 -3.1
v -1.9 0.9 -3.1
v -1.9 1 -3.1
v -1.8 0.3 -3.1
v -1.8 0.4 -3.1
v -1.8 0.9 -3.1
v -1.8 1 -3.1
v -1.7 0.3 -3.1
v -1.7 0.4 -3.1
v -1.7 0.9 -3.1
v -1.7 1 -3.1
v -2 0.2 -3.2
v -2 0.3 -3.2
v -2 1 -3.2
v -2 1.1 -3.2
v -1.9 0.2 -3.2
v -1.9 0.3 -3.2
v -1.9 1 -3.2
v -1.9 1.1 -3.2
v -1.8 0.2 -3.2
v -1.8 0.3 -3.2
v -1.8 1 -3.2
v -1.8 1.1 -3.2
v -1.7 0.2 -3.2
v -1.7 0.3 -3.2
v -1.7 1 -3.2
v -1.7 1.1 -3.2
v -2 0.4 -3.6
v -2 0.5 -3.6
v -2 0.8 -3.6
v -2 0.9 -3.6
v -1.9 0.4 -3.6
v -1.9 0.5 -3.6
v -1.9 0.8 -3.6
v -1.9 0.9 -3.6
v -1.8 0.4 -3.6
v -1.8 0.5 -3.6
v -1.8 0.8 -3.6
v -1.8 0.9 -3.6
v -1.7 0.4 -3.6
v -1.7 0.5 -3.6
v -1.7 0.8 -3.6
v -1.7 0.9 -3.6
v -2 0 -3.7
v -2 0.1 -3.7
v -2 0.5 -3.7
v -2 0.8 -3.7
v -2 1.2 -3.7
v -2 1.3 -3.7
v -1.9 0.5 -3.7
v -1.9 0.6 -3.7
v -1.9 0.7 -3.7
v -1.9 0.8 -3.7
v -1.8 0.5 -3.7
v -1.8 0.6 -3.7
v -1.8 0.7 -3.7
v -1.8 0.8 -3.7
v -1.7 0.5 -3.7
v -1.7 0.6 -3.7
v -1.7 0.7 -3.7
v -1.7 0.8 -3.7
v -1.4 0 -3.7
v -1.4 0.1 -3.7
v -1.4 1.2 -3.7
v -1.4 1.3 -3.7
v -2 0.1 -3.9
v -2 0.2 -3.9
v -2 1.1 -3.9
v -2 1.2 -3.9
v -1.4 0.1 -3.9
v -1.4 0.2 -3.9
v -1.4 1.1 -3.9
v -1.4 1.2 -3.9
v -2 0.2 -4
v -2 0.4 -4
v -2 0.9 -4
v -2 1.1 -4
v -1.4 0.2 -4
v -1.4 0.4 -4
v -1.4 0.9 -4
v -1.4 1.1 -4
v -2 0.4 -4.1
v -2 0.9 -4.1
v -1.4 0.4 -4.1
v -1.4 0.9 -4.1
v -2 0 -3.2
v -1.4 0 -3.2
v -2 0 -3.7
v -1.4 0 -3.7
v -2 0.1 -3
v -1.4 0.1 -3
v -2 0.1 -3.2
v -1.4 0.1 -3.2
v -2 0.1 -3.7
v -1.4 0.1 -3.7
v -2 0.1 -3.9
v -1.4 0.1 -3.9
v -2 0.2 -2.9
v -1.4 0.2 -2.9
v -2 0.2 -3
v -1.4 0.2 -3
v -2 0.2 -3.9
v -1.4 0.2 -3.9
v -2 0.2 -4
v -1.4 0.2 -4
v -2 0.4 -2.8
v -1.4 0.4 -2.8
v -2 0.4 -2.9
v -1.4 0.4 -2.9
v -2 0.4 -3.3
v -1.9 0.4 -3.3
v -1.8 0.4 -3.3
v -1.7 0.4 -3.3
v -1.9 0.4 -3.4
v -1.8 0.4 -3.4
v -1.7 0.4 -3.4
v -1.9 0.4 -3.5
v -1.8 0.4 -3.5
v -1.7 0.4 -3.5
v -2 0.4 -3.6
v -1.9 0.4 -3.6
v -1.8 0.4 -3.6
v -1.7 0.4 -3.6
v -2 0.4 -4
v -1.4 0.4 -4
v -2 0.4 -4.1
v -1.4 0.4 -4.1
v -2 0.5 -3.2
v -1.9 0.5 -3.2
v -1.8 0.5 -3.2
v -1.7 0.5 -3.2
v -2 0.5 -3.3
v -1.9 0.5 -3.3
v -1.8 0.5 -3.3
v -1.7 0.5 -3.3
v -2 0.5 -3.6
v -1.9 0.5 -3.6
v -1.8 0.5 -3.6
v -1.7 0.5 -3.6
v -2 0.5 -3.7
v -1.9 0.5 -3.7
v -1.8 0.5 -3.7
v -1.7 0.5 -3.7
v -2 0.9 -3
v -1.9 0.9 -3
v -1.8 0.9 -3
v -1.7 0.9 -3
v -2 0.9 -3.1
v -1.9 0.9 -3.1
v -1.8 0.9 -3.1
v -1.7 0.9 -3.1
v -2 0.9 -3.8
v -1.9 0.9 -3.8
v -1.8 0.9 -3.8
v -1.7 0.9 -3.8
v -2 0.9 -3.9
v -1.9 0.9 -3.9
v -1.8 0.9 -3.9
v -1.7 0.9 -3.9
v -2 1 -3.1
v -1.9 1 -3.1
v -1.8 1 -3.1
v -1.7 1 -3.1
v -2 1 -3.2
v -1.9 1 -3.2
v -1.8 1 -3.2
v -1.7 1 -3.2
v -2 1 -3.7
v -1.9 1 -3.7
v -1.8 1 -3.7
v -1.7 1 -3.7
v -2 1 -3.8
v -1.9 1 -3.8
v -1.8 1 -3.8
v -1.7 1 -3.8
v -2 1.1 -3.2
v -1.9 1.1 -3.2
v -1.8 1.1 -3.2
v -1.7 1.1 -3.2
v -2 1.1 -3.7
v -1.9 1.1 -3.7
v -1.8 1.1 -3.7
v -1.7 1.1 -3.7
v -2 0.2 -3.2
v -1.9 0.2 -3.2
v -1.8 0.2 -3.2
v -1.7 0.2 -3.2
v -2 0.2 -3.7
v -1.9 0.2 -3.7
v -1.8 0.2 -3.7
v -1.7 0.2 -3.7
v -2 0.3 -3.1
v -1.9 0.3 -3.1
v -1.8 0.3 -3.1
v -1.7 0.3 -3.1
v -2 0.3 -3.2
v -1.9 0.3 -3.2
v -1.8 0.3 -3.2
v -1.7 0.3 -3.2
v -2 0.3 -3.7
v -1.9 0.3 -3.7
v -1.8 0.3 -3.7
v -1.7 0.3 -3.7
v -2 0.3 -3.8
v -1.9 0.3 -3.8
v -1.8 0.3 -3.8
v -1.7 0.3 -3.8
v -2 0.4 -3
v -1.9 0.4 -3
v -1.8 0.4 -3
v -1.7 0.4 -3
v -2 0.4 -3.1
v -1.9 0.4 -3.1
v -1.8 0.4 -3.1
v -1.7 0.4 -3.1
v -2 0.4 -3.8
v -1.9 0.4 -3.8
v -1.8 0.4 -3.8
v -1.7 0.4 -3.8
v -2 0.4 -3.9
v -1.9 0.4 -3.9
v -1.8 0.4 -3.9
v -1.7 0.4 -3.9
v -2 0.8 -3.2
v -1.9 0.8 -3.2
v -1.8 0.8 -3.2
v -1.7 0.8 -3.2
v -2 0.8 -3.3
v -1.9 0.8 -3.3
v -1.8 0.8 -3.3
v -1.7 0.8 -3.3
v -2 0.8 -3.6
v -1.9 0.8 -3.6
v -1.8 0.8 -3.6
v -1.7 0.8 -3.6
v -2 0.8 -3.7
v -1.9 0.8 -3.7
v -1.8 0.8 -3.7
v -1.7 0.8 -3.7
v -2 0.9 -2.8
v -1.4 0.9 -2.8
v -2 0.9 -2.9
v -1.4 0.9 -2.9
v -2 0.9 -3.3
v -1.9 0.9 -3.3
v -1.8 0.9 -3.3
v -1.7 0.9 -3.3
v -1.9 0.9 -3.4
v -1.8 0.9 -3.4
v -1.7 0.9 -3.4
v -1.9 0.9 -3.5
v -1.8 0.9 -3.5
v -1.7 0.9 -3.5
v -2 0.9 -3.6
v -1.9 0.9 -3.6
v -1.8 0.9 -3.6
v -1.7 0.9 -3.6
v -2 0.9 -4
v -1.4 0.9 -4
v -2 0.9 -4.1
v -1.4 0.9 -4.1
v -2 1.1 -2.9
v -1.4 1.1 -2.9
v -2 1.1 -3
v -1.4 1.1 -3
v -2 1.1 -3.9
v -1.4 1.1 -3.9
v -2 1.1 -4
v -1.4 1.1 -4
v -2 1.2 -3
v -1.4 1.2 -3
v -2 1.2 -3.2
v -1.4 1.2 -3.2
v -2 1.2 -3.7
v -1.4 1.2 -3.7
v -2 1.2 -3.9
v -1.4 1.2 -3.9
v -2 1.3 -3.2
v -1.4 1.3 -3.2
v -2 1.3 -3.7
v -1.4 1.3 -3.7

# faces
f 4/3/1 2/3/1 1/3/1
f 5/3/1 2/3/1 4/3/1
f 8/3/1 4/3/1 3/3/1
f 8/3/1 6/3/1 5/3/1
f 8/3/1 5/3/1 4/3/1
f 9/3/1 6/3/1 8/3/1
f 10/3/1 6/3/1 9/3/1
f 11/3/1 6/3/1 10/3/1
f 13/3/1 8/3/1 7/3/1
f 13/3/1 9/3/1 8/3/1
f 14/3/1 9/3/1 13/3/1
f 15/3/1 12/3/1 11/3/1
f 15/3/1 11/3/1 10/3/1
f 16/3/1 12/3/1 15/3/1
f 18/3/1 13/3/1 7/3/1
f 19/3/1 13/3/1 18/3/1
f 20/3/1 13/3/1 19/3/1
f 23/3/1 12/3/1 16/3/1
f 24/3/1 12/3/1 23/3/1
f 25/3/1 12/3/1 24/3/1
f 28/1/1 22/1/1 21/1/1
f 29/1/1 22/1/1 28/1/1
f 30/1/1 22/1/1 29/1/1
f 31/1/1 22/1/1 30/1/1
f 33/1/1 28/1/1 27/1/1
f 33/1/1 29/1/1 28/1/1
f 34/3/1 30/3/1 29/3/1
f 34/1/1 29/1/1 33/1/1
f 35/1/1 32/1/1 31/1/1
f 35/3/1 30/3/1 34/3/1
f 35/1/1 31/1/1 30/1/1
f 36/1/1 32/1/1 35/1/1
f 37/3/1 34/3/1 33/3/1
f 37/1/1 33/1/1 27/1/1
f 38/1/1 35/1/1 34/1/1
f 38/3/1 34/3/1 37/3/1
f 39/3/1 36/3/1 35/3/1
f 39/1/1 35/1/1 38/1/1
f 40/1/1 32/1/1 36/1/1
f 40/3/1 36/3/1 39/3/1
f 41/1/1 38/1/1 37/1/1
f 41/1/1 37/1/1 27/1/1
f 42/1/1 38/1/1 41/1/1
f 43/3/1 39/3/1 38/3/1
f 43/1/1 38/1/1 42/1/1
f 44/1/1 40/1/1 39/1/1
f 44/3/1 39/3/1 43/3/1
f 45/1/1 32/1/1 40/1/1
f 45/1/1 40/1/1 44/1/1
f 46/1/1 32/1/1 45/1/1
f 47/3/1 18/3/1 17/3/1
f 47/3/1 19/3/1 18/3/1
f 48/3/1 19/3/1 47/3/1
f 49/3/1 19/3/1 48/3/1
f 51/1/1 45/1/1 44/1/1
f 51/1/1 44/1/1 43/1/1
f 51/1/1 43/1/1 42/1/1
f 52/1/1 45/1/1 51/1/1
f 54/3/1 25/3/1 24/3/1
f 54/3/1 26/3/1 25/3/1
f 55/3/1 26/3/1 54/3/1
f 56/3/1 26/3/1 55/3/1
f 57/3/1 50/3/1 49/3/1
f 57/3/1 49/3/1 48/3/1
f 60/3/1 55/3/1 54/3/1
f 60/3/1 54/3/1 53/3/1
f 61/3/1 58/3/1 57/3/1
f 61/3/1 57/3/1 48/3/1
f 62/3/1 58/3/1 61/3/1
f 63/3/1 58/3/1 62/3/1
f 64/3/1 60/3/1 59/3/1
f 65/3/1 55/3/1 60/3/1
f 65/3/1 60/3/1 64/3/1
f 66/3/1 55/3/1 65/3/1
f 67/3/1 63/3/1 62/3/1
f 67/3/1 64/3/1 63/3/1
f 67/3/1 65/3/1 64/3/1
f 68/3/1 65/3/1 67/3/1
f 69/3/1 65/3/1 68/3/1
f 70/3/1 65/3/1 69/3/1
f 71/3/1 69/3/1 68/3/1
f 72/3/1 69/3/1 71/3/1
f 76/1/1 74/1/1 73/1/1
f 77/1/1 74/1/1 76/1/1
f 78/1/1 74/1/1 77/1/1
f 79/1/1 74/1/1 78/1/1
f 82/1/1 76/1/1 75/1/1
f 82/1/1 77/1/1 76/1/1
f 83/1/1 77/1/1 82/1/1
f 84/1/1 77/1/1 83/1/1
f 85/2/1 78/2/1 77/2/1
f 85/1/1 77/1/1 84/1/1
f 86/1/1 80/1/1 79/1/1
f 86/2/1 78/2/1 85/2/1
f 86/1/1 79/1/1 78/1/1
f 87/1/1 80/1/1 86/1/1
f 88/1/1 80/1/1 87/1/1
f 89/1/1 80/1/1 88/1/1
f 91/1/1 83/1/1 82/1/1
f 91/2/1 84/2/1 83/2/1
f 91/1/1 82/1/1 81/1/1
f 92/2/1 84/2/1 91/2/1
f 93/2/1 88/2/1 87/2/1
f 94/1/1 90/1/1 89/1/1
f 94/2/1 88/2/1 93/2/1
f 94/1/1 89/1/1 88/1/1
f 95/1/1 91/1/1 81/1/1
f 96/1/1 91/1/1 95/1/1
f 97/1/1 90/1/1 94/1/1
f 98/1/1 90/1/1 97/1/1
f 99/2/1 96/2/1 95/2/1
f 99/1/1 95/1/1 81/1/1
f 100/2/1 96/2/1 99/2/1
f 101/2/1 98/2/1 97/2/1
f 102/1/1 90/1/1 98/1/1
f 102/2/1 98/2/1 101/2/1
f 103/1/1 100/1/1 99/1/1
f 106/1/1 102/1/1 101/1/1
f 107/1/1 99/1/1 81/1/1
f 107/1/1 103/1/1 99/1/1
f 108/1/1 103/1/1 107/1/1
f 109/2/1 104/2/1 103/2/1
f 109/1/1 103/1/1 108/1/1
f 110/2/1 104/2/1 109/2/1
f 113/2/1 106/2/1 105/2/1
f 114/1/1 102/1/1 106/1/1
f 114/2/1 106/2/1 113/2/1
f 115/1/1 90/1/1 102/1/1
f 115/1/1 102/1/1 114/1/1
f 116/1/1 90/1/1 115/1/1
f 117/1/1 109/1/1 108/1/1
f 117/1/1 110/1/1 109/1/1
f 117/1/1 111/1/1 110/1/1
f 118/1/1 111/1/1 117/1/1
f 119/2/1 112/2/1 111/2/1
f 119/1/1 111/1/1 118/1/1
f 120/1/1 114/1/1 113/1/1
f 120/2/1 112/2/1 119/2/1
f 120/1/1 113/1/1 112/1/1
f 120/1/1 115/1/1 114/1/1
f 121/1/1 115/1/1 120/1/1
f 122/1/1 115/1/1 121/1/1
f 123/1/1 119/1/1 118/1/1
f 123/1/1 121/1/1 120/1/1
f 123/1/1 120/1/1 119/1/1
f 124/1/1 121/1/1 123/1/1
f 128/1/1 126/1/1 125/1/1
f 129/1/1 126/1/1 128/1/1
f 130/1/1 126/1/1 129/1/1
f 131/1/1 126/1/1 130/1/1
f 134/1/1 128/1/1 127/1/1
f 134/1/1 129/1/1 128/1/1
f 135/1/1 129/1/1 134/1/1
f 136/1/1 129/1/1 135/1/1
f 137/2/1 130/2/1 129/2/1
f 137/1/1 129/1/1 136/1/1
f 138/1/1 132/1/1 131/1/1
f 138/2/1 130/2/1 137/2/1
f 138/1/1 131/1/1 130/1/1
f 139/1/1 132/1/1 138/1/1
f 140/1/1 132/1/1 139/1/1
f 141/1/1 132/1/1 140/1/1
f 143/1/1 135/1/1 134/1/1
f 143/2/1 136/2/1 135/2/1
f 143/1/1 134/1/1 133/1/1
f 144/2/1 136/2/1 143/2/1
f 145/2/1 140/2/1 139/2/1
f 146/1/1 142/1/1 141/1/1
f 146/2/1 140/2/1 145/2/1
f 146/1/1 141/1/1 140/1/1
f 147/1/1 143/1/1 133/1/1
f 148/1/1 143/1/1 147/1/1
f 149/1/1 142/1/1 146/1/1
f 150/1/1 142/1/1 149/1/1
f 151/2/1 148/2/1 147/2/1
f 151/1/1 147/1/1 133/1/1
f 152/2/1 148/2/1 151/2/1
f 153/2/1 150/2/1 149/2/1
f 154/1/1 142/1/1 150/1/1
f 154/2/1 150/2/1 153/2/1
f 155/1/1 152/1/1 151/1/1
f 158/1/1 154/1/1 153/1/1
f 159/1/1 151/1/1 133/1/1
f 159/1/1 155/1/1 151/1/1
f 160/1/1 155/1/1 159/1/1
f 161/2/1 156/2/1 155/2/1
f 161/1/1 155/1/1 160/1/1
f 162/2/1 156/2/1 161/2/1
f 165/2/1 158/2/1 157/2/1
f 166/1/1 154/1/1 158/1/1
f 166/2/1 158/2/1 165/2/1
f 167/1/1 142/1/1 154/1/1
f 167/1/1 154/1/1 166/1/1
f 168/1/1 142/1/1 167/1/1
f 169/1/1 161/1/1 160/1/1
f 169/1/1 162/1/1 161/1/1
f 169/1/1 163/1/1 162/1/1
f 170/1/1 163/1/1 169/1/1
f 171/2/1 164/2/1 163/2/1
f 171/1/1 163/1/1 170/1/1
f 172/1/1 166/1/1 165/1/1
f 172/2/1 164/2/1 171/2/1
f 172/1/1 165/1/1 164/1/1
f 172/1/1 167/1/1 166/1/1
f 173/1/1 167/1/1 172/1/1
f 174/1/1 167/1/1 173/1/1
f 175/1/1 171/1/1 170/1/1
f 175/1/1 173/1/1 172/1/1
f 175/1/1 172/1/1 171/1/1
f 176/1/1 173/1/1 175/1/1
f 177/1/2 178/1/2 180/1/2
f 180/1/2 178/1/2 181/1/2
f 181/1/2 178/1/2 182/1/2
f 182/1/2 178/1/2 183/1/2
f 179/1/2 180/1/2 186/1/2
f 180/1/2 181/1/2 186/1/2
f 186/1/2 181/1/2 187/1/2
f 187/1/2 181/1/2 188/1/2
f 181/2/2 182/2/2 189/2/2
f 188/1/2 181/1/2 189/1/2
f 183/1/2 184/1/2 190/1/2
f 189/2/2 182/2/2 190/2/2
f 182/1/2 183/1/2 190/1/2
f 190/1/2 184/1/2 191/1/2
f 191/1/2 184/1/2 192/1/2
f 192/1/2 184/1/2 193/1/2
f 186/1/2 187/1/2 195/1/2
f 187/2/2 188/2/2 195/2/2
f 185/1/2 186/1/2 195/1/2
f 195/2/2 188/2/2 196/2/2
f 191/2/2 192/2/2 197/2/2
f 193/1/2 194/1/2 198/1/2
f 197/2/2 192/2/2 198/2/2
f 192/1/2 193/1/2 198/1/2
f 185/1/2 195/1/2 199/1/2
f 199/1/2 195/1/2 200/1/2
f 198/1/2 194/1/2 201/1/2
f 201/1/2 194/1/2 202/1/2
f 199/2/2 200/2/2 203/2/2
f 185/1/2 199/1/2 203/1/2
f 203/2/2 200/2/2 204/2/2
f 201/2/2 202/2/2 205/2/2
f 202/1/2 194/1/2 206/1/2
f 205/2/2 202/2/2 206/2/2
f 203/1/2 204/1/2 207/1/2
f 205/1/2 206/1/2 210/1/2
f 185/1/2 203/1/2 211/1/2
f 203/1/2 207/1/2 211/1/2
f 211/1/2 207/1/2 212/1/2
f 207/2/2 208/2/2 213/2/2
f 212/1/2 207/1/2 213/1/2
f 213/2/2 208/2/2 214/2/2
f 209/2/2 210/2/2 217/2/2
f 210/1/2 206/1/2 218/1/2
f 217/2/2 210/2/2 218/2/2
f 206/1/2 194/1/2 219/1/2
f 218/1/2 206/1/2 219/1/2
f 219/1/2 194/1/2 220/1/2
f 212/1/2 213/1/2 221/1/2
f 213/1/2 214/1/2 221/1/2
f 214/1/2 215/1/2 221/1/2
f 221/1/2 215/1/2 222/1/2
f 215/2/2 216/2/2 223/2/2
f 222/1/2 215/1/2 223/1/2
f 217/1/2 218/1/2 224/1/2
f 223/2/2 216/2/2 224/2/2
f 216/1/2 217/1/2 224/1/2
f 218/1/2 219/1/2 224/1/2
f 224/1/2 219/1/2 225/1/2
f 225/1/2 219/1/2 226/1/2
f 222/1/2 223/1/2 227/1/2
f 224/1/2 225/1/2 227/1/2
f 223/1/2 224/1/2 227/1/2
f 227/1/2 225/1/2 228/1/2
f 229/3/2 230/3/2 232/3/2
f 232/3/2 230/3/2 233/3/2
f 231/3/2 232/3/2 236/3/2
f 233/3/2 234/3/2 236/3/2
f 232/3/2 233/3/2 236/3/2
f 236/3/2 234/3/2 237/3/2
f 235/3/2 236/3/2 240/3/2
f 237/3/2 238/3/2 240/3/2
f 236/3/2 237/3/2 240/3/2
f 240/3/2 238/3/2 241/3/2
f 239/3/2 240/3/2 243/3/2
f 241/3/2 242/3/2 243/3/2
f 240/3/2 241/3/2 243/3/2
f 243/3/2 242/3/2 244/3/2
f 244/3/2 242/3/2 245/3/2
f 245/3/2 242/3/2 246/3/2
f 244/3/2 245/3/2 247/3/2
f 247/3/2 245/3/2 248/3/2
f 248/3/2 245/3/2 249/3/2
f 249/3/2 245/3/2 250/3/2
f 248/3/2 249/3/2 251/3/2
f 251/3/2 249/3/2 252/3/2
f 252/3/2 249/3/2 253/3/2
f 253/3/2 249/3/2 254/3/2
f 252/3/2 253/3/2 255/3/2
f 255/3/2 253/3/2 256/3/2
f 259/3/3 258/3/3 257/3/3
f 260/3/3 258/3/3 259/3/3
f 265/3/3 262/3/3 261/3/3
f 266/3/3 262/3/3 265/3/3
f 267/3/3 264/3/3 263/3/3
f 268/3/3 264/3/3 267/3/3
f 273/3/3 270/3/3 269/3/3
f 274/3/3 270/3/3 273/3/3
f 275/3/3 272/3/3 271/3/3
f 276/3/3 272/3/3 275/3/3
f 283/1/3 280/1/3 279/1/3
f 284/1/3 280/1/3 283/1/3
f 285/1/3 280/1/3 284/1/3
f 286/1/3 280/1/3 285/1/3
f 291/1/3 288/1/3 287/1/3
f 291/1/3 290/1/3 289/1/3
f 291/1/3 289/1/3 288/1/3
f 292/1/3 290/1/3 291/1/3
f 293/1/3 290/1/3 292/1/3
f 294/1/3 290/1/3 293/1/3
f 295/3/3 278/3/3 277/3/3
f 296/3/3 278/3/3 295/3/3
f 297/3/3 282/3/3 281/3/3
f 298/3/3 282/3/3 297/3/3
f 303/1/3 300/1/3 299/1/3
f 304/1/3 300/1/3 303/1/3
f 305/1/3 302/1/3 301/1/3
f 306/1/3 302/1/3 305/1/3
f 311/1/3 308/1/3 307/1/3
f 312/1/3 308/1/3 311/1/3
f 313/1/3 310/1/3 309/1/3
f 314/1/3 310/1/3 313/1/3
f 319/3/3 316/3/3 315/3/3
f 320/3/3 316/3/3 319/3/3
f 321/3/3 318/3/3 317/3/3
f 322/3/3 318/3/3 321/3/3
f 327/3/3 324/3/3 323/3/3
f 328/3/3 324/3/3 327/3/3
f 329/3/3 326/3/3 325/3/3
f 330/3/3 326/3/3 329/3/3
f 335/3/3 332/3/3 331/3/3
f 336/3/3 332/3/3 335/3/3
f 337/3/3 334/3/3 333/3/3
f 338/3/3 334/3/3 337/3/3
f 343/3/3 340/3/3 339/3/3
f 344/3/3 340/3/3 343/3/3
f 345/3/3 342/3/3 341/3/3
f 346/3/3 342/3/3 345/3/3
f 349/3/3 348/3/3 347/3/3
f 350/3/3 348/3/3 349/3/3
f 353/3/3 352/3/3 351/3/3
f 354/3/3 352/3/3 353/3/3
f 355/3/4 356/3/4 357/3/4
f 357/3/4 356/3/4 358/3/4
f 359/3/4 360/3/4 361/3/4
f 361/3/4 360/3/4 362/3/4
f 363/3/4 364/3/4 367/3/4
f 367/3/4 364/3/4 368/3/4
f 365/3/4 366/3/4 369/3/4
f 369/3/4 366/3/4 370/3/4
f 371/3/4 372/3/4 375/3/4
f 375/3/4 372/3/4 376/3/4
f 373/3/4 374/3/4 377/3/4
f 377/3/4 374/3/4 378/3/4
f 379/3/4 380/3/4 383/3/4
f 383/3/4 380/3/4 384/3/4
f 381/3/4 382/3/4 385/3/4
f 385/3/4 382/3/4 386/3/4
f 387/3/4 388/3/4 391/3/4
f 391/3/4 388/3/4 392/3/4
f 389/3/4 390/3/4 393/3/4
f 393/3/4 390/3/4 394/3/4
f 395/1/4 396/1/4 399/1/4
f 399/1/4 396/1/4 400/1/4
f 397/1/4 398/1/4 401/1/4
f 401/1/4 398/1/4 402/1/4
f 403/1/4 404/1/4 407/1/4
f 407/1/4 404/1/4 408/1/4
f 405/1/4 406/1/4 409/1/4
f 409/1/4 406/1/4 410/1/4
f 413/1/4 414/1/4 417/1/4
f 417/1/4 414/1/4 418/1/4
f 418/1/4 414/1/4 419/1/4
f 419/1/4 414/1/4 420/1/4
f 421/1/4 422/1/4 425/1/4
f 423/1/4 424/1/4 425/1/4
f 422/1/4 423/1/4 425/1/4
f 425/1/4 424/1/4 426/1/4
f 426/1/4 424/1/4 427/1/4
f 427/1/4 424/1/4 428/1/4
f 411/3/4 412/3/4 429/3/4
f 429/3/4 412/3/4 430/3/4
f 415/3/4 416/3/4 431/3/4
f 431/3/4 416/3/4 432/3/4
f 433/3/4 434/3/4 437/3/4
f 437/3/4 434/3/4 438/3/4
f 435/3/4 436/3/4 439/3/4
f 439/3/4 436/3/4 440/3/4
f 441/3/4 442/3/4 445/3/4
f 445/3/4 442/3/4 446/3/4
f 443/3/4 444/3/4 447/3/4
f 447/3/4 444/3/4 448/3/4
f 449/3/4 450/3/4 451/3/4
f 451/3/4 450/3/4 452/3/4
f 455/3/5 454/3/5 453/3/5
f 456/3/5 454/3/5 455/3/5
f 459/3/5 458/3/5 457/3/5
f 460/3/5 458/3/5 459/3/5
f 463/3/5 462/3/5 461/3/5
f 464/3/5 462/3/5 463/3/5
f 467/3/5 466/3/5 465/3/5
f 468/3/5 466/3/5 467/3/5
f 471/3/5 470/3/5 469/3/5
f 472/3/5 470/3/5 471/3/5
f 475/3/5 474/3/5 473/3/5
f 476/3/5 474/3/5 475/3/5
f 481/1/5 478/1/5 477/1/5
f 482/1/5 480/1/5 479/1/5
f 483/1/5 480/1/5 482/1/5
f 484/1/5 481/1/5 477/1/5
f 485/1/5 483/1/5 482/1/5
f 486/1/5 483/1/5 485/1/5
f 487/1/5 484/1/5 477/1/5
f 488/1/5 484/1/5 487/1/5
f 489/1/5 486/1/5 485/1/5
f 490/1/5 486/1/5 489/1/5
f 493/3/5 492/3/5 491/3/5
f 494/3/5 492/3/5 493/3/5
f 499/1/5 496/1/5 495/1/5
f 500/1/5 496/1/5 499/1/5
f 501/1/5 498/1/5 497/1/5
f 502/1/5 498/1/5 501/1/5
f 507/1/5 504/1/5 503/1/5
f 508/1/5 504/1/5 507/1/5
f 509/1/5 506/1/5 505/1/5
f 510/1/5 506/1/5 509/1/5
f 515/3/5 512/3/5 511/3/5
f 516/3/5 512/3/5 515/3/5
f 517/3/5 514/3/5 513/3/5
f 518/3/5 514/3/5 517/3/5
f 523/3/5 520/3/5 519/3/5
f 524/3/5 520/3/5 523/3/5
f 525/3/5 522/3/5 521/3/5
f 526/3/5 522/3/5 525/3/5
f 531/3/5 528/3/5 527/3/5
f 532/3/5 528/3/5 531/3/5
f 533/3/5 530/3/5 529/3/5
f 534/3/5 530/3/5 533/3/5
f 539/3/5 536/3/5 535/3/5
f 540/3/5 536/3/5 539/3/5
f 541/3/5 538/3/5 537/3/5
f 542/3/5 538/3/5 541/3/5
f 547/3/5 544/3/5 543/3/5
f 548/3/5 544/3/5 547/3/5
f 549/3/5 546/3/5 545/3/5
f 550/3/5 546/3/5 549/3/5
f 551/3/6 552/3/6 555/3/6
f 555/3/6 552/3/6 556/3/6
f 553/3/6 554/3/6 557/3/6
f 557/3/6 554/3/6 558/3/6
f 559/3/6 560/3/6 563/3/6
f 563/3/6 560/3/6 564/3/6
f 561/3/6 562/3/6 565/3/6
f 565/3/6 562/3/6 566/3/6
f 567/3/6 568/3/6 571/3/6
f 571/3/6 568/3/6 572/3/6
f 569/3/6 570/3/6 573/3/6
f 573/3/6 570/3/6 574/3/6
f 575/3/6 576/3/6 579/3/6
f 579/3/6 576/3/6 580/3/6
f 577/3/6 578/3/6 581/3/6
f 581/3/6 578/3/6 582/3/6
f 583/3/6 584/3/6 587/3/6
f 587/3/6 584/3/6 588/3/6
f 585/3/6 586/3/6 589/3/6
f 589/3/6 586/3/6 590/3/6
f 591/1/6 592/1/6 595/1/6
f 595/1/6 592/1/6 596/1/6
f 593/1/6 594/1/6 597/1/6
f 597/1/6 594/1/6 598/1/6
f 599/1/6 600/1/6 603/1/6
f 603/1/6 600/1/6 604/1/6
f 601/1/6 602/1/6 605/1/6
f 605/1/6 602/1/6 606/1/6
f 607/3/6 608/3/6 609/3/6
f 609/3/6 608/3/6 610/3/6
f 611/1/6 612/1/6 615/1/6
f 613/1/6 614/1/6 616/1/6
f 616/1/6 614/1/6 617/1/6
f 611/1/6 615/1/6 618/1/6
f 616/1/6 617/1/6 619/1/6
f 619/1/6 617/1/6 620/1/6
f 611/1/6 618/1/6 621/1/6
f 621/1/6 618/1/6 622/1/6
f 619/1/6 620/1/6 623/1/6
f 623/1/6 620/1/6 624/1/6
f 625/3/6 626/3/6 627/3/6
f 627/3/6 626/3/6 628/3/6
f 629/3/6 630/3/6 631/3/6
f 631/3/6 630/3/6 632/3/6
f 633/3/6 634/3/6 635/3/6
f 635/3/6 634/3/6 636/3/6
f 637/3/6 638/3/6 639/3/6
f 639/3/6 638/3/6 640/3/6
f 641/3/6 642/3/6 643/3/6
f 643/3/6 642/3/6 644/3/6
f 645/3/6 646/3/6 647/3/6
f 647/3/6 646/3/6 648/3/6
