# Blender 4.0.2
# www.blender.org
mtllib forearmR.mtl
o forearmR
v -0.400000 1.600000 0.100000
v -0.600000 2.000000 0.100000
v -0.400000 2.500000 0.100000
v -0.500000 2.500000 0.100000
v -0.600000 2.600000 0.100000
v -0.400000 2.000000 -0.100000
v -0.500000 2.200000 -0.100000
v -0.600000 2.200000 -0.100000
v -0.500000 2.300000 -0.100000
v -0.400000 2.600000 -0.100000
v -0.400000 2.000000 0.100000
v -0.400000 2.500000 0.000000
v -0.400000 2.600000 0.000000
v -0.400000 1.600000 -0.100000
v -0.600000 2.200000 0.000000
v -0.600000 2.300000 0.000000
v -0.600000 2.000000 -0.100000
v -0.600000 2.300000 -0.100000
v -0.600000 1.600000 0.100000
v -0.600000 1.600000 -0.100000
v -0.400000 2.600000 0.100000
v -0.500000 2.600000 0.100000
v -0.500000 2.600000 0.000000
v -0.600000 2.600000 -0.100000
vn -0.0000 -0.0000 1.0000
vn -0.0000 -0.0000 -1.0000
vn 1.0000 -0.0000 -0.0000
vn -1.0000 -0.0000 -0.0000
vn -0.0000 -1.0000 -0.0000
vn -0.0000 1.0000 -0.0000
vt 0.990234 0.500000
vt 0.912109 0.500000
vt 0.908203 0.500000
s 0
usemtl palette.009
f 11/1/1 19/1/1 1/1/1
f 2/1/1 19/1/1 11/1/1
f 3/2/1 2/2/1 11/2/1
f 4/2/1 2/2/1 3/2/1
f 21/3/1 4/3/1 3/3/1
f 22/2/1 2/2/1 4/2/1
f 22/3/1 4/3/1 21/3/1
f 5/2/1 2/2/1 22/2/1
f 14/1/2 20/1/2 6/1/2
f 6/1/2 20/1/2 17/1/2
f 6/2/2 17/2/2 7/2/2
f 7/2/2 17/2/2 8/2/2
f 6/2/2 7/2/2 9/2/2
f 7/3/2 8/3/2 9/3/2
f 9/3/2 8/3/2 18/3/2
f 6/2/2 9/2/2 10/2/2
f 9/2/2 18/2/2 10/2/2
f 10/2/2 18/2/2 24/2/2
f 12/2/3 3/2/3 11/2/3
f 12/3/3 21/3/3 3/3/3
f 13/3/3 21/3/3 12/3/3
f 14/1/3 11/1/3 1/1/3
f 6/2/3 12/2/3 11/2/3
f 6/1/3 11/1/3 14/1/3
f 6/2/3 13/2/3 12/2/3
f 10/2/3 13/2/3 6/2/3
f 2/2/4 5/2/4 15/2/4
f 15/2/4 5/2/4 16/2/4
f 19/1/4 2/1/4 20/1/4
f 2/2/4 15/2/4 17/2/4
f 20/1/4 2/1/4 17/1/4
f 15/3/4 16/3/4 8/3/4
f 17/2/4 15/2/4 8/2/4
f 16/2/4 5/2/4 18/2/4
f 8/3/4 16/3/4 18/3/4
f 18/2/4 5/2/4 24/2/4
f 19/1/5 14/1/5 1/1/5
f 20/1/5 14/1/5 19/1/5
f 21/3/6 13/3/6 22/3/6
f 13/2/6 10/2/6 23/2/6
f 22/3/6 13/3/6 23/3/6
f 22/2/6 23/2/6 5/2/6
f 23/2/6 10/2/6 24/2/6
f 5/2/6 23/2/6 24/2/6
