# Blender 4.0.2
# www.blender.org
mtllib forearmL.mtl
o forearmL
v 0.600000 1.600000 0.100000
v 0.600000 2.000000 0.100000
v 0.400000 2.000000 0.100000
v 0.600000 2.400000 0.100000
v 0.500000 2.400000 0.100000
v 0.600000 2.500000 0.100000
v 0.500000 2.500000 0.100000
v 0.600000 1.600000 -0.100000
v 0.400000 2.000000 -0.100000
v 0.600000 2.100000 -0.100000
v 0.500000 2.100000 -0.100000
v 0.500000 2.200000 -0.100000
v 0.500000 2.400000 -0.100000
v 0.400000 2.400000 -0.100000
v 0.500000 2.500000 -0.100000
v 0.400000 2.500000 -0.100000
v 0.400000 2.600000 -0.100000
v 0.600000 2.600000 0.100000
v 0.600000 2.100000 -0.000000
v 0.600000 2.200000 -0.000000
v 0.600000 2.400000 -0.000000
v 0.600000 2.500000 -0.000000
v 0.600000 2.000000 -0.100000
v 0.600000 2.200000 -0.100000
v 0.600000 2.600000 -0.100000
v 0.400000 2.600000 0.100000
v 0.400000 2.400000 -0.000000
v 0.400000 2.500000 -0.000000
v 0.400000 1.600000 0.100000
v 0.400000 1.600000 -0.100000
vn -0.0000 -0.0000 1.0000
vn -0.0000 -0.0000 -1.0000
vn 1.0000 -0.0000 -0.0000
vn -1.0000 -0.0000 -0.0000
vn -0.0000 -1.0000 -0.0000
vn -0.0000 1.0000 -0.0000
vt 0.990234 0.500000
vt 0.912109 0.500000
vt 0.908203 0.500000
s 0
usemtl palette.006
f 2/1/1 29/1/1 1/1/1
f 3/1/1 29/1/1 2/1/1
f 4/2/1 3/2/1 2/2/1
f 5/2/1 3/2/1 4/2/1
f 6/3/1 5/3/1 4/3/1
f 7/2/1 3/2/1 5/2/1
f 7/3/1 5/3/1 6/3/1
f 18/2/1 7/2/1 6/2/1
f 26/2/1 3/2/1 7/2/1
f 26/2/1 7/2/1 18/2/1
f 8/1/2 30/1/2 23/1/2
f 23/1/2 30/1/2 9/1/2
f 23/2/2 9/2/2 10/2/2
f 10/2/2 9/2/2 11/2/2
f 10/3/2 11/3/2 24/3/2
f 11/2/2 9/2/2 12/2/2
f 24/3/2 11/3/2 12/3/2
f 24/2/2 12/2/2 13/2/2
f 12/2/2 9/2/2 13/2/2
f 13/2/2 9/2/2 14/2/2
f 24/2/2 13/2/2 15/2/2
f 13/3/2 14/3/2 15/3/2
f 15/3/2 14/3/2 16/3/2
f 24/2/2 15/2/2 25/2/2
f 15/2/2 16/2/2 25/2/2
f 25/2/2 16/2/2 17/2/2
f 19/2/3 4/2/3 2/2/3
f 20/2/3 4/2/3 19/2/3
f 21/3/3 6/3/3 4/3/3
f 21/2/3 4/2/3 20/2/3
f 22/2/3 18/2/3 6/2/3
f 22/3/3 6/3/3 21/3/3
f 8/1/3 2/1/3 1/1/3
f 23/2/3 19/2/3 2/2/3
f 23/1/3 2/1/3 8/1/3
f 10/3/3 20/3/3 19/3/3
f 10/2/3 19/2/3 23/2/3
f 24/2/3 21/2/3 20/2/3
f 24/3/3 20/3/3 10/3/3
f 24/2/3 22/2/3 21/2/3
f 25/2/3 18/2/3 22/2/3
f 25/2/3 22/2/3 24/2/3
f 3/2/4 26/2/4 27/2/4
f 27/2/4 26/2/4 28/2/4
f 29/1/4 3/1/4 30/1/4
f 3/2/4 27/2/4 9/2/4
f 30/1/4 3/1/4 9/1/4
f 27/3/4 28/3/4 14/3/4
f 9/2/4 27/2/4 14/2/4
f 28/2/4 26/2/4 16/2/4
f 14/3/4 28/3/4 16/3/4
f 16/2/4 26/2/4 17/2/4
f 29/1/5 8/1/5 1/1/5
f 30/1/5 8/1/5 29/1/5
f 18/2/6 25/2/6 26/2/6
f 26/2/6 25/2/6 17/2/6
