# Blender 4.0.2
# www.blender.org
mtllib shinL.mtl
o shinL
v 0.300000 0.000000 0.200000
v 0.100000 0.000000 0.200000
v 0.300000 0.100000 0.200000
v 0.100000 0.100000 0.200000
v 0.100000 0.100000 0.100000
v 0.300000 0.400000 0.100000
v 0.300000 0.500000 0.100000
v 0.200000 0.500000 0.100000
v 0.200000 0.600000 0.100000
v 0.300000 0.800000 0.100000
v 0.200000 0.800000 0.100000
v 0.300000 0.900000 0.100000
v 0.200000 0.900000 0.100000
v 0.300000 0.400000 -0.100000
v 0.200000 0.600000 -0.100000
v 0.200000 0.700000 -0.100000
v 0.300000 1.000000 -0.100000
v 0.200000 1.000000 -0.100000
v 0.200000 1.100000 -0.100000
v 0.100000 1.100000 -0.100000
v 0.300000 0.100000 0.100000
v 0.300000 0.600000 0.100000
v 0.300000 1.100000 0.100000
v 0.300000 0.500000 -0.000000
v 0.300000 0.600000 -0.000000
v 0.300000 0.700000 -0.000000
v 0.300000 0.800000 -0.000000
v 0.300000 0.900000 -0.000000
v 0.300000 1.000000 -0.000000
v 0.300000 1.100000 -0.000000
v 0.300000 0.000000 -0.100000
v 0.300000 0.600000 -0.100000
v 0.300000 0.700000 -0.100000
v 0.100000 0.400000 0.100000
v 0.100000 1.100000 0.100000
v 0.100000 0.000000 -0.100000
v 0.100000 0.400000 -0.100000
v 0.300000 1.100000 -0.100000
v 0.200000 1.100000 -0.000000
vn -0.0000 -0.0000 1.0000
vn -0.0000 -0.0000 -1.0000
vn 1.0000 -0.0000 -0.0000
vn -1.0000 -0.0000 -0.0000
vn -0.0000 -1.0000 -0.0000
vn -0.0000 1.0000 -0.0000
vt 0.990234 0.500000
vt 0.912109 0.500000
vt 0.908203 0.500000
s 0
usemtl palette.004
f 3/1/1 2/1/1 1/1/1
f 4/1/1 2/1/1 3/1/1
f 6/1/1 5/1/1 21/1/1
f 34/1/1 5/1/1 6/1/1
f 7/2/1 34/2/1 6/2/1
f 8/2/1 34/2/1 7/2/1
f 22/3/1 8/3/1 7/3/1
f 9/2/1 34/2/1 8/2/1
f 9/3/1 8/3/1 22/3/1
f 10/2/1 9/2/1 22/2/1
f 11/2/1 34/2/1 9/2/1
f 11/2/1 9/2/1 10/2/1
f 12/3/1 11/3/1 10/3/1
f 13/2/1 34/2/1 11/2/1
f 13/3/1 11/3/1 12/3/1
f 23/2/1 13/2/1 12/2/1
f 35/2/1 34/2/1 13/2/1
f 35/2/1 13/2/1 23/2/1
f 31/1/2 36/1/2 14/1/2
f 14/1/2 36/1/2 37/1/2
f 14/2/2 37/2/2 32/2/2
f 32/2/2 37/2/2 15/2/2
f 32/3/2 15/3/2 33/3/2
f 15/2/2 37/2/2 16/2/2
f 33/3/2 15/3/2 16/3/2
f 33/2/2 16/2/2 17/2/2
f 16/2/2 37/2/2 18/2/2
f 17/2/2 16/2/2 18/2/2
f 17/3/2 18/3/2 38/3/2
f 18/2/2 37/2/2 19/2/2
f 38/3/2 18/3/2 19/3/2
f 19/2/2 37/2/2 20/2/2
f 21/1/3 3/1/3 1/1/3
f 24/2/3 7/2/3 6/2/3
f 24/3/3 22/3/3 7/3/3
f 25/2/3 10/2/3 22/2/3
f 25/3/3 22/3/3 24/3/3
f 26/2/3 10/2/3 25/2/3
f 27/3/3 12/3/3 10/3/3
f 27/2/3 10/2/3 26/2/3
f 28/2/3 23/2/3 12/2/3
f 28/3/3 12/3/3 27/3/3
f 29/2/3 23/2/3 28/2/3
f 30/2/3 23/2/3 29/2/3
f 31/1/3 21/1/3 1/1/3
f 31/1/3 6/1/3 21/1/3
f 14/2/3 24/2/3 6/2/3
f 14/1/3 6/1/3 31/1/3
f 14/2/3 25/2/3 24/2/3
f 32/3/3 26/3/3 25/3/3
f 32/2/3 25/2/3 14/2/3
f 33/2/3 27/2/3 26/2/3
f 33/3/3 26/3/3 32/3/3
f 33/2/3 29/2/3 28/2/3
f 33/2/3 28/2/3 27/2/3
f 17/3/3 30/3/3 29/3/3
f 17/2/3 29/2/3 33/2/3
f 38/3/3 30/3/3 17/3/3
f 2/1/4 4/1/4 5/1/4
f 2/1/4 5/1/4 36/1/4
f 5/1/4 34/1/4 36/1/4
f 34/2/4 35/2/4 37/2/4
f 36/1/4 34/1/4 37/1/4
f 37/2/4 35/2/4 20/2/4
f 2/1/5 31/1/5 1/1/5
f 36/1/5 31/1/5 2/1/5
f 3/1/6 21/1/6 4/1/6
f 4/1/6 21/1/6 5/1/6
f 23/2/6 30/2/6 39/2/6
f 30/3/6 38/3/6 39/3/6
f 39/3/6 38/3/6 19/3/6
f 23/2/6 39/2/6 35/2/6
f 39/2/6 19/2/6 35/2/6
f 35/2/6 19/2/6 20/2/6
