# Blender 4.0.2
# www.blender.org
mtllib thighR.mtl
o thighR
v -0.300000 1.100000 0.100000
v -0.200000 1.300000 0.100000
v -0.100000 1.400000 0.100000
v -0.200000 1.400000 0.100000
v -0.200000 1.600000 0.100000
v -0.200000 1.700000 0.100000
v -0.100000 1.500000 -0.100000
v -0.200000 1.500000 -0.100000
v -0.100000 1.600000 -0.100000
v -0.200000 1.600000 -0.100000
v -0.200000 1.800000 -0.100000
v -0.200000 1.900000 -0.100000
v -0.300000 1.900000 -0.100000
v -0.100000 1.100000 0.100000
v -0.100000 1.300000 0.100000
v -0.100000 1.300000 0.000000
v -0.100000 1.400000 0.000000
v -0.100000 1.500000 0.000000
v -0.100000 1.600000 0.000000
v -0.300000 1.600000 0.100000
v -0.300000 1.700000 0.100000
v -0.300000 1.600000 0.000000
v -0.300000 1.700000 0.000000
v -0.300000 1.800000 0.000000
v -0.300000 1.900000 0.000000
v -0.300000 1.800000 -0.100000
v -0.300000 2.000000 -0.100000
v -0.100000 1.100000 -0.100000
v -0.300000 1.100000 -0.100000
v -0.100000 2.000000 0.100000
v -0.100000 2.000000 -0.100000
v -0.300000 2.000000 0.100000
vn -0.0000 -0.0000 1.0000
vn -0.0000 -0.0000 -1.0000
vn 1.0000 -0.0000 -0.0000
vn -1.0000 -0.0000 -0.0000
vn -0.0000 -1.0000 -0.0000
vn -0.0000 1.0000 -0.0000
vt 0.912109 0.500000
vt 0.908203 0.500000
s 0
usemtl palette.003
f 15/1/1 1/1/1 14/1/1
f 2/1/1 1/1/1 15/1/1
f 3/2/1 2/2/1 15/2/1
f 4/1/1 1/1/1 2/1/1
f 4/2/1 2/2/1 3/2/1
f 5/1/1 4/1/1 3/1/1
f 5/1/1 1/1/1 4/1/1
f 20/1/1 1/1/1 5/1/1
f 6/1/1 5/1/1 3/1/1
f 6/2/1 20/2/1 5/2/1
f 21/2/1 20/2/1 6/2/1
f 30/1/1 6/1/1 3/1/1
f 30/1/1 21/1/1 6/1/1
f 32/1/1 21/1/1 30/1/1
f 28/1/2 29/1/2 7/1/2
f 7/1/2 29/1/2 8/1/2
f 7/2/2 8/2/2 9/2/2
f 8/1/2 29/1/2 10/1/2
f 9/2/2 8/2/2 10/2/2
f 9/1/2 10/1/2 11/1/2
f 10/1/2 29/1/2 11/1/2
f 11/1/2 29/1/2 26/1/2
f 9/1/2 11/1/2 12/1/2
f 11/2/2 26/2/2 12/2/2
f 12/2/2 26/2/2 13/2/2
f 9/1/2 12/1/2 31/1/2
f 12/1/2 13/1/2 31/1/2
f 31/1/2 13/1/2 27/1/2
f 16/1/3 15/1/3 14/1/3
f 16/2/3 3/2/3 15/2/3
f 17/1/3 30/1/3 3/1/3
f 17/2/3 3/2/3 16/2/3
f 18/1/3 30/1/3 17/1/3
f 19/1/3 30/1/3 18/1/3
f 28/1/3 16/1/3 14/1/3
f 28/1/3 17/1/3 16/1/3
f 28/1/3 18/1/3 17/1/3
f 7/2/3 19/2/3 18/2/3
f 7/1/3 18/1/3 28/1/3
f 9/1/3 30/1/3 19/1/3
f 9/2/3 19/2/3 7/2/3
f 31/1/3 30/1/3 9/1/3
f 1/1/4 20/1/4 22/1/4
f 20/2/4 21/2/4 22/2/4
f 21/1/4 32/1/4 23/1/4
f 22/2/4 21/2/4 23/2/4
f 23/1/4 32/1/4 24/1/4
f 24/1/4 32/1/4 25/1/4
f 1/1/4 22/1/4 29/1/4
f 22/1/4 23/1/4 29/1/4
f 23/1/4 24/1/4 29/1/4
f 24/2/4 25/2/4 26/2/4
f 29/1/4 24/1/4 26/1/4
f 25/1/4 32/1/4 13/1/4
f 26/2/4 25/2/4 13/2/4
f 13/1/4 32/1/4 27/1/4
f 1/1/5 28/1/5 14/1/5
f 29/1/5 28/1/5 1/1/5
f 30/1/6 31/1/6 32/1/6
f 32/1/6 31/1/6 27/1/6
