# Blender 4.0.2
# www.blender.org
mtllib upper_armR.mtl
o upper_armR
v -0.400000 2.600000 0.100000
v -0.600000 2.600000 0.100000
v -0.500000 2.800000 0.100000
v -0.500000 2.900000 0.100000
v -0.600000 2.900000 0.100000
v -0.400000 3.400000 0.100000
v -0.400000 2.600000 -0.100000
v -0.500000 3.200000 -0.100000
v -0.500000 3.300000 -0.100000
v -0.600000 3.300000 -0.100000
v -0.600000 2.800000 0.100000
v -0.600000 2.800000 0.000000
v -0.600000 2.900000 0.000000
v -0.600000 3.200000 0.000000
v -0.600000 3.300000 0.000000
v -0.600000 3.200000 -0.100000
v -0.600000 3.400000 -0.100000
v -0.600000 2.600000 -0.100000
v -0.400000 3.400000 -0.100000
v -0.600000 3.400000 0.100000
vn -0.0000 -0.0000 1.0000
vn -0.0000 -0.0000 -1.0000
vn 1.0000 -0.0000 -0.0000
vn -1.0000 -0.0000 -0.0000
vn -0.0000 -1.0000 -0.0000
vn -0.0000 1.0000 -0.0000
vt 0.912109 0.500000
vt 0.908203 0.500000
s 0
usemtl palette.007
f 3/1/1 2/1/1 1/1/1
f 11/1/1 2/1/1 3/1/1
f 4/1/1 3/1/1 1/1/1
f 4/2/1 11/2/1 3/2/1
f 5/2/1 11/2/1 4/2/1
f 6/1/1 4/1/1 1/1/1
f 6/1/1 5/1/1 4/1/1
f 20/1/1 5/1/1 6/1/1
f 7/1/2 18/1/2 8/1/2
f 8/1/2 18/1/2 16/1/2
f 7/1/2 8/1/2 9/1/2
f 8/2/2 16/2/2 9/2/2
f 9/2/2 16/2/2 10/2/2
f 7/1/2 9/1/2 19/1/2
f 9/1/2 10/1/2 19/1/2
f 19/1/2 10/1/2 17/1/2
f 7/1/3 6/1/3 1/1/3
f 19/1/3 6/1/3 7/1/3
f 2/1/4 11/1/4 12/1/4
f 11/2/4 5/2/4 12/2/4
f 5/1/4 20/1/4 13/1/4
f 12/2/4 5/2/4 13/2/4
f 13/1/4 20/1/4 14/1/4
f 14/1/4 20/1/4 15/1/4
f 2/1/4 12/1/4 18/1/4
f 12/1/4 13/1/4 18/1/4
f 13/1/4 14/1/4 18/1/4
f 14/2/4 15/2/4 16/2/4
f 18/1/4 14/1/4 16/1/4
f 15/1/4 20/1/4 10/1/4
f 16/2/4 15/2/4 10/2/4
f 10/1/4 20/1/4 17/1/4
f 2/1/5 7/1/5 1/1/5
f 18/1/5 7/1/5 2/1/5
f 6/1/6 19/1/6 20/1/6
f 20/1/6 19/1/6 17/1/6
