# MagicaVoxel @ Ephtracy

# group
o 

# material
mtllib DurkaDoctors-1.mtl
usemtl palette

# normals
vn -1 0 0
vn 1 0 0
vn 0 0 1
vn 0 0 -1
vn 0 -1 0
vn 0 1 0

# texcoords
vt 0.00195313 0.5
vt 0.0332031 0.5
vt 0.841797 0.5
vt 0.873047 0.5
vt 0.876953 0.5
vt 0.958984 0.5
vt 0.966797 0.5
vt 0.982422 0.5
vt 0.990234 0.5

# verts
v -0.4 4.1 0.3
v -0.4 4.1 0.1
v -0.4 4.1 -0.1
v -0.4 4.1 -0.3
v -0.4 4.2 0.3
v -0.4 4.2 0.1
v -0.4 4.2 -0.1
v -0.4 4.2 -0.3
v -0.4 4.4 0.3
v -0.4 4.4 0.1
v -0.4 4.4 -0.1
v -0.4 4.4 -0.3
v -0.4 4.5 0.3
v -0.4 4.5 0.1
v -0.4 4.5 -0.1
v -0.4 4.5 -0.3
v -0.3 3.6 0.2
v -0.3 3.6 -0.2
v -0.3 3.7 0.3
v -0.3 3.7 0.2
v -0.3 3.7 0.1
v -0.3 3.7 -0.1
v -0.3 3.7 -0.2
v -0.3 3.7 -0.3
v -0.3 3.8 0.1
v -0.3 3.8 -0.1
v -0.3 3.9 0.2
v -0.3 3.9 0.1
v -0.3 3.9 -0.1
v -0.3 3.9 -0.2
v -0.3 4 0.2
v -0.3 4 0.1
v -0.3 4 -0.1
v -0.3 4 -0.2
v -0.3 4.1 0.4
v -0.3 4.1 0.3
v -0.3 4.1 0.1
v -0.3 4.1 -0.1
v -0.3 4.1 -0.3
v -0.3 4.1 -0.4
v -0.3 4.2 0.3
v -0.3 4.2 -0.3
v -0.3 4.4 0.3
v -0.3 4.4 -0.3
v -0.3 4.5 0.4
v -0.3 4.5 0.3
v -0.3 4.5 -0.3
v -0.3 4.5 -0.4
v -0.2 0 0.3
v -0.2 0 0.1
v -0.2 0 -0.1
v -0.2 0 -0.3
v -0.2 0.1 0.3
v -0.2 0.1 0.1
v -0.2 0.1 -0.1
v -0.2 0.1 -0.3
v -0.2 2 0.5
v -0.2 2 -0.5
v -0.2 2.5 0.3
v -0.2 2.5 0.2
v -0.2 2.6 0.4
v -0.2 2.6 0.3
v -0.2 2.6 0.2
v -0.2 2.6 0.1
v -0.2 2.7 0.4
v -0.2 2.7 0.3
v -0.2 2.7 0.2
v -0.2 2.7 0.1
v -0.2 2.8 0.4
v -0.2 2.8 0.3
v -0.2 2.8 0.2
v -0.2 2.8 0.1
v -0.2 2.9 0.4
v -0.2 2.9 0.3
v -0.2 2.9 0.2
v -0.2 2.9 0.1
v -0.2 2.9 -0.1
v -0.2 3 0.2
v -0.2 3 0.1
v -0.2 3 -0.1
v -0.2 3 -0.2
v -0.2 3.1 0.3
v -0.2 3.1 0.2
v -0.2 3.1 -0.2
v -0.2 3.1 -0.3
v -0.2 3.3 0.2
v -0.2 3.3 0.1
v -0.2 3.3 -0.1
v -0.2 3.3 -0.2
v -0.2 3.4 0.5
v -0.2 3.4 0.4
v -0.2 3.4 0.1
v -0.2 3.4 -0.1
v -0.2 3.4 -0.4
v -0.2 3.4 -0.5
v -0.2 3.5 0.4
v -0.2 3.5 0.3
v -0.2 3.5 0.2
v -0.2 3.5 0.1
v -0.2 3.5 -0.1
v -0.2 3.5 -0.2
v -0.2 3.5 -0.3
v -0.2 3.5 -0.4
v -0.2 3.6 0.1
v -0.2 3.6 -0.1
v -0.1 0.1 0.3
v -0.1 0.1 0.1
v -0.1 0.1 -0.1
v -0.1 0.1 -0.3
v -0.1 1.6 0.6
v -0.1 1.6 0.4
v -0.1 1.6 -0.4
v -0.1 1.6 -0.6
v -0.1 1.8 0.6
v -0.1 1.8 0.4
v -0.1 1.8 -0.4
v -0.1 1.8 -0.6
v -0.1 2 0.5
v -0.1 2 0.4
v -0.1 2 0.3
v -0.1 2 0.1
v -0.1 2 -0.1
v -0.1 2 -0.3
v -0.1 2 -0.4
v -0.1 2 -0.5
v -0.1 3.4 0.6
v -0.1 3.4 0.5
v -0.1 3.4 -0.5
v -0.1 3.4 -0.6
v 0.1 0 0.3
v 0.1 0 0.1
v 0.1 0 -0.1
v 0.1 0 -0.3
v 0.1 0.1 0.3
v 0.1 0.1 0.1
v 0.1 0.1 -0.1
v 0.1 0.1 -0.3
v 0.1 1.6 0.6
v 0.1 1.6 0.4
v 0.1 1.6 -0.4
v 0.1 1.6 -0.6
v 0.1 1.8 0.6
v 0.1 1.8 0.4
v 0.1 1.8 -0.4
v 0.1 1.8 -0.6
v 0.1 2 0.5
v 0.1 2 0.4
v 0.1 2 0.3
v 0.1 2 0.1
v 0.1 2 -0.1
v 0.1 2 -0.3
v 0.1 2 -0.4
v 0.1 2 -0.5
v 0.1 3.4 0.6
v 0.1 3.4 0.5
v 0.1 3.4 -0.5
v 0.1 3.4 -0.6
v 0.1 3.5 0.1
v 0.1 3.5 -0.1
v 0.1 3.6 0.1
v 0.1 3.6 -0.1
v 0.2 2 0.5
v 0.2 2 -0.5
v 0.2 3.4 0.5
v 0.2 3.4 0.4
v 0.2 3.4 -0.4
v 0.2 3.4 -0.5
v 0.2 3.5 0.4
v 0.2 3.5 -0.4
v 0.2 3.6 0.2
v 0.2 3.6 -0.2
v 0.2 3.7 0.2
v 0.2 3.7 -0.2
v 0.3 3.7 0.3
v 0.3 3.7 -0.3
v 0.3 4.1 0.4
v 0.3 4.1 0.3
v 0.3 4.1 0.2
v 0.3 4.1 -0.2
v 0.3 4.1 -0.3
v 0.3 4.1 -0.4
v 0.3 4.5 0.4
v 0.3 4.5 0.2
v 0.3 4.5 -0.2
v 0.3 4.5 -0.4
v 0.4 4.1 0.2
v 0.4 4.1 -0.2
v 0.4 4.5 0.2
v 0.4 4.5 -0.2
v -0.1 1.6 0.6
v -0.1 1.8 0.6
v -0.1 3.4 0.6
v 0.1 1.6 0.6
v 0.1 1.8 0.6
v 0.1 3.4 0.6
v -0.2 2 0.5
v -0.2 3.4 0.5
v -0.1 2 0.5
v -0.1 3.4 0.5
v 0.1 2 0.5
v 0.1 3.4 0.5
v 0.2 2 0.5
v 0.2 3.4 0.5
v -0.3 4.1 0.4
v -0.3 4.5 0.4
v -0.2 3.4 0.4
v -0.2 3.5 0.4
v 0.2 3.4 0.4
v 0.2 3.5 0.4
v 0.3 4.1 0.4
v 0.3 4.5 0.4
v -0.4 4.1 0.3
v -0.4 4.2 0.3
v -0.4 4.4 0.3
v -0.4 4.5 0.3
v -0.3 3.7 0.3
v -0.3 4.1 0.3
v -0.3 4.2 0.3
v -0.3 4.4 0.3
v -0.3 4.5 0.3
v -0.2 0 0.3
v -0.2 0.1 0.3
v -0.1 0.1 0.3
v -0.1 2 0.3
v 0 2 0.3
v 0.1 0 0.3
v 0.1 0.1 0.3
v 0.1 2 0.3
v 0.3 3.7 0.3
v 0.3 4.1 0.3
v -0.3 3.6 0.2
v -0.3 3.7 0.2
v 0.2 3.6 0.2
v 0.2 3.7 0.2
v 0.3 4.1 0.2
v 0.3 4.5 0.2
v 0.4 4.1 0.2
v 0.4 4.5 0.2
v -0.2 3.5 0.1
v -0.2 3.6 0.1
v -0.1 3.5 0.1
v 0.1 3.5 0.1
v 0.1 3.6 0.1
v -0.2 0 -0.1
v -0.2 0.1 -0.1
v -0.1 0.1 -0.1
v -0.1 2 -0.1
v 0 2 -0.1
v 0.1 0 -0.1
v 0.1 0.1 -0.1
v 0.1 2 -0.1
v -0.1 1.6 -0.4
v -0.1 1.8 -0.4
v -0.1 2 -0.4
v 0 2 -0.4
v 0.1 1.6 -0.4
v 0.1 1.8 -0.4
v 0.1 2 -0.4
v -0.1 1.6 0.4
v -0.1 1.8 0.4
v -0.1 2 0.4
v 0 2 0.4
v 0.1 1.6 0.4
v 0.1 1.8 0.4
v 0.1 2 0.4
v -0.2 0 0.1
v -0.2 0.1 0.1
v -0.1 0.1 0.1
v -0.1 2 0.1
v 0 2 0.1
v 0.1 0 0.1
v 0.1 0.1 0.1
v 0.1 2 0.1
v -0.2 3.5 -0.1
v -0.2 3.6 -0.1
v -0.1 3.5 -0.1
v 0.1 3.5 -0.1
v 0.1 3.6 -0.1
v -0.3 3.6 -0.2
v -0.3 3.7 -0.2
v 0.2 3.6 -0.2
v 0.2 3.7 -0.2
v 0.3 4.1 -0.2
v 0.3 4.5 -0.2
v 0.4 4.1 -0.2
v 0.4 4.5 -0.2
v -0.4 4.1 -0.3
v -0.4 4.2 -0.3
v -0.4 4.4 -0.3
v -0.4 4.5 -0.3
v -0.3 3.7 -0.3
v -0.3 4.1 -0.3
v -0.3 4.2 -0.3
v -0.3 4.4 -0.3
v -0.3 4.5 -0.3
v -0.2 0 -0.3
v -0.2 0.1 -0.3
v -0.1 0.1 -0.3
v -0.1 2 -0.3
v 0 2 -0.3
v 0.1 0 -0.3
v 0.1 0.1 -0.3
v 0.1 2 -0.3
v 0.3 3.7 -0.3
v 0.3 4.1 -0.3
v -0.3 4.1 -0.4
v -0.3 4.5 -0.4
v -0.2 3.4 -0.4
v -0.2 3.5 -0.4
v 0.2 3.4 -0.4
v 0.2 3.5 -0.4
v 0.3 4.1 -0.4
v 0.3 4.5 -0.4
v -0.2 2 -0.5
v -0.2 3.4 -0.5
v -0.1 2 -0.5
v -0.1 3.4 -0.5
v 0.1 2 -0.5
v 0.1 3.4 -0.5
v 0.2 2 -0.5
v 0.2 3.4 -0.5
v -0.1 1.6 -0.6
v -0.1 1.8 -0.6
v -0.1 3.4 -0.6
v 0.1 1.6 -0.6
v 0.1 1.8 -0.6
v 0.1 3.4 -0.6
v -0.2 0 0.3
v 0.1 0 0.3
v -0.2 0 0.1
v 0.1 0 0.1
v -0.2 0 -0.1
v 0.1 0 -0.1
v -0.2 0 -0.3
v 0.1 0 -0.3
v -0.1 1.6 0.6
v 0.1 1.6 0.6
v -0.1 1.6 0.4
v 0.1 1.6 0.4
v -0.1 1.6 -0.4
v 0.1 1.6 -0.4
v -0.1 1.6 -0.6
v 0.1 1.6 -0.6
v -0.2 2 0.5
v -0.1 2 0.5
v 0.1 2 0.5
v 0.2 2 0.5
v -0.1 2 0.4
v 0 2 0.4
v 0.1 2 0.4
v -0.1 2 0.3
v 0 2 0.3
v 0.1 2 0.3
v -0.1 2 0.1
v 0 2 0.1
v 0.1 2 0.1
v -0.1 2 -0.1
v 0 2 -0.1
v 0.1 2 -0.1
v -0.1 2 -0.3
v 0 2 -0.3
v 0.1 2 -0.3
v -0.1 2 -0.4
v 0 2 -0.4
v 0.1 2 -0.4
v -0.2 2 -0.5
v -0.1 2 -0.5
v 0.1 2 -0.5
v 0.2 2 -0.5
v -0.3 3.6 0.2
v 0.2 3.6 0.2
v -0.2 3.6 0.1
v 0.1 3.6 0.1
v -0.2 3.6 -0.1
v 0.1 3.6 -0.1
v -0.3 3.6 -0.2
v 0.2 3.6 -0.2
v -0.3 3.7 0.3
v 0.3 3.7 0.3
v -0.3 3.7 0.2
v 0.2 3.7 0.2
v -0.3 3.7 -0.2
v 0.2 3.7 -0.2
v -0.3 3.7 -0.3
v 0.3 3.7 -0.3
v -0.3 4.1 0.4
v 0.3 4.1 0.4
v -0.4 4.1 0.3
v -0.3 4.1 0.3
v 0.3 4.1 0.3
v 0.3 4.1 0.2
v 0.4 4.1 0.2
v -0.4 4.1 0.1
v -0.3 4.1 0.1
v -0.4 4.1 -0.1
v -0.3 4.1 -0.1
v 0.3 4.1 -0.2
v 0.4 4.1 -0.2
v -0.4 4.1 -0.3
v -0.3 4.1 -0.3
v 0.3 4.1 -0.3
v -0.3 4.1 -0.4
v 0.3 4.1 -0.4
v -0.2 0.1 0.3
v -0.1 0.1 0.3
v -0.2 0.1 0.1
v -0.1 0.1 0.1
v -0.2 0.1 -0.1
v -0.1 0.1 -0.1
v -0.2 0.1 -0.3
v -0.1 0.1 -0.3
v -0.1 3.4 0.6
v 0.1 3.4 0.6
v -0.2 3.4 0.5
v -0.1 3.4 0.5
v 0.1 3.4 0.5
v 0.2 3.4 0.5
v -0.2 3.4 0.4
v 0.2 3.4 0.4
v -0.2 3.4 -0.4
v 0.2 3.4 -0.4
v -0.2 3.4 -0.5
v -0.1 3.4 -0.5
v 0.1 3.4 -0.5
v 0.2 3.4 -0.5
v -0.1 3.4 -0.6
v 0.1 3.4 -0.6
v -0.2 3.5 0.4
v 0.2 3.5 0.4
v -0.2 3.5 0.3
v 0.1 3.5 0.3
v -0.2 3.5 0.2
v -0.1 3.5 0.2
v -0.2 3.5 0.1
v -0.1 3.5 0.1
v 0.1 3.5 0.1
v -0.2 3.5 -0.1
v -0.1 3.5 -0.1
v 0.1 3.5 -0.1
v -0.2 3.5 -0.2
v -0.1 3.5 -0.2
v -0.2 3.5 -0.3
v 0.1 3.5 -0.3
v -0.2 3.5 -0.4
v 0.2 3.5 -0.4
v -0.3 4.5 0.4
v 0.3 4.5 0.4
v -0.4 4.5 0.3
v -0.3 4.5 0.3
v 0.3 4.5 0.2
v 0.4 4.5 0.2
v -0.4 4.5 0.1
v -0.3 4.5 0.1
v -0.4 4.5 -0.1
v -0.3 4.5 -0.1
v 0.3 4.5 -0.2
v 0.4 4.5 -0.2
v -0.4 4.5 -0.3
v -0.3 4.5 -0.3
v -0.3 4.5 -0.4
v 0.3 4.5 -0.4

# faces
f 5/6/1 2/6/1 1/6/1
f 6/3/1 3/3/1 2/3/1
f 6/6/1 2/6/1 5/6/1
f 7/6/1 4/6/1 3/6/1
f 7/3/1 3/3/1 6/3/1
f 8/6/1 4/6/1 7/6/1
f 9/3/1 6/3/1 5/3/1
f 9/3/1 7/3/1 6/3/1
f 9/3/1 8/3/1 7/3/1
f 10/3/1 8/3/1 9/3/1
f 11/3/1 8/3/1 10/3/1
f 12/3/1 8/3/1 11/3/1
f 13/6/1 10/6/1 9/6/1
f 14/3/1 11/3/1 10/3/1
f 14/6/1 10/6/1 13/6/1
f 15/6/1 12/6/1 11/6/1
f 15/3/1 11/3/1 14/3/1
f 16/6/1 12/6/1 15/6/1
f 20/2/1 18/2/1 17/2/1
f 21/2/1 18/2/1 20/2/1
f 22/2/1 18/2/1 21/2/1
f 23/2/1 18/2/1 22/2/1
f 25/2/1 20/2/1 19/2/1
f 25/2/1 21/2/1 20/2/1
f 25/4/1 22/4/1 21/4/1
f 26/2/1 24/2/1 23/2/1
f 26/4/1 22/4/1 25/4/1
f 26/2/1 23/2/1 22/2/1
f 27/2/1 25/2/1 19/2/1
f 27/2/1 26/2/1 25/2/1
f 28/2/1 26/2/1 27/2/1
f 29/2/1 24/2/1 26/2/1
f 29/2/1 26/2/1 28/2/1
f 30/2/1 24/2/1 29/2/1
f 31/4/1 28/4/1 27/4/1
f 31/2/1 27/2/1 19/2/1
f 32/2/1 29/2/1 28/2/1
f 32/4/1 28/4/1 31/4/1
f 33/4/1 30/4/1 29/4/1
f 33/2/1 29/2/1 32/2/1
f 34/2/1 24/2/1 30/2/1
f 34/4/1 30/4/1 33/4/1
f 36/2/1 33/2/1 32/2/1
f 36/2/1 32/2/1 31/2/1
f 36/2/1 34/2/1 33/2/1
f 36/2/1 31/2/1 19/2/1
f 37/2/1 34/2/1 36/2/1
f 38/2/1 34/2/1 37/2/1
f 39/2/1 24/2/1 34/2/1
f 39/2/1 34/2/1 38/2/1
f 41/6/1 36/6/1 35/6/1
f 42/6/1 40/6/1 39/6/1
f 43/6/1 41/6/1 35/6/1
f 44/6/1 40/6/1 42/6/1
f 45/6/1 43/6/1 35/6/1
f 46/6/1 43/6/1 45/6/1
f 47/6/1 40/6/1 44/6/1
f 48/6/1 40/6/1 47/6/1
f 53/9/1 50/9/1 49/9/1
f 54/9/1 50/9/1 53/9/1
f 55/9/1 52/9/1 51/9/1
f 56/9/1 52/9/1 55/9/1
f 59/7/1 58/7/1 57/7/1
f 60/7/1 58/7/1 59/7/1
f 61/7/1 59/7/1 57/7/1
f 62/8/1 60/8/1 59/8/1
f 62/7/1 59/7/1 61/7/1
f 63/7/1 58/7/1 60/7/1
f 63/8/1 60/8/1 62/8/1
f 64/7/1 58/7/1 63/7/1
f 65/8/1 62/8/1 61/8/1
f 65/7/1 61/7/1 57/7/1
f 66/3/1 63/3/1 62/3/1
f 66/8/1 62/8/1 65/8/1
f 67/8/1 64/8/1 63/8/1
f 67/3/1 63/3/1 66/3/1
f 68/7/1 58/7/1 64/7/1
f 68/8/1 64/8/1 67/8/1
f 69/3/1 67/3/1 66/3/1
f 69/3/1 66/3/1 65/3/1
f 69/3/1 68/3/1 67/3/1
f 69/7/1 65/7/1 57/7/1
f 70/3/1 68/3/1 69/3/1
f 71/3/1 68/3/1 70/3/1
f 72/7/1 58/7/1 68/7/1
f 72/3/1 68/3/1 71/3/1
f 73/7/1 69/7/1 57/7/1
f 73/8/1 70/8/1 69/8/1
f 74/3/1 71/3/1 70/3/1
f 74/8/1 70/8/1 73/8/1
f 75/8/1 72/8/1 71/8/1
f 75/3/1 71/3/1 74/3/1
f 76/7/1 58/7/1 72/7/1
f 76/8/1 72/8/1 75/8/1
f 77/7/1 58/7/1 76/7/1
f 78/7/1 75/7/1 74/7/1
f 78/7/1 74/7/1 73/7/1
f 78/7/1 76/7/1 75/7/1
f 79/5/1 77/5/1 76/5/1
f 79/7/1 76/7/1 78/7/1
f 80/7/1 58/7/1 77/7/1
f 80/5/1 77/5/1 79/5/1
f 81/7/1 58/7/1 80/7/1
f 82/7/1 78/7/1 73/7/1
f 83/1/1 79/1/1 78/1/1
f 83/7/1 78/7/1 82/7/1
f 84/7/1 58/7/1 81/7/1
f 84/1/1 81/1/1 80/1/1
f 85/7/1 58/7/1 84/7/1
f 86/1/1 79/1/1 83/1/1
f 86/1/1 83/1/1 82/1/1
f 87/5/1 80/5/1 79/5/1
f 87/1/1 79/1/1 86/1/1
f 88/1/1 85/1/1 84/1/1
f 88/5/1 80/5/1 87/5/1
f 88/1/1 84/1/1 80/1/1
f 89/1/1 85/1/1 88/1/1
f 90/7/1 73/7/1 57/7/1
f 90/7/1 82/7/1 73/7/1
f 91/7/1 82/7/1 90/7/1
f 92/5/1 89/5/1 88/5/1
f 92/5/1 87/5/1 86/5/1
f 92/5/1 88/5/1 87/5/1
f 93/5/1 89/5/1 92/5/1
f 94/7/1 58/7/1 85/7/1
f 95/7/1 58/7/1 94/7/1
f 96/7/1 82/7/1 91/7/1
f 97/1/1 86/1/1 82/1/1
f 97/7/1 82/7/1 96/7/1
f 98/5/1 92/5/1 86/5/1
f 98/1/1 86/1/1 97/1/1
f 99/1/1 93/1/1 92/1/1
f 99/5/1 92/5/1 98/5/1
f 100/5/1 89/5/1 93/5/1
f 100/1/1 93/1/1 99/1/1
f 101/1/1 85/1/1 89/1/1
f 101/5/1 89/5/1 100/5/1
f 102/7/1 94/7/1 85/7/1
f 102/1/1 85/1/1 101/1/1
f 103/7/1 94/7/1 102/7/1
f 104/2/1 100/2/1 99/2/1
f 105/2/1 100/2/1 104/2/1
f 114/2/1 111/2/1 110/2/1
f 115/2/1 111/2/1 114/2/1
f 116/2/1 113/2/1 112/2/1
f 117/2/1 113/2/1 116/2/1
f 118/7/1 115/7/1 114/7/1
f 119/7/1 115/7/1 118/7/1
f 120/8/1 107/8/1 106/8/1
f 121/8/1 107/8/1 120/8/1
f 122/8/1 109/8/1 108/8/1
f 123/8/1 109/8/1 122/8/1
f 124/7/1 117/7/1 116/7/1
f 125/7/1 117/7/1 124/7/1
f 126/7/1 118/7/1 114/7/1
f 127/7/1 118/7/1 126/7/1
f 128/7/1 117/7/1 125/7/1
f 129/7/1 117/7/1 128/7/1
f 130/9/2 131/9/2 134/9/2
f 134/9/2 131/9/2 135/9/2
f 132/9/2 133/9/2 136/9/2
f 136/9/2 133/9/2 137/9/2
f 138/2/2 139/2/2 142/2/2
f 142/2/2 139/2/2 143/2/2
f 140/2/2 141/2/2 144/2/2
f 144/2/2 141/2/2 145/2/2
f 142/7/2 143/7/2 146/7/2
f 146/7/2 143/7/2 147/7/2
f 134/8/2 135/8/2 148/8/2
f 148/8/2 135/8/2 149/8/2
f 136/8/2 137/8/2 150/8/2
f 150/8/2 137/8/2 151/8/2
f 144/7/2 145/7/2 152/7/2
f 152/7/2 145/7/2 153/7/2
f 142/7/2 146/7/2 154/7/2
f 154/7/2 146/7/2 155/7/2
f 153/7/2 145/7/2 156/7/2
f 156/7/2 145/7/2 157/7/2
f 158/2/2 159/2/2 160/2/2
f 160/2/2 159/2/2 161/2/2
f 162/7/2 163/7/2 164/7/2
f 164/7/2 163/7/2 165/7/2
f 165/7/2 163/7/2 166/7/2
f 166/7/2 163/7/2 167/7/2
f 165/7/2 166/7/2 168/7/2
f 168/7/2 166/7/2 169/7/2
f 170/2/2 171/2/2 172/2/2
f 172/2/2 171/2/2 173/2/2
f 174/2/2 175/2/2 177/2/2
f 177/2/2 175/2/2 178/2/2
f 178/2/2 175/2/2 179/2/2
f 179/2/2 175/2/2 180/2/2
f 176/6/2 177/6/2 182/6/2
f 177/6/2 178/6/2 182/6/2
f 182/6/2 178/6/2 183/6/2
f 180/6/2 181/6/2 184/6/2
f 179/6/2 180/6/2 184/6/2
f 184/6/2 181/6/2 185/6/2
f 186/6/2 187/6/2 188/6/2
f 188/6/2 187/6/2 189/6/2
f 193/2/3 191/2/3 190/2/3
f 194/7/3 192/7/3 191/7/3
f 194/2/3 191/2/3 193/2/3
f 195/7/3 192/7/3 194/7/3
f 198/7/3 197/7/3 196/7/3
f 199/7/3 197/7/3 198/7/3
f 202/7/3 201/7/3 200/7/3
f 203/7/3 201/7/3 202/7/3
f 208/7/3 207/7/3 206/7/3
f 209/7/3 207/7/3 208/7/3
f 210/6/3 205/6/3 204/6/3
f 211/6/3 205/6/3 210/6/3
f 217/6/3 213/6/3 212/6/3
f 218/3/3 214/3/3 213/3/3
f 218/6/3 213/6/3 217/6/3
f 219/6/3 215/6/3 214/6/3
f 219/3/3 214/3/3 218/3/3
f 220/6/3 215/6/3 219/6/3
f 223/9/3 222/9/3 221/9/3
f 225/8/3 224/8/3 223/8/3
f 226/9/3 223/9/3 221/9/3
f 227/8/3 225/8/3 223/8/3
f 227/9/3 223/9/3 226/9/3
f 228/8/3 225/8/3 227/8/3
f 229/2/3 217/2/3 216/2/3
f 230/2/3 217/2/3 229/2/3
f 233/2/3 232/2/3 231/2/3
f 234/2/3 232/2/3 233/2/3
f 237/6/3 236/6/3 235/6/3
f 238/6/3 236/6/3 237/6/3
f 241/2/3 240/2/3 239/2/3
f 242/2/3 240/2/3 241/2/3
f 243/2/3 240/2/3 242/2/3
f 246/9/3 245/9/3 244/9/3
f 248/8/3 247/8/3 246/8/3
f 249/9/3 246/9/3 244/9/3
f 250/8/3 248/8/3 246/8/3
f 250/9/3 246/9/3 249/9/3
f 251/8/3 248/8/3 250/8/3
f 255/7/3 254/7/3 253/7/3
f 256/2/3 253/2/3 252/2/3
f 257/7/3 255/7/3 253/7/3
f 257/2/3 253/2/3 256/2/3
f 258/7/3 255/7/3 257/7/3
f 260/7/4 261/7/4 262/7/4
f 259/2/4 260/2/4 263/2/4
f 260/7/4 262/7/4 264/7/4
f 263/2/4 260/2/4 264/2/4
f 264/7/4 262/7/4 265/7/4
f 266/9/4 267/9/4 268/9/4
f 268/8/4 269/8/4 270/8/4
f 266/9/4 268/9/4 271/9/4
f 268/8/4 270/8/4 272/8/4
f 271/9/4 268/9/4 272/9/4
f 272/8/4 270/8/4 273/8/4
f 274/2/4 275/2/4 276/2/4
f 276/2/4 275/2/4 277/2/4
f 277/2/4 275/2/4 278/2/4
f 279/2/4 280/2/4 281/2/4
f 281/2/4 280/2/4 282/2/4
f 283/6/4 284/6/4 285/6/4
f 285/6/4 284/6/4 286/6/4
f 287/6/4 288/6/4 292/6/4
f 288/3/4 289/3/4 293/3/4
f 292/6/4 288/6/4 293/6/4
f 289/6/4 290/6/4 294/6/4
f 293/3/4 289/3/4 294/3/4
f 294/6/4 290/6/4 295/6/4
f 296/9/4 297/9/4 298/9/4
f 298/8/4 299/8/4 300/8/4
f 296/9/4 298/9/4 301/9/4
f 298/8/4 300/8/4 302/8/4
f 301/9/4 298/9/4 302/9/4
f 302/8/4 300/8/4 303/8/4
f 291/2/4 292/2/4 304/2/4
f 304/2/4 292/2/4 305/2/4
f 308/7/4 309/7/4 310/7/4
f 310/7/4 309/7/4 311/7/4
f 306/6/4 307/6/4 312/6/4
f 312/6/4 307/6/4 313/6/4
f 314/7/4 315/7/4 316/7/4
f 316/7/4 315/7/4 317/7/4
f 318/7/4 319/7/4 320/7/4
f 320/7/4 319/7/4 321/7/4
f 322/2/4 323/2/4 325/2/4
f 323/7/4 324/7/4 326/7/4
f 325/2/4 323/2/4 326/2/4
f 326/7/4 324/7/4 327/7/4
f 330/9/5 329/9/5 328/9/5
f 331/9/5 329/9/5 330/9/5
f 334/9/5 333/9/5 332/9/5
f 335/9/5 333/9/5 334/9/5
f 338/2/5 337/2/5 336/2/5
f 339/2/5 337/2/5 338/2/5
f 342/2/5 341/2/5 340/2/5
f 343/2/5 341/2/5 342/2/5
f 348/7/5 345/7/5 344/7/5
f 350/7/5 347/7/5 346/7/5
f 351/7/5 349/7/5 348/7/5
f 351/7/5 348/7/5 344/7/5
f 352/1/5 350/1/5 349/1/5
f 352/7/5 349/7/5 351/7/5
f 353/7/5 347/7/5 350/7/5
f 353/1/5 350/1/5 352/1/5
f 354/7/5 351/7/5 344/7/5
f 356/7/5 347/7/5 353/7/5
f 357/7/5 355/7/5 354/7/5
f 357/7/5 354/7/5 344/7/5
f 358/1/5 356/1/5 355/1/5
f 358/7/5 355/7/5 357/7/5
f 359/7/5 347/7/5 356/7/5
f 359/1/5 356/1/5 358/1/5
f 360/7/5 357/7/5 344/7/5
f 362/7/5 347/7/5 359/7/5
f 363/7/5 361/7/5 360/7/5
f 363/7/5 360/7/5 344/7/5
f 364/1/5 362/1/5 361/1/5
f 364/7/5 361/7/5 363/7/5
f 365/7/5 347/7/5 362/7/5
f 365/1/5 362/1/5 364/1/5
f 366/7/5 363/7/5 344/7/5
f 367/7/5 363/7/5 366/7/5
f 368/7/5 347/7/5 365/7/5
f 369/7/5 347/7/5 368/7/5
f 372/2/5 371/2/5 370/2/5
f 373/2/5 371/2/5 372/2/5
f 374/2/5 372/2/5 370/2/5
f 375/2/5 371/2/5 373/2/5
f 376/2/5 374/2/5 370/2/5
f 376/2/5 375/2/5 374/2/5
f 377/2/5 371/2/5 375/2/5
f 377/2/5 375/2/5 376/2/5
f 380/2/5 379/2/5 378/2/5
f 381/2/5 379/2/5 380/2/5
f 383/2/5 379/2/5 381/2/5
f 384/2/5 383/2/5 382/2/5
f 385/2/5 379/2/5 383/2/5
f 385/2/5 383/2/5 384/2/5
f 389/6/5 387/6/5 386/6/5
f 390/6/5 387/6/5 389/6/5
f 393/6/5 389/6/5 388/6/5
f 394/6/5 389/6/5 393/6/5
f 395/3/5 394/3/5 393/3/5
f 396/3/5 394/3/5 395/3/5
f 397/6/5 392/6/5 391/6/5
f 398/6/5 392/6/5 397/6/5
f 399/6/5 396/6/5 395/6/5
f 400/6/5 396/6/5 399/6/5
f 402/6/5 401/6/5 400/6/5
f 403/6/5 401/6/5 402/6/5
f 404/9/6 405/9/6 406/9/6
f 406/9/6 405/9/6 407/9/6
f 408/9/6 409/9/6 410/9/6
f 410/9/6 409/9/6 411/9/6
f 412/7/6 413/7/6 415/7/6
f 415/7/6 413/7/6 416/7/6
f 414/7/6 415/7/6 418/7/6
f 416/7/6 417/7/6 418/7/6
f 415/7/6 416/7/6 418/7/6
f 418/7/6 417/7/6 419/7/6
f 420/7/6 421/7/6 422/7/6
f 422/7/6 421/7/6 423/7/6
f 423/7/6 421/7/6 424/7/6
f 424/7/6 421/7/6 425/7/6
f 423/7/6 424/7/6 426/7/6
f 426/7/6 424/7/6 427/7/6
f 428/7/6 429/7/6 430/7/6
f 430/7/6 429/7/6 431/7/6
f 430/1/6 431/1/6 432/1/6
f 432/1/6 431/1/6 433/1/6
f 432/5/6 433/5/6 434/5/6
f 433/1/6 431/1/6 435/1/6
f 434/5/6 433/5/6 435/5/6
f 431/7/6 429/7/6 436/7/6
f 435/1/6 431/1/6 436/1/6
f 436/7/6 429/7/6 439/7/6
f 437/5/6 438/5/6 440/5/6
f 438/1/6 439/1/6 441/1/6
f 440/5/6 438/5/6 441/5/6
f 440/1/6 441/1/6 442/1/6
f 439/7/6 429/7/6 443/7/6
f 442/1/6 441/1/6 443/1/6
f 441/1/6 439/1/6 443/1/6
f 442/7/6 443/7/6 444/7/6
f 443/7/6 429/7/6 445/7/6
f 444/7/6 443/7/6 445/7/6
f 446/6/6 447/6/6 449/6/6
f 449/6/6 447/6/6 450/6/6
f 448/6/6 449/6/6 450/6/6
f 448/6/6 450/6/6 452/6/6
f 450/6/6 451/6/6 452/6/6
f 452/6/6 451/6/6 453/6/6
f 452/3/6 453/3/6 454/3/6
f 453/6/6 451/6/6 455/6/6
f 454/3/6 453/3/6 455/3/6
f 454/6/6 455/6/6 456/6/6
f 455/6/6 451/6/6 456/6/6
f 456/6/6 451/6/6 457/6/6
f 454/6/6 456/6/6 458/6/6
f 458/6/6 456/6/6 459/6/6
f 459/6/6 456/6/6 460/6/6
f 460/6/6 456/6/6 461/6/6
