# MagicaVoxel @ Ephtracy

# group
o 

# material
mtllib anon_int-1.mtl
usemtl palette

# normals
vn -1 0 0
vn 1 0 0
vn 0 0 1
vn 0 0 -1
vn 0 -1 0
vn 0 1 0

# texcoords
vt 0.966797 0.5
vt 0.974609 0.5
vt 0.986328 0.5

# verts
v -2 0.2 1.5
v -2 0.2 1.3
v -2 0.2 -1.3
v -2 0.2 -1.5
v -2 0.9 1.3
v -2 0.9 -1.3
v -2 1 1.5
v -2 1 -1.5
v -2 1.2 1.5
v -2 1.2 -1.5
v -1.8 1.2 1.3
v -1.8 1.2 -1.3
v -1.8 1.3 1.3
v -1.8 1.3 -1.3
v -1.7 1.3 1.2
v -1.7 1.3 -1.2
v -1.7 1.4 1.2
v -1.7 1.4 -1.2
v 1.8 0.2 1.5
v 1.8 0.2 1.3
v 1.8 0.2 -1.3
v 1.8 0.2 -1.5
v 1.8 0.9 1.5
v 1.8 0.9 1.3
v 1.8 0.9 -1.3
v 1.8 0.9 -1.5
v -1.8 0.2 1.5
v -1.8 0.2 1.3
v -1.8 0.2 -1.3
v -1.8 0.2 -1.5
v -1.8 0.9 1.5
v -1.8 0.9 1.3
v -1.8 0.9 -1.3
v -1.8 0.9 -1.5
v -0.6 1.3 1.2
v -0.6 1.3 -1.2
v -0.6 1.4 1.2
v -0.6 1.4 -1.2
v -0.5 1.2 1.3
v -0.5 1.2 -1.3
v -0.5 1.3 1.3
v -0.5 1.3 -1.3
v 2 0.2 1.5
v 2 0.2 1.3
v 2 0.2 -1.3
v 2 0.2 -1.5
v 2 0.9 1.3
v 2 0.9 -1.3
v 2 1 1.5
v 2 1 -1.5
v 2 1.2 1.5
v 2 1.2 -1.5
v -2 0.2 1.5
v -2 1 1.5
v -2 1.2 1.5
v -1.8 0.2 1.5
v -1.8 0.9 1.5
v 1.8 0.2 1.5
v 1.8 0.9 1.5
v 2 0.2 1.5
v 2 1 1.5
v 2 1.2 1.5
v -1.8 1.2 1.3
v -1.8 1.3 1.3
v -0.5 1.2 1.3
v -0.5 1.3 1.3
v -1.7 1.3 1.2
v -1.7 1.4 1.2
v -0.6 1.3 1.2
v -0.6 1.4 1.2
v -2 0.2 -1.3
v -2 0.9 -1.3
v -1.8 0.2 -1.3
v -1.8 0.9 -1.3
v 1.8 0.2 -1.3
v 1.8 0.9 -1.3
v 2 0.2 -1.3
v 2 0.9 -1.3
v -2 0.2 1.3
v -2 0.9 1.3
v -1.8 0.2 1.3
v -1.8 0.9 1.3
v 1.8 0.2 1.3
v 1.8 0.9 1.3
v 2 0.2 1.3
v 2 0.9 1.3
v -1.7 1.3 -1.2
v -1.7 1.4 -1.2
v -0.6 1.3 -1.2
v -0.6 1.4 -1.2
v -1.8 1.2 -1.3
v -1.8 1.3 -1.3
v -0.5 1.2 -1.3
v -0.5 1.3 -1.3
v -2 0.2 -1.5
v -2 1 -1.5
v -2 1.2 -1.5
v -1.8 0.2 -1.5
v -1.8 0.9 -1.5
v 1.8 0.2 -1.5
v 1.8 0.9 -1.5
v 2 0.2 -1.5
v 2 1 -1.5
v 2 1.2 -1.5
v -2 0.2 1.5
v -1.8 0.2 1.5
v 1.8 0.2 1.5
v 2 0.2 1.5
v -2 0.2 1.3
v -1.8 0.2 1.3
v 1.8 0.2 1.3
v 2 0.2 1.3
v -2 0.2 -1.3
v -1.8 0.2 -1.3
v 1.8 0.2 -1.3
v 2 0.2 -1.3
v -2 0.2 -1.5
v -1.8 0.2 -1.5
v 1.8 0.2 -1.5
v 2 0.2 -1.5
v -1.8 0.9 1.5
v 1.8 0.9 1.5
v -2 0.9 1.3
v -1.8 0.9 1.3
v 1.8 0.9 1.3
v 2 0.9 1.3
v -2 0.9 -1.3
v -1.8 0.9 -1.3
v 1.8 0.9 -1.3
v 2 0.9 -1.3
v -1.8 0.9 -1.5
v 1.8 0.9 -1.5
v -2 1.2 1.5
v 2 1.2 1.5
v -1.8 1.2 1.3
v -0.5 1.2 1.3
v -1.8 1.2 -1.3
v -0.5 1.2 -1.3
v -2 1.2 -1.5
v 2 1.2 -1.5
v -1.8 1.3 1.3
v -0.5 1.3 1.3
v -1.7 1.3 1.2
v -0.6 1.3 1.2
v -1.7 1.3 -1.2
v -0.6 1.3 -1.2
v -1.8 1.3 -1.3
v -0.5 1.3 -1.3
v -1.7 1.4 1.2
v -0.6 1.4 1.2
v -1.7 1.4 -1.2
v -0.6 1.4 -1.2

# faces
f 5/3/1 2/3/1 1/3/1
f 6/3/1 4/3/1 3/3/1
f 7/3/1 5/3/1 1/3/1
f 7/3/1 6/3/1 5/3/1
f 8/3/1 4/3/1 6/3/1
f 8/3/1 6/3/1 7/3/1
f 9/1/1 8/1/1 7/1/1
f 10/1/1 8/1/1 9/1/1
f 13/2/1 12/2/1 11/2/1
f 14/2/1 12/2/1 13/2/1
f 17/2/1 16/2/1 15/2/1
f 18/2/1 16/2/1 17/2/1
f 23/3/1 20/3/1 19/3/1
f 24/3/1 20/3/1 23/3/1
f 25/3/1 22/3/1 21/3/1
f 26/3/1 22/3/1 25/3/1
f 27/3/2 28/3/2 31/3/2
f 31/3/2 28/3/2 32/3/2
f 29/3/2 30/3/2 33/3/2
f 33/3/2 30/3/2 34/3/2
f 35/2/2 36/2/2 37/2/2
f 37/2/2 36/2/2 38/2/2
f 39/2/2 40/2/2 41/2/2
f 41/2/2 40/2/2 42/2/2
f 43/3/2 44/3/2 47/3/2
f 45/3/2 46/3/2 48/3/2
f 43/3/2 47/3/2 49/3/2
f 47/3/2 48/3/2 49/3/2
f 48/3/2 46/3/2 50/3/2
f 49/3/2 48/3/2 50/3/2
f 49/1/2 50/1/2 51/1/2
f 51/1/2 50/1/2 52/1/2
f 56/3/3 54/3/3 53/3/3
f 57/3/3 54/3/3 56/3/3
f 59/3/3 54/3/3 57/3/3
f 60/3/3 59/3/3 58/3/3
f 61/1/3 55/1/3 54/1/3
f 61/3/3 59/3/3 60/3/3
f 61/3/3 54/3/3 59/3/3
f 62/1/3 55/1/3 61/1/3
f 65/2/3 64/2/3 63/2/3
f 66/2/3 64/2/3 65/2/3
f 69/2/3 68/2/3 67/2/3
f 70/2/3 68/2/3 69/2/3
f 73/3/3 72/3/3 71/3/3
f 74/3/3 72/3/3 73/3/3
f 77/3/3 76/3/3 75/3/3
f 78/3/3 76/3/3 77/3/3
f 79/3/4 80/3/4 81/3/4
f 81/3/4 80/3/4 82/3/4
f 83/3/4 84/3/4 85/3/4
f 85/3/4 84/3/4 86/3/4
f 87/2/4 88/2/4 89/2/4
f 89/2/4 88/2/4 90/2/4
f 91/2/4 92/2/4 93/2/4
f 93/2/4 92/2/4 94/2/4
f 95/3/4 96/3/4 98/3/4
f 98/3/4 96/3/4 99/3/4
f 99/3/4 96/3/4 101/3/4
f 100/3/4 101/3/4 102/3/4
f 96/1/4 97/1/4 103/1/4
f 102/3/4 101/3/4 103/3/4
f 101/3/4 96/3/4 103/3/4
f 103/1/4 97/1/4 104/1/4
f 109/3/5 106/3/5 105/3/5
f 110/3/5 106/3/5 109/3/5
f 111/3/5 108/3/5 107/3/5
f 112/3/5 108/3/5 111/3/5
f 117/3/5 114/3/5 113/3/5
f 118/3/5 114/3/5 117/3/5
f 119/3/5 116/3/5 115/3/5
f 120/3/5 116/3/5 119/3/5
f 124/3/5 122/3/5 121/3/5
f 125/3/5 122/3/5 124/3/5
f 127/3/5 124/3/5 123/3/5
f 127/3/5 126/3/5 125/3/5
f 127/3/5 125/3/5 124/3/5
f 128/3/5 126/3/5 127/3/5
f 129/3/5 126/3/5 128/3/5
f 130/3/5 126/3/5 129/3/5
f 131/3/5 129/3/5 128/3/5
f 132/3/5 129/3/5 131/3/5
f 133/1/6 134/1/6 135/1/6
f 135/1/6 134/1/6 136/1/6
f 133/1/6 135/1/6 137/1/6
f 136/1/6 134/1/6 138/1/6
f 133/1/6 137/1/6 139/1/6
f 137/1/6 138/1/6 139/1/6
f 138/1/6 134/1/6 140/1/6
f 139/1/6 138/1/6 140/1/6
f 141/2/6 142/2/6 143/2/6
f 143/2/6 142/2/6 144/2/6
f 141/2/6 143/2/6 145/2/6
f 144/2/6 142/2/6 146/2/6
f 141/2/6 145/2/6 147/2/6
f 145/2/6 146/2/6 147/2/6
f 146/2/6 142/2/6 148/2/6
f 147/2/6 146/2/6 148/2/6
f 149/2/6 150/2/6 151/2/6
f 151/2/6 150/2/6 152/2/6
