# MagicaVoxel @ Ephtracy

# group
o bee

# material
mtllib Bee.mtl
usemtl palette

# normals
vn 0 0 1
vn 0 0 -1
vn 1 0 0
vn -1 0 0
vn 0 -1 0
vn 0 1 0

# texcoords
vt 0.0371094 0.5
vt 0.0644531 0.5
vt 0.142578 0.5
vt 0.228516 0.5
vt 0.373047 0.5
vt 0.869141 0.5
vt 0.873047 0.5
vt 0.958984 0.5
vt 0.978516 0.5

# verts
v 16.9 8.5 -16.4
v 16.7 8.5 -16.4
v 16.9 8.6 -16.4
v 16.7 8.6 -16.4
v 17 8.5 -16.5
v 16.9 8.5 -16.5
v 16.7 8.5 -16.5
v 16.6 8.5 -16.5
v 17 8.6 -16.5
v 16.9 8.6 -16.5
v 16.7 8.6 -16.5
v 16.6 8.6 -16.5
v 17.3 8.2 -16.6
v 17.2 8.2 -16.6
v 17.3 8.4 -16.6
v 17.2 8.4 -16.6
v 17.1 8.5 -16.6
v 17 8.5 -16.6
v 16.8 8.5 -16.6
v 16.7 8.5 -16.6
v 17.1 8.6 -16.6
v 17 8.6 -16.6
v 16.8 8.6 -16.6
v 16.7 8.6 -16.6
v 17.2 8.1 -16.7
v 17.1 8.1 -16.7
v 17 8.1 -16.7
v 16.9 8.1 -16.7
v 16.8 8.1 -16.7
v 16.7 8.1 -16.7
v 17.2 8.2 -16.7
v 17.2 8.4 -16.7
v 17.1 8.4 -16.7
v 17.2 8.5 -16.7
v 17.1 8.5 -16.7
v 17 8.5 -16.7
v 16.9 8.5 -16.7
v 16.8 8.5 -16.7
v 16.7 8.5 -16.7
v 17.3 8.6 -16.7
v 17.2 8.6 -16.7
v 17.1 8.6 -16.7
v 16.9 8.6 -16.7
v 16.8 8.6 -16.7
v 17.3 8.7 -16.7
v 17.2 8.7 -16.7
v 16.7 8.1 -16.8
v 16.6 8.1 -16.8
v 17 8.5 -16.8
v 16.9 8.5 -16.8
v 16.7 8.5 -16.8
v 16.6 8.5 -16.8
v 17 8.6 -16.8
v 16.9 8.6 -16.8
v 17.3 8.2 -17
v 17.2 8.2 -17
v 17.3 8.3 -17
v 17.2 8.3 -17
v 17.3 8.4 -17
v 17.2 8.4 -17
v 17.2 8.5 -17
v 17.1 8.5 -17
v 17 8.5 -17
v 16.9 8.5 -17
v 16.8 8.5 -17
v 17.3 8.6 -17
v 17.2 8.6 -17
v 17.1 8.6 -17
v 17 8.6 -17
v 16.9 8.6 -17
v 16.8 8.6 -17
v 17.3 8.7 -17
v 17.2 8.7 -17
v 16.8 8.5 -17.1
v 16.7 8.5 -17.1
v 16.8 8.6 -17.1
v 16.7 8.6 -17.1
v 17 8.5 -17.2
v 16.9 8.5 -17.2
v 16.7 8.5 -17.2
v 16.6 8.5 -17.2
v 17 8.6 -17.2
v 16.9 8.6 -17.2
v 16.7 8.6 -17.2
v 16.6 8.6 -17.2
v 16.9 8.5 -17.3
v 16.7 8.5 -17.3
v 16.9 8.6 -17.3
v 16.7 8.6 -17.3
v 16.9 8.5 -16.5
v 16.7 8.5 -16.5
v 16.9 8.6 -16.5
v 16.7 8.6 -16.5
v 17 8.5 -16.6
v 16.9 8.5 -16.6
v 16.7 8.5 -16.6
v 16.6 8.5 -16.6
v 17 8.6 -16.6
v 16.9 8.6 -16.6
v 16.7 8.6 -16.6
v 16.6 8.6 -16.6
v 16.8 8.5 -16.7
v 16.7 8.5 -16.7
v 16.8 8.6 -16.7
v 16.7 8.6 -16.7
v 17.3 8.2 -16.8
v 17.2 8.2 -16.8
v 17.3 8.3 -16.8
v 17.2 8.3 -16.8
v 17.3 8.4 -16.8
v 17.2 8.4 -16.8
v 17.2 8.5 -16.8
v 17.1 8.5 -16.8
v 17 8.5 -16.8
v 16.9 8.5 -16.8
v 16.8 8.5 -16.8
v 17.3 8.6 -16.8
v 17.2 8.6 -16.8
v 17.1 8.6 -16.8
v 17 8.6 -16.8
v 16.9 8.6 -16.8
v 16.8 8.6 -16.8
v 17.3 8.7 -16.8
v 17.2 8.7 -16.8
v 16.7 8.1 -17
v 16.6 8.1 -17
v 17 8.5 -17
v 16.9 8.5 -17
v 16.7 8.5 -17
v 16.6 8.5 -17
v 17 8.6 -17
v 16.9 8.6 -17
v 17.2 8.1 -17.1
v 17.1 8.1 -17.1
v 17 8.1 -17.1
v 16.9 8.1 -17.1
v 16.8 8.1 -17.1
v 16.7 8.1 -17.1
v 17.2 8.2 -17.1
v 17.2 8.4 -17.1
v 17.1 8.4 -17.1
v 17.2 8.5 -17.1
v 17.1 8.5 -17.1
v 17 8.5 -17.1
v 16.9 8.5 -17.1
v 16.8 8.5 -17.1
v 16.7 8.5 -17.1
v 17.3 8.6 -17.1
v 17.2 8.6 -17.1
v 17.1 8.6 -17.1
v 16.9 8.6 -17.1
v 16.8 8.6 -17.1
v 17.3 8.7 -17.1
v 17.2 8.7 -17.1
v 17.3 8.2 -17.2
v 17.2 8.2 -17.2
v 17.3 8.4 -17.2
v 17.2 8.4 -17.2
v 17.1 8.5 -17.2
v 17 8.5 -17.2
v 16.8 8.5 -17.2
v 16.7 8.5 -17.2
v 17.1 8.6 -17.2
v 17 8.6 -17.2
v 16.8 8.6 -17.2
v 16.7 8.6 -17.2
v 17 8.5 -17.3
v 16.9 8.5 -17.3
v 16.7 8.5 -17.3
v 16.6 8.5 -17.3
v 17 8.6 -17.3
v 16.9 8.6 -17.3
v 16.7 8.6 -17.3
v 16.6 8.6 -17.3
v 16.9 8.5 -17.4
v 16.7 8.5 -17.4
v 16.9 8.6 -17.4
v 16.7 8.6 -17.4
v 17.3 8.2 -16.6
v 17.3 8.4 -16.6
v 17.3 8.3 -16.7
v 17.3 8.4 -16.7
v 17.3 8.6 -16.7
v 17.3 8.7 -16.7
v 17.3 8.2 -16.8
v 17.3 8.3 -16.8
v 17.3 8.4 -16.8
v 17.3 8.6 -16.8
v 17.3 8.7 -16.8
v 17.3 8.2 -17
v 17.3 8.3 -17
v 17.3 8.4 -17
v 17.3 8.6 -17
v 17.3 8.7 -17
v 17.3 8.3 -17.1
v 17.3 8.4 -17.1
v 17.3 8.6 -17.1
v 17.3 8.7 -17.1
v 17.3 8.2 -17.2
v 17.3 8.4 -17.2
v 17.2 8.1 -16.7
v 17.2 8.2 -16.7
v 17.2 8.4 -16.7
v 17.2 8.5 -16.7
v 17.2 8.6 -16.7
v 17.2 8.2 -16.8
v 17.2 8.3 -16.8
v 17.2 8.4 -16.8
v 17.2 8.5 -16.8
v 17.2 8.6 -16.8
v 17.2 8.2 -16.9
v 17.2 8.3 -16.9
v 17.2 8.2 -17
v 17.2 8.3 -17
v 17.2 8.4 -17
v 17.2 8.5 -17
v 17.2 8.6 -17
v 17.2 8.1 -17.1
v 17.2 8.2 -17.1
v 17.2 8.4 -17.1
v 17.2 8.5 -17.1
v 17.2 8.6 -17.1
v 17.1 8.5 -16.6
v 17.1 8.6 -16.6
v 17.1 8.5 -16.7
v 17.1 8.6 -16.7
v 17.1 8.5 -17.1
v 17.1 8.6 -17.1
v 17.1 8.5 -17.2
v 17.1 8.6 -17.2
v 17 8.5 -16.5
v 17 8.6 -16.5
v 17 8.5 -16.6
v 17 8.6 -16.6
v 17 8.5 -16.8
v 17 8.6 -16.8
v 17 8.5 -17
v 17 8.6 -17
v 17 8.5 -17.2
v 17 8.6 -17.2
v 17 8.5 -17.3
v 17 8.6 -17.3
v 16.9 8.5 -16.4
v 16.9 8.6 -16.4
v 16.9 8.5 -16.5
v 16.9 8.6 -16.5
v 16.9 8.5 -16.7
v 16.9 8.6 -16.7
v 16.9 8.5 -16.8
v 16.9 8.6 -16.8
v 16.9 8.5 -17
v 16.9 8.6 -17
v 16.9 8.5 -17.1
v 16.9 8.6 -17.1
v 16.9 8.5 -17.3
v 16.9 8.6 -17.3
v 16.9 8.5 -17.4
v 16.9 8.6 -17.4
v 16.8 8.5 -16.6
v 16.8 8.6 -16.6
v 16.8 8.5 -16.7
v 16.8 8.6 -16.7
v 16.8 8.5 -17.1
v 16.8 8.6 -17.1
v 16.8 8.5 -17.2
v 16.8 8.6 -17.2
v 16.7 8.5 -16.5
v 16.7 8.6 -16.5
v 16.7 8.5 -16.6
v 16.7 8.6 -16.6
v 16.7 8.5 -17.2
v 16.7 8.6 -17.2
v 16.7 8.5 -17.3
v 16.7 8.6 -17.3
v 17.2 8.2 -16.6
v 17.2 8.4 -16.6
v 17.2 8.2 -16.7
v 17.2 8.4 -16.7
v 17.2 8.6 -16.7
v 17.2 8.7 -16.7
v 17.2 8.6 -16.8
v 17.2 8.7 -16.8
v 17.2 8.6 -17
v 17.2 8.7 -17
v 17.2 8.2 -17.1
v 17.2 8.4 -17.1
v 17.2 8.6 -17.1
v 17.2 8.7 -17.1
v 17.2 8.2 -17.2
v 17.2 8.4 -17.2
v 17 8.5 -16.6
v 17 8.6 -16.6
v 17 8.5 -16.7
v 17 8.5 -16.8
v 17 8.6 -16.8
v 17 8.5 -17
v 17 8.6 -17
v 17 8.5 -17.1
v 17 8.5 -17.2
v 17 8.6 -17.2
v 16.9 8.5 -16.5
v 16.9 8.6 -16.5
v 16.9 8.5 -16.6
v 16.9 8.6 -16.6
v 16.9 8.5 -16.8
v 16.9 8.6 -16.8
v 16.9 8.5 -17
v 16.9 8.6 -17
v 16.9 8.5 -17.2
v 16.9 8.6 -17.2
v 16.9 8.5 -17.3
v 16.9 8.6 -17.3
v 16.8 8.5 -16.7
v 16.8 8.6 -16.7
v 16.8 8.5 -16.8
v 16.8 8.6 -16.8
v 16.8 8.5 -17
v 16.8 8.6 -17
v 16.8 8.5 -17.1
v 16.8 8.6 -17.1
v 16.7 8.5 -16.4
v 16.7 8.6 -16.4
v 16.7 8.5 -16.5
v 16.7 8.6 -16.5
v 16.7 8.5 -16.6
v 16.7 8.6 -16.6
v 16.7 8.1 -16.7
v 16.7 8.5 -16.7
v 16.7 8.6 -16.7
v 16.7 8.1 -16.8
v 16.7 8.5 -16.8
v 16.7 8.1 -17
v 16.7 8.5 -17
v 16.7 8.1 -17.1
v 16.7 8.5 -17.1
v 16.7 8.6 -17.1
v 16.7 8.5 -17.2
v 16.7 8.6 -17.2
v 16.7 8.5 -17.3
v 16.7 8.6 -17.3
v 16.7 8.5 -17.4
v 16.7 8.6 -17.4
v 16.6 8.5 -16.5
v 16.6 8.6 -16.5
v 16.6 8.5 -16.6
v 16.6 8.6 -16.6
v 16.6 8.1 -16.8
v 16.6 8.5 -16.8
v 16.6 8.1 -17
v 16.6 8.5 -17
v 16.6 8.5 -17.2
v 16.6 8.6 -17.2
v 16.6 8.5 -17.3
v 16.6 8.6 -17.3
v 17.2 8.1 -16.7
v 17.2 8.1 -17.1
v 17.1 8.1 -16.7
v 17.1 8.1 -17.1
v 17 8.1 -16.7
v 17 8.1 -17.1
v 16.9 8.1 -16.7
v 16.9 8.1 -17.1
v 16.8 8.1 -16.7
v 16.8 8.1 -17.1
v 16.7 8.1 -16.7
v 16.7 8.1 -16.8
v 16.7 8.1 -17
v 16.7 8.1 -17.1
v 16.6 8.1 -16.8
v 16.6 8.1 -17
v 17.3 8.2 -16.6
v 17.3 8.2 -16.8
v 17.3 8.2 -17
v 17.3 8.2 -17.2
v 17.2 8.2 -16.6
v 17.2 8.2 -16.7
v 17.2 8.2 -16.8
v 17.2 8.2 -17
v 17.2 8.2 -17.1
v 17.2 8.2 -17.2
v 17.1 8.5 -16.6
v 17.1 8.5 -16.7
v 17.1 8.5 -17.1
v 17.1 8.5 -17.2
v 17 8.5 -16.5
v 17 8.5 -16.6
v 17 8.5 -16.7
v 17 8.5 -17.1
v 17 8.5 -17.2
v 17 8.5 -17.3
v 16.9 8.5 -16.4
v 16.9 8.5 -16.5
v 16.9 8.5 -16.6
v 16.9 8.5 -17.2
v 16.9 8.5 -17.3
v 16.9 8.5 -17.4
v 16.8 8.5 -16.6
v 16.8 8.5 -16.7
v 16.8 8.5 -17.1
v 16.8 8.5 -17.2
v 16.7 8.5 -16.4
v 16.7 8.5 -16.5
v 16.7 8.5 -16.6
v 16.7 8.5 -16.7
v 16.7 8.5 -17.1
v 16.7 8.5 -17.2
v 16.7 8.5 -17.3
v 16.7 8.5 -17.4
v 16.6 8.5 -16.5
v 16.6 8.5 -16.6
v 16.6 8.5 -17.2
v 16.6 8.5 -17.3
v 17.3 8.6 -16.7
v 17.3 8.6 -16.8
v 17.3 8.6 -17
v 17.3 8.6 -17.1
v 17.2 8.6 -16.7
v 17.2 8.6 -16.8
v 17.2 8.6 -17
v 17.2 8.6 -17.1
v 17.3 8.4 -16.6
v 17.3 8.4 -16.7
v 17.3 8.4 -16.8
v 17.3 8.4 -17
v 17.3 8.4 -17.1
v 17.3 8.4 -17.2
v 17.2 8.4 -16.6
v 17.2 8.4 -16.7
v 17.2 8.4 -16.8
v 17.2 8.4 -17
v 17.2 8.4 -17.1
v 17.2 8.4 -17.2
v 17.2 8.5 -16.8
v 17.2 8.5 -17
v 17.1 8.5 -16.8
v 17.1 8.5 -17
v 17 8.5 -16.7
v 17 8.5 -16.8
v 17 8.5 -17
v 17 8.5 -17.1
v 16.9 8.5 -16.7
v 16.9 8.5 -16.8
v 16.9 8.5 -17
v 16.9 8.5 -17.1
v 16.8 8.5 -16.7
v 16.8 8.5 -16.8
v 16.8 8.5 -17
v 16.8 8.5 -17.1
v 16.7 8.5 -16.7
v 16.7 8.5 -16.8
v 16.7 8.5 -17
v 16.7 8.5 -17.1
v 16.6 8.5 -16.8
v 16.6 8.5 -17
v 17.2 8.6 -16.7
v 17.2 8.6 -16.8
v 17.2 8.6 -17
v 17.2 8.6 -17.1
v 17.1 8.6 -16.6
v 17.1 8.6 -16.7
v 17.1 8.6 -16.8
v 17.1 8.6 -17
v 17.1 8.6 -17.1
v 17.1 8.6 -17.2
v 17 8.6 -16.5
v 17 8.6 -16.6
v 17 8.6 -16.8
v 17 8.6 -17
v 17 8.6 -17.2
v 17 8.6 -17.3
v 16.9 8.6 -16.4
v 16.9 8.6 -16.5
v 16.9 8.6 -16.6
v 16.9 8.6 -16.7
v 16.9 8.6 -16.8
v 16.9 8.6 -17
v 16.9 8.6 -17.1
v 16.9 8.6 -17.2
v 16.9 8.6 -17.3
v 16.9 8.6 -17.4
v 16.8 8.6 -16.6
v 16.8 8.6 -16.7
v 16.8 8.6 -16.8
v 16.8 8.6 -17
v 16.8 8.6 -17.1
v 16.8 8.6 -17.2
v 16.7 8.6 -16.4
v 16.7 8.6 -16.5
v 16.7 8.6 -16.6
v 16.7 8.6 -16.7
v 16.7 8.6 -17.1
v 16.7 8.6 -17.2
v 16.7 8.6 -17.3
v 16.7 8.6 -17.4
v 16.6 8.6 -16.5
v 16.6 8.6 -16.6
v 16.6 8.6 -17.2
v 16.6 8.6 -17.3
v 17.3 8.7 -16.7
v 17.3 8.7 -16.8
v 17.3 8.7 -17
v 17.3 8.7 -17.1
v 17.2 8.7 -16.7
v 17.2 8.7 -16.8
v 17.2 8.7 -17
v 17.2 8.7 -17.1

# faces
f 3/3/1 2/3/1 1/3/1
f 4/3/1 2/3/1 3/3/1
f 9/3/1 6/3/1 5/3/1
f 10/3/1 6/3/1 9/3/1
f 11/3/1 8/3/1 7/3/1
f 12/3/1 8/3/1 11/3/1
f 15/6/1 14/6/1 13/6/1
f 16/6/1 14/6/1 15/6/1
f 21/3/1 18/3/1 17/3/1
f 22/3/1 18/3/1 21/3/1
f 23/3/1 20/3/1 19/3/1
f 24/3/1 20/3/1 23/3/1
f 31/5/1 26/5/1 25/5/1
f 32/5/1 26/5/1 31/5/1
f 33/7/1 27/7/1 26/7/1
f 33/5/1 26/5/1 32/5/1
f 34/4/1 33/4/1 32/4/1
f 35/7/1 27/7/1 33/7/1
f 35/4/1 33/4/1 34/4/1
f 36/1/1 28/1/1 27/1/1
f 36/7/1 27/7/1 35/7/1
f 37/7/1 29/7/1 28/7/1
f 37/1/1 28/1/1 36/1/1
f 38/2/1 30/2/1 29/2/1
f 38/7/1 29/7/1 37/7/1
f 39/2/1 30/2/1 38/2/1
f 41/6/1 35/6/1 34/6/1
f 42/6/1 35/6/1 41/6/1
f 43/3/1 38/3/1 37/3/1
f 44/3/1 38/3/1 43/3/1
f 45/6/1 41/6/1 40/6/1
f 46/6/1 41/6/1 45/6/1
f 51/7/1 48/7/1 47/7/1
f 52/7/1 48/7/1 51/7/1
f 53/3/1 50/3/1 49/3/1
f 54/3/1 50/3/1 53/3/1
f 57/6/1 56/6/1 55/6/1
f 58/6/1 56/6/1 57/6/1
f 59/8/1 58/8/1 57/8/1
f 60/8/1 58/8/1 59/8/1
f 67/6/1 62/6/1 61/6/1
f 68/3/1 63/3/1 62/3/1
f 68/6/1 62/6/1 67/6/1
f 69/3/1 63/3/1 68/3/1
f 70/3/1 65/3/1 64/3/1
f 71/3/1 65/3/1 70/3/1
f 72/6/1 67/6/1 66/6/1
f 73/6/1 67/6/1 72/6/1
f 76/3/1 75/3/1 74/3/1
f 77/3/1 75/3/1 76/3/1
f 82/3/1 79/3/1 78/3/1
f 83/3/1 79/3/1 82/3/1
f 84/3/1 81/3/1 80/3/1
f 85/3/1 81/3/1 84/3/1
f 88/3/1 87/3/1 86/3/1
f 89/3/1 87/3/1 88/3/1
f 90/3/2 91/3/2 92/3/2
f 92/3/2 91/3/2 93/3/2
f 94/3/2 95/3/2 98/3/2
f 98/3/2 95/3/2 99/3/2
f 96/3/2 97/3/2 100/3/2
f 100/3/2 97/3/2 101/3/2
f 102/3/2 103/3/2 104/3/2
f 104/3/2 103/3/2 105/3/2
f 106/6/2 107/6/2 108/6/2
f 108/6/2 107/6/2 109/6/2
f 108/8/2 109/8/2 110/8/2
f 110/8/2 109/8/2 111/8/2
f 112/6/2 113/6/2 118/6/2
f 113/3/2 114/3/2 119/3/2
f 118/6/2 113/6/2 119/6/2
f 119/3/2 114/3/2 120/3/2
f 115/3/2 116/3/2 121/3/2
f 121/3/2 116/3/2 122/3/2
f 117/6/2 118/6/2 123/6/2
f 123/6/2 118/6/2 124/6/2
f 125/7/2 126/7/2 129/7/2
f 129/7/2 126/7/2 130/7/2
f 127/3/2 128/3/2 131/3/2
f 131/3/2 128/3/2 132/3/2
f 133/5/2 134/5/2 139/5/2
f 139/5/2 134/5/2 140/5/2
f 134/7/2 135/7/2 141/7/2
f 140/5/2 134/5/2 141/5/2
f 140/4/2 141/4/2 142/4/2
f 141/7/2 135/7/2 143/7/2
f 142/4/2 141/4/2 143/4/2
f 135/1/2 136/1/2 144/1/2
f 143/7/2 135/7/2 144/7/2
f 136/7/2 137/7/2 145/7/2
f 144/1/2 136/1/2 145/1/2
f 137/2/2 138/2/2 146/2/2
f 145/7/2 137/7/2 146/7/2
f 146/2/2 138/2/2 147/2/2
f 142/6/2 143/6/2 149/6/2
f 149/6/2 143/6/2 150/6/2
f 145/3/2 146/3/2 151/3/2
f 151/3/2 146/3/2 152/3/2
f 148/6/2 149/6/2 153/6/2
f 153/6/2 149/6/2 154/6/2
f 155/6/2 156/6/2 157/6/2
f 157/6/2 156/6/2 158/6/2
f 159/3/2 160/3/2 163/3/2
f 163/3/2 160/3/2 164/3/2
f 161/3/2 162/3/2 165/3/2
f 165/3/2 162/3/2 166/3/2
f 167/3/2 168/3/2 171/3/2
f 171/3/2 168/3/2 172/3/2
f 169/3/2 170/3/2 173/3/2
f 173/3/2 170/3/2 174/3/2
f 175/3/2 176/3/2 177/3/2
f 177/3/2 176/3/2 178/3/2
f 181/6/3 180/6/3 179/6/3
f 182/6/3 180/6/3 181/6/3
f 185/6/3 181/6/3 179/6/3
f 186/8/3 182/8/3 181/8/3
f 186/6/3 181/6/3 185/6/3
f 187/8/3 182/8/3 186/8/3
f 188/6/3 184/6/3 183/6/3
f 189/6/3 184/6/3 188/6/3
f 195/6/3 191/6/3 190/6/3
f 195/8/3 192/8/3 191/8/3
f 196/8/3 192/8/3 195/8/3
f 197/6/3 194/6/3 193/6/3
f 198/6/3 194/6/3 197/6/3
f 199/6/3 196/6/3 195/6/3
f 199/6/3 195/6/3 190/6/3
f 200/6/3 196/6/3 199/6/3
f 206/5/3 202/5/3 201/5/3
f 208/4/3 204/4/3 203/4/3
f 209/6/3 205/6/3 204/6/3
f 209/4/3 204/4/3 208/4/3
f 210/6/3 205/6/3 209/6/3
f 211/2/3 208/2/3 207/2/3
f 211/2/3 207/2/3 206/2/3
f 211/5/3 206/5/3 201/5/3
f 212/2/3 208/2/3 211/2/3
f 213/5/3 211/5/3 201/5/3
f 213/5/3 212/5/3 211/5/3
f 214/2/3 208/2/3 212/2/3
f 214/5/3 212/5/3 213/5/3
f 215/4/3 209/4/3 208/4/3
f 215/2/3 208/2/3 214/2/3
f 216/4/3 209/4/3 215/4/3
f 218/5/3 213/5/3 201/5/3
f 219/5/3 213/5/3 218/5/3
f 220/4/3 216/4/3 215/4/3
f 221/6/3 217/6/3 216/6/3
f 221/4/3 216/4/3 220/4/3
f 222/6/3 217/6/3 221/6/3
f 225/3/3 224/3/3 223/3/3
f 226/3/3 224/3/3 225/3/3
f 229/3/3 228/3/3 227/3/3
f 230/3/3 228/3/3 229/3/3
f 233/3/3 232/3/3 231/3/3
f 234/3/3 232/3/3 233/3/3
f 237/3/3 236/3/3 235/3/3
f 238/3/3 236/3/3 237/3/3
f 241/3/3 240/3/3 239/3/3
f 242/3/3 240/3/3 241/3/3
f 245/3/3 244/3/3 243/3/3
f 246/3/3 244/3/3 245/3/3
f 249/3/3 248/3/3 247/3/3
f 250/3/3 248/3/3 249/3/3
f 253/3/3 252/3/3 251/3/3
f 254/3/3 252/3/3 253/3/3
f 257/3/3 256/3/3 255/3/3
f 258/3/3 256/3/3 257/3/3
f 261/3/3 260/3/3 259/3/3
f 262/3/3 260/3/3 261/3/3
f 265/3/3 264/3/3 263/3/3
f 266/3/3 264/3/3 265/3/3
f 269/3/3 268/3/3 267/3/3
f 270/3/3 268/3/3 269/3/3
f 273/3/3 272/3/3 271/3/3
f 274/3/3 272/3/3 273/3/3
f 275/6/4 276/6/4 277/6/4
f 277/6/4 276/6/4 278/6/4
f 279/6/4 280/6/4 281/6/4
f 281/6/4 280/6/4 282/6/4
f 283/6/4 284/6/4 287/6/4
f 287/6/4 284/6/4 288/6/4
f 285/6/4 286/6/4 289/6/4
f 289/6/4 286/6/4 290/6/4
f 291/3/4 292/3/4 293/3/4
f 293/3/4 292/3/4 294/3/4
f 294/3/4 292/3/4 295/3/4
f 296/3/4 297/3/4 298/3/4
f 298/3/4 297/3/4 299/3/4
f 299/3/4 297/3/4 300/3/4
f 301/3/4 302/3/4 303/3/4
f 303/3/4 302/3/4 304/3/4
f 305/3/4 306/3/4 307/3/4
f 307/3/4 306/3/4 308/3/4
f 309/3/4 310/3/4 311/3/4
f 311/3/4 310/3/4 312/3/4
f 313/3/4 314/3/4 315/3/4
f 315/3/4 314/3/4 316/3/4
f 317/3/4 318/3/4 319/3/4
f 319/3/4 318/3/4 320/3/4
f 321/3/4 322/3/4 323/3/4
f 323/3/4 322/3/4 324/3/4
f 325/3/4 326/3/4 328/3/4
f 328/3/4 326/3/4 329/3/4
f 327/2/4 328/2/4 330/2/4
f 330/2/4 328/2/4 331/2/4
f 332/2/4 333/2/4 334/2/4
f 334/2/4 333/2/4 335/2/4
f 335/3/4 336/3/4 337/3/4
f 337/3/4 336/3/4 338/3/4
f 339/3/4 340/3/4 341/3/4
f 341/3/4 340/3/4 342/3/4
f 343/3/4 344/3/4 345/3/4
f 345/3/4 344/3/4 346/3/4
f 347/7/4 348/7/4 349/7/4
f 349/7/4 348/7/4 350/7/4
f 351/3/4 352/3/4 353/3/4
f 353/3/4 352/3/4 354/3/4
f 357/5/5 356/5/5 355/5/5
f 358/5/5 356/5/5 357/5/5
f 359/7/5 358/7/5 357/7/5
f 360/7/5 358/7/5 359/7/5
f 361/1/5 360/1/5 359/1/5
f 362/1/5 360/1/5 361/1/5
f 363/7/5 362/7/5 361/7/5
f 364/7/5 362/7/5 363/7/5
f 365/2/5 364/2/5 363/2/5
f 366/2/5 364/2/5 365/2/5
f 367/2/5 364/2/5 366/2/5
f 368/2/5 364/2/5 367/2/5
f 369/7/5 367/7/5 366/7/5
f 370/7/5 367/7/5 369/7/5
f 375/6/5 372/6/5 371/6/5
f 376/6/5 372/6/5 375/6/5
f 377/6/5 372/6/5 376/6/5
f 378/6/5 374/6/5 373/6/5
f 379/6/5 374/6/5 378/6/5
f 380/6/5 374/6/5 379/6/5
f 386/3/5 382/3/5 381/3/5
f 387/3/5 382/3/5 386/3/5
f 388/3/5 384/3/5 383/3/5
f 389/3/5 384/3/5 388/3/5
f 392/3/5 386/3/5 385/3/5
f 393/3/5 386/3/5 392/3/5
f 394/3/5 390/3/5 389/3/5
f 395/3/5 390/3/5 394/3/5
f 401/3/5 392/3/5 391/3/5
f 402/3/5 392/3/5 401/3/5
f 403/3/5 398/3/5 397/3/5
f 404/3/5 398/3/5 403/3/5
f 405/3/5 400/3/5 399/3/5
f 406/3/5 400/3/5 405/3/5
f 407/3/5 396/3/5 395/3/5
f 408/3/5 396/3/5 407/3/5
f 409/3/5 403/3/5 402/3/5
f 410/3/5 403/3/5 409/3/5
f 411/3/5 407/3/5 406/3/5
f 412/3/5 407/3/5 411/3/5
f 417/6/5 414/6/5 413/6/5
f 418/6/5 414/6/5 417/6/5
f 419/6/5 416/6/5 415/6/5
f 420/6/5 416/6/5 419/6/5
f 421/6/6 422/6/6 427/6/6
f 422/8/6 423/8/6 428/8/6
f 427/6/6 422/6/6 428/6/6
f 428/8/6 423/8/6 429/8/6
f 424/8/6 425/8/6 430/8/6
f 425/6/6 426/6/6 431/6/6
f 430/8/6 425/8/6 431/8/6
f 431/6/6 426/6/6 432/6/6
f 433/4/6 434/4/6 435/4/6
f 435/4/6 434/4/6 436/4/6
f 435/7/6 436/7/6 438/7/6
f 438/7/6 436/7/6 439/7/6
f 437/1/6 438/1/6 441/1/6
f 441/1/6 438/1/6 442/1/6
f 439/1/6 440/1/6 443/1/6
f 443/1/6 440/1/6 444/1/6
f 442/7/6 443/7/6 446/7/6
f 446/7/6 443/7/6 447/7/6
f 445/2/6 446/2/6 449/2/6
f 447/2/6 448/2/6 449/2/6
f 446/2/6 447/2/6 449/2/6
f 449/2/6 448/2/6 450/2/6
f 450/2/6 448/2/6 451/2/6
f 451/2/6 448/2/6 452/2/6
f 450/7/6 451/7/6 453/7/6
f 453/7/6 451/7/6 454/7/6
f 455/6/6 456/6/6 460/6/6
f 460/6/6 456/6/6 461/6/6
f 457/6/6 458/6/6 462/6/6
f 462/6/6 458/6/6 463/6/6
f 460/3/6 461/3/6 466/3/6
f 459/3/6 460/3/6 466/3/6
f 466/3/6 461/3/6 467/3/6
f 463/3/6 464/3/6 468/3/6
f 462/3/6 463/3/6 468/3/6
f 468/3/6 464/3/6 469/3/6
f 465/3/6 466/3/6 472/3/6
f 472/3/6 466/3/6 473/3/6
f 467/3/6 468/3/6 475/3/6
f 475/3/6 468/3/6 476/3/6
f 469/3/6 470/3/6 478/3/6
f 478/3/6 470/3/6 479/3/6
f 474/3/6 475/3/6 482/3/6
f 482/3/6 475/3/6 483/3/6
f 476/3/6 477/3/6 484/3/6
f 484/3/6 477/3/6 485/3/6
f 471/3/6 472/3/6 487/3/6
f 487/3/6 472/3/6 488/3/6
f 481/3/6 482/3/6 489/3/6
f 489/3/6 482/3/6 490/3/6
f 485/3/6 486/3/6 491/3/6
f 491/3/6 486/3/6 492/3/6
f 479/3/6 480/3/6 493/3/6
f 493/3/6 480/3/6 494/3/6
f 488/3/6 489/3/6 495/3/6
f 495/3/6 489/3/6 496/3/6
f 492/3/6 493/3/6 497/3/6
f 497/3/6 493/3/6 498/3/6
f 499/6/6 500/6/6 503/6/6
f 503/6/6 500/6/6 504/6/6
f 501/6/6 502/6/6 505/6/6
f 505/6/6 502/6/6 506/6/6
