# MagicaVoxel @ Ephtracy

# group
o 

# material
mtllib Wolf-1.mtl
usemtl palette

# normals
vn 1 0 0
vn -1 0 0
vn 0 0 1
vn 0 0 -1
vn 0 -1 0
vn 0 1 0

# texcoords
vt 0.978516 0.5
vt 0.982422 0.5
vt 0.990234 0.5

# verts
v 1.1 0.9 0.7
v 1.1 0.9 0.5
v 1.1 1 0.8
v 1.1 1 0.7
v 1.1 1.2 0.8
v 1.1 1.2 0.5
v 1 0.8 0.8
v 1 0.8 0.5
v 1 0.9 0.9
v 1 0.9 0.8
v 1 0.9 0.7
v 1 0.9 0.5
v 1 0.9 0.4
v 1 1 0.8
v 1 1 0.7
v 1 1.2 0.8
v 1 1.2 0.6
v 1 1.2 0.5
v 1 1.2 0.4
v 1 1.3 0.9
v 1 1.3 0.6
v 0.9 0 1.2
v 0.9 0 0.9
v 0.9 0.1 1.2
v 0.9 0.1 0.9
v 0.9 0.7 0.6
v 0.9 0.7 0.4
v 0.9 0.8 0.6
v 0.9 0.8 0.5
v 0.9 0.9 1
v 0.9 0.9 0.9
v 0.9 0.9 0.5
v 0.9 0.9 0.4
v 0.9 0.9 0.3
v 0.9 1.2 0.6
v 0.9 1.2 0.4
v 0.9 1.2 0.3
v 0.9 1.3 0.9
v 0.9 1.3 0.6
v 0.9 1.3 0.4
v 0.9 1.4 1
v 0.9 1.4 0.6
v 0.8 0 1.3
v 0.8 0 1.2
v 0.8 0 0.9
v 0.8 0 0.8
v 0.8 0.1 1.3
v 0.8 0.1 1.2
v 0.8 0.1 1.1
v 0.8 0.1 0.9
v 0.8 0.1 0.8
v 0.8 0.1 0.7
v 0.8 0.2 1.2
v 0.8 0.2 1.1
v 0.8 0.2 0.9
v 0.8 0.2 0.7
v 0.8 0.2 0.6
v 0.8 0.3 0.9
v 0.8 0.3 0.7
v 0.8 0.4 0.9
v 0.8 0.4 0.8
v 0.8 0.4 0.6
v 0.8 0.4 0.5
v 0.8 0.6 0.8
v 0.8 0.6 0.7
v 0.8 0.6 0.6
v 0.8 0.6 0.5
v 0.8 0.6 0.4
v 0.8 0.7 0.6
v 0.8 0.7 0.4
v 0.8 0.7 0.3
v 0.8 0.8 1
v 0.8 0.8 0.8
v 0.8 0.8 0.7
v 0.8 0.8 0.6
v 0.8 0.9 1
v 0.8 0.9 0.8
v 0.8 0.9 0.4
v 0.8 0.9 0.3
v 0.8 1 1.1
v 0.8 1 1
v 0.8 1.3 1.1
v 0.8 1.3 1
v 0.8 1.3 0.6
v 0.8 1.3 0.5
v 0.8 1.4 0.9
v 0.8 1.4 0.6
v 0.8 1.4 0.5
v 0.8 1.5 0.9
v 0.8 1.5 0.6
v 0.7 0.2 1.1
v 0.7 0.2 0.9
v 0.7 0.3 1.1
v 0.7 0.3 0.9
v 0.7 0.4 0.9
v 0.7 0.4 0.8
v 0.7 0.5 0.9
v 0.7 0.5 0.8
v 0.6 0.2 1.1
v 0.6 0.2 0.9
v 0.6 0.3 1.1
v 0.6 0.3 0.9
v 0.6 0.4 0.9
v 0.6 0.4 0.8
v 0.6 0.5 0.9
v 0.6 0.5 0.8
v 0.5 0 1.3
v 0.5 0 1.2
v 0.5 0 0.9
v 0.5 0 0.8
v 0.5 0.1 1.3
v 0.5 0.1 1.2
v 0.5 0.1 1.1
v 0.5 0.1 0.9
v 0.5 0.1 0.8
v 0.5 0.1 0.7
v 0.5 0.2 1.2
v 0.5 0.2 1.1
v 0.5 0.2 0.9
v 0.5 0.2 0.7
v 0.5 0.2 0.6
v 0.5 0.3 0.9
v 0.5 0.3 0.7
v 0.5 0.4 0.9
v 0.5 0.4 0.8
v 0.5 0.4 0.6
v 0.5 0.4 0.5
v 0.5 0.6 0.8
v 0.5 0.6 0.7
v 0.5 0.6 0.6
v 0.5 0.6 0.5
v 0.5 0.6 0.4
v 0.5 0.7 0.6
v 0.5 0.7 0.4
v 0.5 0.7 0.3
v 0.5 0.8 0.7
v 0.5 0.8 0.6
v 0.5 0.9 0.6
v 0.5 0.9 0.3
v 0.5 1 1.1
v 0.5 1 1
v 0.5 1.3 1.1
v 0.5 1.3 1
v 0.5 1.3 0.9
v 0.5 1.4 1
v 0.5 1.4 0.9
v 0.5 1.4 0.6
v 0.5 1.5 0.9
v 0.5 1.5 0.6
v 0.4 0 1.2
v 0.4 0 0.9
v 0.4 0.1 1.2
v 0.4 0.1 0.9
v 0.4 0.8 1
v 0.4 0.8 0.6
v 0.4 0.9 1
v 0.4 0.9 0.6
v 0.4 0.9 0.4
v 0.4 0.9 0.3
v 0.4 1 0.4
v 0.4 1 0.3
v 0.4 1.2 1
v 0.4 1.2 0.9
v 0.4 1.3 1
v 0.4 1.3 0.9
v 0.4 1.3 0.5
v 0.4 1.4 0.9
v 0.4 1.4 0.5
v 0.3 0.9 1
v 0.3 0.9 0.4
v 0.3 1 0.4
v 0.3 1 0.3
v 0.3 1.2 1
v 0.3 1.2 0.9
v 0.3 1.2 0.4
v 0.3 1.2 0.3
v 0.3 1.3 0.9
v 0.3 1.3 0.4
v 0.8 0 1.3
v 0.8 0.1 1.3
v 0.5 0 1.3
v 0.5 0.1 1.3
v 0.9 0 1.2
v 0.9 0.1 1.2
v 0.8 0 1.2
v 0.8 0.1 1.2
v 0.8 0.2 1.2
v 0.7 0.1 1.2
v 0.7 0.2 1.2
v 0.6 0.1 1.2
v 0.6 0.2 1.2
v 0.5 0 1.2
v 0.5 0.1 1.2
v 0.5 0.2 1.2
v 0.4 0 1.2
v 0.4 0.1 1.2
v 0.8 1 1.1
v 0.8 1.3 1.1
v 0.7 0.2 1.1
v 0.7 0.3 1.1
v 0.6 0.2 1.1
v 0.6 0.3 1.1
v 0.5 1 1.1
v 0.5 1.3 1.1
v 0.9 0.9 1
v 0.9 1.4 1
v 0.8 0.8 1
v 0.8 0.9 1
v 0.8 1 1
v 0.8 1.3 1
v 0.5 1 1
v 0.5 1.3 1
v 0.5 1.4 1
v 0.4 0.8 1
v 0.4 0.9 1
v 0.4 1.2 1
v 0.4 1.3 1
v 0.3 0.9 1
v 0.3 1.2 1
v 1 0.9 0.9
v 1 1.3 0.9
v 0.9 0.9 0.9
v 0.9 1.3 0.9
v 0.8 0.2 0.9
v 0.8 0.3 0.9
v 0.8 0.4 0.9
v 0.8 1.4 0.9
v 0.8 1.5 0.9
v 0.7 0.2 0.9
v 0.7 0.3 0.9
v 0.7 0.4 0.9
v 0.7 0.5 0.9
v 0.6 0.2 0.9
v 0.6 0.3 0.9
v 0.6 0.4 0.9
v 0.6 0.5 0.9
v 0.5 0.2 0.9
v 0.5 0.3 0.9
v 0.5 0.4 0.9
v 0.5 1.3 0.9
v 0.5 1.4 0.9
v 0.5 1.5 0.9
v 0.4 1.2 0.9
v 0.4 1.3 0.9
v 0.4 1.4 0.9
v 0.3 1.2 0.9
v 0.3 1.3 0.9
v 1.1 1 0.8
v 1.1 1.2 0.8
v 1 0.8 0.8
v 1 0.9 0.8
v 1 1 0.8
v 1 1.2 0.8
v 0.8 0.4 0.8
v 0.8 0.6 0.8
v 0.8 0.8 0.8
v 0.8 0.9 0.8
v 0.7 0.4 0.8
v 0.7 0.5 0.8
v 0.6 0.4 0.8
v 0.6 0.5 0.8
v 0.5 0.4 0.8
v 0.5 0.6 0.8
v 1.1 0.9 0.7
v 1.1 1 0.7
v 1 0.9 0.7
v 1 1 0.7
v 0.8 0.6 0.7
v 0.8 0.8 0.7
v 0.5 0.6 0.7
v 0.5 0.8 0.7
v 0.9 0.7 0.6
v 0.9 0.8 0.6
v 0.8 0.7 0.6
v 0.8 0.8 0.6
v 0.9 0 0.9
v 0.9 0.1 0.9
v 0.8 0 0.9
v 0.8 0.1 0.9
v 0.5 0 0.9
v 0.5 0.1 0.9
v 0.4 0 0.9
v 0.4 0.1 0.9
v 0.8 0 0.8
v 0.8 0.1 0.8
v 0.5 0 0.8
v 0.5 0.1 0.8
v 0.8 0.1 0.7
v 0.8 0.2 0.7
v 0.5 0.1 0.7
v 0.5 0.2 0.7
v 1 1.2 0.6
v 1 1.3 0.6
v 0.9 1.2 0.6
v 0.9 1.3 0.6
v 0.9 1.4 0.6
v 0.8 0.2 0.6
v 0.8 0.4 0.6
v 0.8 1.3 0.6
v 0.8 1.4 0.6
v 0.8 1.5 0.6
v 0.5 0.2 0.6
v 0.5 0.4 0.6
v 0.5 0.8 0.6
v 0.5 0.9 0.6
v 0.5 1.4 0.6
v 0.5 1.5 0.6
v 0.4 0.8 0.6
v 0.4 0.9 0.6
v 1.1 0.9 0.5
v 1.1 1.2 0.5
v 1 0.8 0.5
v 1 0.9 0.5
v 1 1.2 0.5
v 0.9 0.8 0.5
v 0.9 0.9 0.5
v 0.8 0.4 0.5
v 0.8 0.6 0.5
v 0.8 1.3 0.5
v 0.8 1.4 0.5
v 0.5 0.4 0.5
v 0.5 0.6 0.5
v 0.4 1.3 0.5
v 0.4 1.4 0.5
v 1 0.9 0.4
v 1 1.2 0.4
v 0.9 0.7 0.4
v 0.9 0.9 0.4
v 0.9 1.2 0.4
v 0.9 1.3 0.4
v 0.8 0.6 0.4
v 0.8 0.7 0.4
v 0.8 0.9 0.4
v 0.5 0.6 0.4
v 0.5 0.7 0.4
v 0.4 0.9 0.4
v 0.4 1 0.4
v 0.3 0.9 0.4
v 0.3 1 0.4
v 0.3 1.2 0.4
v 0.3 1.3 0.4
v 0.9 0.9 0.3
v 0.9 1.2 0.3
v 0.8 0.7 0.3
v 0.8 0.9 0.3
v 0.5 0.7 0.3
v 0.5 0.9 0.3
v 0.4 0.9 0.3
v 0.4 1 0.3
v 0.3 1 0.3
v 0.3 1.2 0.3
v 0.8 0 1.3
v 0.5 0 1.3
v 0.9 0 1.2
v 0.8 0 1.2
v 0.5 0 1.2
v 0.4 0 1.2
v 0.9 0 0.9
v 0.8 0 0.9
v 0.5 0 0.9
v 0.4 0 0.9
v 0.8 0 0.8
v 0.5 0 0.8
v 0.8 0.1 0.8
v 0.5 0.1 0.8
v 0.8 0.1 0.7
v 0.5 0.1 0.7
v 0.8 0.2 0.7
v 0.5 0.2 0.7
v 0.8 0.2 0.6
v 0.5 0.2 0.6
v 0.8 0.4 0.6
v 0.5 0.4 0.6
v 0.8 0.4 0.5
v 0.5 0.4 0.5
v 0.8 0.6 0.5
v 0.5 0.6 0.5
v 0.8 0.6 0.4
v 0.5 0.6 0.4
v 0.9 0.7 0.6
v 0.8 0.7 0.6
v 0.9 0.7 0.4
v 0.8 0.7 0.4
v 0.5 0.7 0.4
v 0.8 0.7 0.3
v 0.5 0.7 0.3
v 0.8 0.8 1
v 0.4 0.8 1
v 1 0.8 0.8
v 0.8 0.8 0.8
v 0.8 0.8 0.7
v 0.5 0.8 0.7
v 0.9 0.8 0.6
v 0.8 0.8 0.6
v 0.5 0.8 0.6
v 0.4 0.8 0.6
v 1 0.8 0.5
v 0.9 0.8 0.5
v 0.9 0.9 1
v 0.8 0.9 1
v 0.4 0.9 1
v 0.3 0.9 1
v 1 0.9 0.9
v 0.9 0.9 0.9
v 1 0.9 0.8
v 0.8 0.9 0.8
v 1.1 0.9 0.7
v 1 0.9 0.7
v 0.5 0.9 0.6
v 0.4 0.9 0.6
v 1.1 0.9 0.5
v 1 0.9 0.5
v 0.9 0.9 0.5
v 1 0.9 0.4
v 0.9 0.9 0.4
v 0.8 0.9 0.4
v 0.4 0.9 0.4
v 0.3 0.9 0.4
v 0.9 0.9 0.3
v 0.8 0.9 0.3
v 0.5 0.9 0.3
v 0.4 0.9 0.3
v 0.8 1 1.1
v 0.5 1 1.1
v 0.8 1 1
v 0.5 1 1
v 1.1 1 0.8
v 1 1 0.8
v 1.1 1 0.7
v 1 1 0.7
v 0.4 1 0.4
v 0.3 1 0.4
v 0.4 1 0.3
v 0.3 1 0.3
v 0.8 0.1 1.3
v 0.5 0.1 1.3
v 0.9 0.1 1.2
v 0.8 0.1 1.2
v 0.7 0.1 1.2
v 0.6 0.1 1.2
v 0.5 0.1 1.2
v 0.4 0.1 1.2
v 0.8 0.1 1.1
v 0.5 0.1 1.1
v 0.9 0.1 0.9
v 0.8 0.1 0.9
v 0.5 0.1 0.9
v 0.4 0.1 0.9
v 0.8 0.2 1.2
v 0.7 0.2 1.2
v 0.6 0.2 1.2
v 0.5 0.2 1.2
v 0.8 0.2 1.1
v 0.7 0.2 1.1
v 0.6 0.2 1.1
v 0.5 0.2 1.1
v 0.8 0.2 0.9
v 0.7 0.2 0.9
v 0.6 0.2 0.9
v 0.5 0.2 0.9
v 0.7 0.3 1.1
v 0.6 0.3 1.1
v 0.7 0.3 0.9
v 0.6 0.3 0.9
v 0.8 0.4 0.9
v 0.7 0.4 0.9
v 0.6 0.4 0.9
v 0.5 0.4 0.9
v 0.8 0.4 0.8
v 0.7 0.4 0.8
v 0.6 0.4 0.8
v 0.5 0.4 0.8
v 0.7 0.5 0.9
v 0.6 0.5 0.9
v 0.7 0.5 0.8
v 0.6 0.5 0.8
v 0.8 0.6 0.8
v 0.5 0.6 0.8
v 0.8 0.6 0.7
v 0.5 0.6 0.7
v 0.4 1.2 1
v 0.3 1.2 1
v 0.4 1.2 0.9
v 0.3 1.2 0.9
v 1.1 1.2 0.8
v 1 1.2 0.8
v 1 1.2 0.6
v 0.9 1.2 0.6
v 1.1 1.2 0.5
v 1 1.2 0.5
v 1 1.2 0.4
v 0.9 1.2 0.4
v 0.3 1.2 0.4
v 0.9 1.2 0.3
v 0.3 1.2 0.3
v 0.8 1.3 1.1
v 0.5 1.3 1.1
v 0.8 1.3 1
v 0.5 1.3 1
v 0.4 1.3 1
v 1 1.3 0.9
v 0.9 1.3 0.9
v 0.5 1.3 0.9
v 0.4 1.3 0.9
v 0.3 1.3 0.9
v 1 1.3 0.6
v 0.9 1.3 0.6
v 0.8 1.3 0.6
v 0.8 1.3 0.5
v 0.4 1.3 0.5
v 0.9 1.3 0.4
v 0.3 1.3 0.4
v 0.9 1.4 1
v 0.5 1.4 1
v 0.8 1.4 0.9
v 0.5 1.4 0.9
v 0.4 1.4 0.9
v 0.9 1.4 0.6
v 0.8 1.4 0.6
v 0.5 1.4 0.6
v 0.8 1.4 0.5
v 0.4 1.4 0.5
v 0.8 1.5 0.9
v 0.5 1.5 0.9
v 0.8 1.5 0.6
v 0.5 1.5 0.6

# faces
f 1/2/1 2/2/1 4/2/1
f 3/2/1 4/2/1 5/2/1
f 4/2/1 2/2/1 6/2/1
f 5/2/1 4/2/1 6/2/1
f 7/2/1 8/2/1 10/2/1
f 10/2/1 8/2/1 11/2/1
f 11/2/1 8/2/1 12/2/1
f 9/2/1 10/2/1 14/2/1
f 10/2/1 11/2/1 14/2/1
f 14/2/1 11/2/1 15/2/1
f 9/2/1 14/2/1 16/2/1
f 12/2/1 13/2/1 18/2/1
f 18/2/1 13/2/1 19/2/1
f 16/2/1 17/2/1 20/2/1
f 9/2/1 16/2/1 20/2/1
f 20/2/1 17/2/1 21/2/1
f 22/1/1 23/1/1 24/1/1
f 24/1/1 23/1/1 25/1/1
f 26/2/1 27/2/1 28/2/1
f 28/2/1 27/2/1 29/2/1
f 29/2/1 27/2/1 32/2/1
f 32/2/1 27/2/1 33/2/1
f 33/2/1 34/2/1 36/2/1
f 36/2/1 34/2/1 37/2/1
f 30/2/1 31/2/1 38/2/1
f 35/2/1 36/2/1 39/2/1
f 39/2/1 36/2/1 40/2/1
f 30/2/1 38/2/1 41/2/1
f 38/2/1 39/2/1 41/2/1
f 41/2/1 39/2/1 42/2/1
f 43/1/1 44/1/1 47/1/1
f 47/1/1 44/1/1 48/1/1
f 45/1/1 46/1/1 50/1/1
f 50/1/1 46/1/1 51/1/1
f 48/3/1 49/3/1 53/3/1
f 49/2/1 50/2/1 54/2/1
f 53/3/1 49/3/1 54/3/1
f 51/1/1 52/1/1 55/1/1
f 54/2/1 50/2/1 55/2/1
f 50/1/1 51/1/1 55/1/1
f 55/1/1 52/1/1 56/1/1
f 56/1/1 57/1/1 58/1/1
f 55/1/1 56/1/1 58/1/1
f 58/1/1 57/1/1 59/1/1
f 58/2/1 59/2/1 60/2/1
f 60/2/1 59/2/1 61/2/1
f 59/1/1 57/1/1 62/1/1
f 61/2/1 59/2/1 64/2/1
f 62/1/1 63/1/1 65/1/1
f 64/2/1 59/2/1 65/2/1
f 59/1/1 62/1/1 65/1/1
f 65/1/1 63/1/1 66/1/1
f 66/1/1 63/1/1 67/1/1
f 67/1/1 68/1/1 69/1/1
f 66/1/1 67/1/1 69/1/1
f 65/2/1 66/2/1 69/2/1
f 69/1/1 68/1/1 70/1/1
f 65/2/1 69/2/1 74/2/1
f 74/2/1 69/2/1 75/2/1
f 72/2/1 73/2/1 76/2/1
f 76/2/1 73/2/1 77/2/1
f 70/2/1 71/2/1 78/2/1
f 78/2/1 71/2/1 79/2/1
f 80/2/1 81/2/1 82/2/1
f 82/2/1 81/2/1 83/2/1
f 84/2/1 85/2/1 87/2/1
f 87/2/1 85/2/1 88/2/1
f 86/2/1 87/2/1 89/2/1
f 89/2/1 87/2/1 90/2/1
f 91/2/1 92/2/1 93/2/1
f 93/2/1 92/2/1 94/2/1
f 95/2/1 96/2/1 97/2/1
f 97/2/1 96/2/1 98/2/1
f 101/2/2 100/2/2 99/2/2
f 102/2/2 100/2/2 101/2/2
f 105/2/2 104/2/2 103/2/2
f 106/2/2 104/2/2 105/2/2
f 111/1/2 108/1/2 107/1/2
f 112/1/2 108/1/2 111/1/2
f 114/1/2 110/1/2 109/1/2
f 115/1/2 110/1/2 114/1/2
f 117/3/2 113/3/2 112/3/2
f 118/2/2 114/2/2 113/2/2
f 118/3/2 113/3/2 117/3/2
f 119/1/2 116/1/2 115/1/2
f 119/2/2 114/2/2 118/2/2
f 119/1/2 115/1/2 114/1/2
f 120/1/2 116/1/2 119/1/2
f 122/1/2 121/1/2 120/1/2
f 122/1/2 120/1/2 119/1/2
f 123/1/2 121/1/2 122/1/2
f 124/2/2 123/2/2 122/2/2
f 125/2/2 123/2/2 124/2/2
f 126/1/2 121/1/2 123/1/2
f 128/2/2 123/2/2 125/2/2
f 129/1/2 127/1/2 126/1/2
f 129/2/2 123/2/2 128/2/2
f 129/1/2 126/1/2 123/1/2
f 130/1/2 127/1/2 129/1/2
f 131/1/2 127/1/2 130/1/2
f 133/1/2 132/1/2 131/1/2
f 133/1/2 131/1/2 130/1/2
f 133/2/2 130/2/2 129/2/2
f 134/1/2 132/1/2 133/1/2
f 136/2/2 133/2/2 129/2/2
f 136/2/2 135/2/2 134/2/2
f 136/2/2 134/2/2 133/2/2
f 137/2/2 135/2/2 136/2/2
f 138/2/2 135/2/2 137/2/2
f 139/2/2 135/2/2 138/2/2
f 142/2/2 141/2/2 140/2/2
f 143/2/2 141/2/2 142/2/2
f 145/2/2 144/2/2 143/2/2
f 146/2/2 144/2/2 145/2/2
f 148/2/2 147/2/2 146/2/2
f 149/2/2 147/2/2 148/2/2
f 152/1/2 151/1/2 150/1/2
f 153/1/2 151/1/2 152/1/2
f 156/2/2 155/2/2 154/2/2
f 157/2/2 155/2/2 156/2/2
f 160/2/2 159/2/2 158/2/2
f 161/2/2 159/2/2 160/2/2
f 164/2/2 163/2/2 162/2/2
f 165/2/2 163/2/2 164/2/2
f 167/2/2 166/2/2 165/2/2
f 168/2/2 166/2/2 167/2/2
f 171/2/2 170/2/2 169/2/2
f 173/2/2 171/2/2 169/2/2
f 173/2/2 172/2/2 171/2/2
f 174/2/2 172/2/2 173/2/2
f 175/2/2 172/2/2 174/2/2
f 176/2/2 172/2/2 175/2/2
f 177/2/2 175/2/2 174/2/2
f 178/2/2 175/2/2 177/2/2
f 179/1/3 180/1/3 181/1/3
f 181/1/3 180/1/3 182/1/3
f 183/1/3 184/1/3 185/1/3
f 185/1/3 184/1/3 186/1/3
f 186/3/3 187/3/3 188/3/3
f 188/3/3 187/3/3 189/3/3
f 188/2/3 189/2/3 190/2/3
f 190/2/3 189/2/3 191/2/3
f 190/3/3 191/3/3 193/3/3
f 193/3/3 191/3/3 194/3/3
f 192/1/3 193/1/3 195/1/3
f 195/1/3 193/1/3 196/1/3
f 199/2/3 200/2/3 201/2/3
f 201/2/3 200/2/3 202/2/3
f 197/2/3 198/2/3 203/2/3
f 203/2/3 198/2/3 204/2/3
f 205/2/3 206/2/3 208/2/3
f 208/2/3 206/2/3 209/2/3
f 209/2/3 206/2/3 210/2/3
f 207/2/3 208/2/3 211/2/3
f 208/2/3 209/2/3 211/2/3
f 210/2/3 206/2/3 212/2/3
f 212/2/3 206/2/3 213/2/3
f 207/2/3 211/2/3 214/2/3
f 211/2/3 212/2/3 214/2/3
f 214/2/3 212/2/3 215/2/3
f 215/2/3 212/2/3 216/2/3
f 216/2/3 212/2/3 217/2/3
f 215/2/3 216/2/3 218/2/3
f 218/2/3 216/2/3 219/2/3
f 220/2/3 221/2/3 222/2/3
f 222/2/3 221/2/3 223/2/3
f 224/1/3 225/1/3 229/1/3
f 225/2/3 226/2/3 230/2/3
f 229/1/3 225/1/3 230/1/3
f 230/2/3 226/2/3 231/2/3
f 231/2/3 232/2/3 234/2/3
f 230/2/3 231/2/3 234/2/3
f 234/2/3 232/2/3 235/2/3
f 235/2/3 232/2/3 236/2/3
f 233/1/3 234/1/3 237/1/3
f 234/2/3 235/2/3 238/2/3
f 237/1/3 234/1/3 238/1/3
f 238/2/3 235/2/3 239/2/3
f 227/2/3 228/2/3 241/2/3
f 241/2/3 228/2/3 242/2/3
f 240/2/3 241/2/3 244/2/3
f 244/2/3 241/2/3 245/2/3
f 243/2/3 244/2/3 246/2/3
f 246/2/3 244/2/3 247/2/3
f 248/2/3 249/2/3 252/2/3
f 252/2/3 249/2/3 253/2/3
f 250/2/3 251/2/3 256/2/3
f 256/2/3 251/2/3 257/2/3
f 254/2/3 255/2/3 258/2/3
f 258/2/3 255/2/3 259/2/3
f 259/2/3 255/2/3 261/2/3
f 260/2/3 261/2/3 262/2/3
f 261/2/3 255/2/3 263/2/3
f 262/2/3 261/2/3 263/2/3
f 264/2/3 265/2/3 266/2/3
f 266/2/3 265/2/3 267/2/3
f 268/2/3 269/2/3 270/2/3
f 270/2/3 269/2/3 271/2/3
f 272/2/3 273/2/3 274/2/3
f 274/2/3 273/2/3 275/2/3
f 278/1/4 277/1/4 276/1/4
f 279/1/4 277/1/4 278/1/4
f 282/1/4 281/1/4 280/1/4
f 283/1/4 281/1/4 282/1/4
f 286/1/4 285/1/4 284/1/4
f 287/1/4 285/1/4 286/1/4
f 290/1/4 289/1/4 288/1/4
f 291/1/4 289/1/4 290/1/4
f 294/2/4 293/2/4 292/2/4
f 295/2/4 293/2/4 294/2/4
f 299/2/4 296/2/4 295/2/4
f 300/2/4 296/2/4 299/2/4
f 302/1/4 298/1/4 297/1/4
f 303/1/4 298/1/4 302/1/4
f 306/2/4 301/2/4 300/2/4
f 307/2/4 301/2/4 306/2/4
f 308/2/4 305/2/4 304/2/4
f 309/2/4 305/2/4 308/2/4
f 313/2/4 311/2/4 310/2/4
f 314/2/4 311/2/4 313/2/4
f 315/2/4 313/2/4 312/2/4
f 316/2/4 313/2/4 315/2/4
f 321/1/4 318/1/4 317/1/4
f 322/1/4 318/1/4 321/1/4
f 323/2/4 320/2/4 319/2/4
f 324/2/4 320/2/4 323/2/4
f 328/2/4 326/2/4 325/2/4
f 329/2/4 326/2/4 328/2/4
f 332/2/4 328/2/4 327/2/4
f 333/2/4 328/2/4 332/2/4
f 334/1/4 332/1/4 331/1/4
f 335/1/4 332/1/4 334/1/4
f 338/2/4 337/2/4 336/2/4
f 339/2/4 337/2/4 338/2/4
f 340/2/4 330/2/4 329/2/4
f 341/2/4 330/2/4 340/2/4
f 345/2/4 343/2/4 342/2/4
f 346/2/4 345/2/4 344/2/4
f 347/2/4 343/2/4 345/2/4
f 347/2/4 345/2/4 346/2/4
f 348/2/4 343/2/4 347/2/4
f 349/2/4 343/2/4 348/2/4
f 350/2/4 343/2/4 349/2/4
f 351/2/4 343/2/4 350/2/4
f 352/1/5 353/1/5 355/1/5
f 355/1/5 353/1/5 356/1/5
f 354/1/5 355/1/5 358/1/5
f 356/1/5 357/1/5 358/1/5
f 355/1/5 356/1/5 358/1/5
f 358/1/5 357/1/5 359/1/5
f 359/1/5 357/1/5 360/1/5
f 360/1/5 357/1/5 361/1/5
f 359/1/5 360/1/5 362/1/5
f 362/1/5 360/1/5 363/1/5
f 364/1/5 365/1/5 366/1/5
f 366/1/5 365/1/5 367/1/5
f 368/1/5 369/1/5 370/1/5
f 370/1/5 369/1/5 371/1/5
f 372/1/5 373/1/5 374/1/5
f 374/1/5 373/1/5 375/1/5
f 376/1/5 377/1/5 378/1/5
f 378/1/5 377/1/5 379/1/5
f 380/2/5 381/2/5 382/2/5
f 382/2/5 381/2/5 383/2/5
f 383/2/5 384/2/5 385/2/5
f 385/2/5 384/2/5 386/2/5
f 387/2/5 388/2/5 390/2/5
f 390/2/5 388/2/5 391/2/5
f 389/2/5 390/2/5 391/2/5
f 391/2/5 388/2/5 392/2/5
f 389/2/5 391/2/5 393/2/5
f 393/2/5 391/2/5 394/2/5
f 392/2/5 388/2/5 395/2/5
f 395/2/5 388/2/5 396/2/5
f 389/2/5 393/2/5 397/2/5
f 397/2/5 393/2/5 398/2/5
f 399/2/5 400/2/5 404/2/5
f 403/2/5 404/2/5 405/2/5
f 404/2/5 400/2/5 406/2/5
f 405/2/5 404/2/5 406/2/5
f 401/2/5 402/2/5 410/2/5
f 407/2/5 408/2/5 411/2/5
f 411/2/5 408/2/5 412/2/5
f 412/2/5 413/2/5 414/2/5
f 414/2/5 413/2/5 415/2/5
f 409/2/5 410/2/5 417/2/5
f 410/2/5 402/2/5 417/2/5
f 417/2/5 402/2/5 418/2/5
f 415/2/5 416/2/5 419/2/5
f 419/2/5 416/2/5 420/2/5
f 409/2/5 417/2/5 421/2/5
f 421/2/5 417/2/5 422/2/5
f 423/2/5 424/2/5 425/2/5
f 425/2/5 424/2/5 426/2/5
f 427/2/5 428/2/5 429/2/5
f 429/2/5 428/2/5 430/2/5
f 431/2/5 432/2/5 433/2/5
f 433/2/5 432/2/5 434/2/5
f 438/1/6 436/1/6 435/1/6
f 439/1/6 436/1/6 438/1/6
f 440/1/6 436/1/6 439/1/6
f 441/1/6 436/1/6 440/1/6
f 443/1/6 438/1/6 437/1/6
f 444/1/6 442/1/6 441/1/6
f 445/1/6 443/1/6 437/1/6
f 446/1/6 443/1/6 445/1/6
f 447/1/6 442/1/6 444/1/6
f 448/1/6 442/1/6 447/1/6
f 453/3/6 450/3/6 449/3/6
f 454/2/6 451/2/6 450/2/6
f 454/3/6 450/3/6 453/3/6
f 455/3/6 452/3/6 451/3/6
f 455/2/6 451/2/6 454/2/6
f 456/3/6 452/3/6 455/3/6
f 457/2/6 454/2/6 453/2/6
f 458/2/6 454/2/6 457/2/6
f 459/2/6 456/2/6 455/2/6
f 460/2/6 456/2/6 459/2/6
f 463/2/6 462/2/6 461/2/6
f 464/2/6 462/2/6 463/2/6
f 469/2/6 466/2/6 465/2/6
f 470/2/6 466/2/6 469/2/6
f 471/2/6 468/2/6 467/2/6
f 472/2/6 468/2/6 471/2/6
f 475/2/6 474/2/6 473/2/6
f 476/2/6 474/2/6 475/2/6
f 479/2/6 478/2/6 477/2/6
f 480/2/6 478/2/6 479/2/6
f 483/2/6 482/2/6 481/2/6
f 484/2/6 482/2/6 483/2/6
f 487/2/6 486/2/6 485/2/6
f 489/2/6 487/2/6 485/2/6
f 489/2/6 488/2/6 487/2/6
f 490/2/6 488/2/6 489/2/6
f 491/2/6 488/2/6 490/2/6
f 492/2/6 488/2/6 491/2/6
f 494/2/6 493/2/6 492/2/6
f 495/2/6 493/2/6 494/2/6
f 498/2/6 497/2/6 496/2/6
f 499/2/6 497/2/6 498/2/6
f 503/2/6 500/2/6 499/2/6
f 504/2/6 500/2/6 503/2/6
f 506/2/6 502/2/6 501/2/6
f 507/2/6 502/2/6 506/2/6
f 509/2/6 508/2/6 507/2/6
f 510/2/6 505/2/6 504/2/6
f 511/2/6 509/2/6 507/2/6
f 511/2/6 510/2/6 509/2/6
f 512/2/6 505/2/6 510/2/6
f 512/2/6 510/2/6 511/2/6
f 515/2/6 514/2/6 513/2/6
f 516/2/6 514/2/6 515/2/6
f 518/2/6 515/2/6 513/2/6
f 519/2/6 515/2/6 518/2/6
f 520/2/6 517/2/6 516/2/6
f 521/2/6 520/2/6 519/2/6
f 522/2/6 517/2/6 520/2/6
f 522/2/6 520/2/6 521/2/6
f 525/2/6 524/2/6 523/2/6
f 526/2/6 524/2/6 525/2/6
