# MagicaVoxel @ Ephtracy

# group
o 

# material
mtllib MelochevkaLes-3.mtl
usemtl palette

# normals
vn -1 0 0
vn 1 0 0
vn 0 0 1
vn 0 0 -1
vn 0 -1 0
vn 0 1 0

# texcoords
vt 0.841797 0.5
vt 0.958984 0.5

# verts
v -5.4 0.5 0.2
v -5.4 0.5 -0.3
v -5.4 0.5 -0.4
v -5.4 0.5 -0.5
v -5.4 0.6 0.2
v -5.4 0.6 0.1
v -5.4 0.6 0
v -5.4 0.6 -0.1
v -5.4 0.6 -0.2
v -5.4 0.6 -0.3
v -5.4 0.6 -0.4
v -5.4 0.6 -0.5
v -5.4 0.7 0.1
v -5.4 0.7 0
v -5.4 0.7 -0.1
v -5.4 0.7 -0.2
v -5.4 0.7 -0.4
v -5.3 0.5 0.3
v -5.3 0.5 0.2
v -5.3 0.5 -0.5
v -5.3 0.5 -0.6
v -5.3 0.6 0.3
v -5.3 0.6 0.2
v -5.3 0.6 0.1
v -5.3 0.6 -0.4
v -5.3 0.6 -0.5
v -5.3 0.6 -0.6
v -5.3 0.7 0.2
v -5.3 0.7 0.1
v -5.3 0.7 0
v -5.3 0.7 -0.1
v -5.3 0.7 -0.2
v -5.3 0.7 -0.4
v -5.3 0.7 -0.5
v -5.3 0.8 0.1
v -5.3 0.8 -0.4
v -5.2 0 0
v -5.2 0 -0.3
v -5.2 0.5 0
v -5.2 0.5 -0.3
v -5.2 0.6 0.3
v -5.2 0.6 0.2
v -5.2 0.6 -0.5
v -5.2 0.6 -0.6
v -5.2 0.7 0.3
v -5.2 0.7 0.2
v -5.2 0.7 0.1
v -5.2 0.7 -0.4
v -5.2 0.7 -0.5
v -5.2 0.7 -0.6
v -5.2 0.8 0.2
v -5.2 0.8 0.1
v -5.2 0.8 -0.4
v -5.2 0.8 -0.5
v -5.1 0 0.1
v -5.1 0 0
v -5.1 0 -0.3
v -5.1 0 -0.4
v -5.1 0.5 0.1
v -5.1 0.5 0
v -5.1 0.5 -0.3
v -5.1 0.5 -0.4
v -4.8 0 0.1
v -4.8 0 0
v -4.8 0 -0.3
v -4.8 0 -0.4
v -4.8 0.5 0.1
v -4.8 0.5 0
v -4.8 0.5 -0.3
v -4.8 0.5 -0.4
v -4.7 0 0
v -4.7 0 -0.3
v -4.7 0.5 0
v -4.7 0.5 -0.3
v -4.7 0.6 0.3
v -4.7 0.6 0.2
v -4.7 0.6 -0.5
v -4.7 0.6 -0.6
v -4.7 0.7 0.3
v -4.7 0.7 0.2
v -4.7 0.7 0.1
v -4.7 0.7 -0.4
v -4.7 0.7 -0.5
v -4.7 0.7 -0.6
v -4.7 0.8 0.2
v -4.7 0.8 0.1
v -4.7 0.8 -0.4
v -4.7 0.8 -0.5
v -4.6 0.5 0.3
v -4.6 0.5 0.2
v -4.6 0.5 -0.5
v -4.6 0.5 -0.6
v -4.6 0.6 0.3
v -4.6 0.6 0.2
v -4.6 0.6 0.1
v -4.6 0.6 -0.4
v -4.6 0.6 -0.5
v -4.6 0.6 -0.6
v -4.6 0.7 0.2
v -4.6 0.7 0.1
v -4.6 0.7 0
v -4.6 0.7 -0.1
v -4.6 0.7 -0.3
v -4.6 0.7 -0.4
v -4.6 0.7 -0.5
v -4.6 0.8 0.1
v -4.6 0.8 0
v -4.6 0.8 -0.1
v -4.6 0.8 -0.4
v -4.5 0.5 0.2
v -4.5 0.5 0
v -4.5 0.5 -0.1
v -4.5 0.5 -0.5
v -4.5 0.6 0.2
v -4.5 0.6 0.1
v -4.5 0.6 0
v -4.5 0.6 -0.1
v -4.5 0.6 -0.3
v -4.5 0.6 -0.4
v -4.5 0.6 -0.5
v -4.5 0.7 0.1
v -4.5 0.7 -0.3
v -4.5 0.7 -0.4
v -5.3 0.5 0.3
v -5.3 0.6 0.3
v -5.2 0.5 0.3
v -5.2 0.6 0.3
v -5.2 0.7 0.3
v -5.1 0.6 0.3
v -5.1 0.7 0.3
v -5 0.6 0.3
v -5 0.7 0.3
v -4.8 0.5 0.3
v -4.8 0.6 0.3
v -4.7 0.5 0.3
v -4.7 0.6 0.3
v -4.7 0.7 0.3
v -4.6 0.5 0.3
v -4.6 0.6 0.3
v -5.4 0.5 0.2
v -5.4 0.6 0.2
v -5.3 0.5 0.2
v -5.3 0.6 0.2
v -5.3 0.7 0.2
v -5.2 0.6 0.2
v -5.2 0.7 0.2
v -5.2 0.8 0.2
v -5.1 0.7 0.2
v -5 0.7 0.2
v -4.7 0.6 0.2
v -4.7 0.7 0.2
v -4.7 0.8 0.2
v -4.6 0.5 0.2
v -4.6 0.6 0.2
v -4.6 0.7 0.2
v -4.5 0.5 0.2
v -4.5 0.6 0.2
v -5.4 0.6 0.1
v -5.4 0.7 0.1
v -5.3 0.6 0.1
v -5.3 0.7 0.1
v -5.3 0.8 0.1
v -5.2 0.7 0.1
v -5.2 0.8 0.1
v -5.1 0 0.1
v -5.1 0.5 0.1
v -4.8 0 0.1
v -4.8 0.5 0.1
v -4.7 0.7 0.1
v -4.7 0.8 0.1
v -4.6 0.6 0.1
v -4.6 0.7 0.1
v -4.6 0.8 0.1
v -4.5 0.6 0.1
v -4.5 0.7 0.1
v -5.2 0 0
v -5.2 0.5 0
v -5.1 0 0
v -5.1 0.5 0
v -4.8 0 0
v -4.8 0.5 0
v -4.7 0 0
v -4.7 0.5 0
v -5.2 0 -0.3
v -5.2 0.5 -0.3
v -5.1 0 -0.3
v -5.1 0.5 -0.3
v -4.8 0 -0.3
v -4.8 0.5 -0.3
v -4.7 0 -0.3
v -4.7 0.5 -0.3
v -5.4 0.6 -0.4
v -5.4 0.7 -0.4
v -5.3 0.6 -0.4
v -5.3 0.7 -0.4
v -5.3 0.8 -0.4
v -5.2 0.7 -0.4
v -5.2 0.8 -0.4
v -5.1 0 -0.4
v -5.1 0.5 -0.4
v -4.8 0 -0.4
v -4.8 0.5 -0.4
v -4.7 0.7 -0.4
v -4.7 0.8 -0.4
v -4.6 0.6 -0.4
v -4.6 0.7 -0.4
v -4.6 0.8 -0.4
v -4.5 0.6 -0.4
v -4.5 0.7 -0.4
v -5.4 0.5 -0.5
v -5.4 0.6 -0.5
v -5.3 0.5 -0.5
v -5.3 0.6 -0.5
v -5.3 0.7 -0.5
v -5.2 0.6 -0.5
v -5.2 0.7 -0.5
v -5.2 0.8 -0.5
v -5.1 0.7 -0.5
v -5 0.7 -0.5
v -4.7 0.6 -0.5
v -4.7 0.7 -0.5
v -4.7 0.8 -0.5
v -4.6 0.5 -0.5
v -4.6 0.6 -0.5
v -4.6 0.7 -0.5
v -4.5 0.5 -0.5
v -4.5 0.6 -0.5
v -5.3 0.5 -0.6
v -5.3 0.6 -0.6
v -5.2 0.6 -0.6
v -5.2 0.7 -0.6
v -5.1 0.6 -0.6
v -5.1 0.7 -0.6
v -5 0.6 -0.6
v -5 0.7 -0.6
v -4.9 0.5 -0.6
v -4.9 0.6 -0.6
v -4.8 0.5 -0.6
v -4.8 0.6 -0.6
v -4.7 0.6 -0.6
v -4.7 0.7 -0.6
v -4.6 0.5 -0.6
v -4.6 0.6 -0.6
v -5.1 0 0.1
v -4.8 0 0.1
v -5.2 0 0
v -5.1 0 0
v -4.8 0 0
v -4.7 0 0
v -5.2 0 -0.3
v -5.1 0 -0.3
v -4.8 0 -0.3
v -4.7 0 -0.3
v -5.1 0 -0.4
v -4.8 0 -0.4
v -5.3 0.5 0.3
v -5.2 0.5 0.3
v -4.8 0.5 0.3
v -4.7 0.5 0.3
v -4.6 0.5 0.3
v -5.4 0.5 0.2
v -5.3 0.5 0.2
v -5.2 0.5 0.2
v -4.8 0.5 0.2
v -4.7 0.5 0.2
v -4.6 0.5 0.2
v -4.5 0.5 0.2
v -5.1 0.5 0.1
v -4.8 0.5 0.1
v -5.2 0.5 0
v -5.1 0.5 0
v -4.8 0.5 0
v -4.7 0.5 0
v -4.6 0.5 0
v -4.5 0.5 0
v -4.6 0.5 -0.1
v -4.5 0.5 -0.1
v -5.4 0.5 -0.3
v -5.3 0.5 -0.3
v -5.2 0.5 -0.3
v -5.1 0.5 -0.3
v -4.8 0.5 -0.3
v -4.7 0.5 -0.3
v -5.4 0.5 -0.4
v -5.3 0.5 -0.4
v -5.1 0.5 -0.4
v -4.8 0.5 -0.4
v -5.4 0.5 -0.5
v -5.3 0.5 -0.5
v -4.9 0.5 -0.5
v -4.8 0.5 -0.5
v -4.6 0.5 -0.5
v -4.5 0.5 -0.5
v -5.3 0.5 -0.6
v -4.9 0.5 -0.6
v -4.8 0.5 -0.6
v -4.6 0.5 -0.6
v -5.3 0.6 0.3
v -5.2 0.6 0.3
v -4.7 0.6 0.3
v -4.6 0.6 0.3
v -5.4 0.6 0.2
v -5.3 0.6 0.2
v -5.2 0.6 0.2
v -4.7 0.6 0.2
v -4.6 0.6 0.2
v -4.5 0.6 0.2
v -5.4 0.6 0.1
v -5.3 0.6 0.1
v -4.6 0.6 0.1
v -4.5 0.6 0.1
v -5.4 0.6 -0.4
v -5.3 0.6 -0.4
v -4.6 0.6 -0.4
v -4.5 0.6 -0.4
v -5.4 0.6 -0.5
v -5.3 0.6 -0.5
v -5.2 0.6 -0.5
v -4.7 0.6 -0.5
v -4.6 0.6 -0.5
v -4.5 0.6 -0.5
v -5.3 0.6 -0.6
v -5.2 0.6 -0.6
v -4.7 0.6 -0.6
v -4.6 0.6 -0.6
v -5.2 0.7 0.3
v -5.1 0.7 0.3
v -5 0.7 0.3
v -4.7 0.7 0.3
v -5.3 0.7 0.2
v -5.2 0.7 0.2
v -5.1 0.7 0.2
v -5 0.7 0.2
v -4.7 0.7 0.2
v -4.6 0.7 0.2
v -5.4 0.7 0.1
v -5.3 0.7 0.1
v -5.2 0.7 0.1
v -4.7 0.7 0.1
v -4.6 0.7 0.1
v -4.5 0.7 0.1
v -5.4 0.7 0
v -5.3 0.7 0
v -4.6 0.7 0
v -5.4 0.7 -0.1
v -5.3 0.7 -0.1
v -4.6 0.7 -0.1
v -5.4 0.7 -0.2
v -5.3 0.7 -0.2
v -4.6 0.7 -0.3
v -4.5 0.7 -0.3
v -5.4 0.7 -0.4
v -5.3 0.7 -0.4
v -5.2 0.7 -0.4
v -4.7 0.7 -0.4
v -4.6 0.7 -0.4
v -4.5 0.7 -0.4
v -5.3 0.7 -0.5
v -5.2 0.7 -0.5
v -5.1 0.7 -0.5
v -5 0.7 -0.5
v -4.7 0.7 -0.5
v -4.6 0.7 -0.5
v -5.2 0.7 -0.6
v -5.1 0.7 -0.6
v -5 0.7 -0.6
v -4.7 0.7 -0.6
v -5.2 0.8 0.2
v -4.7 0.8 0.2
v -5.3 0.8 0.1
v -5.2 0.8 0.1
v -5.1 0.8 0.1
v -5 0.8 0.1
v -4.7 0.8 0.1
v -4.6 0.8 0.1
v -5.1 0.8 0
v -5 0.8 0
v -4.9 0.8 0
v -4.8 0.8 0
v -4.7 0.8 0
v -4.6 0.8 0
v -5.2 0.8 -0.1
v -5.1 0.8 -0.1
v -4.9 0.8 -0.1
v -4.8 0.8 -0.1
v -4.7 0.8 -0.1
v -4.6 0.8 -0.1
v -5.2 0.8 -0.2
v -5.1 0.8 -0.2
v -5.1 0.8 -0.3
v -5 0.8 -0.3
v -4.9 0.8 -0.3
v -4.8 0.8 -0.3
v -5.3 0.8 -0.4
v -5.2 0.8 -0.4
v -5.1 0.8 -0.4
v -5 0.8 -0.4
v -4.9 0.8 -0.4
v -4.8 0.8 -0.4
v -4.7 0.8 -0.4
v -4.6 0.8 -0.4
v -5.2 0.8 -0.5
v -4.7 0.8 -0.5

# faces
f 5/1/1 2/1/1 1/1/1
f 6/1/1 2/1/1 5/1/1
f 7/1/1 2/1/1 6/1/1
f 8/1/1 2/1/1 7/1/1
f 9/1/1 2/1/1 8/1/1
f 10/2/1 3/2/1 2/2/1
f 10/1/1 2/1/1 9/1/1
f 11/1/1 4/1/1 3/1/1
f 11/2/1 3/2/1 10/2/1
f 12/1/1 4/1/1 11/1/1
f 13/2/1 7/2/1 6/2/1
f 14/1/1 8/1/1 7/1/1
f 14/2/1 7/2/1 13/2/1
f 15/2/1 9/2/1 8/2/1
f 15/1/1 8/1/1 14/1/1
f 16/1/1 10/1/1 9/1/1
f 16/2/1 9/2/1 15/2/1
f 16/1/1 11/1/1 10/1/1
f 17/1/1 11/1/1 16/1/1
f 22/2/1 19/2/1 18/2/1
f 23/2/1 19/2/1 22/2/1
f 26/1/1 21/1/1 20/1/1
f 27/1/1 21/1/1 26/1/1
f 28/1/1 24/1/1 23/1/1
f 29/1/1 24/1/1 28/1/1
f 33/2/1 26/2/1 25/2/1
f 34/2/1 26/2/1 33/2/1
f 35/1/1 32/1/1 31/1/1
f 35/1/1 33/1/1 32/1/1
f 35/1/1 30/1/1 29/1/1
f 35/1/1 31/1/1 30/1/1
f 36/1/1 33/1/1 35/1/1
f 39/2/1 38/2/1 37/2/1
f 40/2/1 38/2/1 39/2/1
f 45/1/1 42/1/1 41/1/1
f 46/1/1 42/1/1 45/1/1
f 49/1/1 44/1/1 43/1/1
f 50/1/1 44/1/1 49/1/1
f 51/1/1 47/1/1 46/1/1
f 52/1/1 47/1/1 51/1/1
f 53/1/1 49/1/1 48/1/1
f 54/1/1 49/1/1 53/1/1
f 59/2/1 56/2/1 55/2/1
f 60/2/1 56/2/1 59/2/1
f 61/2/1 58/2/1 57/2/1
f 62/2/1 58/2/1 61/2/1
f 63/2/2 64/2/2 67/2/2
f 67/2/2 64/2/2 68/2/2
f 65/2/2 66/2/2 69/2/2
f 69/2/2 66/2/2 70/2/2
f 71/2/2 72/2/2 73/2/2
f 73/2/2 72/2/2 74/2/2
f 75/1/2 76/1/2 79/1/2
f 79/1/2 76/1/2 80/1/2
f 77/1/2 78/1/2 83/1/2
f 83/1/2 78/1/2 84/1/2
f 80/1/2 81/1/2 85/1/2
f 85/1/2 81/1/2 86/1/2
f 82/1/2 83/1/2 87/1/2
f 87/1/2 83/1/2 88/1/2
f 89/1/2 90/1/2 93/1/2
f 93/1/2 90/1/2 94/1/2
f 91/1/2 92/1/2 97/1/2
f 97/1/2 92/1/2 98/1/2
f 94/2/2 95/2/2 99/2/2
f 99/2/2 95/2/2 100/2/2
f 96/1/2 97/1/2 104/1/2
f 104/1/2 97/1/2 105/1/2
f 100/1/2 101/1/2 106/1/2
f 101/2/2 102/2/2 107/2/2
f 106/1/2 101/1/2 107/1/2
f 102/1/2 103/1/2 108/1/2
f 107/2/2 102/2/2 108/2/2
f 103/1/2 104/1/2 108/1/2
f 108/1/2 104/1/2 109/1/2
f 110/1/2 111/1/2 114/1/2
f 114/1/2 111/1/2 115/1/2
f 111/2/2 112/2/2 116/2/2
f 115/1/2 111/1/2 116/1/2
f 112/1/2 113/1/2 117/1/2
f 116/2/2 112/2/2 117/2/2
f 117/1/2 113/1/2 118/1/2
f 118/1/2 113/1/2 119/1/2
f 119/1/2 113/1/2 120/1/2
f 115/1/2 116/1/2 121/1/2
f 116/1/2 117/1/2 121/1/2
f 117/1/2 118/1/2 121/1/2
f 118/2/2 119/2/2 122/2/2
f 121/1/2 118/1/2 122/1/2
f 122/2/2 119/2/2 123/2/2
f 126/2/3 125/2/3 124/2/3
f 127/2/3 125/2/3 126/2/3
f 129/1/3 127/1/3 126/1/3
f 129/1/3 128/1/3 127/1/3
f 130/1/3 128/1/3 129/1/3
f 131/1/3 129/1/3 126/1/3
f 131/2/3 130/2/3 129/2/3
f 132/2/3 130/2/3 131/2/3
f 133/1/3 131/1/3 126/1/3
f 133/1/3 132/1/3 131/1/3
f 134/1/3 132/1/3 133/1/3
f 135/2/3 134/2/3 133/2/3
f 136/1/3 132/1/3 134/1/3
f 136/2/3 134/2/3 135/2/3
f 137/1/3 132/1/3 136/1/3
f 138/1/3 136/1/3 135/1/3
f 139/1/3 136/1/3 138/1/3
f 142/1/3 141/1/3 140/1/3
f 143/1/3 141/1/3 142/1/3
f 145/1/3 144/1/3 143/1/3
f 146/1/3 144/1/3 145/1/3
f 148/1/3 147/1/3 146/1/3
f 149/1/3 147/1/3 148/1/3
f 151/1/3 147/1/3 149/1/3
f 152/1/3 147/1/3 151/1/3
f 154/2/3 151/2/3 150/2/3
f 155/2/3 151/2/3 154/2/3
f 156/1/3 154/1/3 153/1/3
f 157/1/3 154/1/3 156/1/3
f 160/2/3 159/2/3 158/2/3
f 161/2/3 159/2/3 160/2/3
f 163/1/3 162/1/3 161/1/3
f 164/1/3 162/1/3 163/1/3
f 167/2/3 166/2/3 165/2/3
f 168/2/3 166/2/3 167/2/3
f 172/1/3 170/1/3 169/1/3
f 173/1/3 170/1/3 172/1/3
f 174/1/3 172/1/3 171/1/3
f 175/1/3 172/1/3 174/1/3
f 178/2/3 177/2/3 176/2/3
f 179/2/3 177/2/3 178/2/3
f 182/2/3 181/2/3 180/2/3
f 183/2/3 181/2/3 182/2/3
f 184/2/4 185/2/4 186/2/4
f 186/2/4 185/2/4 187/2/4
f 188/2/4 189/2/4 190/2/4
f 190/2/4 189/2/4 191/2/4
f 192/1/4 193/1/4 194/1/4
f 194/1/4 193/1/4 195/1/4
f 195/1/4 196/1/4 197/1/4
f 197/1/4 196/1/4 198/1/4
f 199/2/4 200/2/4 201/2/4
f 201/2/4 200/2/4 202/2/4
f 203/1/4 204/1/4 206/1/4
f 206/1/4 204/1/4 207/1/4
f 205/2/4 206/2/4 208/2/4
f 208/2/4 206/2/4 209/2/4
f 210/1/4 211/1/4 212/1/4
f 212/1/4 211/1/4 213/1/4
f 213/2/4 214/2/4 215/2/4
f 215/2/4 214/2/4 216/2/4
f 216/1/4 217/1/4 218/1/4
f 218/1/4 217/1/4 219/1/4
f 219/1/4 217/1/4 221/1/4
f 221/1/4 217/1/4 222/1/4
f 220/1/4 221/1/4 224/1/4
f 224/1/4 221/1/4 225/1/4
f 223/1/4 224/1/4 226/1/4
f 226/1/4 224/1/4 227/1/4
f 228/1/4 229/1/4 230/1/4
f 228/1/4 230/1/4 232/1/4
f 230/1/4 231/1/4 232/1/4
f 232/1/4 231/1/4 233/1/4
f 228/1/4 232/1/4 234/1/4
f 232/2/4 233/2/4 234/2/4
f 234/2/4 233/2/4 235/2/4
f 228/1/4 234/1/4 236/1/4
f 234/1/4 235/1/4 236/1/4
f 236/1/4 235/1/4 237/1/4
f 236/2/4 237/2/4 238/2/4
f 237/1/4 235/1/4 239/1/4
f 238/2/4 237/2/4 239/2/4
f 238/1/4 239/1/4 240/1/4
f 239/1/4 235/1/4 240/1/4
f 240/1/4 235/1/4 241/1/4
f 238/1/4 240/1/4 242/1/4
f 242/1/4 240/1/4 243/1/4
f 247/2/5 245/2/5 244/2/5
f 248/2/5 245/2/5 247/2/5
f 250/2/5 247/2/5 246/2/5
f 250/2/5 249/2/5 248/2/5
f 250/2/5 248/2/5 247/2/5
f 251/2/5 249/2/5 250/2/5
f 252/2/5 249/2/5 251/2/5
f 253/2/5 249/2/5 252/2/5
f 254/2/5 252/2/5 251/2/5
f 255/2/5 252/2/5 254/2/5
f 262/2/5 257/2/5 256/2/5
f 263/1/5 258/1/5 257/1/5
f 263/2/5 257/2/5 262/2/5
f 264/2/5 259/2/5 258/2/5
f 264/1/5 258/1/5 263/1/5
f 265/1/5 260/1/5 259/1/5
f 265/2/5 259/2/5 264/2/5
f 266/1/5 260/1/5 265/1/5
f 268/1/5 264/1/5 263/1/5
f 268/1/5 267/1/5 266/1/5
f 268/1/5 266/1/5 265/1/5
f 268/1/5 265/1/5 264/1/5
f 268/1/5 262/1/5 261/1/5
f 268/1/5 263/1/5 262/1/5
f 269/1/5 267/1/5 268/1/5
f 270/1/5 268/1/5 261/1/5
f 271/1/5 268/1/5 270/1/5
f 272/1/5 267/1/5 269/1/5
f 273/1/5 267/1/5 272/1/5
f 274/1/5 267/1/5 273/1/5
f 275/1/5 267/1/5 274/1/5
f 276/2/5 275/2/5 274/2/5
f 276/1/5 274/1/5 273/1/5
f 277/2/5 275/2/5 276/2/5
f 278/1/5 270/1/5 261/1/5
f 279/1/5 270/1/5 278/1/5
f 280/1/5 270/1/5 279/1/5
f 283/1/5 276/1/5 273/1/5
f 283/1/5 277/1/5 276/1/5
f 284/2/5 279/2/5 278/2/5
f 285/1/5 281/1/5 280/1/5
f 285/2/5 279/2/5 284/2/5
f 285/1/5 280/1/5 279/1/5
f 286/1/5 281/1/5 285/1/5
f 287/1/5 283/1/5 282/1/5
f 288/1/5 286/1/5 285/1/5
f 288/1/5 287/1/5 286/1/5
f 288/1/5 285/1/5 284/1/5
f 289/1/5 287/1/5 288/1/5
f 290/1/5 287/1/5 289/1/5
f 291/1/5 283/1/5 287/1/5
f 291/1/5 287/1/5 290/1/5
f 292/1/5 277/1/5 283/1/5
f 292/1/5 283/1/5 291/1/5
f 293/1/5 277/1/5 292/1/5
f 294/1/5 290/1/5 289/1/5
f 295/2/5 291/2/5 290/2/5
f 295/1/5 290/1/5 294/1/5
f 296/1/5 292/1/5 291/1/5
f 296/2/5 291/2/5 295/2/5
f 297/1/5 292/1/5 296/1/5
f 298/2/6 299/2/6 303/2/6
f 303/2/6 299/2/6 304/2/6
f 300/1/6 301/1/6 305/1/6
f 305/1/6 301/1/6 306/1/6
f 302/1/6 303/1/6 308/1/6
f 308/1/6 303/1/6 309/1/6
f 306/1/6 307/1/6 310/1/6
f 310/1/6 307/1/6 311/1/6
f 312/1/6 313/1/6 316/1/6
f 316/1/6 313/1/6 317/1/6
f 314/1/6 315/1/6 320/1/6
f 320/1/6 315/1/6 321/1/6
f 317/1/6 318/1/6 322/1/6
f 322/1/6 318/1/6 323/1/6
f 319/1/6 320/1/6 324/1/6
f 324/1/6 320/1/6 325/1/6
f 326/1/6 327/1/6 331/1/6
f 327/2/6 328/2/6 332/2/6
f 331/1/6 327/1/6 332/1/6
f 328/1/6 329/1/6 333/1/6
f 332/2/6 328/2/6 333/2/6
f 333/1/6 329/1/6 334/1/6
f 330/1/6 331/1/6 337/1/6
f 337/1/6 331/1/6 338/1/6
f 334/2/6 335/2/6 339/2/6
f 339/2/6 335/2/6 340/2/6
f 336/2/6 337/2/6 342/2/6
f 342/2/6 337/2/6 343/2/6
f 340/1/6 341/1/6 344/1/6
f 342/1/6 343/1/6 345/1/6
f 345/1/6 343/1/6 346/1/6
f 344/1/6 341/1/6 347/1/6
f 345/2/6 346/2/6 348/2/6
f 348/2/6 346/2/6 349/2/6
f 347/1/6 341/1/6 350/1/6
f 350/1/6 341/1/6 351/1/6
f 348/1/6 349/1/6 352/1/6
f 352/1/6 349/1/6 353/1/6
f 350/2/6 351/2/6 356/2/6
f 356/2/6 351/2/6 357/2/6
f 353/2/6 354/2/6 358/2/6
f 358/2/6 354/2/6 359/2/6
f 355/1/6 356/1/6 362/1/6
f 362/1/6 356/1/6 363/1/6
f 359/1/6 360/1/6 364/1/6
f 360/2/6 361/2/6 365/2/6
f 364/1/6 360/1/6 365/1/6
f 361/1/6 362/1/6 366/1/6
f 365/2/6 361/2/6 366/2/6
f 366/1/6 362/1/6 367/1/6
f 368/1/6 369/1/6 371/1/6
f 371/1/6 369/1/6 372/1/6
f 372/1/6 369/1/6 373/1/6
f 373/1/6 369/1/6 374/1/6
f 370/1/6 371/1/6 376/1/6
f 371/1/6 372/1/6 376/1/6
f 372/2/6 373/2/6 376/2/6
f 374/1/6 375/1/6 377/1/6
f 376/2/6 373/2/6 377/2/6
f 373/1/6 374/1/6 377/1/6
f 377/1/6 375/1/6 378/1/6
f 378/1/6 375/1/6 379/1/6
f 379/1/6 375/1/6 380/1/6
f 380/1/6 375/1/6 381/1/6
f 370/1/6 376/1/6 382/1/6
f 376/1/6 377/1/6 382/1/6
f 377/1/6 378/1/6 382/1/6
f 382/1/6 378/1/6 383/1/6
f 378/2/6 379/2/6 384/2/6
f 383/1/6 378/1/6 384/1/6
f 379/1/6 380/1/6 385/1/6
f 384/2/6 379/2/6 385/2/6
f 380/2/6 381/2/6 386/2/6
f 385/1/6 380/1/6 386/1/6
f 386/2/6 381/2/6 387/2/6
f 382/2/6 383/2/6 388/2/6
f 370/1/6 382/1/6 388/1/6
f 384/1/6 385/1/6 389/1/6
f 388/2/6 383/2/6 389/2/6
f 383/1/6 384/1/6 389/1/6
f 385/1/6 386/1/6 389/1/6
f 386/1/6 387/1/6 389/1/6
f 388/1/6 389/1/6 390/1/6
f 389/1/6 387/1/6 390/1/6
f 390/1/6 387/1/6 391/1/6
f 391/1/6 387/1/6 392/1/6
f 392/1/6 387/1/6 393/1/6
f 370/1/6 388/1/6 394/1/6
f 388/1/6 390/1/6 394/1/6
f 394/1/6 390/1/6 395/1/6
f 390/2/6 391/2/6 396/2/6
f 395/1/6 390/1/6 396/1/6
f 391/1/6 392/1/6 397/1/6
f 396/2/6 391/2/6 397/2/6
f 392/2/6 393/2/6 398/2/6
f 397/1/6 392/1/6 398/1/6
f 393/1/6 387/1/6 399/1/6
f 398/2/6 393/2/6 399/2/6
f 399/1/6 387/1/6 400/1/6
f 400/1/6 387/1/6 401/1/6
f 397/1/6 398/1/6 402/1/6
f 396/1/6 397/1/6 402/1/6
f 399/1/6 400/1/6 402/1/6
f 398/1/6 399/1/6 402/1/6
f 395/1/6 396/1/6 402/1/6
f 402/1/6 400/1/6 403/1/6
