# MagicaVoxel @ Ephtracy

# group
o 

# material
mtllib MelochevkaLes-2.mtl
usemtl palette

# normals
vn -1 0 0
vn 1 0 0
vn 0 0 1
vn 0 0 -1
vn 0 -1 0
vn 0 1 0

# texcoords
vt 0.373047 0.5
vt 0.841797 0.5
vt 0.958984 0.5

# verts
v -4.1 0.3 0.2
v -4.1 0.3 -0.5
v -4.1 0.6 0.2
v -4.1 0.6 0.1
v -4.1 0.6 -0.4
v -4.1 0.6 -0.5
v -4.1 0.7 0.1
v -4.1 0.7 -0.4
v -4 0.3 0.3
v -4 0.3 0.2
v -4 0.3 -0.5
v -4 0.3 -0.6
v -4 0.6 0.3
v -4 0.6 0.2
v -4 0.6 0.1
v -4 0.6 -0.4
v -4 0.6 -0.5
v -4 0.6 -0.6
v -4 0.7 0.2
v -4 0.7 0.1
v -4 0.7 -0.4
v -4 0.7 -0.5
v -4 0.8 0.1
v -4 0.8 -0.4
v -3.9 0 0
v -3.9 0 -0.3
v -3.9 0.3 0
v -3.9 0.3 -0.3
v -3.9 0.6 0.3
v -3.9 0.6 0.2
v -3.9 0.6 -0.5
v -3.9 0.6 -0.6
v -3.9 0.7 0.3
v -3.9 0.7 0.2
v -3.9 0.7 0.1
v -3.9 0.7 -0.4
v -3.9 0.7 -0.5
v -3.9 0.7 -0.6
v -3.9 0.8 0.2
v -3.9 0.8 0.1
v -3.9 0.8 -0.4
v -3.9 0.8 -0.5
v -3.8 0 0.1
v -3.8 0 0
v -3.8 0 -0.3
v -3.8 0 -0.4
v -3.8 0.3 0.1
v -3.8 0.3 0
v -3.8 0.3 -0.3
v -3.8 0.3 -0.4
v -3.5 0 0.1
v -3.5 0 0
v -3.5 0 -0.3
v -3.5 0 -0.4
v -3.5 0.3 0.1
v -3.5 0.3 0
v -3.5 0.3 -0.3
v -3.5 0.3 -0.4
v -3.4 0 0
v -3.4 0 -0.3
v -3.4 0.3 0
v -3.4 0.3 -0.3
v -3.4 0.6 0.3
v -3.4 0.6 0.2
v -3.4 0.6 -0.5
v -3.4 0.6 -0.6
v -3.4 0.7 0.3
v -3.4 0.7 0.2
v -3.4 0.7 0.1
v -3.4 0.7 -0.4
v -3.4 0.7 -0.5
v -3.4 0.7 -0.6
v -3.4 0.8 0.2
v -3.4 0.8 0.1
v -3.4 0.8 -0.4
v -3.4 0.8 -0.5
v -3.3 0.3 0.3
v -3.3 0.3 0.2
v -3.3 0.3 -0.5
v -3.3 0.3 -0.6
v -3.3 0.6 0.3
v -3.3 0.6 0.2
v -3.3 0.6 0.1
v -3.3 0.6 -0.4
v -3.3 0.6 -0.5
v -3.3 0.6 -0.6
v -3.3 0.7 0.2
v -3.3 0.7 0.1
v -3.3 0.7 -0.4
v -3.3 0.7 -0.5
v -3.3 0.8 0.1
v -3.3 0.8 -0.4
v -3.2 0.3 0.2
v -3.2 0.3 -0.5
v -3.2 0.6 0.2
v -3.2 0.6 0.1
v -3.2 0.6 -0.4
v -3.2 0.6 -0.5
v -3.2 0.7 0.1
v -3.2 0.7 -0.4
v -4 0.3 0.3
v -4 0.6 0.3
v -3.9 0.6 0.3
v -3.9 0.7 0.3
v -3.4 0.6 0.3
v -3.4 0.7 0.3
v -3.3 0.3 0.3
v -3.3 0.6 0.3
v -4.1 0.3 0.2
v -4.1 0.6 0.2
v -4 0.3 0.2
v -4 0.6 0.2
v -4 0.7 0.2
v -3.9 0.6 0.2
v -3.9 0.7 0.2
v -3.9 0.8 0.2
v -3.4 0.6 0.2
v -3.4 0.7 0.2
v -3.4 0.8 0.2
v -3.3 0.3 0.2
v -3.3 0.6 0.2
v -3.3 0.7 0.2
v -3.2 0.3 0.2
v -3.2 0.6 0.2
v -4.1 0.6 0.1
v -4.1 0.7 0.1
v -4 0.6 0.1
v -4 0.7 0.1
v -4 0.8 0.1
v -3.9 0.7 0.1
v -3.9 0.8 0.1
v -3.8 0 0.1
v -3.8 0.3 0.1
v -3.5 0 0.1
v -3.5 0.3 0.1
v -3.4 0.7 0.1
v -3.4 0.8 0.1
v -3.3 0.6 0.1
v -3.3 0.7 0.1
v -3.3 0.8 0.1
v -3.2 0.6 0.1
v -3.2 0.7 0.1
v -3.9 0 0
v -3.9 0.3 0
v -3.8 0 0
v -3.8 0.3 0
v -3.5 0 0
v -3.5 0.3 0
v -3.4 0 0
v -3.4 0.3 0
v -3.9 0 -0.3
v -3.9 0.3 -0.3
v -3.8 0 -0.3
v -3.8 0.3 -0.3
v -3.5 0 -0.3
v -3.5 0.3 -0.3
v -3.4 0 -0.3
v -3.4 0.3 -0.3
v -4.1 0.6 -0.4
v -4.1 0.7 -0.4
v -4 0.6 -0.4
v -4 0.7 -0.4
v -4 0.8 -0.4
v -3.9 0.7 -0.4
v -3.9 0.8 -0.4
v -3.8 0 -0.4
v -3.8 0.3 -0.4
v -3.5 0 -0.4
v -3.5 0.3 -0.4
v -3.4 0.7 -0.4
v -3.4 0.8 -0.4
v -3.3 0.6 -0.4
v -3.3 0.7 -0.4
v -3.3 0.8 -0.4
v -3.2 0.6 -0.4
v -3.2 0.7 -0.4
v -4.1 0.3 -0.5
v -4.1 0.6 -0.5
v -4 0.3 -0.5
v -4 0.6 -0.5
v -4 0.7 -0.5
v -3.9 0.6 -0.5
v -3.9 0.7 -0.5
v -3.9 0.8 -0.5
v -3.4 0.6 -0.5
v -3.4 0.7 -0.5
v -3.4 0.8 -0.5
v -3.3 0.3 -0.5
v -3.3 0.6 -0.5
v -3.3 0.7 -0.5
v -3.2 0.3 -0.5
v -3.2 0.6 -0.5
v -4 0.3 -0.6
v -4 0.6 -0.6
v -3.9 0.6 -0.6
v -3.9 0.7 -0.6
v -3.4 0.6 -0.6
v -3.4 0.7 -0.6
v -3.3 0.3 -0.6
v -3.3 0.6 -0.6
v -3.8 0 0.1
v -3.5 0 0.1
v -3.9 0 0
v -3.8 0 0
v -3.5 0 0
v -3.4 0 0
v -3.9 0 -0.3
v -3.8 0 -0.3
v -3.5 0 -0.3
v -3.4 0 -0.3
v -3.8 0 -0.4
v -3.5 0 -0.4
v -4 0.3 0.3
v -3.3 0.3 0.3
v -4.1 0.3 0.2
v -4 0.3 0.2
v -3.3 0.3 0.2
v -3.2 0.3 0.2
v -3.8 0.3 0.1
v -3.5 0.3 0.1
v -3.9 0.3 0
v -3.8 0.3 0
v -3.5 0.3 0
v -3.4 0.3 0
v -3.9 0.3 -0.3
v -3.8 0.3 -0.3
v -3.5 0.3 -0.3
v -3.4 0.3 -0.3
v -3.8 0.3 -0.4
v -3.5 0.3 -0.4
v -4.1 0.3 -0.5
v -4 0.3 -0.5
v -3.3 0.3 -0.5
v -3.2 0.3 -0.5
v -4 0.3 -0.6
v -3.3 0.3 -0.6
v -4 0.6 0.3
v -3.9 0.6 0.3
v -3.4 0.6 0.3
v -3.3 0.6 0.3
v -4.1 0.6 0.2
v -4 0.6 0.2
v -3.9 0.6 0.2
v -3.4 0.6 0.2
v -3.3 0.6 0.2
v -3.2 0.6 0.2
v -4.1 0.6 0.1
v -4 0.6 0.1
v -3.3 0.6 0.1
v -3.2 0.6 0.1
v -4.1 0.6 -0.4
v -4 0.6 -0.4
v -3.3 0.6 -0.4
v -3.2 0.6 -0.4
v -4.1 0.6 -0.5
v -4 0.6 -0.5
v -3.9 0.6 -0.5
v -3.4 0.6 -0.5
v -3.3 0.6 -0.5
v -3.2 0.6 -0.5
v -4 0.6 -0.6
v -3.9 0.6 -0.6
v -3.4 0.6 -0.6
v -3.3 0.6 -0.6
v -3.9 0.7 0.3
v -3.4 0.7 0.3
v -4 0.7 0.2
v -3.9 0.7 0.2
v -3.4 0.7 0.2
v -3.3 0.7 0.2
v -4.1 0.7 0.1
v -4 0.7 0.1
v -3.9 0.7 0.1
v -3.4 0.7 0.1
v -3.3 0.7 0.1
v -3.2 0.7 0.1
v -4.1 0.7 -0.4
v -4 0.7 -0.4
v -3.9 0.7 -0.4
v -3.4 0.7 -0.4
v -3.3 0.7 -0.4
v -3.2 0.7 -0.4
v -4 0.7 -0.5
v -3.9 0.7 -0.5
v -3.4 0.7 -0.5
v -3.3 0.7 -0.5
v -3.9 0.7 -0.6
v -3.4 0.7 -0.6
v -3.9 0.8 0.2
v -3.4 0.8 0.2
v -4 0.8 0.1
v -3.9 0.8 0.1
v -3.4 0.8 0.1
v -3.3 0.8 0.1
v -4 0.8 -0.4
v -3.9 0.8 -0.4
v -3.4 0.8 -0.4
v -3.3 0.8 -0.4
v -3.9 0.8 -0.5
v -3.4 0.8 -0.5

# faces
f 3/1/1 2/1/1 1/1/1
f 4/1/1 2/1/1 3/1/1
f 5/1/1 2/1/1 4/1/1
f 6/1/1 2/1/1 5/1/1
f 7/1/1 5/1/1 4/1/1
f 8/1/1 5/1/1 7/1/1
f 13/1/1 10/1/1 9/1/1
f 14/1/1 10/1/1 13/1/1
f 17/1/1 12/1/1 11/1/1
f 18/1/1 12/1/1 17/1/1
f 19/1/1 15/1/1 14/1/1
f 20/1/1 15/1/1 19/1/1
f 21/1/1 17/1/1 16/1/1
f 22/1/1 17/1/1 21/1/1
f 23/1/1 21/1/1 20/1/1
f 24/1/1 21/1/1 23/1/1
f 27/3/1 26/3/1 25/3/1
f 28/3/1 26/3/1 27/3/1
f 33/1/1 30/1/1 29/1/1
f 34/1/1 30/1/1 33/1/1
f 37/1/1 32/1/1 31/1/1
f 38/1/1 32/1/1 37/1/1
f 39/1/1 35/1/1 34/1/1
f 40/1/1 35/1/1 39/1/1
f 41/1/1 37/1/1 36/1/1
f 42/1/1 37/1/1 41/1/1
f 47/3/1 44/3/1 43/3/1
f 48/3/1 44/3/1 47/3/1
f 49/3/1 46/3/1 45/3/1
f 50/3/1 46/3/1 49/3/1
f 51/3/2 52/3/2 55/3/2
f 55/3/2 52/3/2 56/3/2
f 53/3/2 54/3/2 57/3/2
f 57/3/2 54/3/2 58/3/2
f 59/3/2 60/3/2 61/3/2
f 61/3/2 60/3/2 62/3/2
f 63/1/2 64/1/2 67/1/2
f 67/1/2 64/1/2 68/1/2
f 65/1/2 66/1/2 71/1/2
f 71/1/2 66/1/2 72/1/2
f 68/1/2 69/1/2 73/1/2
f 73/1/2 69/1/2 74/1/2
f 70/1/2 71/1/2 75/1/2
f 75/1/2 71/1/2 76/1/2
f 77/1/2 78/1/2 81/1/2
f 81/1/2 78/1/2 82/1/2
f 79/1/2 80/1/2 85/1/2
f 85/1/2 80/1/2 86/1/2
f 82/1/2 83/1/2 87/1/2
f 87/1/2 83/1/2 88/1/2
f 84/1/2 85/1/2 89/1/2
f 89/1/2 85/1/2 90/1/2
f 88/1/2 89/1/2 91/1/2
f 91/1/2 89/1/2 92/1/2
f 93/1/2 94/1/2 95/1/2
f 95/1/2 94/1/2 96/1/2
f 96/1/2 94/1/2 97/1/2
f 97/1/2 94/1/2 98/1/2
f 96/1/2 97/1/2 99/1/2
f 99/1/2 97/1/2 100/1/2
f 103/1/3 102/1/3 101/1/3
f 105/1/3 103/1/3 101/1/3
f 105/1/3 104/1/3 103/1/3
f 106/1/3 104/1/3 105/1/3
f 107/1/3 105/1/3 101/1/3
f 108/1/3 105/1/3 107/1/3
f 111/1/3 110/1/3 109/1/3
f 112/1/3 110/1/3 111/1/3
f 114/1/3 113/1/3 112/1/3
f 115/1/3 113/1/3 114/1/3
f 118/1/3 116/1/3 115/1/3
f 119/1/3 116/1/3 118/1/3
f 121/1/3 118/1/3 117/1/3
f 122/1/3 118/1/3 121/1/3
f 123/1/3 121/1/3 120/1/3
f 124/1/3 121/1/3 123/1/3
f 127/1/3 126/1/3 125/1/3
f 128/1/3 126/1/3 127/1/3
f 130/1/3 129/1/3 128/1/3
f 131/1/3 129/1/3 130/1/3
f 134/3/3 133/3/3 132/3/3
f 135/3/3 133/3/3 134/3/3
f 139/1/3 137/1/3 136/1/3
f 140/1/3 137/1/3 139/1/3
f 141/1/3 139/1/3 138/1/3
f 142/1/3 139/1/3 141/1/3
f 145/3/3 144/3/3 143/3/3
f 146/3/3 144/3/3 145/3/3
f 149/3/3 148/3/3 147/3/3
f 150/3/3 148/3/3 149/3/3
f 151/3/4 152/3/4 153/3/4
f 153/3/4 152/3/4 154/3/4
f 155/3/4 156/3/4 157/3/4
f 157/3/4 156/3/4 158/3/4
f 159/1/4 160/1/4 161/1/4
f 161/1/4 160/1/4 162/1/4
f 162/1/4 163/1/4 164/1/4
f 164/1/4 163/1/4 165/1/4
f 166/3/4 167/3/4 168/3/4
f 168/3/4 167/3/4 169/3/4
f 170/1/4 171/1/4 173/1/4
f 173/1/4 171/1/4 174/1/4
f 172/1/4 173/1/4 175/1/4
f 175/1/4 173/1/4 176/1/4
f 177/1/4 178/1/4 179/1/4
f 179/1/4 178/1/4 180/1/4
f 180/1/4 181/1/4 182/1/4
f 182/1/4 181/1/4 183/1/4
f 183/1/4 184/1/4 186/1/4
f 186/1/4 184/1/4 187/1/4
f 185/1/4 186/1/4 189/1/4
f 189/1/4 186/1/4 190/1/4
f 188/1/4 189/1/4 191/1/4
f 191/1/4 189/1/4 192/1/4
f 193/1/4 194/1/4 195/1/4
f 193/1/4 195/1/4 197/1/4
f 195/1/4 196/1/4 197/1/4
f 197/1/4 196/1/4 198/1/4
f 193/1/4 197/1/4 199/1/4
f 199/1/4 197/1/4 200/1/4
f 204/3/5 202/3/5 201/3/5
f 205/3/5 202/3/5 204/3/5
f 207/3/5 204/3/5 203/3/5
f 207/3/5 206/3/5 205/3/5
f 207/3/5 205/3/5 204/3/5
f 208/3/5 206/3/5 207/3/5
f 209/3/5 206/3/5 208/3/5
f 210/3/5 206/3/5 209/3/5
f 211/3/5 209/3/5 208/3/5
f 212/3/5 209/3/5 211/3/5
f 216/1/5 214/1/5 213/1/5
f 217/1/5 214/1/5 216/1/5
f 219/1/5 216/1/5 215/1/5
f 219/1/5 218/1/5 217/1/5
f 219/1/5 217/1/5 216/1/5
f 220/1/5 218/1/5 219/1/5
f 221/1/5 219/1/5 215/1/5
f 222/1/5 219/1/5 221/1/5
f 223/1/5 218/1/5 220/1/5
f 224/1/5 218/1/5 223/1/5
f 225/1/5 221/1/5 215/1/5
f 228/1/5 218/1/5 224/1/5
f 229/1/5 226/1/5 225/1/5
f 230/1/5 228/1/5 227/1/5
f 231/1/5 229/1/5 225/1/5
f 231/1/5 230/1/5 229/1/5
f 231/1/5 225/1/5 215/1/5
f 232/1/5 230/1/5 231/1/5
f 233/1/5 228/1/5 230/1/5
f 233/1/5 230/1/5 232/1/5
f 233/1/5 218/1/5 228/1/5
f 234/1/5 218/1/5 233/1/5
f 235/1/5 233/1/5 232/1/5
f 236/1/5 233/1/5 235/1/5
f 237/1/6 238/1/6 242/1/6
f 242/1/6 238/1/6 243/1/6
f 239/1/6 240/1/6 244/1/6
f 244/1/6 240/1/6 245/1/6
f 241/1/6 242/1/6 247/1/6
f 247/1/6 242/1/6 248/1/6
f 245/1/6 246/1/6 249/1/6
f 249/1/6 246/1/6 250/1/6
f 251/1/6 252/1/6 255/1/6
f 255/1/6 252/1/6 256/1/6
f 253/1/6 254/1/6 259/1/6
f 259/1/6 254/1/6 260/1/6
f 256/1/6 257/1/6 261/1/6
f 261/1/6 257/1/6 262/1/6
f 258/1/6 259/1/6 263/1/6
f 263/1/6 259/1/6 264/1/6
f 265/1/6 266/1/6 268/1/6
f 268/1/6 266/1/6 269/1/6
f 267/1/6 268/1/6 272/1/6
f 272/1/6 268/1/6 273/1/6
f 269/1/6 270/1/6 274/1/6
f 274/1/6 270/1/6 275/1/6
f 271/1/6 272/1/6 277/1/6
f 277/1/6 272/1/6 278/1/6
f 275/1/6 276/1/6 281/1/6
f 281/1/6 276/1/6 282/1/6
f 278/1/6 279/1/6 283/1/6
f 283/1/6 279/1/6 284/1/6
f 280/1/6 281/1/6 285/1/6
f 285/1/6 281/1/6 286/1/6
f 284/1/6 285/1/6 287/1/6
f 287/1/6 285/1/6 288/1/6
f 289/1/6 290/1/6 292/1/6
f 292/1/6 290/1/6 293/1/6
f 291/1/6 292/1/6 295/1/6
f 293/1/6 294/1/6 295/1/6
f 292/1/6 293/1/6 295/1/6
f 295/1/6 294/1/6 296/1/6
f 296/1/6 294/1/6 297/1/6
f 297/1/6 294/1/6 298/1/6
f 296/1/6 297/1/6 299/1/6
f 299/1/6 297/1/6 300/1/6
