# MagicaVoxel @ Ephtracy

# group
o FootL

# material
mtllib anon_straitjacket-1-FootL.mtl
usemtl palette

# normals
vn -1 0 0
vn 1 0 0
vn 0 0 1
vn 0 0 -1
vn 0 -1 0
vn 0 1 0

# texcoords
vt 0.115234 0.5
vt 0.966797 0.5

# verts
v -0.7 0 0.6
v -0.7 0 -0.4
v -0.7 0.2 0.6
v -0.7 0.2 0.5
v -0.7 0.3 0.5
v -0.7 0.3 0.2
v -0.7 0.4 0.2
v -0.7 0.4 0.1
v -0.7 0.5 0.1
v -0.7 0.5 0
v -0.7 0.6 0
v -0.7 0.6 -0.4
v -0.6 0 0.7
v -0.6 0 0.6
v -0.6 0.2 0.7
v -0.6 0.2 0.6
v -0.6 0.2 0.5
v -0.6 0.3 0.6
v -0.6 0.3 0.5
v -0.6 0.6 0
v -0.6 0.6 -0.4
v -0.6 0.7 0
v -0.6 0.7 -0.4
v -0.4 0 0.7
v -0.4 0 0.6
v -0.4 0.2 0.7
v -0.4 0.2 0.6
v -0.4 0.2 0.5
v -0.4 0.3 0.6
v -0.4 0.3 0.5
v -0.4 0.6 0
v -0.4 0.6 -0.4
v -0.4 0.7 0
v -0.4 0.7 -0.4
v -0.3 0 0.6
v -0.3 0 -0.4
v -0.3 0.2 0.6
v -0.3 0.2 0.5
v -0.3 0.3 0.5
v -0.3 0.3 0.2
v -0.3 0.4 0.2
v -0.3 0.4 0.1
v -0.3 0.5 0.1
v -0.3 0.5 0
v -0.3 0.6 0
v -0.3 0.6 -0.4
v -0.6 0 0.7
v -0.6 0.2 0.7
v -0.4 0 0.7
v -0.4 0.2 0.7
v -0.7 0 0.6
v -0.7 0.2 0.6
v -0.6 0 0.6
v -0.6 0.2 0.6
v -0.6 0.3 0.6
v -0.4 0 0.6
v -0.4 0.2 0.6
v -0.4 0.3 0.6
v -0.3 0 0.6
v -0.3 0.2 0.6
v -0.7 0.2 0.5
v -0.7 0.3 0.5
v -0.6 0.2 0.5
v -0.6 0.3 0.5
v -0.4 0.2 0.5
v -0.4 0.3 0.5
v -0.3 0.2 0.5
v -0.3 0.3 0.5
v -0.7 0.3 0.2
v -0.7 0.4 0.2
v -0.3 0.3 0.2
v -0.3 0.4 0.2
v -0.7 0.4 0.1
v -0.7 0.5 0.1
v -0.3 0.4 0.1
v -0.3 0.5 0.1
v -0.7 0.5 0
v -0.7 0.6 0
v -0.6 0.6 0
v -0.6 0.7 0
v -0.4 0.6 0
v -0.4 0.7 0
v -0.3 0.5 0
v -0.3 0.6 0
v -0.7 0 -0.4
v -0.7 0.6 -0.4
v -0.6 0.6 -0.4
v -0.6 0.7 -0.4
v -0.4 0.6 -0.4
v -0.4 0.7 -0.4
v -0.3 0 -0.4
v -0.3 0.6 -0.4
v -0.6 0 0.7
v -0.4 0 0.7
v -0.7 0 0.6
v -0.6 0 0.6
v -0.4 0 0.6
v -0.3 0 0.6
v -0.7 0 -0.4
v -0.3 0 -0.4
v -0.6 0.2 0.7
v -0.4 0.2 0.7
v -0.7 0.2 0.6
v -0.6 0.2 0.6
v -0.4 0.2 0.6
v -0.3 0.2 0.6
v -0.7 0.2 0.5
v -0.6 0.2 0.5
v -0.4 0.2 0.5
v -0.3 0.2 0.5
v -0.6 0.3 0.6
v -0.4 0.3 0.6
v -0.7 0.3 0.5
v -0.6 0.3 0.5
v -0.4 0.3 0.5
v -0.3 0.3 0.5
v -0.7 0.3 0.2
v -0.3 0.3 0.2
v -0.7 0.4 0.2
v -0.3 0.4 0.2
v -0.7 0.4 0.1
v -0.3 0.4 0.1
v -0.7 0.5 0.1
v -0.3 0.5 0.1
v -0.7 0.5 0
v -0.3 0.5 0
v -0.7 0.6 0
v -0.6 0.6 0
v -0.4 0.6 0
v -0.3 0.6 0
v -0.7 0.6 -0.4
v -0.6 0.6 -0.4
v -0.4 0.6 -0.4
v -0.3 0.6 -0.4
v -0.6 0.7 0
v -0.4 0.7 0
v -0.6 0.7 -0.4
v -0.4 0.7 -0.4

# faces
f 3/2/1 2/2/1 1/2/1
f 4/2/1 2/2/1 3/2/1
f 5/2/1 2/2/1 4/2/1
f 6/2/1 2/2/1 5/2/1
f 7/2/1 2/2/1 6/2/1
f 8/2/1 2/2/1 7/2/1
f 9/2/1 2/2/1 8/2/1
f 10/2/1 2/2/1 9/2/1
f 11/2/1 2/2/1 10/2/1
f 12/2/1 2/2/1 11/2/1
f 15/2/1 14/2/1 13/2/1
f 16/2/1 14/2/1 15/2/1
f 18/2/1 17/2/1 16/2/1
f 19/2/1 17/2/1 18/2/1
f 22/2/1 21/2/1 20/2/1
f 23/2/1 21/2/1 22/2/1
f 24/2/2 25/2/2 26/2/2
f 26/2/2 25/2/2 27/2/2
f 27/2/2 28/2/2 29/2/2
f 29/2/2 28/2/2 30/2/2
f 31/2/2 32/2/2 33/2/2
f 33/2/2 32/2/2 34/2/2
f 35/2/2 36/2/2 37/2/2
f 37/2/2 36/2/2 38/2/2
f 38/2/2 36/2/2 39/2/2
f 39/2/2 36/2/2 40/2/2
f 40/2/2 36/2/2 41/2/2
f 41/2/2 36/2/2 42/2/2
f 42/2/2 36/2/2 43/2/2
f 43/2/2 36/2/2 44/2/2
f 44/2/2 36/2/2 45/2/2
f 45/2/2 36/2/2 46/2/2
f 49/2/3 48/2/3 47/2/3
f 50/2/3 48/2/3 49/2/3
f 53/2/3 52/2/3 51/2/3
f 54/2/3 52/2/3 53/2/3
f 57/2/3 55/2/3 54/2/3
f 58/2/3 55/2/3 57/2/3
f 59/2/3 57/2/3 56/2/3
f 60/2/3 57/2/3 59/2/3
f 63/2/3 62/2/3 61/2/3
f 64/2/3 62/2/3 63/2/3
f 67/2/3 66/2/3 65/2/3
f 68/2/3 66/2/3 67/2/3
f 71/2/3 70/2/3 69/2/3
f 72/2/3 70/2/3 71/2/3
f 75/2/3 74/2/3 73/2/3
f 76/2/3 74/2/3 75/2/3
f 79/2/3 78/2/3 77/2/3
f 81/2/3 79/2/3 77/2/3
f 81/2/3 80/2/3 79/2/3
f 82/2/3 80/2/3 81/2/3
f 83/2/3 81/2/3 77/2/3
f 84/2/3 81/2/3 83/2/3
f 85/2/4 86/2/4 87/2/4
f 85/2/4 87/2/4 89/2/4
f 87/2/4 88/2/4 89/2/4
f 89/2/4 88/2/4 90/2/4
f 85/2/4 89/2/4 91/2/4
f 91/2/4 89/2/4 92/2/4
f 96/2/5 94/2/5 93/2/5
f 97/2/5 94/2/5 96/2/5
f 99/2/5 96/2/5 95/2/5
f 99/2/5 98/2/5 97/2/5
f 99/2/5 97/2/5 96/2/5
f 100/2/5 98/2/5 99/2/5
f 101/2/6 102/2/6 104/2/6
f 104/2/6 102/2/6 105/2/6
f 103/2/6 104/2/6 107/2/6
f 107/2/6 104/2/6 108/2/6
f 105/2/6 106/2/6 109/2/6
f 109/2/6 106/2/6 110/2/6
f 111/2/6 112/2/6 114/2/6
f 114/2/6 112/2/6 115/2/6
f 113/2/6 114/2/6 117/2/6
f 115/2/6 116/2/6 117/2/6
f 114/2/6 115/2/6 117/2/6
f 117/2/6 116/2/6 118/2/6
f 119/2/6 120/2/6 121/2/6
f 121/2/6 120/2/6 122/2/6
f 123/2/6 124/2/6 125/2/6
f 125/2/6 124/2/6 126/2/6
f 127/2/6 128/2/6 131/2/6
f 131/2/6 128/2/6 132/2/6
f 129/2/6 130/2/6 133/2/6
f 133/2/6 130/2/6 134/2/6
f 135/2/6 136/2/6 137/2/6
f 137/2/6 136/2/6 138/2/6
