# MagicaVoxel @ Ephtracy

# group
o 

# material
mtllib Cage-0.mtl
usemtl palette

# normals
vn -1 0 0
vn 1 0 0
vn 0 0 1
vn 0 0 -1
vn 0 -1 0
vn 0 1 0

# texcoords
vt 0.0136719 0.5
vt 0.181641 0.5
vt 0.337891 0.5
vt 0.419922 0.5
vt 0.962891 0.5
vt 0.994141 0.5

# verts
v 2.6 1.1 4
v 2.6 1.1 3.8
v 2.6 1.3 4
v 2.6 1.3 3.9
v 2.6 1.4 4
v 2.6 1.4 3.9
v 2.6 1.5 4
v 2.6 1.5 3.8
v 2.6 1.6 4
v 2.6 1.6 3.4
v 2.6 1.7 4
v 2.6 1.7 3.4
v 2.7 1.5 4
v 2.7 1.5 3.8
v 2.7 1.6 4
v 2.7 1.6 3.8
v 2.9 1.6 3.9
v 2.9 1.6 3.8
v 2.9 1.6 3.5
v 2.9 1.7 3.9
v 2.9 1.7 3.5
v 2.7 1.6 3.9
v 2.7 1.6 3.8
v 2.7 1.6 3.5
v 2.7 1.7 3.9
v 2.7 1.7 3.5
v 2.9 1.5 4
v 2.9 1.5 3.8
v 2.9 1.6 4
v 2.9 1.6 3.8
v 3 1.1 4
v 3 1.1 3.8
v 3 1.3 4
v 3 1.3 3.9
v 3 1.4 4
v 3 1.4 3.9
v 3 1.5 4
v 3 1.5 3.8
v 3 1.6 4
v 3 1.6 3.4
v 3 1.7 4
v 3 1.7 3.4
v 2.6 1.1 4
v 2.6 1.3 4
v 2.6 1.4 4
v 2.6 1.5 4
v 2.6 1.6 4
v 2.6 1.7 4
v 2.7 1.1 4
v 2.7 1.2 4
v 2.7 1.3 4
v 2.7 1.4 4
v 2.7 1.5 4
v 2.7 1.6 4
v 2.8 1.1 4
v 2.8 1.2 4
v 2.8 1.3 4
v 2.8 1.4 4
v 2.9 1.3 4
v 2.9 1.4 4
v 2.9 1.5 4
v 2.9 1.6 4
v 3 1.1 4
v 3 1.3 4
v 3 1.4 4
v 3 1.5 4
v 3 1.6 4
v 3 1.7 4
v 2.7 1.6 3.5
v 2.7 1.7 3.5
v 2.9 1.6 3.5
v 2.9 1.7 3.5
v 2.7 1.6 3.9
v 2.7 1.7 3.9
v 2.9 1.6 3.9
v 2.9 1.7 3.9
v 2.6 1.1 3.8
v 2.6 1.5 3.8
v 2.7 1.2 3.8
v 2.7 1.5 3.8
v 2.7 1.6 3.8
v 2.9 1.2 3.8
v 2.9 1.5 3.8
v 2.9 1.6 3.8
v 3 1.1 3.8
v 3 1.5 3.8
v 2.6 1.6 3.4
v 2.6 1.7 3.4
v 3 1.6 3.4
v 3 1.7 3.4
v 2.6 1.1 4
v 2.7 1.1 4
v 2.8 1.1 4
v 3 1.1 4
v 2.7 1.1 3.9
v 2.8 1.1 3.9
v 2.6 1.1 3.8
v 3 1.1 3.8
v 2.6 1.6 4
v 2.7 1.6 4
v 2.9 1.6 4
v 3 1.6 4
v 2.7 1.6 3.8
v 2.9 1.6 3.8
v 2.7 1.6 3.5
v 2.9 1.6 3.5
v 2.6 1.6 3.4
v 3 1.6 3.4
v 2.6 1.5 4
v 2.7 1.5 4
v 2.9 1.5 4
v 3 1.5 4
v 2.6 1.5 3.8
v 2.7 1.5 3.8
v 2.9 1.5 3.8
v 3 1.5 3.8
v 2.7 1.6 3.9
v 2.9 1.6 3.9
v 2.7 1.6 3.8
v 2.9 1.6 3.8
v 2.6 1.7 4
v 3 1.7 4
v 2.7 1.7 3.9
v 2.9 1.7 3.9
v 2.7 1.7 3.5
v 2.9 1.7 3.5
v 2.6 1.7 3.4
v 3 1.7 3.4

# faces
f 3/4/1 2/4/1 1/4/1
f 4/4/1 2/4/1 3/4/1
f 5/6/1 4/6/1 3/6/1
f 6/4/1 2/4/1 4/4/1
f 6/6/1 4/6/1 5/6/1
f 7/4/1 6/4/1 5/4/1
f 8/4/1 2/4/1 6/4/1
f 8/4/1 6/4/1 7/4/1
f 11/4/1 10/4/1 9/4/1
f 12/4/1 10/4/1 11/4/1
f 15/3/1 14/3/1 13/3/1
f 16/3/1 14/3/1 15/3/1
f 20/4/1 18/4/1 17/4/1
f 20/4/1 19/4/1 18/4/1
f 21/4/1 19/4/1 20/4/1
f 22/4/2 23/4/2 25/4/2
f 23/4/2 24/4/2 25/4/2
f 25/4/2 24/4/2 26/4/2
f 27/3/2 28/3/2 29/3/2
f 29/3/2 28/3/2 30/3/2
f 31/4/2 32/4/2 33/4/2
f 33/4/2 32/4/2 34/4/2
f 33/5/2 34/5/2 35/5/2
f 34/4/2 32/4/2 36/4/2
f 35/5/2 34/5/2 36/5/2
f 35/4/2 36/4/2 37/4/2
f 36/4/2 32/4/2 38/4/2
f 37/4/2 36/4/2 38/4/2
f 39/4/2 40/4/2 41/4/2
f 41/4/2 40/4/2 42/4/2
f 49/4/3 44/4/3 43/4/3
f 50/4/3 44/4/3 49/4/3
f 51/6/3 45/6/3 44/6/3
f 51/4/3 44/4/3 50/4/3
f 52/4/3 46/4/3 45/4/3
f 52/6/3 45/6/3 51/6/3
f 53/4/3 46/4/3 52/4/3
f 54/4/3 48/4/3 47/4/3
f 55/1/3 50/1/3 49/1/3
f 56/4/3 51/4/3 50/4/3
f 56/1/3 50/1/3 55/1/3
f 57/5/3 52/5/3 51/5/3
f 57/4/3 51/4/3 56/4/3
f 58/4/3 53/4/3 52/4/3
f 58/5/3 52/5/3 57/5/3
f 59/4/3 57/4/3 56/4/3
f 59/4/3 56/4/3 55/4/3
f 59/6/3 58/6/3 57/6/3
f 60/4/3 53/4/3 58/4/3
f 60/6/3 58/6/3 59/6/3
f 61/3/3 54/3/3 53/3/3
f 61/4/3 53/4/3 60/4/3
f 62/4/3 48/4/3 54/4/3
f 62/3/3 54/3/3 61/3/3
f 63/4/3 59/4/3 55/4/3
f 64/5/3 60/5/3 59/5/3
f 64/4/3 59/4/3 63/4/3
f 65/4/3 61/4/3 60/4/3
f 65/5/3 60/5/3 64/5/3
f 66/4/3 61/4/3 65/4/3
f 67/4/3 48/4/3 62/4/3
f 68/4/3 48/4/3 67/4/3
f 71/4/3 70/4/3 69/4/3
f 72/4/3 70/4/3 71/4/3
f 73/4/4 74/4/4 75/4/4
f 75/4/4 74/4/4 76/4/4
f 77/4/4 78/4/4 79/4/4
f 79/4/4 78/4/4 80/4/4
f 77/4/4 79/4/4 82/4/4
f 79/2/4 80/2/4 82/2/4
f 80/3/4 81/3/4 83/3/4
f 82/2/4 80/2/4 83/2/4
f 83/3/4 81/3/4 84/3/4
f 77/4/4 82/4/4 85/4/4
f 82/4/4 83/4/4 85/4/4
f 85/4/4 83/4/4 86/4/4
f 87/4/4 88/4/4 89/4/4
f 89/4/4 88/4/4 90/4/4
f 95/4/5 92/4/5 91/4/5
f 95/1/5 93/1/5 92/1/5
f 96/4/5 94/4/5 93/4/5
f 96/1/5 93/1/5 95/1/5
f 97/4/5 95/4/5 91/4/5
f 97/4/5 96/4/5 95/4/5
f 98/4/5 94/4/5 96/4/5
f 98/4/5 96/4/5 97/4/5
f 103/4/5 100/4/5 99/4/5
f 104/4/5 102/4/5 101/4/5
f 105/4/5 103/4/5 99/4/5
f 106/4/5 102/4/5 104/4/5
f 107/4/5 105/4/5 99/4/5
f 107/4/5 106/4/5 105/4/5
f 108/4/5 102/4/5 106/4/5
f 108/4/5 106/4/5 107/4/5
f 109/4/6 110/4/6 113/4/6
f 113/4/6 110/4/6 114/4/6
f 111/4/6 112/4/6 115/4/6
f 115/4/6 112/4/6 116/4/6
f 117/3/6 118/3/6 119/3/6
f 119/3/6 118/3/6 120/3/6
f 121/4/6 122/4/6 123/4/6
f 123/4/6 122/4/6 124/4/6
f 121/4/6 123/4/6 125/4/6
f 124/4/6 122/4/6 126/4/6
f 121/4/6 125/4/6 127/4/6
f 125/4/6 126/4/6 127/4/6
f 126/4/6 122/4/6 128/4/6
f 127/4/6 126/4/6 128/4/6
