# MagicaVoxel @ Ephtracy

# group
o weapon

# material
mtllib Hunters-11-weapon.mtl
usemtl palette

# normals
vn 0 0 -1
vn 0 0 1
vn 0 -1 0
vn 0 1 0
vn 1 0 0
vn -1 0 0

# texcoords
vt 0.673828 0.5
vt 0.873047 0.5
vt 0.990234 0.5
vt 0.994141 0.5

# verts
v -1 0 -8.1
v -1 0.3 -8.1
v -1.2 0 -8.1
v -1.2 0.3 -8.1
v -1 0.3 -8
v -1 0.4 -8
v -1.2 0.3 -8
v -1.2 0.4 -8
v -1 0.4 -7.4
v -1 0.5 -7.4
v -1.2 0.4 -7.4
v -1.2 0.5 -7.4
v -1 0.2 -7.2
v -1 0.3 -7.2
v -1.2 0.2 -7.2
v -1.2 0.3 -7.2
v -1 0.1 -7.1
v -1 0.2 -7.1
v -1.2 0.1 -7.1
v -1.2 0.2 -7.1
v -1 0 -7
v -1 0.1 -7
v -1.2 0 -7
v -1.2 0.1 -7
v -1 0 -8
v -1 0.1 -8
v -1.2 0 -8
v -1.2 0.1 -8
v -1 0.1 -7.6
v -1 0.2 -7.6
v -1.2 0.1 -7.6
v -1.2 0.2 -7.6
v -1 0.2 -7.4
v -1 0.3 -7.4
v -1.2 0.2 -7.4
v -1.2 0.3 -7.4
v -1 0.2 -7
v -1 0.3 -7
v -1.2 0.2 -7
v -1.2 0.3 -7
v -1 0.1 -6.9
v -1 0.2 -6.9
v -1 0.3 -6.9
v -1 0.4 -6.9
v -1.2 0.1 -6.9
v -1.2 0.2 -6.9
v -1.2 0.3 -6.9
v -1.2 0.4 -6.9
v -1 0 -6.8
v -1 0.1 -6.8
v -1.2 0 -6.8
v -1.2 0.1 -6.8
v -1 0.4 -5.3
v -1 0.5 -5.3
v -1.2 0.4 -5.3
v -1.2 0.5 -5.3
v -1 0 -8.1
v -1.2 0 -8.1
v -1 0 -8
v -1.2 0 -8
v -1 0 -7
v -1.2 0 -7
v -1 0 -6.8
v -1.2 0 -6.8
v -1 0.1 -8
v -1.2 0.1 -8
v -1 0.1 -7.6
v -1.2 0.1 -7.6
v -1 0.1 -7.1
v -1.2 0.1 -7.1
v -1 0.1 -7
v -1.2 0.1 -7
v -1 0.2 -7.6
v -1.2 0.2 -7.6
v -1 0.2 -7.5
v -1.2 0.2 -7.5
v -1 0.2 -7.4
v -1.2 0.2 -7.4
v -1 0.2 -7.2
v -1.2 0.2 -7.2
v -1 0.2 -7.1
v -1.2 0.2 -7.1
v -1 0.3 -7.4
v -1.2 0.3 -7.4
v -1 0.3 -7.2
v -1.2 0.3 -7.2
v -1 0.3 -7
v -1.2 0.3 -7
v -1 0.3 -6.9
v -1.2 0.3 -6.9
v -1 0.4 -6.9
v -1.2 0.4 -6.9
v -1 0.4 -5.3
v -1.2 0.4 -5.3
v -1 0.1 -6.9
v -1.2 0.1 -6.9
v -1 0.1 -6.8
v -1.2 0.1 -6.8
v -1 0.2 -7
v -1.2 0.2 -7
v -1 0.2 -6.9
v -1.2 0.2 -6.9
v -1 0.3 -8.1
v -1.2 0.3 -8.1
v -1 0.3 -8
v -1.2 0.3 -8
v -1 0.4 -8
v -1.2 0.4 -8
v -1 0.4 -7.4
v -1.2 0.4 -7.4
v -1 0.5 -7.4
v -1.2 0.5 -7.4
v -1 0.5 -7.2
v -1.2 0.5 -7.2
v -1 0.5 -6.9
v -1.2 0.5 -6.9
v -1 0.5 -5.3
v -1.2 0.5 -5.3
v -1 0 -8.1
v -1 0 -8
v -1 0 -7
v -1 0 -6.8
v -1 0.1 -8
v -1 0.1 -7.6
v -1 0.1 -7.1
v -1 0.1 -7
v -1 0.1 -6.9
v -1 0.1 -6.8
v -1 0.2 -7.6
v -1 0.2 -7.5
v -1 0.2 -7.4
v -1 0.2 -7.2
v -1 0.2 -7.1
v -1 0.2 -7
v -1 0.2 -6.9
v -1 0.3 -8.1
v -1 0.3 -8
v -1 0.3 -7.5
v -1 0.3 -7.4
v -1 0.3 -7.2
v -1 0.3 -7
v -1 0.3 -6.9
v -1 0.4 -8
v -1 0.4 -7.4
v -1 0.4 -7.2
v -1 0.4 -6.9
v -1 0.4 -5.3
v -1 0.5 -7.4
v -1 0.5 -7.2
v -1 0.5 -6.9
v -1 0.5 -5.3
v -1.2 0 -8.1
v -1.2 0 -8
v -1.2 0 -7
v -1.2 0 -6.8
v -1.2 0.1 -8
v -1.2 0.1 -7.6
v -1.2 0.1 -7.1
v -1.2 0.1 -7
v -1.2 0.1 -6.9
v -1.2 0.1 -6.8
v -1.2 0.2 -7.6
v -1.2 0.2 -7.5
v -1.2 0.2 -7.4
v -1.2 0.2 -7.2
v -1.2 0.2 -7.1
v -1.2 0.2 -7
v -1.2 0.2 -6.9
v -1.2 0.3 -8.1
v -1.2 0.3 -8
v -1.2 0.3 -7.5
v -1.2 0.3 -7.4
v -1.2 0.3 -7.2
v -1.2 0.3 -7
v -1.2 0.3 -6.9
v -1.2 0.4 -8
v -1.2 0.4 -7.4
v -1.2 0.4 -7.2
v -1.2 0.4 -6.9
v -1.2 0.4 -5.3
v -1.2 0.5 -7.4
v -1.2 0.5 -7.2
v -1.2 0.5 -6.9
v -1.2 0.5 -5.3

# faces
f 3/2/1 2/2/1 1/2/1
f 4/2/1 2/2/1 3/2/1
f 7/2/1 6/2/1 5/2/1
f 8/2/1 6/2/1 7/2/1
f 11/1/1 10/1/1 9/1/1
f 12/1/1 10/1/1 11/1/1
f 15/2/1 14/2/1 13/2/1
f 16/2/1 14/2/1 15/2/1
f 19/2/1 18/2/1 17/2/1
f 20/2/1 18/2/1 19/2/1
f 23/2/1 22/2/1 21/2/1
f 24/2/1 22/2/1 23/2/1
f 25/2/2 26/2/2 27/2/2
f 27/2/2 26/2/2 28/2/2
f 29/2/2 30/2/2 31/2/2
f 31/2/2 30/2/2 32/2/2
f 33/3/2 34/3/2 35/3/2
f 35/3/2 34/3/2 36/3/2
f 37/2/2 38/2/2 39/2/2
f 39/2/2 38/2/2 40/2/2
f 41/2/2 42/2/2 45/2/2
f 45/2/2 42/2/2 46/2/2
f 43/3/2 44/3/2 47/3/2
f 47/3/2 44/3/2 48/3/2
f 49/2/2 50/2/2 51/2/2
f 51/2/2 50/2/2 52/2/2
f 53/4/2 54/4/2 55/4/2
f 55/4/2 54/4/2 56/4/2
f 59/2/3 58/2/3 57/2/3
f 60/2/3 58/2/3 59/2/3
f 63/2/3 62/2/3 61/2/3
f 64/2/3 62/2/3 63/2/3
f 67/2/3 66/2/3 65/2/3
f 68/2/3 66/2/3 67/2/3
f 71/2/3 70/2/3 69/2/3
f 72/2/3 70/2/3 71/2/3
f 75/2/3 74/2/3 73/2/3
f 76/2/3 74/2/3 75/2/3
f 77/3/3 76/3/3 75/3/3
f 78/3/3 76/3/3 77/3/3
f 81/2/3 80/2/3 79/2/3
f 82/2/3 80/2/3 81/2/3
f 85/3/3 84/3/3 83/3/3
f 86/3/3 84/3/3 85/3/3
f 89/3/3 88/3/3 87/3/3
f 90/3/3 88/3/3 89/3/3
f 93/4/3 92/4/3 91/4/3
f 94/4/3 92/4/3 93/4/3
f 95/2/4 96/2/4 97/2/4
f 97/2/4 96/2/4 98/2/4
f 99/2/4 100/2/4 101/2/4
f 101/2/4 100/2/4 102/2/4
f 103/2/4 104/2/4 105/2/4
f 105/2/4 104/2/4 106/2/4
f 107/2/4 108/2/4 109/2/4
f 109/2/4 108/2/4 110/2/4
f 111/1/4 112/1/4 113/1/4
f 113/1/4 112/1/4 114/1/4
f 113/3/4 114/3/4 115/3/4
f 115/3/4 114/3/4 116/3/4
f 115/4/4 116/4/4 117/4/4
f 117/4/4 116/4/4 118/4/4
f 123/2/5 120/2/5 119/2/5
f 126/2/5 122/2/5 121/2/5
f 127/2/5 122/2/5 126/2/5
f 128/2/5 122/2/5 127/2/5
f 129/2/5 124/2/5 123/2/5
f 133/2/5 126/2/5 125/2/5
f 133/2/5 127/2/5 126/2/5
f 134/2/5 127/2/5 133/2/5
f 135/2/5 127/2/5 134/2/5
f 136/2/5 123/2/5 119/2/5
f 136/2/5 130/2/5 129/2/5
f 136/2/5 129/2/5 123/2/5
f 137/2/5 130/2/5 136/2/5
f 138/3/5 131/3/5 130/3/5
f 138/2/5 130/2/5 137/2/5
f 139/3/5 131/3/5 138/3/5
f 140/2/5 134/2/5 133/2/5
f 140/2/5 133/2/5 132/2/5
f 141/2/5 134/2/5 140/2/5
f 143/2/5 139/2/5 138/2/5
f 143/2/5 138/2/5 137/2/5
f 144/3/5 142/3/5 141/3/5
f 144/2/5 139/2/5 143/2/5
f 144/3/5 141/3/5 140/3/5
f 144/3/5 140/3/5 139/3/5
f 145/3/5 142/3/5 144/3/5
f 146/3/5 142/3/5 145/3/5
f 148/1/5 145/1/5 144/1/5
f 149/3/5 146/3/5 145/3/5
f 149/1/5 145/1/5 148/1/5
f 150/4/5 147/4/5 146/4/5
f 150/3/5 146/3/5 149/3/5
f 151/4/5 147/4/5 150/4/5
f 152/2/6 153/2/6 156/2/6
f 154/2/6 155/2/6 159/2/6
f 159/2/6 155/2/6 160/2/6
f 160/2/6 155/2/6 161/2/6
f 156/2/6 157/2/6 162/2/6
f 158/2/6 159/2/6 166/2/6
f 159/2/6 160/2/6 166/2/6
f 166/2/6 160/2/6 167/2/6
f 167/2/6 160/2/6 168/2/6
f 152/2/6 156/2/6 169/2/6
f 162/2/6 163/2/6 169/2/6
f 156/2/6 162/2/6 169/2/6
f 169/2/6 163/2/6 170/2/6
f 163/3/6 164/3/6 171/3/6
f 170/2/6 163/2/6 171/2/6
f 171/3/6 164/3/6 172/3/6
f 166/2/6 167/2/6 173/2/6
f 165/2/6 166/2/6 173/2/6
f 173/2/6 167/2/6 174/2/6
f 171/2/6 172/2/6 176/2/6
f 170/2/6 171/2/6 176/2/6
f 174/3/6 175/3/6 177/3/6
f 176/2/6 172/2/6 177/2/6
f 173/3/6 174/3/6 177/3/6
f 172/3/6 173/3/6 177/3/6
f 177/3/6 175/3/6 178/3/6
f 178/3/6 175/3/6 179/3/6
f 177/1/6 178/1/6 181/1/6
f 178/3/6 179/3/6 182/3/6
f 181/1/6 178/1/6 182/1/6
f 179/4/6 180/4/6 183/4/6
f 182/3/6 179/3/6 183/3/6
f 183/4/6 180/4/6 184/4/6
