# MagicaVoxel @ Ephtracy

# group
o shinR

# material
mtllib Hunters-18-shinR.mtl
usemtl palette

# normals
vn -1 0 0
vn 1 0 0
vn 0 0 1
vn 0 0 -1
vn 0 -1 0
vn 0 1 0

# texcoords
vt 0.341797 0.5
vt 0.369141 0.5
vt 0.373047 0.5
vt 0.990234 0.5

# verts
v -0.5 0 -6.6
v -0.5 0 -6.8
v -0.5 0.1 -6.6
v -0.5 0.1 -6.8
v -0.4 0.1 -6.6
v -0.4 0.1 -6.8
v -0.4 0.4 -6.6
v -0.4 0.4 -6.8
v -0.4 0.5 -6.6
v -0.4 0.5 -6.8
v -0.4 0.6 -6.6
v -0.4 0.6 -6.8
v -0.4 0.7 -6.6
v -0.4 0.7 -6.7
v -0.4 0.8 -6.6
v -0.4 0.8 -6.7
v -0.4 1.1 -6.6
v -0.4 1.1 -6.8
v -0.2 0 -6.6
v -0.2 0 -6.8
v -0.2 0.4 -6.6
v -0.2 0.4 -6.8
v -0.2 1.1 -6.6
v -0.2 1.1 -6.8
v -0.5 0 -6.6
v -0.5 0.1 -6.6
v -0.4 0.1 -6.6
v -0.4 0.4 -6.6
v -0.4 0.5 -6.6
v -0.4 0.6 -6.6
v -0.4 0.7 -6.6
v -0.4 0.8 -6.6
v -0.4 1.1 -6.6
v -0.3 0.5 -6.6
v -0.3 0.6 -6.6
v -0.3 0.7 -6.6
v -0.3 0.8 -6.6
v -0.2 0 -6.6
v -0.2 0.4 -6.6
v -0.2 1.1 -6.6
v -0.5 0 -6.8
v -0.5 0.1 -6.8
v -0.4 0.1 -6.8
v -0.4 0.4 -6.8
v -0.4 0.5 -6.8
v -0.4 0.6 -6.8
v -0.4 1.1 -6.8
v -0.3 0.5 -6.8
v -0.3 0.6 -6.8
v -0.2 0 -6.8
v -0.2 0.4 -6.8
v -0.2 1.1 -6.8
v -0.5 0 -6.6
v -0.2 0 -6.6
v -0.5 0 -6.8
v -0.2 0 -6.8
v -0.5 0.1 -6.6
v -0.4 0.1 -6.6
v -0.5 0.1 -6.8
v -0.4 0.1 -6.8
v -0.4 1.1 -6.6
v -0.2 1.1 -6.6
v -0.4 1.1 -6.8
v -0.2 1.1 -6.8

# faces
f 3/4/1 2/4/1 1/4/1
f 4/4/1 2/4/1 3/4/1
f 7/4/1 6/4/1 5/4/1
f 8/4/1 6/4/1 7/4/1
f 9/2/1 8/2/1 7/2/1
f 10/2/1 8/2/1 9/2/1
f 11/1/1 10/1/1 9/1/1
f 12/1/1 10/1/1 11/1/1
f 13/2/1 12/2/1 11/2/1
f 14/2/1 12/2/1 13/2/1
f 15/3/1 14/3/1 13/3/1
f 16/2/1 12/2/1 14/2/1
f 16/3/1 14/3/1 15/3/1
f 17/2/1 16/2/1 15/2/1
f 18/2/1 12/2/1 16/2/1
f 18/2/1 16/2/1 17/2/1
f 19/4/2 20/4/2 21/4/2
f 21/4/2 20/4/2 22/4/2
f 21/2/2 22/2/2 23/2/2
f 23/2/2 22/2/2 24/2/2
f 27/4/3 26/4/3 25/4/3
f 34/2/3 29/2/3 28/2/3
f 34/1/3 30/1/3 29/1/3
f 35/2/3 31/2/3 30/2/3
f 35/1/3 30/1/3 34/1/3
f 36/3/3 32/3/3 31/3/3
f 36/2/3 31/2/3 35/2/3
f 37/2/3 33/2/3 32/2/3
f 37/3/3 32/3/3 36/3/3
f 38/4/3 27/4/3 25/4/3
f 38/4/3 28/4/3 27/4/3
f 39/2/3 37/2/3 36/2/3
f 39/4/3 28/4/3 38/4/3
f 39/2/3 36/2/3 35/2/3
f 39/2/3 34/2/3 28/2/3
f 39/2/3 35/2/3 34/2/3
f 40/2/3 33/2/3 37/2/3
f 40/2/3 37/2/3 39/2/3
f 41/4/4 42/4/4 43/4/4
f 44/2/4 45/2/4 48/2/4
f 45/1/4 46/1/4 48/1/4
f 46/2/4 47/2/4 49/2/4
f 48/1/4 46/1/4 49/1/4
f 41/4/4 43/4/4 50/4/4
f 43/4/4 44/4/4 50/4/4
f 48/2/4 49/2/4 51/2/4
f 50/4/4 44/4/4 51/4/4
f 44/2/4 48/2/4 51/2/4
f 49/2/4 47/2/4 52/2/4
f 51/2/4 49/2/4 52/2/4
f 55/4/5 54/4/5 53/4/5
f 56/4/5 54/4/5 55/4/5
f 57/4/6 58/4/6 59/4/6
f 59/4/6 58/4/6 60/4/6
f 61/2/6 62/2/6 63/2/6
f 63/2/6 62/2/6 64/2/6
