# MagicaVoxel @ Ephtracy

# group
o head

# material
mtllib Hunters-21-head.mtl
usemtl palette

# normals
vn -1 0 0
vn 1 0 0
vn 0 0 1
vn 0 0 -1
vn 0 -1 0
vn 0 1 0

# texcoords
vt 0.0332031 0.5
vt 0.0605469 0.5
vt 0.873047 0.5
vt 0.994141 0.5

# verts
v -0.6 3.5 -6.4
v -0.6 3.5 -6.6
v -0.6 3.6 -6.3
v -0.6 3.6 -6.4
v -0.6 3.6 -6.6
v -0.6 3.6 -6.7
v -0.6 3.7 -6.3
v -0.6 3.7 -6.4
v -0.6 3.7 -6.6
v -0.6 3.7 -6.7
v -0.6 3.8 -6.4
v -0.6 3.8 -6.6
v -0.6 3.9 -6.3
v -0.6 3.9 -6.4
v -0.6 3.9 -6.6
v -0.6 3.9 -6.7
v -0.6 4 -6.3
v -0.6 4 -6.4
v -0.6 4 -6.6
v -0.6 4 -6.7
v -0.6 4.1 -6.3
v -0.6 4.1 -6.7
v -0.5 3.7 -6.2
v -0.5 3.7 -6.3
v -0.5 3.7 -6.7
v -0.5 3.7 -6.8
v -0.5 3.8 -6.2
v -0.5 3.8 -6.3
v -0.5 3.8 -6.7
v -0.5 3.8 -6.8
v -0.5 3.9 -6.3
v -0.5 3.9 -6.7
v -0.5 4 -6.2
v -0.5 4 -6.3
v -0.5 4 -6.7
v -0.5 4 -6.8
v -0.5 4.1 -6.2
v -0.5 4.1 -6.3
v -0.5 4.1 -6.7
v -0.5 4.1 -6.8
v -0.5 4.2 -6.3
v -0.5 4.2 -6.7
v -0.5 4.3 -6.3
v -0.5 4.3 -6.7
v -0.4 4.1 -6.2
v -0.4 4.1 -6.3
v -0.4 4.1 -6.7
v -0.4 4.1 -6.8
v -0.4 4.2 -6.2
v -0.4 4.2 -6.3
v -0.4 4.2 -6.7
v -0.4 4.2 -6.8
v -0.2 3.5 -6.4
v -0.2 3.5 -6.6
v -0.2 3.6 -6.3
v -0.2 3.6 -6.4
v -0.2 3.6 -6.6
v -0.2 3.6 -6.7
v -0.2 3.7 -6.2
v -0.2 3.7 -6.3
v -0.2 3.7 -6.4
v -0.2 3.7 -6.6
v -0.2 3.7 -6.7
v -0.2 3.7 -6.8
v -0.2 3.8 -6.2
v -0.2 3.8 -6.3
v -0.2 3.8 -6.7
v -0.2 3.8 -6.8
v -0.2 4.1 -6.2
v -0.2 4.1 -6.3
v -0.2 4.1 -6.7
v -0.2 4.1 -6.8
v -0.2 4.2 -6.2
v -0.2 4.2 -6.3
v -0.2 4.2 -6.7
v -0.2 4.2 -6.8
v -0.2 4.3 -6.3
v -0.2 4.3 -6.7
v -0.1 3.6 -6.4
v -0.1 3.6 -6.6
v -0.1 3.7 -6.3
v -0.1 3.7 -6.4
v -0.1 3.7 -6.6
v -0.1 3.7 -6.7
v -0.1 3.8 -6.2
v -0.1 3.8 -6.3
v -0.1 3.8 -6.7
v -0.1 3.8 -6.8
v -0.1 4 -6.4
v -0.1 4 -6.6
v -0.1 4.1 -6.2
v -0.1 4.1 -6.3
v -0.1 4.1 -6.7
v -0.1 4.1 -6.8
v -0.1 4.2 -6.3
v -0.1 4.2 -6.7
v -5.96046e-08 3.7 -6.4
v -5.96046e-08 3.7 -6.6
v -5.96046e-08 4 -6.4
v -5.96046e-08 4 -6.6
v -0.5 3.7 -6.2
v -0.5 3.8 -6.2
v -0.5 4 -6.2
v -0.5 4.1 -6.2
v -0.4 3.7 -6.2
v -0.4 3.8 -6.2
v -0.4 4 -6.2
v -0.4 4.1 -6.2
v -0.4 4.2 -6.2
v -0.3 3.9 -6.2
v -0.3 4.1 -6.2
v -0.2 3.7 -6.2
v -0.2 3.8 -6.2
v -0.2 3.9 -6.2
v -0.2 4.1 -6.2
v -0.2 4.2 -6.2
v -0.1 3.8 -6.2
v -0.1 4.1 -6.2
v -0.6 3.6 -6.3
v -0.6 3.7 -6.3
v -0.6 3.9 -6.3
v -0.6 4 -6.3
v -0.6 4.1 -6.3
v -0.5 3.7 -6.3
v -0.5 3.8 -6.3
v -0.5 3.9 -6.3
v -0.5 4 -6.3
v -0.5 4.1 -6.3
v -0.5 4.2 -6.3
v -0.5 4.3 -6.3
v -0.4 3.6 -6.3
v -0.4 3.7 -6.3
v -0.4 4.1 -6.3
v -0.4 4.2 -6.3
v -0.2 3.6 -6.3
v -0.2 3.7 -6.3
v -0.2 3.8 -6.3
v -0.2 4.1 -6.3
v -0.2 4.2 -6.3
v -0.2 4.3 -6.3
v -0.1 3.7 -6.3
v -0.1 3.8 -6.3
v -0.1 4.1 -6.3
v -0.1 4.2 -6.3
v -0.6 3.5 -6.4
v -0.6 3.6 -6.4
v -0.4 3.5 -6.4
v -0.4 3.6 -6.4
v -0.2 3.5 -6.4
v -0.2 3.6 -6.4
v -0.2 3.7 -6.4
v -0.1 3.6 -6.4
v -0.1 3.7 -6.4
v -0.1 4 -6.4
v -5.96046e-08 3.7 -6.4
v -5.96046e-08 4 -6.4
v -0.6 3.5 -6.6
v -0.6 3.6 -6.6
v -0.4 3.5 -6.6
v -0.4 3.6 -6.6
v -0.2 3.5 -6.6
v -0.2 3.6 -6.6
v -0.2 3.7 -6.6
v -0.1 3.6 -6.6
v -0.1 3.7 -6.6
v -0.1 4 -6.6
v -5.96046e-08 3.7 -6.6
v -5.96046e-08 4 -6.6
v -0.6 3.6 -6.7
v -0.6 3.7 -6.7
v -0.6 3.9 -6.7
v -0.6 4 -6.7
v -0.6 4.1 -6.7
v -0.5 3.7 -6.7
v -0.5 3.8 -6.7
v -0.5 3.9 -6.7
v -0.5 4 -6.7
v -0.5 4.1 -6.7
v -0.5 4.2 -6.7
v -0.5 4.3 -6.7
v -0.4 3.6 -6.7
v -0.4 3.7 -6.7
v -0.4 4.1 -6.7
v -0.4 4.2 -6.7
v -0.2 3.6 -6.7
v -0.2 3.7 -6.7
v -0.2 3.8 -6.7
v -0.2 4.1 -6.7
v -0.2 4.2 -6.7
v -0.2 4.3 -6.7
v -0.1 3.7 -6.7
v -0.1 3.8 -6.7
v -0.1 4.1 -6.7
v -0.1 4.2 -6.7
v -0.5 3.7 -6.8
v -0.5 3.8 -6.8
v -0.5 4 -6.8
v -0.5 4.1 -6.8
v -0.4 3.7 -6.8
v -0.4 3.8 -6.8
v -0.4 4 -6.8
v -0.4 4.1 -6.8
v -0.4 4.2 -6.8
v -0.3 3.9 -6.8
v -0.3 4.1 -6.8
v -0.2 3.7 -6.8
v -0.2 3.8 -6.8
v -0.2 3.9 -6.8
v -0.2 4.1 -6.8
v -0.2 4.2 -6.8
v -0.1 3.8 -6.8
v -0.1 4.1 -6.8
v -0.6 3.5 -6.4
v -0.4 3.5 -6.4
v -0.2 3.5 -6.4
v -0.6 3.5 -6.6
v -0.4 3.5 -6.6
v -0.2 3.5 -6.6
v -0.6 3.6 -6.3
v -0.4 3.6 -6.3
v -0.2 3.6 -6.3
v -0.6 3.6 -6.4
v -0.4 3.6 -6.4
v -0.2 3.6 -6.4
v -0.1 3.6 -6.4
v -0.6 3.6 -6.6
v -0.4 3.6 -6.6
v -0.2 3.6 -6.6
v -0.1 3.6 -6.6
v -0.6 3.6 -6.7
v -0.4 3.6 -6.7
v -0.2 3.6 -6.7
v -0.5 3.7 -6.2
v -0.4 3.7 -6.2
v -0.2 3.7 -6.2
v -0.5 3.7 -6.3
v -0.4 3.7 -6.3
v -0.2 3.7 -6.3
v -0.1 3.7 -6.3
v -0.2 3.7 -6.4
v -0.1 3.7 -6.4
v -5.96046e-08 3.7 -6.4
v -0.2 3.7 -6.6
v -0.1 3.7 -6.6
v -5.96046e-08 3.7 -6.6
v -0.5 3.7 -6.7
v -0.4 3.7 -6.7
v -0.2 3.7 -6.7
v -0.1 3.7 -6.7
v -0.5 3.7 -6.8
v -0.4 3.7 -6.8
v -0.2 3.7 -6.8
v -0.2 3.8 -6.2
v -0.1 3.8 -6.2
v -0.2 3.8 -6.3
v -0.1 3.8 -6.3
v -0.2 3.8 -6.7
v -0.1 3.8 -6.7
v -0.2 3.8 -6.8
v -0.1 3.8 -6.8
v -0.1 4 -6.4
v -5.96046e-08 4 -6.4
v -0.1 4 -6.6
v -5.96046e-08 4 -6.6
v -0.5 4.1 -6.2
v -0.4 4.1 -6.2
v -0.2 4.1 -6.2
v -0.1 4.1 -6.2
v -0.6 4.1 -6.3
v -0.5 4.1 -6.3
v -0.4 4.1 -6.3
v -0.2 4.1 -6.3
v -0.1 4.1 -6.3
v -0.6 4.1 -6.7
v -0.5 4.1 -6.7
v -0.4 4.1 -6.7
v -0.2 4.1 -6.7
v -0.1 4.1 -6.7
v -0.5 4.1 -6.8
v -0.4 4.1 -6.8
v -0.2 4.1 -6.8
v -0.1 4.1 -6.8
v -0.4 4.2 -6.2
v -0.2 4.2 -6.2
v -0.4 4.2 -6.3
v -0.2 4.2 -6.3
v -0.1 4.2 -6.3
v -0.4 4.2 -6.7
v -0.2 4.2 -6.7
v -0.1 4.2 -6.7
v -0.4 4.2 -6.8
v -0.2 4.2 -6.8
v -0.5 4.3 -6.3
v -0.2 4.3 -6.3
v -0.5 4.3 -6.7
v -0.2 4.3 -6.7

# faces
f 4/4/1 2/4/1 1/4/1
f 5/4/1 2/4/1 4/4/1
f 7/4/1 4/4/1 3/4/1
f 7/4/1 6/4/1 5/4/1
f 7/4/1 5/4/1 4/4/1
f 8/4/1 6/4/1 7/4/1
f 9/4/1 6/4/1 8/4/1
f 10/4/1 6/4/1 9/4/1
f 11/1/1 8/1/1 7/1/1
f 11/2/1 9/2/1 8/2/1
f 12/1/1 10/1/1 9/1/1
f 12/2/1 9/2/1 11/2/1
f 13/1/1 11/1/1 7/1/1
f 13/1/1 12/1/1 11/1/1
f 14/1/1 12/1/1 13/1/1
f 15/1/1 10/1/1 12/1/1
f 15/1/1 12/1/1 14/1/1
f 16/1/1 10/1/1 15/1/1
f 17/3/1 14/3/1 13/3/1
f 18/1/1 15/1/1 14/1/1
f 18/3/1 14/3/1 17/3/1
f 19/3/1 16/3/1 15/3/1
f 19/1/1 15/1/1 18/1/1
f 20/3/1 16/3/1 19/3/1
f 21/4/1 18/4/1 17/4/1
f 21/4/1 19/4/1 18/4/1
f 21/4/1 20/4/1 19/4/1
f 22/4/1 20/4/1 21/4/1
f 27/4/1 24/4/1 23/4/1
f 28/4/1 24/4/1 27/4/1
f 29/4/1 26/4/1 25/4/1
f 30/4/1 26/4/1 29/4/1
f 31/1/1 28/1/1 27/1/1
f 32/1/1 30/1/1 29/1/1
f 33/1/1 31/1/1 27/1/1
f 34/1/1 31/1/1 33/1/1
f 35/1/1 30/1/1 32/1/1
f 36/1/1 30/1/1 35/1/1
f 37/4/1 34/4/1 33/4/1
f 38/4/1 34/4/1 37/4/1
f 39/4/1 36/4/1 35/4/1
f 40/4/1 36/4/1 39/4/1
f 41/1/1 39/1/1 38/1/1
f 42/1/1 39/1/1 41/1/1
f 43/4/1 42/4/1 41/4/1
f 44/4/1 42/4/1 43/4/1
f 49/4/1 46/4/1 45/4/1
f 50/4/1 46/4/1 49/4/1
f 51/4/1 48/4/1 47/4/1
f 52/4/1 48/4/1 51/4/1
f 53/1/2 54/1/2 56/1/2
f 56/1/2 54/1/2 57/1/2
f 55/1/2 56/1/2 60/1/2
f 60/1/2 56/1/2 61/1/2
f 57/1/2 58/1/2 62/1/2
f 62/1/2 58/1/2 63/1/2
f 59/1/2 60/1/2 65/1/2
f 65/1/2 60/1/2 66/1/2
f 63/1/2 64/1/2 67/1/2
f 67/1/2 64/1/2 68/1/2
f 69/4/2 70/4/2 73/4/2
f 73/4/2 70/4/2 74/4/2
f 71/4/2 72/4/2 75/4/2
f 75/4/2 72/4/2 76/4/2
f 74/4/2 75/4/2 77/4/2
f 77/4/2 75/4/2 78/4/2
f 79/1/2 80/1/2 82/1/2
f 82/1/2 80/1/2 83/1/2
f 81/4/2 82/4/2 86/4/2
f 83/4/2 84/4/2 87/4/2
f 85/4/2 86/4/2 89/4/2
f 86/4/2 82/4/2 89/4/2
f 87/4/2 88/4/2 90/4/2
f 83/4/2 87/4/2 90/4/2
f 85/4/2 89/4/2 91/4/2
f 89/4/2 90/4/2 91/4/2
f 91/4/2 90/4/2 92/4/2
f 90/4/2 88/4/2 93/4/2
f 92/4/2 90/4/2 93/4/2
f 93/4/2 88/4/2 94/4/2
f 92/4/2 93/4/2 95/4/2
f 95/4/2 93/4/2 96/4/2
f 97/4/2 98/4/2 99/4/2
f 99/4/2 98/4/2 100/4/2
f 105/4/3 102/4/3 101/4/3
f 106/1/3 103/1/3 102/1/3
f 106/4/3 102/4/3 105/4/3
f 107/4/3 104/4/3 103/4/3
f 107/1/3 103/1/3 106/1/3
f 108/4/3 104/4/3 107/4/3
f 110/1/3 106/1/3 105/1/3
f 110/1/3 107/1/3 106/1/3
f 110/1/3 108/1/3 107/1/3
f 111/4/3 109/4/3 108/4/3
f 111/1/3 108/1/3 110/1/3
f 112/1/3 110/1/3 105/1/3
f 113/1/3 110/1/3 112/1/3
f 114/4/3 111/4/3 110/4/3
f 114/1/3 110/1/3 113/1/3
f 115/4/3 109/4/3 111/4/3
f 115/4/3 111/4/3 114/4/3
f 116/4/3 109/4/3 115/4/3
f 117/4/3 114/4/3 113/4/3
f 117/4/3 115/4/3 114/4/3
f 118/4/3 115/4/3 117/4/3
f 124/4/3 120/4/3 119/4/3
f 124/1/3 121/1/3 120/1/3
f 125/1/3 121/1/3 124/1/3
f 126/3/3 122/3/3 121/3/3
f 126/1/3 121/1/3 125/1/3
f 127/4/3 123/4/3 122/4/3
f 127/3/3 122/3/3 126/3/3
f 128/4/3 123/4/3 127/4/3
f 131/4/3 124/4/3 119/4/3
f 132/4/3 124/4/3 131/4/3
f 133/1/3 129/1/3 128/1/3
f 134/4/3 130/4/3 129/4/3
f 134/1/3 129/1/3 133/1/3
f 135/1/3 132/1/3 131/1/3
f 136/1/3 132/1/3 135/1/3
f 139/4/3 130/4/3 134/4/3
f 140/4/3 130/4/3 139/4/3
f 141/4/3 137/4/3 136/4/3
f 142/4/3 137/4/3 141/4/3
f 143/4/3 139/4/3 138/4/3
f 144/4/3 139/4/3 143/4/3
f 147/4/3 146/4/3 145/4/3
f 148/4/3 146/4/3 147/4/3
f 149/1/3 148/1/3 147/1/3
f 150/1/3 148/1/3 149/1/3
f 152/1/3 151/1/3 150/1/3
f 153/1/3 151/1/3 152/1/3
f 155/4/3 154/4/3 153/4/3
f 156/4/3 154/4/3 155/4/3
f 157/4/4 158/4/4 159/4/4
f 159/4/4 158/4/4 160/4/4
f 159/1/4 160/1/4 161/1/4
f 161/1/4 160/1/4 162/1/4
f 162/1/4 163/1/4 164/1/4
f 164/1/4 163/1/4 165/1/4
f 165/4/4 166/4/4 167/4/4
f 167/4/4 166/4/4 168/4/4
f 169/4/4 170/4/4 174/4/4
f 170/1/4 171/1/4 174/1/4
f 174/1/4 171/1/4 175/1/4
f 171/3/4 172/3/4 176/3/4
f 175/1/4 171/1/4 176/1/4
f 172/4/4 173/4/4 177/4/4
f 176/3/4 172/3/4 177/3/4
f 177/4/4 173/4/4 178/4/4
f 169/4/4 174/4/4 181/4/4
f 181/4/4 174/4/4 182/4/4
f 178/1/4 179/1/4 183/1/4
f 179/4/4 180/4/4 184/4/4
f 183/1/4 179/1/4 184/1/4
f 181/1/4 182/1/4 185/1/4
f 185/1/4 182/1/4 186/1/4
f 184/4/4 180/4/4 189/4/4
f 189/4/4 180/4/4 190/4/4
f 186/4/4 187/4/4 191/4/4
f 191/4/4 187/4/4 192/4/4
f 188/4/4 189/4/4 193/4/4
f 193/4/4 189/4/4 194/4/4
f 195/4/4 196/4/4 199/4/4
f 196/1/4 197/1/4 200/1/4
f 199/4/4 196/4/4 200/4/4
f 197/4/4 198/4/4 201/4/4
f 200/1/4 197/1/4 201/1/4
f 201/4/4 198/4/4 202/4/4
f 199/1/4 200/1/4 204/1/4
f 200/1/4 201/1/4 204/1/4
f 201/1/4 202/1/4 204/1/4
f 202/4/4 203/4/4 205/4/4
f 204/1/4 202/1/4 205/1/4
f 199/1/4 204/1/4 206/1/4
f 206/1/4 204/1/4 207/1/4
f 204/4/4 205/4/4 208/4/4
f 207/1/4 204/1/4 208/1/4
f 205/4/4 203/4/4 209/4/4
f 208/4/4 205/4/4 209/4/4
f 209/4/4 203/4/4 210/4/4
f 207/4/4 208/4/4 211/4/4
f 208/4/4 209/4/4 211/4/4
f 211/4/4 209/4/4 212/4/4
f 216/4/5 214/4/5 213/4/5
f 217/1/5 215/1/5 214/1/5
f 217/4/5 214/4/5 216/4/5
f 218/1/5 215/1/5 217/1/5
f 222/4/5 220/4/5 219/4/5
f 223/1/5 221/1/5 220/1/5
f 223/4/5 220/4/5 222/4/5
f 224/1/5 221/1/5 223/1/5
f 228/1/5 225/1/5 224/1/5
f 229/1/5 225/1/5 228/1/5
f 230/4/5 227/4/5 226/4/5
f 231/1/5 228/1/5 227/1/5
f 231/4/5 227/4/5 230/4/5
f 232/1/5 228/1/5 231/1/5
f 236/4/5 234/4/5 233/4/5
f 237/1/5 235/1/5 234/1/5
f 237/4/5 234/4/5 236/4/5
f 238/1/5 235/1/5 237/1/5
f 240/4/5 239/4/5 238/4/5
f 241/4/5 239/4/5 240/4/5
f 244/4/5 242/4/5 241/4/5
f 245/4/5 242/4/5 244/4/5
f 248/4/5 244/4/5 243/4/5
f 249/4/5 244/4/5 248/4/5
f 250/4/5 247/4/5 246/4/5
f 251/1/5 248/1/5 247/1/5
f 251/4/5 247/4/5 250/4/5
f 252/1/5 248/1/5 251/1/5
f 255/4/5 254/4/5 253/4/5
f 256/4/5 254/4/5 255/4/5
f 259/4/5 258/4/5 257/4/5
f 260/4/5 258/4/5 259/4/5
f 261/4/6 262/4/6 263/4/6
f 263/4/6 262/4/6 264/4/6
f 265/4/6 266/4/6 270/4/6
f 270/4/6 266/4/6 271/4/6
f 267/4/6 268/4/6 272/4/6
f 272/4/6 268/4/6 273/4/6
f 269/4/6 270/4/6 274/4/6
f 274/4/6 270/4/6 275/4/6
f 275/4/6 276/4/6 279/4/6
f 279/4/6 276/4/6 280/4/6
f 277/4/6 278/4/6 281/4/6
f 281/4/6 278/4/6 282/4/6
f 283/4/6 284/4/6 285/4/6
f 285/4/6 284/4/6 286/4/6
f 286/4/6 287/4/6 289/4/6
f 289/4/6 287/4/6 290/4/6
f 288/4/6 289/4/6 291/4/6
f 291/4/6 289/4/6 292/4/6
f 293/4/6 294/4/6 295/4/6
f 295/4/6 294/4/6 296/4/6
