# MagicaVoxel @ Ephtracy

# group
o forearmL

# material
mtllib Hunters-6-forearmL.mtl
usemtl palette

# normals
vn -1 0 0
vn 1 0 0
vn 0 0 1
vn 0 0 -1
vn 0 -1 0
vn 0 1 0

# texcoords
vt 0.908203 0.5
vt 0.912109 0.5
vt 0.990234 0.5

# verts
v -0.4 1.6 0.6
v -0.4 1.6 0.4
v -0.4 2 0.6
v -0.4 2 0.4
v -0.4 2.4 0.6
v -0.4 2.4 0.5
v -0.4 2.5 0.6
v -0.4 2.5 0.5
v -0.4 2.6 0.6
v -0.4 2.6 0.4
v -0.2 1.6 0.6
v -0.2 1.6 0.4
v -0.2 2 0.6
v -0.2 2 0.4
v -0.2 2.1 0.6
v -0.2 2.1 0.5
v -0.2 2.2 0.6
v -0.2 2.2 0.5
v -0.2 2.4 0.5
v -0.2 2.4 0.4
v -0.2 2.5 0.5
v -0.2 2.5 0.4
v -0.2 2.6 0.6
v -0.2 2.6 0.4
v -0.4 1.6 0.6
v -0.4 2 0.6
v -0.4 2.4 0.6
v -0.4 2.5 0.6
v -0.4 2.6 0.6
v -0.3 2.1 0.6
v -0.3 2.2 0.6
v -0.3 2.4 0.6
v -0.3 2.5 0.6
v -0.2 1.6 0.6
v -0.2 2 0.6
v -0.2 2.1 0.6
v -0.2 2.2 0.6
v -0.2 2.6 0.6
v -0.4 1.6 0.4
v -0.4 2 0.4
v -0.4 2.6 0.4
v -0.3 2.4 0.4
v -0.3 2.5 0.4
v -0.2 1.6 0.4
v -0.2 2 0.4
v -0.2 2.4 0.4
v -0.2 2.5 0.4
v -0.2 2.6 0.4
v -0.4 1.6 0.6
v -0.2 1.6 0.6
v -0.4 1.6 0.4
v -0.2 1.6 0.4
v -0.4 2.6 0.6
v -0.2 2.6 0.6
v -0.4 2.6 0.4
v -0.2 2.6 0.4

# faces
f 3/3/1 2/3/1 1/3/1
f 4/3/1 2/3/1 3/3/1
f 5/2/1 4/2/1 3/2/1
f 6/2/1 4/2/1 5/2/1
f 7/1/1 6/1/1 5/1/1
f 8/2/1 4/2/1 6/2/1
f 8/1/1 6/1/1 7/1/1
f 9/2/1 8/2/1 7/2/1
f 10/2/1 4/2/1 8/2/1
f 10/2/1 8/2/1 9/2/1
f 11/3/2 12/3/2 13/3/2
f 13/3/2 12/3/2 14/3/2
f 13/2/2 14/2/2 15/2/2
f 15/2/2 14/2/2 16/2/2
f 15/1/2 16/1/2 17/1/2
f 16/2/2 14/2/2 18/2/2
f 17/1/2 16/1/2 18/1/2
f 17/2/2 18/2/2 19/2/2
f 18/2/2 14/2/2 19/2/2
f 19/2/2 14/2/2 20/2/2
f 17/2/2 19/2/2 21/2/2
f 19/1/2 20/1/2 21/1/2
f 21/1/2 20/1/2 22/1/2
f 17/2/2 21/2/2 23/2/2
f 21/2/2 22/2/2 23/2/2
f 23/2/2 22/2/2 24/2/2
f 30/2/3 27/2/3 26/2/3
f 31/2/3 27/2/3 30/2/3
f 32/1/3 28/1/3 27/1/3
f 32/2/3 27/2/3 31/2/3
f 33/2/3 29/2/3 28/2/3
f 33/1/3 28/1/3 32/1/3
f 34/3/3 26/3/3 25/3/3
f 35/2/3 30/2/3 26/2/3
f 35/3/3 26/3/3 34/3/3
f 36/1/3 31/1/3 30/1/3
f 36/2/3 30/2/3 35/2/3
f 37/2/3 32/2/3 31/2/3
f 37/1/3 31/1/3 36/1/3
f 37/2/3 33/2/3 32/2/3
f 38/2/3 29/2/3 33/2/3
f 38/2/3 33/2/3 37/2/3
f 40/2/4 41/2/4 42/2/4
f 42/2/4 41/2/4 43/2/4
f 39/3/4 40/3/4 44/3/4
f 40/2/4 42/2/4 45/2/4
f 44/3/4 40/3/4 45/3/4
f 42/1/4 43/1/4 46/1/4
f 45/2/4 42/2/4 46/2/4
f 43/2/4 41/2/4 47/2/4
f 46/1/4 43/1/4 47/1/4
f 47/2/4 41/2/4 48/2/4
f 51/3/5 50/3/5 49/3/5
f 52/3/5 50/3/5 51/3/5
f 53/2/6 54/2/6 55/2/6
f 55/2/6 54/2/6 56/2/6
