# MagicaVoxel @ Ephtracy

# group
o shinL

# material
mtllib Hunters-14-shinL.mtl
usemtl palette

# normals
vn -1 0 0
vn 1 0 0
vn 0 0 1
vn 0 0 -1
vn 0 -1 0
vn 0 1 0

# texcoords
vt 0.341797 0.5
vt 0.369141 0.5
vt 0.373047 0.5
vt 0.990234 0.5

# verts
v -0.5 0 -6.2
v -0.5 0 -6.4
v -0.5 0.1 -6.2
v -0.5 0.1 -6.4
v -0.4 0.1 -6.2
v -0.4 0.1 -6.4
v -0.4 0.4 -6.2
v -0.4 0.4 -6.4
v -0.4 0.6 -6.2
v -0.4 0.6 -6.3
v -0.4 0.7 -6.2
v -0.4 0.7 -6.3
v -0.4 0.9 -6.2
v -0.4 0.9 -6.3
v -0.4 1 -6.2
v -0.4 1 -6.3
v -0.4 1.1 -6.2
v -0.4 1.1 -6.4
v -0.2 0 -6.2
v -0.2 0 -6.4
v -0.2 0.4 -6.2
v -0.2 0.4 -6.4
v -0.2 0.5 -6.2
v -0.2 0.5 -6.3
v -0.2 0.6 -6.2
v -0.2 0.6 -6.3
v -0.2 0.7 -6.3
v -0.2 0.7 -6.4
v -0.2 0.8 -6.3
v -0.2 0.8 -6.4
v -0.2 0.9 -6.2
v -0.2 0.9 -6.3
v -0.2 1 -6.2
v -0.2 1 -6.3
v -0.2 1.1 -6.2
v -0.2 1.1 -6.4
v -0.5 0 -6.2
v -0.5 0.1 -6.2
v -0.4 0.1 -6.2
v -0.4 0.4 -6.2
v -0.4 0.6 -6.2
v -0.4 0.7 -6.2
v -0.4 0.9 -6.2
v -0.4 1 -6.2
v -0.4 1.1 -6.2
v -0.3 0.5 -6.2
v -0.3 0.6 -6.2
v -0.3 0.7 -6.2
v -0.3 0.9 -6.2
v -0.3 1 -6.2
v -0.2 0 -6.2
v -0.2 0.4 -6.2
v -0.2 0.5 -6.2
v -0.2 0.6 -6.2
v -0.2 0.9 -6.2
v -0.2 1 -6.2
v -0.2 1.1 -6.2
v -0.5 0 -6.4
v -0.5 0.1 -6.4
v -0.4 0.1 -6.4
v -0.4 0.4 -6.4
v -0.4 1.1 -6.4
v -0.3 0.7 -6.4
v -0.3 0.8 -6.4
v -0.2 0 -6.4
v -0.2 0.4 -6.4
v -0.2 0.7 -6.4
v -0.2 0.8 -6.4
v -0.2 1.1 -6.4
v -0.5 0 -6.2
v -0.2 0 -6.2
v -0.5 0 -6.4
v -0.2 0 -6.4
v -0.5 0.1 -6.2
v -0.4 0.1 -6.2
v -0.5 0.1 -6.4
v -0.4 0.1 -6.4
v -0.4 1.1 -6.2
v -0.2 1.1 -6.2
v -0.4 1.1 -6.4
v -0.2 1.1 -6.4

# faces
f 3/4/1 2/4/1 1/4/1
f 4/4/1 2/4/1 3/4/1
f 7/4/1 6/4/1 5/4/1
f 8/4/1 6/4/1 7/4/1
f 9/2/1 8/2/1 7/2/1
f 10/2/1 8/2/1 9/2/1
f 11/3/1 10/3/1 9/3/1
f 12/2/1 8/2/1 10/2/1
f 12/3/1 10/3/1 11/3/1
f 13/2/1 12/2/1 11/2/1
f 14/2/1 8/2/1 12/2/1
f 14/2/1 12/2/1 13/2/1
f 15/1/1 14/1/1 13/1/1
f 16/2/1 8/2/1 14/2/1
f 16/1/1 14/1/1 15/1/1
f 17/2/1 16/2/1 15/2/1
f 18/2/1 8/2/1 16/2/1
f 18/2/1 16/2/1 17/2/1
f 19/4/2 20/4/2 21/4/2
f 21/4/2 20/4/2 22/4/2
f 21/2/2 22/2/2 23/2/2
f 23/2/2 22/2/2 24/2/2
f 23/3/2 24/3/2 25/3/2
f 24/2/2 22/2/2 26/2/2
f 25/3/2 24/3/2 26/3/2
f 25/2/2 26/2/2 27/2/2
f 26/2/2 22/2/2 27/2/2
f 27/2/2 22/2/2 28/2/2
f 25/2/2 27/2/2 29/2/2
f 27/1/2 28/1/2 29/1/2
f 29/1/2 28/1/2 30/1/2
f 25/2/2 29/2/2 31/2/2
f 29/2/2 30/2/2 31/2/2
f 31/2/2 30/2/2 32/2/2
f 31/3/2 32/3/2 33/3/2
f 32/2/2 30/2/2 34/2/2
f 33/3/2 32/3/2 34/3/2
f 33/2/2 34/2/2 35/2/2
f 34/2/2 30/2/2 36/2/2
f 35/2/2 34/2/2 36/2/2
f 39/4/3 38/4/3 37/4/3
f 46/2/3 41/2/3 40/2/3
f 47/3/3 42/3/3 41/3/3
f 47/2/3 41/2/3 46/2/3
f 48/2/3 43/2/3 42/2/3
f 48/3/3 42/3/3 47/3/3
f 49/1/3 44/1/3 43/1/3
f 49/2/3 43/2/3 48/2/3
f 50/2/3 45/2/3 44/2/3
f 50/1/3 44/1/3 49/1/3
f 51/4/3 39/4/3 37/4/3
f 51/4/3 40/4/3 39/4/3
f 52/2/3 46/2/3 40/2/3
f 52/4/3 40/4/3 51/4/3
f 53/3/3 47/3/3 46/3/3
f 53/2/3 46/2/3 52/2/3
f 54/2/3 49/2/3 48/2/3
f 54/3/3 47/3/3 53/3/3
f 54/2/3 48/2/3 47/2/3
f 55/3/3 50/3/3 49/3/3
f 55/2/3 49/2/3 54/2/3
f 56/2/3 45/2/3 50/2/3
f 56/3/3 50/3/3 55/3/3
f 57/2/3 45/2/3 56/2/3
f 58/4/4 59/4/4 60/4/4
f 61/2/4 62/2/4 63/2/4
f 63/2/4 62/2/4 64/2/4
f 58/4/4 60/4/4 65/4/4
f 60/4/4 61/4/4 65/4/4
f 61/2/4 63/2/4 66/2/4
f 65/4/4 61/4/4 66/4/4
f 63/1/4 64/1/4 67/1/4
f 66/2/4 63/2/4 67/2/4
f 64/2/4 62/2/4 68/2/4
f 67/1/4 64/1/4 68/1/4
f 68/2/4 62/2/4 69/2/4
f 72/4/5 71/4/5 70/4/5
f 73/4/5 71/4/5 72/4/5
f 74/4/6 75/4/6 76/4/6
f 76/4/6 75/4/6 77/4/6
f 78/2/6 79/2/6 80/2/6
f 80/2/6 79/2/6 81/2/6
