# MagicaVoxel @ Ephtracy

# group
o upper_armR

# material
mtllib Hunters-7-upper_armR.mtl
usemtl palette

# normals
vn -1 0 0
vn 1 0 0
vn 0 0 1
vn 0 0 -1
vn 0 -1 0
vn 0 1 0

# texcoords
vt 0.908203 0.5
vt 0.912109 0.5

# verts
v -0.4 2.6 -0.4
v -0.4 2.6 -0.6
v -0.4 2.8 -0.5
v -0.4 2.8 -0.6
v -0.4 2.9 -0.5
v -0.4 2.9 -0.6
v -0.4 3.4 -0.4
v -0.4 3.4 -0.6
v -0.2 2.6 -0.4
v -0.2 2.6 -0.6
v -0.2 3.2 -0.5
v -0.2 3.2 -0.6
v -0.2 3.3 -0.5
v -0.2 3.3 -0.6
v -0.2 3.4 -0.4
v -0.2 3.4 -0.6
v -0.4 2.6 -0.4
v -0.4 3.4 -0.4
v -0.2 2.6 -0.4
v -0.2 3.4 -0.4
v -0.4 2.6 -0.6
v -0.4 2.8 -0.6
v -0.4 2.9 -0.6
v -0.4 3.4 -0.6
v -0.3 2.8 -0.6
v -0.3 2.9 -0.6
v -0.3 3.2 -0.6
v -0.3 3.3 -0.6
v -0.2 2.6 -0.6
v -0.2 3.2 -0.6
v -0.2 3.3 -0.6
v -0.2 3.4 -0.6
v -0.4 2.6 -0.4
v -0.2 2.6 -0.4
v -0.4 2.6 -0.6
v -0.2 2.6 -0.6
v -0.4 3.4 -0.4
v -0.2 3.4 -0.4
v -0.4 3.4 -0.6
v -0.2 3.4 -0.6

# faces
f 3/2/1 2/2/1 1/2/1
f 4/2/1 2/2/1 3/2/1
f 5/2/1 3/2/1 1/2/1
f 5/1/1 4/1/1 3/1/1
f 6/1/1 4/1/1 5/1/1
f 7/2/1 5/2/1 1/2/1
f 7/2/1 6/2/1 5/2/1
f 8/2/1 6/2/1 7/2/1
f 9/2/2 10/2/2 11/2/2
f 11/2/2 10/2/2 12/2/2
f 9/2/2 11/2/2 13/2/2
f 11/1/2 12/1/2 13/1/2
f 13/1/2 12/1/2 14/1/2
f 9/2/2 13/2/2 15/2/2
f 13/2/2 14/2/2 15/2/2
f 15/2/2 14/2/2 16/2/2
f 19/2/3 18/2/3 17/2/3
f 20/2/3 18/2/3 19/2/3
f 21/2/4 22/2/4 25/2/4
f 22/1/4 23/1/4 25/1/4
f 23/2/4 24/2/4 26/2/4
f 25/1/4 23/1/4 26/1/4
f 26/2/4 24/2/4 27/2/4
f 27/2/4 24/2/4 28/2/4
f 21/2/4 25/2/4 29/2/4
f 25/2/4 26/2/4 29/2/4
f 26/2/4 27/2/4 29/2/4
f 27/1/4 28/1/4 30/1/4
f 29/2/4 27/2/4 30/2/4
f 28/2/4 24/2/4 31/2/4
f 30/1/4 28/1/4 31/1/4
f 31/2/4 24/2/4 32/2/4
f 35/2/5 34/2/5 33/2/5
f 36/2/5 34/2/5 35/2/5
f 37/2/6 38/2/6 39/2/6
f 39/2/6 38/2/6 40/2/6
