# MagicaVoxel @ Ephtracy

# group
o weapon

# material
mtllib Hunters-1-weapon.mtl
usemtl palette

# normals
vn 0 0 -1
vn 0 0 1
vn 0 -1 0
vn 0 1 0
vn 1 0 0
vn -1 0 0

# texcoords
vt 0.673828 0.5
vt 0.873047 0.5
vt 0.990234 0.5
vt 0.994141 0.5

# verts
v -1 0 -1.4
v -1 0.3 -1.4
v -1.2 0 -1.4
v -1.2 0.3 -1.4
v -1 0.3 -1.3
v -1 0.4 -1.3
v -1.2 0.3 -1.3
v -1.2 0.4 -1.3
v -1 0.4 -0.7
v -1 0.5 -0.7
v -1.2 0.4 -0.7
v -1.2 0.5 -0.7
v -1 0 -1.3
v -1 0.1 -1.3
v -1.2 0 -1.3
v -1.2 0.1 -1.3
v -1 0.1 -0.9
v -1 0.2 -0.9
v -1.2 0.1 -0.9
v -1.2 0.2 -0.9
v -1 0.2 -0.7
v -1 0.3 -0.7
v -1.2 0.2 -0.7
v -1.2 0.3 -0.7
v -1 0.3 -0.2
v -1 0.4 -0.2
v -1.2 0.3 -0.2
v -1.2 0.4 -0.2
v -1 0.4 1.4
v -1 0.5 1.4
v -1.2 0.4 1.4
v -1.2 0.5 1.4
v -1 0 -1.4
v -1.2 0 -1.4
v -1 0 -1.3
v -1.2 0 -1.3
v -1 0.1 -1.3
v -1.2 0.1 -1.3
v -1 0.1 -0.9
v -1.2 0.1 -0.9
v -1 0.2 -0.9
v -1.2 0.2 -0.9
v -1 0.2 -0.8
v -1.2 0.2 -0.8
v -1 0.2 -0.7
v -1.2 0.2 -0.7
v -1 0.3 -0.7
v -1.2 0.3 -0.7
v -1 0.3 -0.2
v -1.2 0.3 -0.2
v -1 0.4 -0.2
v -1.2 0.4 -0.2
v -1 0.4 1.4
v -1.2 0.4 1.4
v -1 0.3 -1.4
v -1.2 0.3 -1.4
v -1 0.3 -1.3
v -1.2 0.3 -1.3
v -1 0.4 -1.3
v -1.2 0.4 -1.3
v -1 0.4 -0.7
v -1.2 0.4 -0.7
v -1 0.5 -0.7
v -1.2 0.5 -0.7
v -1 0.5 -0.5
v -1.2 0.5 -0.5
v -1 0.5 -0.2
v -1.2 0.5 -0.2
v -1 0.5 1.4
v -1.2 0.5 1.4
v -1 0 -1.4
v -1 0 -1.3
v -1 0.1 -1.3
v -1 0.1 -0.9
v -1 0.2 -0.9
v -1 0.2 -0.8
v -1 0.2 -0.7
v -1 0.3 -1.4
v -1 0.3 -1.3
v -1 0.3 -0.8
v -1 0.3 -0.7
v -1 0.3 -0.2
v -1 0.4 -1.3
v -1 0.4 -0.7
v -1 0.4 -0.5
v -1 0.4 -0.2
v -1 0.4 1.4
v -1 0.5 -0.7
v -1 0.5 -0.5
v -1 0.5 -0.2
v -1 0.5 1.4
v -1.2 0 -1.4
v -1.2 0 -1.3
v -1.2 0.1 -1.3
v -1.2 0.1 -0.9
v -1.2 0.2 -0.9
v -1.2 0.2 -0.8
v -1.2 0.2 -0.7
v -1.2 0.3 -1.4
v -1.2 0.3 -1.3
v -1.2 0.3 -0.8
v -1.2 0.3 -0.7
v -1.2 0.3 -0.2
v -1.2 0.4 -1.3
v -1.2 0.4 -0.7
v -1.2 0.4 -0.5
v -1.2 0.4 -0.2
v -1.2 0.4 1.4
v -1.2 0.5 -0.7
v -1.2 0.5 -0.5
v -1.2 0.5 -0.2
v -1.2 0.5 1.4

# faces
f 3/2/1 2/2/1 1/2/1
f 4/2/1 2/2/1 3/2/1
f 7/2/1 6/2/1 5/2/1
f 8/2/1 6/2/1 7/2/1
f 11/1/1 10/1/1 9/1/1
f 12/1/1 10/1/1 11/1/1
f 13/2/2 14/2/2 15/2/2
f 15/2/2 14/2/2 16/2/2
f 17/2/2 18/2/2 19/2/2
f 19/2/2 18/2/2 20/2/2
f 21/3/2 22/3/2 23/3/2
f 23/3/2 22/3/2 24/3/2
f 25/3/2 26/3/2 27/3/2
f 27/3/2 26/3/2 28/3/2
f 29/4/2 30/4/2 31/4/2
f 31/4/2 30/4/2 32/4/2
f 35/2/3 34/2/3 33/2/3
f 36/2/3 34/2/3 35/2/3
f 39/2/3 38/2/3 37/2/3
f 40/2/3 38/2/3 39/2/3
f 43/2/3 42/2/3 41/2/3
f 44/2/3 42/2/3 43/2/3
f 45/3/3 44/3/3 43/3/3
f 46/3/3 44/3/3 45/3/3
f 49/3/3 48/3/3 47/3/3
f 50/3/3 48/3/3 49/3/3
f 53/4/3 52/4/3 51/4/3
f 54/4/3 52/4/3 53/4/3
f 55/2/4 56/2/4 57/2/4
f 57/2/4 56/2/4 58/2/4
f 59/2/4 60/2/4 61/2/4
f 61/2/4 60/2/4 62/2/4
f 63/1/4 64/1/4 65/1/4
f 65/1/4 64/1/4 66/1/4
f 65/3/4 66/3/4 67/3/4
f 67/3/4 66/3/4 68/3/4
f 67/4/4 68/4/4 69/4/4
f 69/4/4 68/4/4 70/4/4
f 73/2/5 72/2/5 71/2/5
f 75/2/5 74/2/5 73/2/5
f 78/2/5 73/2/5 71/2/5
f 78/2/5 75/2/5 73/2/5
f 78/2/5 76/2/5 75/2/5
f 79/2/5 76/2/5 78/2/5
f 80/3/5 77/3/5 76/3/5
f 80/2/5 76/2/5 79/2/5
f 81/3/5 77/3/5 80/3/5
f 83/2/5 80/2/5 79/2/5
f 83/2/5 81/2/5 80/2/5
f 84/3/5 82/3/5 81/3/5
f 84/2/5 81/2/5 83/2/5
f 85/3/5 82/3/5 84/3/5
f 86/3/5 82/3/5 85/3/5
f 88/1/5 85/1/5 84/1/5
f 89/3/5 86/3/5 85/3/5
f 89/1/5 85/1/5 88/1/5
f 90/4/5 87/4/5 86/4/5
f 90/3/5 86/3/5 89/3/5
f 91/4/5 87/4/5 90/4/5
f 92/2/6 93/2/6 94/2/6
f 94/2/6 95/2/6 96/2/6
f 92/2/6 94/2/6 99/2/6
f 94/2/6 96/2/6 99/2/6
f 96/2/6 97/2/6 99/2/6
f 99/2/6 97/2/6 100/2/6
f 97/3/6 98/3/6 101/3/6
f 100/2/6 97/2/6 101/2/6
f 101/3/6 98/3/6 102/3/6
f 100/2/6 101/2/6 104/2/6
f 101/2/6 102/2/6 104/2/6
f 102/3/6 103/3/6 105/3/6
f 104/2/6 102/2/6 105/2/6
f 105/3/6 103/3/6 106/3/6
f 106/3/6 103/3/6 107/3/6
f 105/1/6 106/1/6 109/1/6
f 106/3/6 107/3/6 110/3/6
f 109/1/6 106/1/6 110/1/6
f 107/4/6 108/4/6 111/4/6
f 110/3/6 107/3/6 111/3/6
f 111/4/6 108/4/6 112/4/6
