# MagicaVoxel @ Ephtracy

# group
o head

# material
mtllib Hunters-0-head.mtl
usemtl palette

# normals
vn -1 0 0
vn 1 0 0
vn 0 0 1
vn 0 0 -1
vn 0 -1 0
vn 0 1 0

# texcoords
vt 0.0332031 0.5
vt 0.0605469 0.5
vt 0.873047 0.5
vt 0.982422 0.5

# verts
v -0.6 3.5 0.1
v -0.6 3.5 -0.1
v -0.6 3.6 0.2
v -0.6 3.6 0.1
v -0.6 3.6 -0.1
v -0.6 3.6 -0.2
v -0.6 3.7 0.2
v -0.6 3.7 0.1
v -0.6 3.7 -0.1
v -0.6 3.7 -0.2
v -0.6 3.8 0.1
v -0.6 3.8 -0.1
v -0.6 3.9 0.2
v -0.6 3.9 0.1
v -0.6 3.9 -0.1
v -0.6 3.9 -0.2
v -0.6 4 0.2
v -0.6 4 0.1
v -0.6 4 -0.1
v -0.6 4 -0.2
v -0.6 4.1 0.2
v -0.6 4.1 -0.2
v -0.5 3.7 0.3
v -0.5 3.7 0.2
v -0.5 3.7 -0.2
v -0.5 3.7 -0.3
v -0.5 3.8 0.3
v -0.5 3.8 0.2
v -0.5 3.8 -0.2
v -0.5 3.8 -0.3
v -0.5 3.9 0.2
v -0.5 3.9 -0.2
v -0.5 4 0.2
v -0.5 4 -0.2
v -0.5 4.1 0.3
v -0.5 4.1 0.2
v -0.5 4.1 -0.2
v -0.5 4.1 -0.3
v -0.5 4.2 0.2
v -0.5 4.2 -0.2
v -0.2 3.5 0.1
v -0.2 3.5 -0.1
v -0.2 3.6 0.2
v -0.2 3.6 0.1
v -0.2 3.6 -0.1
v -0.2 3.6 -0.2
v -0.2 3.7 0.3
v -0.2 3.7 0.2
v -0.2 3.7 -0.2
v -0.2 3.7 -0.3
v -0.2 3.8 0.2
v -0.2 3.8 0.1
v -0.2 3.8 -0.1
v -0.2 3.8 -0.2
v -0.2 4 0.2
v -0.2 4 0.1
v -0.2 4 -0.1
v -0.2 4 -0.2
v -0.2 4.1 0.3
v -0.2 4.1 0.2
v -0.2 4.1 0.1
v -0.2 4.1 -0.1
v -0.2 4.1 -0.2
v -0.2 4.1 -0.3
v -0.2 4.2 0.2
v -0.2 4.2 -0.2
v -0.1 3.6 0.1
v -0.1 3.6 -0.1
v -0.1 3.8 0.2
v -0.1 3.8 0.1
v -0.1 3.8 -0.1
v -0.1 3.8 -0.2
v -0.1 4 0.2
v -0.1 4 0.1
v -0.1 4 -0.1
v -0.1 4 -0.2
v -0.1 4.1 0.1
v -0.1 4.1 -0.1
v -0.5 3.7 0.3
v -0.5 3.8 0.3
v -0.5 4.1 0.3
v -0.4 3.7 0.3
v -0.4 3.8 0.3
v -0.2 3.7 0.3
v -0.2 4.1 0.3
v -0.6 3.6 0.2
v -0.6 3.7 0.2
v -0.6 3.9 0.2
v -0.6 4 0.2
v -0.6 4.1 0.2
v -0.5 3.7 0.2
v -0.5 3.8 0.2
v -0.5 3.9 0.2
v -0.5 4 0.2
v -0.5 4.1 0.2
v -0.5 4.2 0.2
v -0.4 3.6 0.2
v -0.4 3.7 0.2
v -0.2 3.6 0.2
v -0.2 3.7 0.2
v -0.2 3.8 0.2
v -0.2 4 0.2
v -0.2 4.1 0.2
v -0.2 4.2 0.2
v -0.1 3.8 0.2
v -0.1 4 0.2
v -0.6 3.5 0.1
v -0.6 3.6 0.1
v -0.4 3.5 0.1
v -0.4 3.6 0.1
v -0.2 3.5 0.1
v -0.2 3.6 0.1
v -0.2 3.8 0.1
v -0.2 4 0.1
v -0.2 4.1 0.1
v -0.1 3.6 0.1
v -0.1 3.8 0.1
v -0.1 4 0.1
v -0.1 4.1 0.1
v -0.6 3.5 -0.1
v -0.6 3.6 -0.1
v -0.4 3.5 -0.1
v -0.4 3.6 -0.1
v -0.2 3.5 -0.1
v -0.2 3.6 -0.1
v -0.2 3.8 -0.1
v -0.2 4 -0.1
v -0.2 4.1 -0.1
v -0.1 3.6 -0.1
v -0.1 3.8 -0.1
v -0.1 4 -0.1
v -0.1 4.1 -0.1
v -0.6 3.6 -0.2
v -0.6 3.7 -0.2
v -0.6 3.9 -0.2
v -0.6 4 -0.2
v -0.6 4.1 -0.2
v -0.5 3.7 -0.2
v -0.5 3.8 -0.2
v -0.5 3.9 -0.2
v -0.5 4 -0.2
v -0.5 4.1 -0.2
v -0.5 4.2 -0.2
v -0.4 3.6 -0.2
v -0.4 3.7 -0.2
v -0.2 3.6 -0.2
v -0.2 3.7 -0.2
v -0.2 3.8 -0.2
v -0.2 4 -0.2
v -0.2 4.1 -0.2
v -0.2 4.2 -0.2
v -0.1 3.8 -0.2
v -0.1 4 -0.2
v -0.5 3.7 -0.3
v -0.5 3.8 -0.3
v -0.5 4.1 -0.3
v -0.4 3.7 -0.3
v -0.4 3.8 -0.3
v -0.2 3.7 -0.3
v -0.2 4.1 -0.3
v -0.6 3.5 0.1
v -0.4 3.5 0.1
v -0.2 3.5 0.1
v -0.6 3.5 -0.1
v -0.4 3.5 -0.1
v -0.2 3.5 -0.1
v -0.6 3.6 0.2
v -0.4 3.6 0.2
v -0.2 3.6 0.2
v -0.6 3.6 0.1
v -0.4 3.6 0.1
v -0.2 3.6 0.1
v -0.1 3.6 0.1
v -0.6 3.6 -0.1
v -0.4 3.6 -0.1
v -0.2 3.6 -0.1
v -0.1 3.6 -0.1
v -0.6 3.6 -0.2
v -0.4 3.6 -0.2
v -0.2 3.6 -0.2
v -0.5 3.7 0.3
v -0.4 3.7 0.3
v -0.2 3.7 0.3
v -0.5 3.7 0.2
v -0.4 3.7 0.2
v -0.2 3.7 0.2
v -0.5 3.7 -0.2
v -0.4 3.7 -0.2
v -0.2 3.7 -0.2
v -0.5 3.7 -0.3
v -0.4 3.7 -0.3
v -0.2 3.7 -0.3
v -0.2 3.8 0.2
v -0.1 3.8 0.2
v -0.2 3.8 0.1
v -0.1 3.8 0.1
v -0.2 3.8 -0.1
v -0.1 3.8 -0.1
v -0.2 3.8 -0.2
v -0.1 3.8 -0.2
v -0.2 4 0.2
v -0.1 4 0.2
v -0.2 4 0.1
v -0.1 4 0.1
v -0.2 4 -0.1
v -0.1 4 -0.1
v -0.2 4 -0.2
v -0.1 4 -0.2
v -0.5 4.1 0.3
v -0.2 4.1 0.3
v -0.6 4.1 0.2
v -0.5 4.1 0.2
v -0.2 4.1 0.2
v -0.2 4.1 0.1
v -0.1 4.1 0.1
v -0.2 4.1 -0.1
v -0.1 4.1 -0.1
v -0.6 4.1 -0.2
v -0.5 4.1 -0.2
v -0.2 4.1 -0.2
v -0.5 4.1 -0.3
v -0.2 4.1 -0.3
v -0.5 4.2 0.2
v -0.2 4.2 0.2
v -0.5 4.2 -0.2
v -0.2 4.2 -0.2

# faces
f 4/4/1 2/4/1 1/4/1
f 5/4/1 2/4/1 4/4/1
f 7/4/1 4/4/1 3/4/1
f 7/4/1 6/4/1 5/4/1
f 7/4/1 5/4/1 4/4/1
f 8/4/1 6/4/1 7/4/1
f 9/4/1 6/4/1 8/4/1
f 10/4/1 6/4/1 9/4/1
f 11/1/1 8/1/1 7/1/1
f 11/2/1 9/2/1 8/2/1
f 12/1/1 10/1/1 9/1/1
f 12/2/1 9/2/1 11/2/1
f 13/1/1 11/1/1 7/1/1
f 13/1/1 12/1/1 11/1/1
f 14/1/1 12/1/1 13/1/1
f 15/1/1 10/1/1 12/1/1
f 15/1/1 12/1/1 14/1/1
f 16/1/1 10/1/1 15/1/1
f 17/3/1 14/3/1 13/3/1
f 18/1/1 15/1/1 14/1/1
f 18/3/1 14/3/1 17/3/1
f 19/3/1 16/3/1 15/3/1
f 19/1/1 15/1/1 18/1/1
f 20/3/1 16/3/1 19/3/1
f 21/4/1 18/4/1 17/4/1
f 21/4/1 19/4/1 18/4/1
f 21/4/1 20/4/1 19/4/1
f 22/4/1 20/4/1 21/4/1
f 27/4/1 24/4/1 23/4/1
f 28/4/1 24/4/1 27/4/1
f 29/4/1 26/4/1 25/4/1
f 30/4/1 26/4/1 29/4/1
f 31/1/1 28/1/1 27/1/1
f 32/1/1 30/1/1 29/1/1
f 33/1/1 31/1/1 27/1/1
f 34/1/1 30/1/1 32/1/1
f 35/1/1 33/1/1 27/1/1
f 36/1/1 33/1/1 35/1/1
f 37/1/1 30/1/1 34/1/1
f 38/1/1 30/1/1 37/1/1
f 39/1/1 37/1/1 36/1/1
f 40/1/1 37/1/1 39/1/1
f 41/1/2 42/1/2 44/1/2
f 44/1/2 42/1/2 45/1/2
f 43/1/2 44/1/2 48/1/2
f 45/1/2 46/1/2 49/1/2
f 47/1/2 48/1/2 51/1/2
f 48/1/2 44/1/2 51/1/2
f 51/1/2 44/1/2 52/1/2
f 49/1/2 50/1/2 53/1/2
f 45/1/2 49/1/2 53/1/2
f 53/1/2 50/1/2 54/1/2
f 47/1/2 51/1/2 55/1/2
f 54/1/2 50/1/2 58/1/2
f 55/1/2 56/1/2 59/1/2
f 47/1/2 55/1/2 59/1/2
f 59/1/2 56/1/2 60/1/2
f 60/1/2 56/1/2 61/1/2
f 57/1/2 58/1/2 62/1/2
f 58/1/2 50/1/2 63/1/2
f 62/1/2 58/1/2 63/1/2
f 63/1/2 50/1/2 64/1/2
f 60/1/2 61/1/2 65/1/2
f 61/1/2 62/1/2 65/1/2
f 62/1/2 63/1/2 65/1/2
f 65/1/2 63/1/2 66/1/2
f 67/1/2 68/1/2 70/1/2
f 70/1/2 68/1/2 71/1/2
f 69/1/2 70/1/2 73/1/2
f 71/1/2 72/1/2 73/1/2
f 70/1/2 71/1/2 73/1/2
f 73/1/2 72/1/2 74/1/2
f 74/1/2 72/1/2 75/1/2
f 75/1/2 72/1/2 76/1/2
f 74/1/2 75/1/2 77/1/2
f 77/1/2 75/1/2 78/1/2
f 82/4/3 80/4/3 79/4/3
f 83/1/3 81/1/3 80/1/3
f 83/4/3 80/4/3 82/4/3
f 84/1/3 83/1/3 82/1/3
f 85/1/3 81/1/3 83/1/3
f 85/1/3 83/1/3 84/1/3
f 91/4/3 87/4/3 86/4/3
f 91/1/3 88/1/3 87/1/3
f 92/1/3 88/1/3 91/1/3
f 93/3/3 89/3/3 88/3/3
f 93/1/3 88/1/3 92/1/3
f 94/4/3 90/4/3 89/4/3
f 94/3/3 89/3/3 93/3/3
f 95/4/3 90/4/3 94/4/3
f 97/4/3 91/4/3 86/4/3
f 98/4/3 91/4/3 97/4/3
f 99/1/3 98/1/3 97/1/3
f 100/1/3 98/1/3 99/1/3
f 103/1/3 96/1/3 95/1/3
f 104/1/3 96/1/3 103/1/3
f 105/1/3 102/1/3 101/1/3
f 106/1/3 102/1/3 105/1/3
f 109/4/3 108/4/3 107/4/3
f 110/4/3 108/4/3 109/4/3
f 111/1/3 110/1/3 109/1/3
f 112/1/3 110/1/3 111/1/3
f 116/1/3 113/1/3 112/1/3
f 117/1/3 113/1/3 116/1/3
f 118/1/3 115/1/3 114/1/3
f 119/1/3 115/1/3 118/1/3
f 120/4/4 121/4/4 122/4/4
f 122/4/4 121/4/4 123/4/4
f 122/1/4 123/1/4 124/1/4
f 124/1/4 123/1/4 125/1/4
f 125/1/4 126/1/4 129/1/4
f 129/1/4 126/1/4 130/1/4
f 127/1/4 128/1/4 131/1/4
f 131/1/4 128/1/4 132/1/4
f 133/4/4 134/4/4 138/4/4
f 134/1/4 135/1/4 138/1/4
f 138/1/4 135/1/4 139/1/4
f 135/3/4 136/3/4 140/3/4
f 139/1/4 135/1/4 140/1/4
f 136/4/4 137/4/4 141/4/4
f 140/3/4 136/3/4 141/3/4
f 141/4/4 137/4/4 142/4/4
f 133/4/4 138/4/4 144/4/4
f 144/4/4 138/4/4 145/4/4
f 144/1/4 145/1/4 146/1/4
f 146/1/4 145/1/4 147/1/4
f 142/1/4 143/1/4 150/1/4
f 150/1/4 143/1/4 151/1/4
f 148/1/4 149/1/4 152/1/4
f 152/1/4 149/1/4 153/1/4
f 154/4/4 155/4/4 157/4/4
f 155/1/4 156/1/4 158/1/4
f 157/4/4 155/4/4 158/4/4
f 157/1/4 158/1/4 159/1/4
f 158/1/4 156/1/4 160/1/4
f 159/1/4 158/1/4 160/1/4
f 164/4/5 162/4/5 161/4/5
f 165/1/5 163/1/5 162/1/5
f 165/4/5 162/4/5 164/4/5
f 166/1/5 163/1/5 165/1/5
f 170/4/5 168/4/5 167/4/5
f 171/1/5 169/1/5 168/1/5
f 171/4/5 168/4/5 170/4/5
f 172/1/5 169/1/5 171/1/5
f 176/1/5 173/1/5 172/1/5
f 177/1/5 173/1/5 176/1/5
f 178/4/5 175/4/5 174/4/5
f 179/1/5 176/1/5 175/1/5
f 179/4/5 175/4/5 178/4/5
f 180/1/5 176/1/5 179/1/5
f 184/4/5 182/4/5 181/4/5
f 185/1/5 183/1/5 182/1/5
f 185/4/5 182/4/5 184/4/5
f 186/1/5 183/1/5 185/1/5
f 190/4/5 188/4/5 187/4/5
f 191/1/5 189/1/5 188/1/5
f 191/4/5 188/4/5 190/4/5
f 192/1/5 189/1/5 191/1/5
f 195/1/5 194/1/5 193/1/5
f 196/1/5 194/1/5 195/1/5
f 199/1/5 198/1/5 197/1/5
f 200/1/5 198/1/5 199/1/5
f 201/1/6 202/1/6 203/1/6
f 203/1/6 202/1/6 204/1/6
f 205/1/6 206/1/6 207/1/6
f 207/1/6 206/1/6 208/1/6
f 209/1/6 210/1/6 212/1/6
f 212/1/6 210/1/6 213/1/6
f 214/1/6 215/1/6 216/1/6
f 216/1/6 215/1/6 217/1/6
f 211/4/6 212/4/6 218/4/6
f 218/4/6 212/4/6 219/4/6
f 219/1/6 220/1/6 221/1/6
f 221/1/6 220/1/6 222/1/6
f 223/1/6 224/1/6 225/1/6
f 225/1/6 224/1/6 226/1/6
