# MagicaVoxel @ Ephtracy

# group
o upper_armR

# material
mtllib Hunters-17-upper_armR.mtl
usemtl palette

# normals
vn -1 0 0
vn 1 0 0
vn 0 0 1
vn 0 0 -1
vn 0 -1 0
vn 0 1 0

# texcoords
vt 0.341797 0.5
vt 0.369141 0.5

# verts
v -0.4 2.6 -6.9
v -0.4 2.6 -7
v -0.4 2.6 -7.1
v -0.4 2.7 -6.9
v -0.4 2.7 -7
v -0.4 3.4 -6.9
v -0.4 3.4 -7.1
v -0.2 2.6 -6.9
v -0.2 2.6 -7.1
v -0.2 2.8 -7
v -0.2 2.8 -7.1
v -0.2 2.9 -7
v -0.2 2.9 -7.1
v -0.2 3.1 -6.9
v -0.2 3.1 -7
v -0.2 3.2 -6.9
v -0.2 3.2 -7
v -0.2 3.4 -6.9
v -0.2 3.4 -7.1
v -0.4 2.6 -6.9
v -0.4 2.7 -6.9
v -0.4 3.4 -6.9
v -0.3 2.6 -6.9
v -0.3 2.7 -6.9
v -0.3 3.1 -6.9
v -0.3 3.2 -6.9
v -0.2 2.6 -6.9
v -0.2 3.1 -6.9
v -0.2 3.2 -6.9
v -0.2 3.4 -6.9
v -0.4 2.6 -7.1
v -0.4 3.4 -7.1
v -0.3 2.8 -7.1
v -0.3 2.9 -7.1
v -0.2 2.6 -7.1
v -0.2 2.8 -7.1
v -0.2 2.9 -7.1
v -0.2 3.4 -7.1
v -0.4 2.6 -6.9
v -0.3 2.6 -6.9
v -0.2 2.6 -6.9
v -0.4 2.6 -7
v -0.3 2.6 -7
v -0.4 2.6 -7.1
v -0.2 2.6 -7.1
v -0.4 3.4 -6.9
v -0.2 3.4 -6.9
v -0.4 3.4 -7.1
v -0.2 3.4 -7.1

# faces
f 4/1/1 2/1/1 1/1/1
f 5/2/1 3/2/1 2/2/1
f 5/1/1 2/1/1 4/1/1
f 6/2/1 5/2/1 4/2/1
f 7/2/1 3/2/1 5/2/1
f 7/2/1 5/2/1 6/2/1
f 8/2/2 9/2/2 10/2/2
f 10/2/2 9/2/2 11/2/2
f 8/2/2 10/2/2 12/2/2
f 10/1/2 11/1/2 12/1/2
f 12/1/2 11/1/2 13/1/2
f 8/2/2 12/2/2 14/2/2
f 12/2/2 13/2/2 14/2/2
f 14/2/2 13/2/2 15/2/2
f 14/1/2 15/1/2 16/1/2
f 15/2/2 13/2/2 17/2/2
f 16/1/2 15/1/2 17/1/2
f 16/2/2 17/2/2 18/2/2
f 17/2/2 13/2/2 19/2/2
f 18/2/2 17/2/2 19/2/2
f 23/1/3 21/1/3 20/1/3
f 24/2/3 22/2/3 21/2/3
f 24/1/3 21/1/3 23/1/3
f 25/2/3 22/2/3 24/2/3
f 26/2/3 22/2/3 25/2/3
f 27/2/3 24/2/3 23/2/3
f 27/2/3 25/2/3 24/2/3
f 28/1/3 26/1/3 25/1/3
f 28/2/3 25/2/3 27/2/3
f 29/2/3 22/2/3 26/2/3
f 29/1/3 26/1/3 28/1/3
f 30/2/3 22/2/3 29/2/3
f 31/2/4 32/2/4 33/2/4
f 33/2/4 32/2/4 34/2/4
f 31/2/4 33/2/4 35/2/4
f 33/1/4 34/1/4 36/1/4
f 35/2/4 33/2/4 36/2/4
f 34/2/4 32/2/4 37/2/4
f 36/1/4 34/1/4 37/1/4
f 37/2/4 32/2/4 38/2/4
f 42/1/5 40/1/5 39/1/5
f 43/2/5 41/2/5 40/2/5
f 43/1/5 40/1/5 42/1/5
f 44/2/5 43/2/5 42/2/5
f 45/2/5 41/2/5 43/2/5
f 45/2/5 43/2/5 44/2/5
f 46/2/6 47/2/6 48/2/6
f 48/2/6 47/2/6 49/2/6
