# MagicaVoxel @ Ephtracy

# group
o shinR

# material
mtllib Hunters-8-shinR.mtl
usemtl palette

# normals
vn -1 0 0
vn 1 0 0
vn 0 0 1
vn 0 0 -1
vn 0 -1 0
vn 0 1 0

# texcoords
vt 0.908203 0.5
vt 0.912109 0.5
vt 0.990234 0.5

# verts
v -0.5 0 -0.1
v -0.5 0 -0.3
v -0.5 0.1 -0.1
v -0.5 0.1 -0.3
v -0.4 0.1 -0.1
v -0.4 0.1 -0.3
v -0.4 0.4 -0.1
v -0.4 0.4 -0.3
v -0.4 0.5 -0.1
v -0.4 0.5 -0.2
v -0.4 0.6 -0.1
v -0.4 0.6 -0.2
v -0.4 0.7 -0.2
v -0.4 0.7 -0.3
v -0.4 0.8 -0.2
v -0.4 0.8 -0.3
v -0.4 1.1 -0.1
v -0.4 1.1 -0.3
v -0.2 0 -0.1
v -0.2 0 -0.3
v -0.2 0.4 -0.1
v -0.2 0.4 -0.3
v -0.2 0.5 -0.2
v -0.2 0.5 -0.3
v -0.2 0.6 -0.2
v -0.2 0.6 -0.3
v -0.2 0.7 -0.1
v -0.2 0.7 -0.2
v -0.2 0.8 -0.1
v -0.2 0.8 -0.2
v -0.2 1 -0.2
v -0.2 1 -0.3
v -0.2 1.1 -0.1
v -0.2 1.1 -0.2
v -0.2 1.1 -0.3
v -0.5 0 -0.1
v -0.5 0.1 -0.1
v -0.4 0.1 -0.1
v -0.4 0.4 -0.1
v -0.4 0.5 -0.1
v -0.4 0.6 -0.1
v -0.4 1.1 -0.1
v -0.3 0.5 -0.1
v -0.3 0.6 -0.1
v -0.3 0.7 -0.1
v -0.3 0.8 -0.1
v -0.2 0 -0.1
v -0.2 0.4 -0.1
v -0.2 0.7 -0.1
v -0.2 0.8 -0.1
v -0.2 1.1 -0.1
v -0.5 0 -0.3
v -0.5 0.1 -0.3
v -0.4 0.1 -0.3
v -0.4 0.4 -0.3
v -0.4 0.7 -0.3
v -0.4 0.8 -0.3
v -0.4 1.1 -0.3
v -0.3 0.5 -0.3
v -0.3 0.6 -0.3
v -0.3 0.7 -0.3
v -0.3 0.8 -0.3
v -0.3 1 -0.3
v -0.3 1.1 -0.3
v -0.2 0 -0.3
v -0.2 0.4 -0.3
v -0.2 0.5 -0.3
v -0.2 0.6 -0.3
v -0.2 1 -0.3
v -0.2 1.1 -0.3
v -0.5 0 -0.1
v -0.2 0 -0.1
v -0.5 0 -0.3
v -0.2 0 -0.3
v -0.5 0.1 -0.1
v -0.4 0.1 -0.1
v -0.5 0.1 -0.3
v -0.4 0.1 -0.3
v -0.4 1.1 -0.1
v -0.2 1.1 -0.1
v -0.3 1.1 -0.2
v -0.2 1.1 -0.2
v -0.4 1.1 -0.3
v -0.3 1.1 -0.3
v -0.2 1.1 -0.3

# faces
f 3/3/1 2/3/1 1/3/1
f 4/3/1 2/3/1 3/3/1
f 7/3/1 6/3/1 5/3/1
f 8/3/1 6/3/1 7/3/1
f 9/2/1 8/2/1 7/2/1
f 10/2/1 8/2/1 9/2/1
f 11/1/1 10/1/1 9/1/1
f 12/2/1 8/2/1 10/2/1
f 12/1/1 10/1/1 11/1/1
f 13/2/1 12/2/1 11/2/1
f 13/2/1 8/2/1 12/2/1
f 14/2/1 8/2/1 13/2/1
f 15/2/1 13/2/1 11/2/1
f 15/1/1 14/1/1 13/1/1
f 16/1/1 14/1/1 15/1/1
f 17/2/1 15/2/1 11/2/1
f 17/2/1 16/2/1 15/2/1
f 18/2/1 16/2/1 17/2/1
f 19/3/2 20/3/2 21/3/2
f 21/3/2 20/3/2 22/3/2
f 21/2/2 22/2/2 23/2/2
f 23/2/2 22/2/2 24/2/2
f 21/2/2 23/2/2 25/2/2
f 23/1/2 24/1/2 25/1/2
f 25/1/2 24/1/2 26/1/2
f 21/2/2 25/2/2 27/2/2
f 25/2/2 26/2/2 27/2/2
f 27/2/2 26/2/2 28/2/2
f 27/1/2 28/1/2 29/1/2
f 28/2/2 26/2/2 30/2/2
f 29/1/2 28/1/2 30/1/2
f 29/2/2 30/2/2 31/2/2
f 30/2/2 26/2/2 31/2/2
f 31/2/2 26/2/2 32/2/2
f 29/2/2 31/2/2 33/2/2
f 31/1/2 32/1/2 34/1/2
f 33/2/2 31/2/2 34/2/2
f 34/1/2 32/1/2 35/1/2
f 38/3/3 37/3/3 36/3/3
f 43/2/3 40/2/3 39/2/3
f 43/1/3 41/1/3 40/1/3
f 44/2/3 42/2/3 41/2/3
f 44/1/3 41/1/3 43/1/3
f 45/2/3 42/2/3 44/2/3
f 46/2/3 42/2/3 45/2/3
f 47/3/3 38/3/3 36/3/3
f 47/3/3 39/3/3 38/3/3
f 48/2/3 43/2/3 39/2/3
f 48/3/3 39/3/3 47/3/3
f 48/2/3 44/2/3 43/2/3
f 48/2/3 45/2/3 44/2/3
f 49/1/3 46/1/3 45/1/3
f 49/2/3 45/2/3 48/2/3
f 50/2/3 42/2/3 46/2/3
f 50/1/3 46/1/3 49/1/3
f 51/2/3 42/2/3 50/2/3
f 52/3/4 53/3/4 54/3/4
f 55/2/4 56/2/4 59/2/4
f 59/2/4 56/2/4 60/2/4
f 56/1/4 57/1/4 61/1/4
f 60/2/4 56/2/4 61/2/4
f 57/2/4 58/2/4 62/2/4
f 61/1/4 57/1/4 62/1/4
f 62/2/4 58/2/4 63/2/4
f 63/2/4 58/2/4 64/2/4
f 52/3/4 54/3/4 65/3/4
f 54/3/4 55/3/4 65/3/4
f 55/2/4 59/2/4 66/2/4
f 65/3/4 55/3/4 66/3/4
f 59/1/4 60/1/4 67/1/4
f 66/2/4 59/2/4 67/2/4
f 60/2/4 61/2/4 68/2/4
f 67/1/4 60/1/4 68/1/4
f 61/2/4 62/2/4 68/2/4
f 62/2/4 63/2/4 68/2/4
f 63/1/4 64/1/4 69/1/4
f 68/2/4 63/2/4 69/2/4
f 69/1/4 64/1/4 70/1/4
f 73/3/5 72/3/5 71/3/5
f 74/3/5 72/3/5 73/3/5
f 75/3/6 76/3/6 77/3/6
f 77/3/6 76/3/6 78/3/6
f 79/2/6 80/2/6 81/2/6
f 81/2/6 80/2/6 82/2/6
f 79/2/6 81/2/6 83/2/6
f 81/1/6 82/1/6 84/1/6
f 83/2/6 81/2/6 84/2/6
f 84/1/6 82/1/6 85/1/6
