# MagicaVoxel @ Ephtracy

# group
o th-2610017930

# material
mtllib Nardi.mtl
usemtl palette

# normals
vn -1 0 0
vn 1 0 0
vn 0 0 1
vn 0 0 -1
vn 0 -1 0
vn 0 1 0

# texcoords
vt 0.533203 0.5
vt 0.537109 0.5
vt 0.873047 0.5
vt 0.958984 0.5
vt 0.994141 0.5

# verts
v -0.8 0 -2.7
v -0.8 0 -4
v -0.8 0.2 -2.7
v -0.8 0.2 -4
v -0.5 0.1 -2.8
v -0.5 0.1 -2.9
v -0.5 0.1 -3.8
v -0.5 0.1 -3.9
v -0.5 0.2 -2.8
v -0.5 0.2 -2.9
v -0.5 0.2 -3.8
v -0.5 0.2 -3.9
v -0.3 0.1 -2.8
v -0.3 0.1 -2.9
v -0.3 0.1 -3.8
v -0.3 0.1 -3.9
v -0.3 0.2 -2.8
v -0.3 0.2 -2.9
v -0.3 0.2 -3.8
v -0.3 0.2 -3.9
v -0.1 0.1 -2.8
v -0.1 0.1 -3.9
v -0.1 0.2 -2.8
v -0.1 0.2 -3.9
v 0.1 0.1 -2.8
v 0.1 0.1 -3
v 0.1 0.1 -3.8
v 0.1 0.1 -3.9
v 0.1 0.2 -2.8
v 0.1 0.2 -3
v 0.1 0.2 -3.8
v 0.1 0.2 -3.9
v 0.3 0.1 -2.8
v 0.3 0.1 -2.9
v 0.3 0.1 -3.8
v 0.3 0.1 -3.9
v 0.3 0.2 -2.8
v 0.3 0.2 -2.9
v 0.3 0.2 -3.8
v 0.3 0.2 -3.9
v 0.5 0.1 -2.8
v 0.5 0.1 -2.9
v 0.5 0.1 -3.5
v 0.5 0.1 -3.9
v 0.5 0.2 -2.8
v 0.5 0.2 -2.9
v 0.5 0.2 -3.5
v 0.5 0.2 -3.9
v 0.6 0.1 -2.9
v 0.6 0.1 -3.2
v 0.6 0.1 -3.4
v 0.6 0.1 -3.5
v 0.6 0.2 -2.9
v 0.6 0.2 -3.5
v -0.7 0.1 -2.8
v -0.7 0.1 -3.2
v -0.7 0.1 -3.4
v -0.7 0.1 -3.6
v -0.7 0.2 -2.8
v -0.7 0.2 -3.6
v -0.6 0.1 -3.6
v -0.6 0.1 -3.9
v -0.6 0.2 -3.6
v -0.6 0.2 -3.9
v -0.4 0.1 -2.8
v -0.4 0.1 -2.9
v -0.4 0.1 -3.8
v -0.4 0.1 -3.9
v -0.4 0.2 -2.8
v -0.4 0.2 -2.9
v -0.4 0.2 -3.8
v -0.4 0.2 -3.9
v -0.2 0.1 -2.8
v -0.2 0.1 -2.9
v -0.2 0.1 -3.8
v -0.2 0.1 -3.9
v -0.2 0.2 -2.8
v -0.2 0.2 -2.9
v -0.2 0.2 -3.8
v -0.2 0.2 -3.9
v 0 0.1 -2.8
v 0 0.1 -3.9
v 0 0.2 -2.8
v 0 0.2 -3.9
v 0.2 0.1 -2.8
v 0.2 0.1 -3
v 0.2 0.1 -3.8
v 0.2 0.1 -3.9
v 0.2 0.2 -2.8
v 0.2 0.2 -3
v 0.2 0.2 -3.8
v 0.2 0.2 -3.9
v 0.4 0.1 -2.8
v 0.4 0.1 -2.9
v 0.4 0.1 -3.8
v 0.4 0.1 -3.9
v 0.4 0.2 -2.8
v 0.4 0.2 -2.9
v 0.4 0.2 -3.8
v 0.4 0.2 -3.9
v 0.7 0 -2.7
v 0.7 0 -4
v 0.7 0.2 -2.7
v 0.7 0.2 -4
v -0.8 0 -2.7
v -0.8 0.2 -2.7
v 0.7 0 -2.7
v 0.7 0.2 -2.7
v 0.5 0.1 -3.5
v 0.5 0.2 -3.5
v 0.6 0.1 -3.5
v 0.6 0.2 -3.5
v -0.7 0.1 -3.6
v -0.7 0.2 -3.6
v -0.6 0.1 -3.6
v -0.6 0.2 -3.6
v -0.5 0.1 -3.8
v -0.5 0.2 -3.8
v -0.4 0.1 -3.8
v -0.4 0.2 -3.8
v -0.3 0.1 -3.8
v -0.3 0.2 -3.8
v -0.2 0.1 -3.8
v -0.2 0.2 -3.8
v 0.1 0.1 -3.8
v 0.1 0.2 -3.8
v 0.2 0.1 -3.8
v 0.2 0.2 -3.8
v 0.3 0.1 -3.8
v 0.3 0.2 -3.8
v 0.4 0.1 -3.8
v 0.4 0.2 -3.8
v -0.6 0.1 -3.9
v -0.6 0.2 -3.9
v -0.5 0.1 -3.9
v -0.5 0.2 -3.9
v -0.4 0.1 -3.9
v -0.4 0.2 -3.9
v -0.3 0.1 -3.9
v -0.3 0.2 -3.9
v -0.2 0.1 -3.9
v -0.2 0.2 -3.9
v -0.1 0.1 -3.9
v -0.1 0.2 -3.9
v 0 0.1 -3.9
v 0 0.2 -3.9
v 0.1 0.1 -3.9
v 0.1 0.2 -3.9
v 0.2 0.1 -3.9
v 0.2 0.2 -3.9
v 0.3 0.1 -3.9
v 0.3 0.2 -3.9
v 0.4 0.1 -3.9
v 0.4 0.2 -3.9
v 0.5 0.1 -3.9
v 0.5 0.2 -3.9
v -0.7 0.1 -2.8
v -0.7 0.2 -2.8
v -0.6 0.1 -2.8
v -0.5 0.1 -2.8
v -0.5 0.2 -2.8
v -0.4 0.1 -2.8
v -0.4 0.2 -2.8
v -0.3 0.1 -2.8
v -0.3 0.2 -2.8
v -0.2 0.1 -2.8
v -0.2 0.2 -2.8
v -0.1 0.1 -2.8
v -0.1 0.2 -2.8
v 0 0.1 -2.8
v 0 0.2 -2.8
v 0.1 0.1 -2.8
v 0.1 0.2 -2.8
v 0.2 0.1 -2.8
v 0.2 0.2 -2.8
v 0.3 0.1 -2.8
v 0.3 0.2 -2.8
v 0.4 0.1 -2.8
v 0.4 0.2 -2.8
v 0.5 0.1 -2.8
v 0.5 0.2 -2.8
v -0.5 0.1 -2.9
v -0.5 0.2 -2.9
v -0.4 0.1 -2.9
v -0.4 0.2 -2.9
v -0.3 0.1 -2.9
v -0.3 0.2 -2.9
v -0.2 0.1 -2.9
v -0.2 0.2 -2.9
v 0.3 0.1 -2.9
v 0.3 0.2 -2.9
v 0.4 0.1 -2.9
v 0.4 0.2 -2.9
v 0.5 0.1 -2.9
v 0.5 0.2 -2.9
v 0.6 0.1 -2.9
v 0.6 0.2 -2.9
v 0.1 0.1 -3
v 0.1 0.2 -3
v 0.2 0.1 -3
v 0.2 0.2 -3
v -0.8 0 -4
v -0.8 0.2 -4
v 0.7 0 -4
v 0.7 0.2 -4
v -0.8 0 -2.7
v 0.7 0 -2.7
v -0.7 0 -2.8
v -0.6 0 -2.8
v -0.5 0 -2.8
v -0.4 0 -2.8
v -0.3 0 -2.8
v -0.2 0 -2.8
v -0.1 0 -2.8
v 0 0 -2.8
v 0.1 0 -2.8
v 0.2 0 -2.8
v 0.3 0 -2.8
v 0.4 0 -2.8
v 0.5 0 -2.8
v 0.6 0 -2.8
v -0.7 0 -3.2
v -0.6 0 -3.2
v -0.5 0 -3.2
v -0.4 0 -3.2
v -0.3 0 -3.2
v -0.2 0 -3.2
v 0.1 0 -3.2
v 0.2 0 -3.2
v 0.3 0 -3.2
v 0.4 0 -3.2
v 0.5 0 -3.2
v 0.6 0 -3.2
v -0.7 0 -3.4
v -0.6 0 -3.4
v -0.5 0 -3.4
v -0.4 0 -3.4
v -0.3 0 -3.4
v -0.2 0 -3.4
v 0.1 0 -3.4
v 0.2 0 -3.4
v 0.3 0 -3.4
v 0.4 0 -3.4
v 0.5 0 -3.4
v 0.6 0 -3.4
v -0.7 0 -3.9
v -0.6 0 -3.9
v -0.5 0 -3.9
v -0.4 0 -3.9
v -0.3 0 -3.9
v -0.2 0 -3.9
v -0.1 0 -3.9
v 0 0 -3.9
v 0.1 0 -3.9
v 0.2 0 -3.9
v 0.3 0 -3.9
v 0.4 0 -3.9
v 0.5 0 -3.9
v 0.6 0 -3.9
v -0.8 0 -4
v 0.7 0 -4
v -0.7 0.1 -2.8
v -0.6 0.1 -2.8
v -0.5 0.1 -2.8
v -0.4 0.1 -2.8
v -0.3 0.1 -2.8
v -0.2 0.1 -2.8
v -0.1 0.1 -2.8
v 0 0.1 -2.8
v 0.1 0.1 -2.8
v 0.2 0.1 -2.8
v 0.3 0.1 -2.8
v 0.4 0.1 -2.8
v 0.5 0.1 -2.8
v -0.5 0.1 -2.9
v -0.4 0.1 -2.9
v -0.3 0.1 -2.9
v -0.2 0.1 -2.9
v 0.3 0.1 -2.9
v 0.4 0.1 -2.9
v 0.5 0.1 -2.9
v 0.6 0.1 -2.9
v 0.1 0.1 -3
v 0.2 0.1 -3
v -0.7 0.1 -3.2
v -0.6 0.1 -3.2
v -0.5 0.1 -3.2
v -0.4 0.1 -3.2
v -0.3 0.1 -3.2
v -0.2 0.1 -3.2
v 0.1 0.1 -3.2
v 0.2 0.1 -3.2
v 0.3 0.1 -3.2
v 0.4 0.1 -3.2
v 0.5 0.1 -3.2
v 0.6 0.1 -3.2
v -0.7 0.1 -3.4
v -0.6 0.1 -3.4
v -0.5 0.1 -3.4
v -0.4 0.1 -3.4
v -0.3 0.1 -3.4
v -0.2 0.1 -3.4
v 0.1 0.1 -3.4
v 0.2 0.1 -3.4
v 0.3 0.1 -3.4
v 0.4 0.1 -3.4
v 0.5 0.1 -3.4
v 0.6 0.1 -3.4
v 0.5 0.1 -3.5
v 0.6 0.1 -3.5
v -0.7 0.1 -3.6
v -0.6 0.1 -3.6
v -0.5 0.1 -3.8
v -0.4 0.1 -3.8
v -0.3 0.1 -3.8
v -0.2 0.1 -3.8
v 0.1 0.1 -3.8
v 0.2 0.1 -3.8
v 0.3 0.1 -3.8
v 0.4 0.1 -3.8
v -0.6 0.1 -3.9
v -0.5 0.1 -3.9
v -0.4 0.1 -3.9
v -0.3 0.1 -3.9
v -0.2 0.1 -3.9
v -0.1 0.1 -3.9
v 0 0.1 -3.9
v 0.1 0.1 -3.9
v 0.2 0.1 -3.9
v 0.3 0.1 -3.9
v 0.4 0.1 -3.9
v 0.5 0.1 -3.9
v -0.8 0.2 -2.7
v 0.7 0.2 -2.7
v -0.7 0.2 -2.8
v -0.5 0.2 -2.8
v -0.4 0.2 -2.8
v -0.3 0.2 -2.8
v -0.2 0.2 -2.8
v -0.1 0.2 -2.8
v 0 0.2 -2.8
v 0.1 0.2 -2.8
v 0.2 0.2 -2.8
v 0.3 0.2 -2.8
v 0.4 0.2 -2.8
v 0.5 0.2 -2.8
v 0.6 0.2 -2.8
v -0.5 0.2 -2.9
v -0.4 0.2 -2.9
v -0.3 0.2 -2.9
v -0.2 0.2 -2.9
v 0.3 0.2 -2.9
v 0.4 0.2 -2.9
v 0.5 0.2 -2.9
v 0.6 0.2 -2.9
v 0.1 0.2 -3
v 0.2 0.2 -3
v 0.5 0.2 -3.5
v 0.6 0.2 -3.5
v -0.7 0.2 -3.6
v -0.6 0.2 -3.6
v -0.5 0.2 -3.8
v -0.4 0.2 -3.8
v -0.3 0.2 -3.8
v -0.2 0.2 -3.8
v 0.1 0.2 -3.8
v 0.2 0.2 -3.8
v 0.3 0.2 -3.8
v 0.4 0.2 -3.8
v -0.7 0.2 -3.9
v -0.6 0.2 -3.9
v -0.5 0.2 -3.9
v -0.4 0.2 -3.9
v -0.3 0.2 -3.9
v -0.2 0.2 -3.9
v -0.1 0.2 -3.9
v 0 0.2 -3.9
v 0.1 0.2 -3.9
v 0.2 0.2 -3.9
v 0.3 0.2 -3.9
v 0.4 0.2 -3.9
v 0.5 0.2 -3.9
v 0.6 0.2 -3.9
v -0.8 0.2 -4
v 0.7 0.2 -4

# faces
f 3/3/1 2/3/1 1/3/1
f 4/3/1 2/3/1 3/3/1
f 9/5/1 6/5/1 5/5/1
f 10/5/1 6/5/1 9/5/1
f 11/5/1 8/5/1 7/5/1
f 12/5/1 8/5/1 11/5/1
f 17/5/1 14/5/1 13/5/1
f 18/5/1 14/5/1 17/5/1
f 19/4/1 16/4/1 15/4/1
f 20/4/1 16/4/1 19/4/1
f 23/3/1 22/3/1 21/3/1
f 24/3/1 22/3/1 23/3/1
f 29/5/1 26/5/1 25/5/1
f 30/5/1 26/5/1 29/5/1
f 31/4/1 28/4/1 27/4/1
f 32/4/1 28/4/1 31/4/1
f 37/4/1 34/4/1 33/4/1
f 38/4/1 34/4/1 37/4/1
f 39/4/1 36/4/1 35/4/1
f 40/4/1 36/4/1 39/4/1
f 45/5/1 42/5/1 41/5/1
f 46/5/1 42/5/1 45/5/1
f 47/4/1 44/4/1 43/4/1
f 48/4/1 44/4/1 47/4/1
f 53/3/1 50/3/1 49/3/1
f 53/3/1 52/3/1 51/3/1
f 53/3/1 51/3/1 50/3/1
f 54/3/1 52/3/1 53/3/1
f 55/3/2 56/3/2 59/3/2
f 57/3/2 58/3/2 59/3/2
f 56/3/2 57/3/2 59/3/2
f 59/3/2 58/3/2 60/3/2
f 61/5/2 62/5/2 63/5/2
f 63/5/2 62/5/2 64/5/2
f 65/5/2 66/5/2 69/5/2
f 69/5/2 66/5/2 70/5/2
f 67/5/2 68/5/2 71/5/2
f 71/5/2 68/5/2 72/5/2
f 73/5/2 74/5/2 77/5/2
f 77/5/2 74/5/2 78/5/2
f 75/4/2 76/4/2 79/4/2
f 79/4/2 76/4/2 80/4/2
f 81/3/2 82/3/2 83/3/2
f 83/3/2 82/3/2 84/3/2
f 85/5/2 86/5/2 89/5/2
f 89/5/2 86/5/2 90/5/2
f 87/4/2 88/4/2 91/4/2
f 91/4/2 88/4/2 92/4/2
f 93/4/2 94/4/2 97/4/2
f 97/4/2 94/4/2 98/4/2
f 95/4/2 96/4/2 99/4/2
f 99/4/2 96/4/2 100/4/2
f 101/3/2 102/3/2 103/3/2
f 103/3/2 102/3/2 104/3/2
f 107/3/3 106/3/3 105/3/3
f 108/3/3 106/3/3 107/3/3
f 111/4/3 110/4/3 109/4/3
f 112/4/3 110/4/3 111/4/3
f 115/5/3 114/5/3 113/5/3
f 116/5/3 114/5/3 115/5/3
f 119/5/3 118/5/3 117/5/3
f 120/5/3 118/5/3 119/5/3
f 123/4/3 122/4/3 121/4/3
f 124/4/3 122/4/3 123/4/3
f 127/4/3 126/4/3 125/4/3
f 128/4/3 126/4/3 127/4/3
f 131/4/3 130/4/3 129/4/3
f 132/4/3 130/4/3 131/4/3
f 135/3/3 134/3/3 133/3/3
f 136/3/3 134/3/3 135/3/3
f 139/3/3 138/3/3 137/3/3
f 140/3/3 138/3/3 139/3/3
f 143/3/3 142/3/3 141/3/3
f 144/3/3 142/3/3 143/3/3
f 147/3/3 146/3/3 145/3/3
f 148/3/3 146/3/3 147/3/3
f 151/3/3 150/3/3 149/3/3
f 152/3/3 150/3/3 151/3/3
f 155/3/3 154/3/3 153/3/3
f 156/3/3 154/3/3 155/3/3
f 157/3/4 158/3/4 159/3/4
f 159/3/4 158/3/4 160/3/4
f 160/3/4 158/3/4 161/3/4
f 162/3/4 163/3/4 164/3/4
f 164/3/4 163/3/4 165/3/4
f 166/3/4 167/3/4 168/3/4
f 168/3/4 167/3/4 169/3/4
f 170/3/4 171/3/4 172/3/4
f 172/3/4 171/3/4 173/3/4
f 174/3/4 175/3/4 176/3/4
f 176/3/4 175/3/4 177/3/4
f 178/3/4 179/3/4 180/3/4
f 180/3/4 179/3/4 181/3/4
f 182/5/4 183/5/4 184/5/4
f 184/5/4 183/5/4 185/5/4
f 186/5/4 187/5/4 188/5/4
f 188/5/4 187/5/4 189/5/4
f 190/4/4 191/4/4 192/4/4
f 192/4/4 191/4/4 193/4/4
f 194/5/4 195/5/4 196/5/4
f 196/5/4 195/5/4 197/5/4
f 198/5/4 199/5/4 200/5/4
f 200/5/4 199/5/4 201/5/4
f 202/3/4 203/3/4 204/3/4
f 204/3/4 203/3/4 205/3/4
f 208/3/5 207/3/5 206/3/5
f 209/3/5 207/3/5 208/3/5
f 210/3/5 207/3/5 209/3/5
f 211/3/5 207/3/5 210/3/5
f 212/3/5 207/3/5 211/3/5
f 213/3/5 207/3/5 212/3/5
f 214/3/5 207/3/5 213/3/5
f 215/3/5 207/3/5 214/3/5
f 216/3/5 207/3/5 215/3/5
f 217/3/5 207/3/5 216/3/5
f 218/3/5 207/3/5 217/3/5
f 219/3/5 207/3/5 218/3/5
f 220/3/5 207/3/5 219/3/5
f 221/3/5 207/3/5 220/3/5
f 222/3/5 208/3/5 206/3/5
f 222/2/5 209/2/5 208/2/5
f 223/1/5 210/1/5 209/1/5
f 223/2/5 209/2/5 222/2/5
f 224/2/5 211/2/5 210/2/5
f 224/1/5 210/1/5 223/1/5
f 225/1/5 212/1/5 211/1/5
f 225/2/5 211/2/5 224/2/5
f 226/2/5 213/2/5 212/2/5
f 226/1/5 212/1/5 225/1/5
f 227/1/5 214/1/5 213/1/5
f 227/2/5 213/2/5 226/2/5
f 228/1/5 216/1/5 215/1/5
f 228/2/5 217/2/5 216/2/5
f 229/1/5 218/1/5 217/1/5
f 229/2/5 217/2/5 228/2/5
f 230/2/5 219/2/5 218/2/5
f 230/1/5 218/1/5 229/1/5
f 231/1/5 220/1/5 219/1/5
f 231/2/5 219/2/5 230/2/5
f 232/2/5 221/2/5 220/2/5
f 232/1/5 220/1/5 231/1/5
f 233/3/5 207/3/5 221/3/5
f 233/2/5 221/2/5 232/2/5
f 234/3/5 222/3/5 206/3/5
f 234/1/5 223/1/5 222/1/5
f 234/1/5 224/1/5 223/1/5
f 234/1/5 225/1/5 224/1/5
f 234/1/5 226/1/5 225/1/5
f 234/1/5 227/1/5 226/1/5
f 235/1/5 227/1/5 234/1/5
f 236/1/5 227/1/5 235/1/5
f 237/1/5 227/1/5 236/1/5
f 238/1/5 227/1/5 237/1/5
f 239/1/5 214/1/5 227/1/5
f 239/1/5 227/1/5 238/1/5
f 240/1/5 232/1/5 231/1/5
f 240/1/5 231/1/5 230/1/5
f 240/1/5 233/1/5 232/1/5
f 240/1/5 230/1/5 229/1/5
f 240/1/5 229/1/5 228/1/5
f 240/1/5 228/1/5 215/1/5
f 241/1/5 233/1/5 240/1/5
f 242/1/5 233/1/5 241/1/5
f 243/1/5 233/1/5 242/1/5
f 244/1/5 233/1/5 243/1/5
f 245/3/5 207/3/5 233/3/5
f 245/1/5 233/1/5 244/1/5
f 246/2/5 235/2/5 234/2/5
f 246/3/5 234/3/5 206/3/5
f 247/1/5 236/1/5 235/1/5
f 247/2/5 235/2/5 246/2/5
f 248/2/5 237/2/5 236/2/5
f 248/1/5 236/1/5 247/1/5
f 249/1/5 238/1/5 237/1/5
f 249/2/5 237/2/5 248/2/5
f 250/2/5 239/2/5 238/2/5
f 250/1/5 238/1/5 249/1/5
f 251/1/5 214/1/5 239/1/5
f 251/2/5 239/2/5 250/2/5
f 252/3/5 215/3/5 214/3/5
f 252/1/5 214/1/5 251/1/5
f 253/1/5 240/1/5 215/1/5
f 253/3/5 215/3/5 252/3/5
f 254/2/5 241/2/5 240/2/5
f 254/1/5 240/1/5 253/1/5
f 255/1/5 242/1/5 241/1/5
f 255/2/5 241/2/5 254/2/5
f 256/2/5 243/2/5 242/2/5
f 256/1/5 242/1/5 255/1/5
f 257/1/5 244/1/5 243/1/5
f 257/2/5 243/2/5 256/2/5
f 258/2/5 245/2/5 244/2/5
f 258/1/5 244/1/5 257/1/5
f 259/3/5 207/3/5 245/3/5
f 259/2/5 245/2/5 258/2/5
f 260/3/5 250/3/5 249/3/5
f 260/3/5 249/3/5 248/3/5
f 260/3/5 259/3/5 258/3/5
f 260/3/5 255/3/5 254/3/5
f 260/3/5 254/3/5 253/3/5
f 260/3/5 253/3/5 252/3/5
f 260/3/5 252/3/5 251/3/5
f 260/3/5 248/3/5 247/3/5
f 260/3/5 251/3/5 250/3/5
f 260/3/5 257/3/5 256/3/5
f 260/3/5 258/3/5 257/3/5
f 260/3/5 246/3/5 206/3/5
f 260/3/5 247/3/5 246/3/5
f 260/3/5 256/3/5 255/3/5
f 261/3/5 207/3/5 259/3/5
f 261/3/5 259/3/5 260/3/5
f 263/1/6 264/1/6 275/1/6
f 265/1/6 266/1/6 276/1/6
f 276/1/6 266/1/6 277/1/6
f 267/1/6 268/1/6 278/1/6
f 271/1/6 272/1/6 279/1/6
f 273/1/6 274/1/6 280/1/6
f 280/1/6 274/1/6 281/1/6
f 269/1/6 270/1/6 283/1/6
f 271/1/6 279/1/6 284/1/6
f 262/2/6 263/2/6 285/2/6
f 263/1/6 275/1/6 286/1/6
f 285/2/6 263/2/6 286/2/6
f 275/2/6 276/2/6 287/2/6
f 286/1/6 275/1/6 287/1/6
f 276/1/6 277/1/6 288/1/6
f 287/2/6 276/2/6 288/2/6
f 277/2/6 278/2/6 289/2/6
f 288/1/6 277/1/6 289/1/6
f 278/1/6 268/1/6 290/1/6
f 289/2/6 278/2/6 290/2/6
f 283/2/6 284/2/6 291/2/6
f 269/1/6 283/1/6 291/1/6
f 284/1/6 279/1/6 292/1/6
f 291/2/6 284/2/6 292/2/6
f 279/2/6 280/2/6 293/2/6
f 292/1/6 279/1/6 293/1/6
f 280/1/6 281/1/6 294/1/6
f 293/2/6 280/2/6 294/2/6
f 281/2/6 282/2/6 295/2/6
f 294/1/6 281/1/6 295/1/6
f 295/2/6 282/2/6 296/2/6
f 289/1/6 290/1/6 297/1/6
f 286/1/6 287/1/6 297/1/6
f 287/1/6 288/1/6 297/1/6
f 285/1/6 286/1/6 297/1/6
f 288/1/6 289/1/6 297/1/6
f 297/1/6 290/1/6 298/1/6
f 298/1/6 290/1/6 299/1/6
f 299/1/6 290/1/6 300/1/6
f 300/1/6 290/1/6 301/1/6
f 290/1/6 268/1/6 302/1/6
f 301/1/6 290/1/6 302/1/6
f 295/1/6 296/1/6 303/1/6
f 293/1/6 294/1/6 303/1/6
f 294/1/6 295/1/6 303/1/6
f 269/1/6 291/1/6 303/1/6
f 291/1/6 292/1/6 303/1/6
f 292/1/6 293/1/6 303/1/6
f 303/1/6 296/1/6 304/1/6
f 304/1/6 296/1/6 305/1/6
f 305/1/6 296/1/6 306/1/6
f 306/1/6 296/1/6 307/1/6
f 307/1/6 296/1/6 308/1/6
f 306/1/6 307/1/6 309/1/6
f 307/2/6 308/2/6 309/2/6
f 309/2/6 308/2/6 310/2/6
f 297/2/6 298/2/6 311/2/6
f 298/1/6 299/1/6 312/1/6
f 311/2/6 298/2/6 312/2/6
f 299/2/6 300/2/6 313/2/6
f 312/1/6 299/1/6 313/1/6
f 300/1/6 301/1/6 314/1/6
f 313/2/6 300/2/6 314/2/6
f 301/2/6 302/2/6 315/2/6
f 314/1/6 301/1/6 315/1/6
f 302/1/6 268/1/6 316/1/6
f 315/2/6 302/2/6 316/2/6
f 269/1/6 303/1/6 317/1/6
f 303/2/6 304/2/6 317/2/6
f 304/1/6 305/1/6 318/1/6
f 317/2/6 304/2/6 318/2/6
f 305/2/6 306/2/6 319/2/6
f 318/1/6 305/1/6 319/1/6
f 306/1/6 309/1/6 320/1/6
f 319/2/6 306/2/6 320/2/6
f 312/1/6 313/1/6 321/1/6
f 321/1/6 313/1/6 322/1/6
f 314/1/6 315/1/6 323/1/6
f 323/1/6 315/1/6 324/1/6
f 316/1/6 268/1/6 325/1/6
f 325/1/6 268/1/6 326/1/6
f 269/1/6 317/1/6 327/1/6
f 327/1/6 317/1/6 328/1/6
f 318/1/6 319/1/6 329/1/6
f 329/1/6 319/1/6 330/1/6
f 320/1/6 309/1/6 331/1/6
f 331/1/6 309/1/6 332/1/6
f 333/3/6 334/3/6 335/3/6
f 335/3/6 334/3/6 336/3/6
f 336/3/6 334/3/6 337/3/6
f 337/3/6 334/3/6 338/3/6
f 338/3/6 334/3/6 339/3/6
f 339/3/6 334/3/6 340/3/6
f 340/3/6 334/3/6 341/3/6
f 341/3/6 334/3/6 342/3/6
f 342/3/6 334/3/6 343/3/6
f 343/3/6 334/3/6 344/3/6
f 344/3/6 334/3/6 345/3/6
f 345/3/6 334/3/6 346/3/6
f 346/3/6 334/3/6 347/3/6
f 336/5/6 337/5/6 348/5/6
f 348/5/6 337/5/6 349/5/6
f 338/5/6 339/5/6 350/5/6
f 350/5/6 339/5/6 351/5/6
f 344/4/6 345/4/6 352/4/6
f 352/4/6 345/4/6 353/4/6
f 346/5/6 347/5/6 354/5/6
f 347/3/6 334/3/6 355/3/6
f 354/5/6 347/5/6 355/5/6
f 342/5/6 343/5/6 356/5/6
f 356/5/6 343/5/6 357/5/6
f 355/3/6 334/3/6 359/3/6
f 333/3/6 335/3/6 360/3/6
f 333/3/6 360/3/6 370/3/6
f 360/5/6 361/5/6 370/5/6
f 370/5/6 361/5/6 371/5/6
f 362/5/6 363/5/6 372/5/6
f 372/5/6 363/5/6 373/5/6
f 364/4/6 365/4/6 374/4/6
f 374/4/6 365/4/6 375/4/6
f 340/3/6 341/3/6 376/3/6
f 376/3/6 341/3/6 377/3/6
f 366/4/6 367/4/6 378/4/6
f 378/4/6 367/4/6 379/4/6
f 368/4/6 369/4/6 380/4/6
f 380/4/6 369/4/6 381/4/6
f 358/4/6 359/4/6 382/4/6
f 359/3/6 334/3/6 383/3/6
f 382/4/6 359/4/6 383/4/6
f 380/3/6 381/3/6 384/3/6
f 374/3/6 375/3/6 384/3/6
f 382/3/6 383/3/6 384/3/6
f 381/3/6 382/3/6 384/3/6
f 379/3/6 380/3/6 384/3/6
f 378/3/6 379/3/6 384/3/6
f 377/3/6 378/3/6 384/3/6
f 376/3/6 377/3/6 384/3/6
f 375/3/6 376/3/6 384/3/6
f 370/3/6 371/3/6 384/3/6
f 373/3/6 374/3/6 384/3/6
f 372/3/6 373/3/6 384/3/6
f 371/3/6 372/3/6 384/3/6
f 333/3/6 370/3/6 384/3/6
f 383/3/6 334/3/6 385/3/6
f 384/3/6 383/3/6 385/3/6
