# MagicaVoxel @ Ephtracy

# group
o 

# material
mtllib MelochevkaCity-9.mtl
usemtl palette

# normals
vn 1 0 0
vn -1 0 0
vn 0 0 -1
vn 0 0 1
vn 0 -1 0
vn 0 1 0

# texcoords
vt 0.958984 0.5
vt 0.990234 0.5

# verts
v -10.2 0 7.3
v -10.2 0 12.8
v -10.2 0.1 7.3
v -10.2 0.1 12.8
v -11 0 12.7
v -11 0 12.8
v -11 0.1 12.7
v -11 0.1 12.8
v -11.5 0 12.6
v -11.5 0 12.7
v -11.5 0.1 12.6
v -11.5 0.1 12.7
v -11.9 0 12.5
v -11.9 0 12.6
v -11.9 0.1 12.5
v -11.9 0.1 12.6
v -12.2 0 12.4
v -12.2 0 12.5
v -12.2 0.1 12.4
v -12.2 0.1 12.5
v -12.4 0 12.3
v -12.4 0 12.4
v -12.4 0.1 12.3
v -12.4 0.1 12.4
v -12.6 0 12.2
v -12.6 0 12.3
v -12.6 0.1 12.2
v -12.6 0.1 12.3
v -12.8 0 12.1
v -12.8 0 12.2
v -12.8 0.1 12.1
v -12.8 0.1 12.2
v -13 0 12
v -13 0 12.1
v -13 0.1 12
v -13 0.1 12.1
v -13.2 0 11.9
v -13.2 0 12
v -13.2 0.1 11.9
v -13.2 0.1 12
v -13.3 0 11.8
v -13.3 0 11.9
v -13.3 0.1 11.8
v -13.3 0.1 11.9
v -13.5 0 11.7
v -13.5 0 11.8
v -13.5 0.1 11.7
v -13.5 0.1 11.8
v -13.6 0 11.6
v -13.6 0 11.7
v -13.6 0.1 11.6
v -13.6 0.1 11.7
v -13.7 0 11.5
v -13.7 0 11.6
v -13.7 0.1 11.5
v -13.7 0.1 11.6
v -13.8 0 11.4
v -13.8 0 11.5
v -13.8 0.1 11.4
v -13.8 0.1 11.5
v -14 0 11.3
v -14 0 11.4
v -14 0.1 11.3
v -14 0.1 11.4
v -14.1 0 11.2
v -14.1 0 11.3
v -14.1 0.1 11.2
v -14.1 0.1 11.3
v -14.2 0 11.1
v -14.2 0 11.2
v -14.2 0.1 11.1
v -14.2 0.1 11.2
v -14.3 0 10.9
v -14.3 0 11.1
v -14.3 0.1 10.9
v -14.3 0.1 11.1
v -14.4 0 10.8
v -14.4 0 10.9
v -14.4 0.1 10.8
v -14.4 0.1 10.9
v -14.5 0 10.7
v -14.5 0 10.8
v -14.5 0.1 10.7
v -14.5 0.1 10.8
v -14.6 0 10.6
v -14.6 0 10.7
v -14.6 0.1 10.6
v -14.6 0.1 10.7
v -14.7 0 10.4
v -14.7 0 10.6
v -14.7 0.1 10.4
v -14.7 0.1 10.6
v -14.8 0 10.3
v -14.8 0 10.4
v -14.8 0.1 10.3
v -14.8 0.1 10.4
v -14.9 0 10.1
v -14.9 0 10.3
v -14.9 0.1 10.1
v -14.9 0.1 10.3
v -15 0 9.9
v -15 0 10.1
v -15 0.1 9.9
v -15 0.1 10.1
v -15.1 0 9.7
v -15.1 0 9.9
v -15.1 0.1 9.7
v -15.1 0.1 9.9
v -15.2 0 9.5
v -15.2 0 9.7
v -15.2 0.1 9.5
v -15.2 0.1 9.7
v -15.3 0 9.3
v -15.3 0 9.5
v -15.3 0.1 9.3
v -15.3 0.1 9.5
v -15.4 0 9
v -15.4 0 9.3
v -15.4 0.1 9
v -15.4 0.1 9.3
v -15.5 0 8.6
v -15.5 0 9
v -15.5 0.1 8.6
v -15.5 0.1 9
v -15.6 0 8.1
v -15.6 0 8.6
v -15.6 0.1 8.1
v -15.6 0.1 8.6
v -15.7 0 7.3
v -15.7 0 8.1
v -15.7 0.1 7.3
v -15.7 0.1 8.1
v -10.2 0 7.3
v -10.2 0.1 7.3
v -15.7 0 7.3
v -15.7 0.1 7.3
v -15.6 0 8.1
v -15.6 0.1 8.1
v -15.7 0 8.1
v -15.7 0.1 8.1
v -15.5 0 8.6
v -15.5 0.1 8.6
v -15.6 0 8.6
v -15.6 0.1 8.6
v -15.4 0 9
v -15.4 0.1 9
v -15.5 0 9
v -15.5 0.1 9
v -15.3 0 9.3
v -15.3 0.1 9.3
v -15.4 0 9.3
v -15.4 0.1 9.3
v -15.2 0 9.5
v -15.2 0.1 9.5
v -15.3 0 9.5
v -15.3 0.1 9.5
v -15.1 0 9.7
v -15.1 0.1 9.7
v -15.2 0 9.7
v -15.2 0.1 9.7
v -15 0 9.9
v -15 0.1 9.9
v -15.1 0 9.9
v -15.1 0.1 9.9
v -14.9 0 10.1
v -14.9 0.1 10.1
v -15 0 10.1
v -15 0.1 10.1
v -14.8 0 10.3
v -14.8 0.1 10.3
v -14.9 0 10.3
v -14.9 0.1 10.3
v -14.7 0 10.4
v -14.7 0.1 10.4
v -14.8 0 10.4
v -14.8 0.1 10.4
v -14.6 0 10.6
v -14.6 0.1 10.6
v -14.7 0 10.6
v -14.7 0.1 10.6
v -14.5 0 10.7
v -14.5 0.1 10.7
v -14.6 0 10.7
v -14.6 0.1 10.7
v -14.4 0 10.8
v -14.4 0.1 10.8
v -14.5 0 10.8
v -14.5 0.1 10.8
v -14.3 0 10.9
v -14.3 0.1 10.9
v -14.4 0 10.9
v -14.4 0.1 10.9
v -14.2 0 11.1
v -14.2 0.1 11.1
v -14.3 0 11.1
v -14.3 0.1 11.1
v -14.1 0 11.2
v -14.1 0.1 11.2
v -14.2 0 11.2
v -14.2 0.1 11.2
v -14 0 11.3
v -14 0.1 11.3
v -14.1 0 11.3
v -14.1 0.1 11.3
v -13.8 0 11.4
v -13.8 0.1 11.4
v -14 0 11.4
v -14 0.1 11.4
v -13.7 0 11.5
v -13.7 0.1 11.5
v -13.8 0 11.5
v -13.8 0.1 11.5
v -13.6 0 11.6
v -13.6 0.1 11.6
v -13.7 0 11.6
v -13.7 0.1 11.6
v -13.5 0 11.7
v -13.5 0.1 11.7
v -13.6 0 11.7
v -13.6 0.1 11.7
v -13.3 0 11.8
v -13.3 0.1 11.8
v -13.5 0 11.8
v -13.5 0.1 11.8
v -13.2 0 11.9
v -13.2 0.1 11.9
v -13.3 0 11.9
v -13.3 0.1 11.9
v -13 0 12
v -13 0.1 12
v -13.2 0 12
v -13.2 0.1 12
v -12.8 0 12.1
v -12.8 0.1 12.1
v -13 0 12.1
v -13 0.1 12.1
v -12.6 0 12.2
v -12.6 0.1 12.2
v -12.8 0 12.2
v -12.8 0.1 12.2
v -12.4 0 12.3
v -12.4 0.1 12.3
v -12.6 0 12.3
v -12.6 0.1 12.3
v -12.2 0 12.4
v -12.2 0.1 12.4
v -12.4 0 12.4
v -12.4 0.1 12.4
v -11.9 0 12.5
v -11.9 0.1 12.5
v -12.2 0 12.5
v -12.2 0.1 12.5
v -11.5 0 12.6
v -11.5 0.1 12.6
v -11.9 0 12.6
v -11.9 0.1 12.6
v -11 0 12.7
v -11 0.1 12.7
v -11.5 0 12.7
v -11.5 0.1 12.7
v -10.2 0 12.8
v -10.2 0.1 12.8
v -11 0 12.8
v -11 0.1 12.8
v -10.2 0 7.3
v -15.7 0 7.3
v -15.6 0 8.1
v -15.7 0 8.1
v -15.5 0 8.6
v -15.6 0 8.6
v -12.9 0 8.7
v -13 0 8.7
v -12.8 0 8.8
v -12.9 0 8.8
v -13 0 8.8
v -13.1 0 8.8
v -12.7 0 8.9
v -12.8 0 8.9
v -13.1 0 8.9
v -13.2 0 8.9
v -12.6 0 9
v -12.7 0 9
v -13.2 0 9
v -13.3 0 9
v -15.4 0 9
v -15.5 0 9
v -12.5 0 9.1
v -12.6 0 9.1
v -13.3 0 9.1
v -13.4 0 9.1
v -12.4 0 9.2
v -12.5 0 9.2
v -13.4 0 9.2
v -13.5 0 9.2
v -12.3 0 9.3
v -12.4 0 9.3
v -15.3 0 9.3
v -15.4 0 9.3
v -12.2 0 9.4
v -12.3 0 9.4
v -13.4 0 9.4
v -13.5 0 9.4
v -12.1 0 9.5
v -12.2 0 9.5
v -13.3 0 9.5
v -13.4 0 9.5
v -15.2 0 9.5
v -15.3 0 9.5
v -12 0 9.6
v -12.1 0 9.6
v -13.2 0 9.6
v -13.3 0 9.6
v -11.9 0 9.7
v -12 0 9.7
v -13.1 0 9.7
v -13.2 0 9.7
v -15.1 0 9.7
v -15.2 0 9.7
v -11.8 0 9.8
v -11.9 0 9.8
v -13 0 9.8
v -13.1 0 9.8
v -11.7 0 9.9
v -11.8 0 9.9
v -12.9 0 9.9
v -13 0 9.9
v -15 0 9.9
v -15.1 0 9.9
v -11.6 0 10
v -11.7 0 10
v -12.8 0 10
v -12.9 0 10
v -11.5 0 10.1
v -11.6 0 10.1
v -12.7 0 10.1
v -12.8 0 10.1
v -14.9 0 10.1
v -15 0 10.1
v -11.4 0 10.2
v -11.5 0 10.2
v -12.6 0 10.2
v -12.7 0 10.2
v -12.5 0 10.3
v -12.6 0 10.3
v -14.8 0 10.3
v -14.9 0 10.3
v -11.4 0 10.4
v -11.5 0 10.4
v -12.4 0 10.4
v -12.5 0 10.4
v -14.7 0 10.4
v -14.8 0 10.4
v -11.5 0 10.5
v -11.6 0 10.5
v -12.3 0 10.5
v -12.4 0 10.5
v -11.6 0 10.6
v -11.7 0 10.6
v -12.2 0 10.6
v -12.3 0 10.6
v -14.6 0 10.6
v -14.7 0 10.6
v -11.7 0 10.7
v -11.8 0 10.7
v -12.1 0 10.7
v -12.2 0 10.7
v -14.5 0 10.7
v -14.6 0 10.7
v -11.8 0 10.8
v -11.9 0 10.8
v -12 0 10.8
v -12.1 0 10.8
v -14.4 0 10.8
v -14.5 0 10.8
v -11.9 0 10.9
v -12 0 10.9
v -14.3 0 10.9
v -14.4 0 10.9
v -14.2 0 11.1
v -14.3 0 11.1
v -14.1 0 11.2
v -14.2 0 11.2
v -14 0 11.3
v -14.1 0 11.3
v -13.8 0 11.4
v -14 0 11.4
v -13.7 0 11.5
v -13.8 0 11.5
v -13.6 0 11.6
v -13.7 0 11.6
v -13.5 0 11.7
v -13.6 0 11.7
v -13.3 0 11.8
v -13.5 0 11.8
v -13.2 0 11.9
v -13.3 0 11.9
v -13 0 12
v -13.2 0 12
v -12.8 0 12.1
v -13 0 12.1
v -12.6 0 12.2
v -12.8 0 12.2
v -12.4 0 12.3
v -12.6 0 12.3
v -12.2 0 12.4
v -12.4 0 12.4
v -11.9 0 12.5
v -12.2 0 12.5
v -11.5 0 12.6
v -11.9 0 12.6
v -11 0 12.7
v -11.5 0 12.7
v -10.2 0 12.8
v -11 0 12.8
v -10.2 0.1 7.3
v -15.7 0.1 7.3
v -15.6 0.1 8.1
v -15.7 0.1 8.1
v -15.5 0.1 8.6
v -15.6 0.1 8.6
v -12.9 0.1 8.7
v -13 0.1 8.7
v -12.8 0.1 8.8
v -12.9 0.1 8.8
v -13 0.1 8.8
v -13.1 0.1 8.8
v -12.7 0.1 8.9
v -12.8 0.1 8.9
v -13.1 0.1 8.9
v -13.2 0.1 8.9
v -12.6 0.1 9
v -12.7 0.1 9
v -13.2 0.1 9
v -13.3 0.1 9
v -15.4 0.1 9
v -15.5 0.1 9
v -12.5 0.1 9.1
v -12.6 0.1 9.1
v -13.3 0.1 9.1
v -13.4 0.1 9.1
v -12.4 0.1 9.2
v -12.5 0.1 9.2
v -13.4 0.1 9.2
v -13.5 0.1 9.2
v -12.3 0.1 9.3
v -12.4 0.1 9.3
v -15.3 0.1 9.3
v -15.4 0.1 9.3
v -12.2 0.1 9.4
v -12.3 0.1 9.4
v -13.4 0.1 9.4
v -13.5 0.1 9.4
v -12.1 0.1 9.5
v -12.2 0.1 9.5
v -13.3 0.1 9.5
v -13.4 0.1 9.5
v -15.2 0.1 9.5
v -15.3 0.1 9.5
v -12 0.1 9.6
v -12.1 0.1 9.6
v -13.2 0.1 9.6
v -13.3 0.1 9.6
v -11.9 0.1 9.7
v -12 0.1 9.7
v -13.1 0.1 9.7
v -13.2 0.1 9.7
v -15.1 0.1 9.7
v -15.2 0.1 9.7
v -11.8 0.1 9.8
v -11.9 0.1 9.8
v -13 0.1 9.8
v -13.1 0.1 9.8
v -11.7 0.1 9.9
v -11.8 0.1 9.9
v -12.9 0.1 9.9
v -13 0.1 9.9
v -15 0.1 9.9
v -15.1 0.1 9.9
v -11.6 0.1 10
v -11.7 0.1 10
v -12.8 0.1 10
v -12.9 0.1 10
v -11.5 0.1 10.1
v -11.6 0.1 10.1
v -12.7 0.1 10.1
v -12.8 0.1 10.1
v -14.9 0.1 10.1
v -15 0.1 10.1
v -11.4 0.1 10.2
v -11.5 0.1 10.2
v -12.6 0.1 10.2
v -12.7 0.1 10.2
v -12.5 0.1 10.3
v -12.6 0.1 10.3
v -14.8 0.1 10.3
v -14.9 0.1 10.3
v -11.4 0.1 10.4
v -11.5 0.1 10.4
v -12.4 0.1 10.4
v -12.5 0.1 10.4
v -14.7 0.1 10.4
v -14.8 0.1 10.4
v -11.5 0.1 10.5
v -11.6 0.1 10.5
v -12.3 0.1 10.5
v -12.4 0.1 10.5
v -11.6 0.1 10.6
v -11.7 0.1 10.6
v -12.2 0.1 10.6
v -12.3 0.1 10.6
v -14.6 0.1 10.6
v -14.7 0.1 10.6
v -11.7 0.1 10.7
v -11.8 0.1 10.7
v -12.1 0.1 10.7
v -12.2 0.1 10.7
v -14.5 0.1 10.7
v -14.6 0.1 10.7
v -11.8 0.1 10.8
v -11.9 0.1 10.8
v -12 0.1 10.8
v -12.1 0.1 10.8
v -14.4 0.1 10.8
v -14.5 0.1 10.8
v -11.9 0.1 10.9
v -12 0.1 10.9
v -14.3 0.1 10.9
v -14.4 0.1 10.9
v -14.2 0.1 11.1
v -14.3 0.1 11.1
v -14.1 0.1 11.2
v -14.2 0.1 11.2
v -14 0.1 11.3
v -14.1 0.1 11.3
v -13.8 0.1 11.4
v -14 0.1 11.4
v -13.7 0.1 11.5
v -13.8 0.1 11.5
v -13.6 0.1 11.6
v -13.7 0.1 11.6
v -13.5 0.1 11.7
v -13.6 0.1 11.7
v -13.3 0.1 11.8
v -13.5 0.1 11.8
v -13.2 0.1 11.9
v -13.3 0.1 11.9
v -13 0.1 12
v -13.2 0.1 12
v -12.8 0.1 12.1
v -13 0.1 12.1
v -12.6 0.1 12.2
v -12.8 0.1 12.2
v -12.4 0.1 12.3
v -12.6 0.1 12.3
v -12.2 0.1 12.4
v -12.4 0.1 12.4
v -11.9 0.1 12.5
v -12.2 0.1 12.5
v -11.5 0.1 12.6
v -11.9 0.1 12.6
v -11 0.1 12.7
v -11.5 0.1 12.7
v -10.2 0.1 12.8
v -11 0.1 12.8

# faces
f 3/2/1 2/2/1 1/2/1
f 4/2/1 2/2/1 3/2/1
f 5/2/2 6/2/2 7/2/2
f 7/2/2 6/2/2 8/2/2
f 9/2/2 10/2/2 11/2/2
f 11/2/2 10/2/2 12/2/2
f 13/2/2 14/2/2 15/2/2
f 15/2/2 14/2/2 16/2/2
f 17/2/2 18/2/2 19/2/2
f 19/2/2 18/2/2 20/2/2
f 21/2/2 22/2/2 23/2/2
f 23/2/2 22/2/2 24/2/2
f 25/2/2 26/2/2 27/2/2
f 27/2/2 26/2/2 28/2/2
f 29/2/2 30/2/2 31/2/2
f 31/2/2 30/2/2 32/2/2
f 33/2/2 34/2/2 35/2/2
f 35/2/2 34/2/2 36/2/2
f 37/2/2 38/2/2 39/2/2
f 39/2/2 38/2/2 40/2/2
f 41/2/2 42/2/2 43/2/2
f 43/2/2 42/2/2 44/2/2
f 45/2/2 46/2/2 47/2/2
f 47/2/2 46/2/2 48/2/2
f 49/2/2 50/2/2 51/2/2
f 51/2/2 50/2/2 52/2/2
f 53/2/2 54/2/2 55/2/2
f 55/2/2 54/2/2 56/2/2
f 57/2/2 58/2/2 59/2/2
f 59/2/2 58/2/2 60/2/2
f 61/2/2 62/2/2 63/2/2
f 63/2/2 62/2/2 64/2/2
f 65/2/2 66/2/2 67/2/2
f 67/2/2 66/2/2 68/2/2
f 69/2/2 70/2/2 71/2/2
f 71/2/2 70/2/2 72/2/2
f 73/2/2 74/2/2 75/2/2
f 75/2/2 74/2/2 76/2/2
f 77/2/2 78/2/2 79/2/2
f 79/2/2 78/2/2 80/2/2
f 81/2/2 82/2/2 83/2/2
f 83/2/2 82/2/2 84/2/2
f 85/2/2 86/2/2 87/2/2
f 87/2/2 86/2/2 88/2/2
f 89/2/2 90/2/2 91/2/2
f 91/2/2 90/2/2 92/2/2
f 93/2/2 94/2/2 95/2/2
f 95/2/2 94/2/2 96/2/2
f 97/2/2 98/2/2 99/2/2
f 99/2/2 98/2/2 100/2/2
f 101/2/2 102/2/2 103/2/2
f 103/2/2 102/2/2 104/2/2
f 105/2/2 106/2/2 107/2/2
f 107/2/2 106/2/2 108/2/2
f 109/2/2 110/2/2 111/2/2
f 111/2/2 110/2/2 112/2/2
f 113/2/2 114/2/2 115/2/2
f 115/2/2 114/2/2 116/2/2
f 117/2/2 118/2/2 119/2/2
f 119/2/2 118/2/2 120/2/2
f 121/2/2 122/2/2 123/2/2
f 123/2/2 122/2/2 124/2/2
f 125/2/2 126/2/2 127/2/2
f 127/2/2 126/2/2 128/2/2
f 129/2/2 130/2/2 131/2/2
f 131/2/2 130/2/2 132/2/2
f 135/2/3 134/2/3 133/2/3
f 136/2/3 134/2/3 135/2/3
f 137/2/4 138/2/4 139/2/4
f 139/2/4 138/2/4 140/2/4
f 141/2/4 142/2/4 143/2/4
f 143/2/4 142/2/4 144/2/4
f 145/2/4 146/2/4 147/2/4
f 147/2/4 146/2/4 148/2/4
f 149/2/4 150/2/4 151/2/4
f 151/2/4 150/2/4 152/2/4
f 153/2/4 154/2/4 155/2/4
f 155/2/4 154/2/4 156/2/4
f 157/2/4 158/2/4 159/2/4
f 159/2/4 158/2/4 160/2/4
f 161/2/4 162/2/4 163/2/4
f 163/2/4 162/2/4 164/2/4
f 165/2/4 166/2/4 167/2/4
f 167/2/4 166/2/4 168/2/4
f 169/2/4 170/2/4 171/2/4
f 171/2/4 170/2/4 172/2/4
f 173/2/4 174/2/4 175/2/4
f 175/2/4 174/2/4 176/2/4
f 177/2/4 178/2/4 179/2/4
f 179/2/4 178/2/4 180/2/4
f 181/2/4 182/2/4 183/2/4
f 183/2/4 182/2/4 184/2/4
f 185/2/4 186/2/4 187/2/4
f 187/2/4 186/2/4 188/2/4
f 189/2/4 190/2/4 191/2/4
f 191/2/4 190/2/4 192/2/4
f 193/2/4 194/2/4 195/2/4
f 195/2/4 194/2/4 196/2/4
f 197/2/4 198/2/4 199/2/4
f 199/2/4 198/2/4 200/2/4
f 201/2/4 202/2/4 203/2/4
f 203/2/4 202/2/4 204/2/4
f 205/2/4 206/2/4 207/2/4
f 207/2/4 206/2/4 208/2/4
f 209/2/4 210/2/4 211/2/4
f 211/2/4 210/2/4 212/2/4
f 213/2/4 214/2/4 215/2/4
f 215/2/4 214/2/4 216/2/4
f 217/2/4 218/2/4 219/2/4
f 219/2/4 218/2/4 220/2/4
f 221/2/4 222/2/4 223/2/4
f 223/2/4 222/2/4 224/2/4
f 225/2/4 226/2/4 227/2/4
f 227/2/4 226/2/4 228/2/4
f 229/2/4 230/2/4 231/2/4
f 231/2/4 230/2/4 232/2/4
f 233/2/4 234/2/4 235/2/4
f 235/2/4 234/2/4 236/2/4
f 237/2/4 238/2/4 239/2/4
f 239/2/4 238/2/4 240/2/4
f 241/2/4 242/2/4 243/2/4
f 243/2/4 242/2/4 244/2/4
f 245/2/4 246/2/4 247/2/4
f 247/2/4 246/2/4 248/2/4
f 249/2/4 250/2/4 251/2/4
f 251/2/4 250/2/4 252/2/4
f 253/2/4 254/2/4 255/2/4
f 255/2/4 254/2/4 256/2/4
f 257/2/4 258/2/4 259/2/4
f 259/2/4 258/2/4 260/2/4
f 261/2/4 262/2/4 263/2/4
f 263/2/4 262/2/4 264/2/4
f 267/2/5 266/2/5 265/2/5
f 268/2/5 266/2/5 267/2/5
f 269/2/5 267/2/5 265/2/5
f 270/2/5 267/2/5 269/2/5
f 271/2/5 269/2/5 265/2/5
f 272/2/5 269/2/5 271/2/5
f 273/2/5 271/2/5 265/2/5
f 274/1/5 272/1/5 271/1/5
f 274/2/5 271/2/5 273/2/5
f 275/2/5 269/2/5 272/2/5
f 275/1/5 272/1/5 274/1/5
f 276/2/5 269/2/5 275/2/5
f 277/2/5 273/2/5 265/2/5
f 278/1/5 274/1/5 273/1/5
f 278/2/5 273/2/5 277/2/5
f 278/1/5 275/1/5 274/1/5
f 278/1/5 276/1/5 275/1/5
f 279/2/5 269/2/5 276/2/5
f 279/1/5 276/1/5 278/1/5
f 280/2/5 269/2/5 279/2/5
f 281/2/5 277/2/5 265/2/5
f 282/1/5 278/1/5 277/1/5
f 282/2/5 277/2/5 281/2/5
f 282/1/5 279/1/5 278/1/5
f 282/1/5 280/1/5 279/1/5
f 283/2/5 269/2/5 280/2/5
f 283/1/5 280/1/5 282/1/5
f 284/2/5 269/2/5 283/2/5
f 285/2/5 269/2/5 284/2/5
f 286/2/5 269/2/5 285/2/5
f 287/2/5 281/2/5 265/2/5
f 288/1/5 282/1/5 281/1/5
f 288/2/5 281/2/5 287/2/5
f 288/1/5 283/1/5 282/1/5
f 288/1/5 284/1/5 283/1/5
f 289/2/5 285/2/5 284/2/5
f 289/1/5 284/1/5 288/1/5
f 290/2/5 285/2/5 289/2/5
f 291/2/5 287/2/5 265/2/5
f 292/1/5 288/1/5 287/1/5
f 292/2/5 287/2/5 291/2/5
f 292/1/5 289/1/5 288/1/5
f 292/1/5 290/1/5 289/1/5
f 293/2/5 285/2/5 290/2/5
f 293/1/5 290/1/5 292/1/5
f 294/2/5 285/2/5 293/2/5
f 295/2/5 291/2/5 265/2/5
f 296/1/5 292/1/5 291/1/5
f 296/2/5 291/2/5 295/2/5
f 296/1/5 293/1/5 292/1/5
f 296/1/5 294/1/5 293/1/5
f 297/2/5 285/2/5 294/2/5
f 298/2/5 285/2/5 297/2/5
f 299/2/5 295/2/5 265/2/5
f 300/1/5 296/1/5 295/1/5
f 300/2/5 295/2/5 299/2/5
f 301/1/5 294/1/5 296/1/5
f 301/1/5 296/1/5 300/1/5
f 302/2/5 297/2/5 294/2/5
f 302/1/5 294/1/5 301/1/5
f 303/2/5 299/2/5 265/2/5
f 304/1/5 300/1/5 299/1/5
f 304/2/5 299/2/5 303/2/5
f 304/1/5 301/1/5 300/1/5
f 305/1/5 301/1/5 304/1/5
f 306/2/5 302/2/5 301/2/5
f 306/1/5 301/1/5 305/1/5
f 307/2/5 297/2/5 302/2/5
f 307/2/5 302/2/5 306/2/5
f 308/2/5 297/2/5 307/2/5
f 309/2/5 303/2/5 265/2/5
f 310/1/5 305/1/5 304/1/5
f 310/2/5 303/2/5 309/2/5
f 310/1/5 304/1/5 303/1/5
f 311/1/5 305/1/5 310/1/5
f 312/2/5 306/2/5 305/2/5
f 312/1/5 305/1/5 311/1/5
f 312/2/5 307/2/5 306/2/5
f 313/2/5 309/2/5 265/2/5
f 314/1/5 311/1/5 310/1/5
f 314/2/5 309/2/5 313/2/5
f 314/1/5 310/1/5 309/1/5
f 315/1/5 311/1/5 314/1/5
f 316/2/5 312/2/5 311/2/5
f 316/1/5 311/1/5 315/1/5
f 317/2/5 307/2/5 312/2/5
f 317/2/5 312/2/5 316/2/5
f 318/2/5 307/2/5 317/2/5
f 319/2/5 313/2/5 265/2/5
f 320/1/5 315/1/5 314/1/5
f 320/2/5 313/2/5 319/2/5
f 320/1/5 314/1/5 313/1/5
f 321/1/5 315/1/5 320/1/5
f 322/2/5 316/2/5 315/2/5
f 322/1/5 315/1/5 321/1/5
f 322/2/5 317/2/5 316/2/5
f 323/2/5 319/2/5 265/2/5
f 324/1/5 321/1/5 320/1/5
f 324/2/5 319/2/5 323/2/5
f 324/1/5 320/1/5 319/1/5
f 325/1/5 321/1/5 324/1/5
f 326/2/5 322/2/5 321/2/5
f 326/1/5 321/1/5 325/1/5
f 327/2/5 317/2/5 322/2/5
f 327/2/5 322/2/5 326/2/5
f 328/2/5 317/2/5 327/2/5
f 329/2/5 323/2/5 265/2/5
f 330/1/5 325/1/5 324/1/5
f 330/2/5 323/2/5 329/2/5
f 330/1/5 324/1/5 323/1/5
f 331/1/5 325/1/5 330/1/5
f 332/2/5 326/2/5 325/2/5
f 332/1/5 325/1/5 331/1/5
f 332/2/5 327/2/5 326/2/5
f 333/2/5 329/2/5 265/2/5
f 334/1/5 331/1/5 330/1/5
f 334/2/5 329/2/5 333/2/5
f 334/1/5 330/1/5 329/1/5
f 335/1/5 331/1/5 334/1/5
f 336/2/5 332/2/5 331/2/5
f 336/1/5 331/1/5 335/1/5
f 337/2/5 327/2/5 332/2/5
f 337/2/5 332/2/5 336/2/5
f 338/2/5 327/2/5 337/2/5
f 339/2/5 333/2/5 265/2/5
f 340/1/5 335/1/5 334/1/5
f 340/2/5 333/2/5 339/2/5
f 340/1/5 334/1/5 333/1/5
f 341/1/5 335/1/5 340/1/5
f 342/2/5 336/2/5 335/2/5
f 342/1/5 335/1/5 341/1/5
f 342/2/5 337/2/5 336/2/5
f 343/1/5 341/1/5 340/1/5
f 343/1/5 340/1/5 339/1/5
f 344/2/5 342/2/5 341/2/5
f 344/1/5 341/1/5 343/1/5
f 345/2/5 337/2/5 342/2/5
f 345/2/5 342/2/5 344/2/5
f 346/2/5 337/2/5 345/2/5
f 347/2/5 339/2/5 265/2/5
f 347/1/5 343/1/5 339/1/5
f 348/1/5 343/1/5 347/1/5
f 349/1/5 343/1/5 348/1/5
f 350/2/5 344/2/5 343/2/5
f 350/1/5 343/1/5 349/1/5
f 350/2/5 345/2/5 344/2/5
f 351/2/5 345/2/5 350/2/5
f 352/2/5 345/2/5 351/2/5
f 353/1/5 349/1/5 348/1/5
f 353/2/5 348/2/5 347/2/5
f 354/1/5 349/1/5 353/1/5
f 355/1/5 349/1/5 354/1/5
f 356/2/5 351/2/5 350/2/5
f 356/1/5 349/1/5 355/1/5
f 356/2/5 350/2/5 349/2/5
f 357/1/5 355/1/5 354/1/5
f 357/2/5 354/2/5 353/2/5
f 358/1/5 355/1/5 357/1/5
f 359/1/5 355/1/5 358/1/5
f 360/2/5 356/2/5 355/2/5
f 360/1/5 355/1/5 359/1/5
f 361/2/5 351/2/5 356/2/5
f 361/2/5 356/2/5 360/2/5
f 362/2/5 351/2/5 361/2/5
f 363/1/5 359/1/5 358/1/5
f 363/2/5 358/2/5 357/2/5
f 364/1/5 359/1/5 363/1/5
f 365/1/5 359/1/5 364/1/5
f 366/2/5 360/2/5 359/2/5
f 366/1/5 359/1/5 365/1/5
f 366/2/5 361/2/5 360/2/5
f 367/2/5 361/2/5 366/2/5
f 368/2/5 361/2/5 367/2/5
f 369/1/5 365/1/5 364/1/5
f 369/2/5 364/2/5 363/2/5
f 370/1/5 365/1/5 369/1/5
f 371/1/5 365/1/5 370/1/5
f 372/2/5 367/2/5 366/2/5
f 372/1/5 365/1/5 371/1/5
f 372/2/5 366/2/5 365/2/5
f 373/2/5 367/2/5 372/2/5
f 374/2/5 367/2/5 373/2/5
f 375/1/5 371/1/5 370/1/5
f 375/2/5 370/2/5 369/2/5
f 376/2/5 373/2/5 372/2/5
f 376/1/5 371/1/5 375/1/5
f 376/2/5 372/2/5 371/2/5
f 377/2/5 373/2/5 376/2/5
f 378/2/5 373/2/5 377/2/5
f 379/2/5 376/2/5 375/2/5
f 379/2/5 377/2/5 376/2/5
f 380/2/5 377/2/5 379/2/5
f 381/2/5 379/2/5 375/2/5
f 382/2/5 379/2/5 381/2/5
f 383/2/5 381/2/5 375/2/5
f 384/2/5 381/2/5 383/2/5
f 385/2/5 383/2/5 375/2/5
f 386/2/5 383/2/5 385/2/5
f 387/2/5 385/2/5 375/2/5
f 388/2/5 385/2/5 387/2/5
f 389/2/5 387/2/5 375/2/5
f 390/2/5 387/2/5 389/2/5
f 391/2/5 389/2/5 375/2/5
f 392/2/5 389/2/5 391/2/5
f 393/2/5 391/2/5 375/2/5
f 394/2/5 391/2/5 393/2/5
f 395/2/5 393/2/5 375/2/5
f 396/2/5 393/2/5 395/2/5
f 397/2/5 395/2/5 375/2/5
f 398/2/5 395/2/5 397/2/5
f 399/2/5 397/2/5 375/2/5
f 400/2/5 397/2/5 399/2/5
f 401/2/5 399/2/5 375/2/5
f 402/2/5 399/2/5 401/2/5
f 403/2/5 401/2/5 375/2/5
f 404/2/5 401/2/5 403/2/5
f 405/2/5 403/2/5 375/2/5
f 406/2/5 403/2/5 405/2/5
f 407/2/5 375/2/5 369/2/5
f 407/2/5 405/2/5 375/2/5
f 408/2/5 405/2/5 407/2/5
f 409/2/5 353/2/5 347/2/5
f 409/2/5 357/2/5 353/2/5
f 409/2/5 407/2/5 369/2/5
f 409/2/5 363/2/5 357/2/5
f 409/2/5 369/2/5 363/2/5
f 410/2/5 407/2/5 409/2/5
f 411/2/5 347/2/5 265/2/5
f 411/2/5 409/2/5 347/2/5
f 412/2/5 409/2/5 411/2/5
f 413/2/5 411/2/5 265/2/5
f 414/2/5 411/2/5 413/2/5
f 415/2/6 416/2/6 417/2/6
f 417/2/6 416/2/6 418/2/6
f 415/2/6 417/2/6 419/2/6
f 419/2/6 417/2/6 420/2/6
f 415/2/6 419/2/6 421/2/6
f 421/2/6 419/2/6 422/2/6
f 415/2/6 421/2/6 423/2/6
f 421/1/6 422/1/6 424/1/6
f 423/2/6 421/2/6 424/2/6
f 422/2/6 419/2/6 425/2/6
f 424/1/6 422/1/6 425/1/6
f 425/2/6 419/2/6 426/2/6
f 415/2/6 423/2/6 427/2/6
f 423/1/6 424/1/6 428/1/6
f 427/2/6 423/2/6 428/2/6
f 424/1/6 425/1/6 428/1/6
f 425/1/6 426/1/6 428/1/6
f 426/2/6 419/2/6 429/2/6
f 428/1/6 426/1/6 429/1/6
f 429/2/6 419/2/6 430/2/6
f 415/2/6 427/2/6 431/2/6
f 427/1/6 428/1/6 432/1/6
f 431/2/6 427/2/6 432/2/6
f 428/1/6 429/1/6 432/1/6
f 429/1/6 430/1/6 432/1/6
f 430/2/6 419/2/6 433/2/6
f 432/1/6 430/1/6 433/1/6
f 433/2/6 419/2/6 434/2/6
f 434/2/6 419/2/6 435/2/6
f 435/2/6 419/2/6 436/2/6
f 415/2/6 431/2/6 437/2/6
f 431/1/6 432/1/6 438/1/6
f 437/2/6 431/2/6 438/2/6
f 432/1/6 433/1/6 438/1/6
f 433/1/6 434/1/6 438/1/6
f 434/2/6 435/2/6 439/2/6
f 438/1/6 434/1/6 439/1/6
f 439/2/6 435/2/6 440/2/6
f 415/2/6 437/2/6 441/2/6
f 437/1/6 438/1/6 442/1/6
f 441/2/6 437/2/6 442/2/6
f 438/1/6 439/1/6 442/1/6
f 439/1/6 440/1/6 442/1/6
f 440/2/6 435/2/6 443/2/6
f 442/1/6 440/1/6 443/1/6
f 443/2/6 435/2/6 444/2/6
f 415/2/6 441/2/6 445/2/6
f 441/1/6 442/1/6 446/1/6
f 445/2/6 441/2/6 446/2/6
f 442/1/6 443/1/6 446/1/6
f 443/1/6 444/1/6 446/1/6
f 444/2/6 435/2/6 447/2/6
f 447/2/6 435/2/6 448/2/6
f 415/2/6 445/2/6 449/2/6
f 445/1/6 446/1/6 450/1/6
f 449/2/6 445/2/6 450/2/6
f 446/1/6 444/1/6 451/1/6
f 450/1/6 446/1/6 451/1/6
f 444/2/6 447/2/6 452/2/6
f 451/1/6 444/1/6 452/1/6
f 415/2/6 449/2/6 453/2/6
f 449/1/6 450/1/6 454/1/6
f 453/2/6 449/2/6 454/2/6
f 450/1/6 451/1/6 454/1/6
f 454/1/6 451/1/6 455/1/6
f 451/2/6 452/2/6 456/2/6
f 455/1/6 451/1/6 456/1/6
f 452/2/6 447/2/6 457/2/6
f 456/2/6 452/2/6 457/2/6
f 457/2/6 447/2/6 458/2/6
f 415/2/6 453/2/6 459/2/6
f 454/1/6 455/1/6 460/1/6
f 459/2/6 453/2/6 460/2/6
f 453/1/6 454/1/6 460/1/6
f 460/1/6 455/1/6 461/1/6
f 455/2/6 456/2/6 462/2/6
f 461/1/6 455/1/6 462/1/6
f 456/2/6 457/2/6 462/2/6
f 415/2/6 459/2/6 463/2/6
f 460/1/6 461/1/6 464/1/6
f 463/2/6 459/2/6 464/2/6
f 459/1/6 460/1/6 464/1/6
f 464/1/6 461/1/6 465/1/6
f 461/2/6 462/2/6 466/2/6
f 465/1/6 461/1/6 466/1/6
f 462/2/6 457/2/6 467/2/6
f 466/2/6 462/2/6 467/2/6
f 467/2/6 457/2/6 468/2/6
f 415/2/6 463/2/6 469/2/6
f 464/1/6 465/1/6 470/1/6
f 469/2/6 463/2/6 470/2/6
f 463/1/6 464/1/6 470/1/6
f 470/1/6 465/1/6 471/1/6
f 465/2/6 466/2/6 472/2/6
f 471/1/6 465/1/6 472/1/6
f 466/2/6 467/2/6 472/2/6
f 415/2/6 469/2/6 473/2/6
f 470/1/6 471/1/6 474/1/6
f 473/2/6 469/2/6 474/2/6
f 469/1/6 470/1/6 474/1/6
f 474/1/6 471/1/6 475/1/6
f 471/2/6 472/2/6 476/2/6
f 475/1/6 471/1/6 476/1/6
f 472/2/6 467/2/6 477/2/6
f 476/2/6 472/2/6 477/2/6
f 477/2/6 467/2/6 478/2/6
f 415/2/6 473/2/6 479/2/6
f 474/1/6 475/1/6 480/1/6
f 479/2/6 473/2/6 480/2/6
f 473/1/6 474/1/6 480/1/6
f 480/1/6 475/1/6 481/1/6
f 475/2/6 476/2/6 482/2/6
f 481/1/6 475/1/6 482/1/6
f 476/2/6 477/2/6 482/2/6
f 415/2/6 479/2/6 483/2/6
f 480/1/6 481/1/6 484/1/6
f 483/2/6 479/2/6 484/2/6
f 479/1/6 480/1/6 484/1/6
f 484/1/6 481/1/6 485/1/6
f 481/2/6 482/2/6 486/2/6
f 485/1/6 481/1/6 486/1/6
f 482/2/6 477/2/6 487/2/6
f 486/2/6 482/2/6 487/2/6
f 487/2/6 477/2/6 488/2/6
f 415/2/6 483/2/6 489/2/6
f 484/1/6 485/1/6 490/1/6
f 489/2/6 483/2/6 490/2/6
f 483/1/6 484/1/6 490/1/6
f 490/1/6 485/1/6 491/1/6
f 485/2/6 486/2/6 492/2/6
f 491/1/6 485/1/6 492/1/6
f 486/2/6 487/2/6 492/2/6
f 490/1/6 491/1/6 493/1/6
f 489/1/6 490/1/6 493/1/6
f 491/2/6 492/2/6 494/2/6
f 493/1/6 491/1/6 494/1/6
f 492/2/6 487/2/6 495/2/6
f 494/2/6 492/2/6 495/2/6
f 495/2/6 487/2/6 496/2/6
f 415/2/6 489/2/6 497/2/6
f 489/1/6 493/1/6 497/1/6
f 497/1/6 493/1/6 498/1/6
f 498/1/6 493/1/6 499/1/6
f 493/2/6 494/2/6 500/2/6
f 499/1/6 493/1/6 500/1/6
f 494/2/6 495/2/6 500/2/6
f 500/2/6 495/2/6 501/2/6
f 501/2/6 495/2/6 502/2/6
f 498/1/6 499/1/6 503/1/6
f 497/2/6 498/2/6 503/2/6
f 503/1/6 499/1/6 504/1/6
f 504/1/6 499/1/6 505/1/6
f 500/2/6 501/2/6 506/2/6
f 505/1/6 499/1/6 506/1/6
f 499/2/6 500/2/6 506/2/6
f 504/1/6 505/1/6 507/1/6
f 503/2/6 504/2/6 507/2/6
f 507/1/6 505/1/6 508/1/6
f 508/1/6 505/1/6 509/1/6
f 505/2/6 506/2/6 510/2/6
f 509/1/6 505/1/6 510/1/6
f 506/2/6 501/2/6 511/2/6
f 510/2/6 506/2/6 511/2/6
f 511/2/6 501/2/6 512/2/6
f 508/1/6 509/1/6 513/1/6
f 507/2/6 508/2/6 513/2/6
f 513/1/6 509/1/6 514/1/6
f 514/1/6 509/1/6 515/1/6
f 509/2/6 510/2/6 516/2/6
f 515/1/6 509/1/6 516/1/6
f 510/2/6 511/2/6 516/2/6
f 516/2/6 511/2/6 517/2/6
f 517/2/6 511/2/6 518/2/6
f 514/1/6 515/1/6 519/1/6
f 513/2/6 514/2/6 519/2/6
f 519/1/6 515/1/6 520/1/6
f 520/1/6 515/1/6 521/1/6
f 516/2/6 517/2/6 522/2/6
f 521/1/6 515/1/6 522/1/6
f 515/2/6 516/2/6 522/2/6
f 522/2/6 517/2/6 523/2/6
f 523/2/6 517/2/6 524/2/6
f 520/1/6 521/1/6 525/1/6
f 519/2/6 520/2/6 525/2/6
f 522/2/6 523/2/6 526/2/6
f 525/1/6 521/1/6 526/1/6
f 521/2/6 522/2/6 526/2/6
f 526/2/6 523/2/6 527/2/6
f 527/2/6 523/2/6 528/2/6
f 525/2/6 526/2/6 529/2/6
f 526/2/6 527/2/6 529/2/6
f 529/2/6 527/2/6 530/2/6
f 525/2/6 529/2/6 531/2/6
f 531/2/6 529/2/6 532/2/6
f 525/2/6 531/2/6 533/2/6
f 533/2/6 531/2/6 534/2/6
f 525/2/6 533/2/6 535/2/6
f 535/2/6 533/2/6 536/2/6
f 525/2/6 535/2/6 537/2/6
f 537/2/6 535/2/6 538/2/6
f 525/2/6 537/2/6 539/2/6
f 539/2/6 537/2/6 540/2/6
f 525/2/6 539/2/6 541/2/6
f 541/2/6 539/2/6 542/2/6
f 525/2/6 541/2/6 543/2/6
f 543/2/6 541/2/6 544/2/6
f 525/2/6 543/2/6 545/2/6
f 545/2/6 543/2/6 546/2/6
f 525/2/6 545/2/6 547/2/6
f 547/2/6 545/2/6 548/2/6
f 525/2/6 547/2/6 549/2/6
f 549/2/6 547/2/6 550/2/6
f 525/2/6 549/2/6 551/2/6
f 551/2/6 549/2/6 552/2/6
f 525/2/6 551/2/6 553/2/6
f 553/2/6 551/2/6 554/2/6
f 525/2/6 553/2/6 555/2/6
f 555/2/6 553/2/6 556/2/6
f 519/2/6 525/2/6 557/2/6
f 525/2/6 555/2/6 557/2/6
f 557/2/6 555/2/6 558/2/6
f 497/2/6 503/2/6 559/2/6
f 503/2/6 507/2/6 559/2/6
f 519/2/6 557/2/6 559/2/6
f 507/2/6 513/2/6 559/2/6
f 513/2/6 519/2/6 559/2/6
f 559/2/6 557/2/6 560/2/6
f 415/2/6 497/2/6 561/2/6
f 497/2/6 559/2/6 561/2/6
f 561/2/6 559/2/6 562/2/6
f 415/2/6 561/2/6 563/2/6
f 563/2/6 561/2/6 564/2/6
