# Blender 4.0.2
# www.blender.org
mtllib DurkaDoctor.mtl
o Untitled
v -0.400000 4.100000 0.300000
v -0.400000 4.100000 0.100000
v -0.400000 4.200000 0.100000
v -0.400000 4.200000 -0.100000
v -0.400000 4.200000 -0.300000
v -0.400000 4.400000 0.100000
v -0.400000 4.400000 -0.100000
v -0.400000 4.400000 -0.300000
v -0.400000 4.500000 0.300000
v -0.400000 4.500000 0.100000
v -0.300000 3.600000 0.200000
v -0.300000 3.700000 0.100000
v -0.300000 3.700000 -0.100000
v -0.300000 3.800000 0.100000
v -0.300000 3.800000 -0.100000
v -0.300000 3.900000 0.200000
v -0.300000 3.900000 0.100000
v -0.300000 3.900000 -0.100000
v -0.300000 3.900000 -0.200000
v -0.300000 4.000000 0.200000
v -0.300000 4.000000 0.100000
v -0.300000 4.000000 -0.100000
v -0.300000 4.000000 -0.200000
v -0.300000 4.100000 0.400000
v -0.300000 4.100000 0.300000
v -0.300000 4.100000 -0.100000
v -0.300000 4.200000 0.300000
v -0.300000 4.400000 0.300000
v -0.300000 4.500000 0.400000
v -0.200000 0.000000 0.100000
v -0.200000 -0.000000 -0.100000
v -0.200000 0.100000 0.100000
v -0.200000 0.100000 -0.300000
v -0.200000 2.500000 0.300000
v -0.200000 2.500000 0.200000
v -0.200000 2.600000 0.400000
v -0.200000 2.600000 0.300000
v -0.200000 2.600000 0.200000
v -0.200000 2.600000 0.100000
v -0.200000 2.700000 0.400000
v -0.200000 2.700000 0.300000
v -0.200000 2.700000 0.200000
v -0.200000 2.700000 0.100000
v -0.200000 2.800000 0.400000
v -0.200000 2.800000 0.300000
v -0.200000 2.800000 0.200000
v -0.200000 2.800000 0.100000
v -0.200000 2.900000 0.400000
v -0.200000 2.900000 0.300000
v -0.200000 2.900000 0.200000
v -0.200000 2.900000 0.100000
v -0.200000 2.900000 -0.100000
v -0.200000 3.000000 0.200000
v -0.200000 3.000000 0.100000
v -0.200000 3.000000 -0.100000
v -0.200000 3.000000 -0.200000
v -0.200000 3.100000 0.300000
v -0.200000 3.100000 0.200000
v -0.200000 3.100000 -0.200000
v -0.200000 3.100000 -0.300000
v -0.200000 3.300000 0.200000
v -0.200000 3.300000 0.100000
v -0.200000 3.300000 -0.100000
v -0.200000 3.300000 -0.200000
v -0.200000 3.400000 0.100000
v -0.200000 3.400000 -0.100000
v -0.200000 3.500000 0.400000
v -0.200000 3.500000 0.300000
v -0.200000 3.500000 0.200000
v -0.200000 3.500000 -0.100000
v -0.200000 3.500000 -0.300000
v -0.200000 3.600000 -0.100000
v -0.100000 2.000000 0.500000
v 0.100000 0.000000 0.300000
v 0.100000 0.000000 0.100000
v 0.100000 -0.000000 -0.100000
v 0.100000 -0.000000 -0.300000
v 0.100000 0.100000 0.300000
v 0.100000 0.100000 0.100000
v 0.100000 0.100000 -0.300000
v 0.100000 1.600000 0.400000
v 0.100000 1.800000 0.600000
v 0.100000 2.000000 0.500000
v 0.100000 2.000000 -0.400000
v 0.100000 2.000000 -0.500000
v 0.100000 3.400000 0.600000
v 0.100000 3.500000 -0.100000
v 0.100000 3.600000 0.100000
v 0.100000 3.600000 -0.100000
v 0.200000 2.000000 0.500000
v 0.200000 2.000000 -0.500000
v 0.200000 3.400000 -0.400000
v 0.200000 3.400000 -0.500000
v 0.200000 3.600000 0.200000
v 0.200000 3.600000 -0.200000
v 0.200000 3.700000 0.200000
v 0.300000 3.700000 -0.300000
v 0.300000 4.100000 0.300000
v 0.300000 4.100000 0.200000
v 0.300000 4.100000 -0.200000
v 0.300000 4.500000 0.200000
v -0.100000 1.800000 0.600000
v -0.200000 2.000000 0.500000
v -0.200000 3.400000 0.500000
v 0.100000 3.400000 0.500000
v 0.200000 3.400000 0.400000
v 0.300000 4.500000 0.400000
v -0.400000 4.200000 0.300000
v -0.400000 4.400000 0.300000
v -0.300000 3.700000 0.300000
v 0.300000 3.700000 0.300000
v -0.300000 3.700000 0.200000
v 0.100000 3.500000 0.100000
v -0.200000 0.100000 -0.100000
v -0.100000 0.100000 -0.100000
v -0.100000 2.000000 -0.100000
v 0.100000 0.100000 -0.100000
v 0.100000 2.000000 -0.100000
v -0.100000 1.800000 -0.400000
v -0.100000 2.000000 -0.400000
v 0.000000 2.000000 -0.400000
v 0.100000 1.600000 -0.400000
v 0.100000 1.800000 -0.400000
v -0.100000 1.800000 0.400000
v -0.100000 2.000000 0.400000
v 0.000000 2.000000 0.400000
v 0.100000 1.800000 0.400000
v -0.100000 0.100000 0.100000
v -0.100000 2.000000 0.100000
v 0.000000 2.000000 0.100000
v 0.100000 2.000000 0.100000
v -0.300000 3.600000 -0.200000
v 0.200000 3.700000 -0.200000
v 0.300000 4.500000 -0.200000
v 0.400000 4.100000 -0.200000
v 0.400000 4.500000 -0.200000
v -0.400000 4.100000 -0.300000
v -0.300000 4.200000 -0.300000
v -0.300000 4.400000 -0.300000
v -0.300000 4.500000 -0.300000
v -0.200000 -0.000000 -0.300000
v -0.100000 0.100000 -0.300000
v -0.100000 2.000000 -0.300000
v 0.000000 2.000000 -0.300000
v 0.100000 2.000000 -0.300000
v 0.300000 4.100000 -0.300000
v -0.300000 4.500000 -0.400000
v -0.200000 3.400000 -0.400000
v -0.200000 3.500000 -0.400000
v -0.100000 2.000000 -0.500000
v -0.100000 3.400000 -0.500000
v 0.100000 3.400000 -0.500000
v -0.100000 1.600000 -0.600000
v -0.100000 1.800000 -0.600000
v -0.100000 3.400000 -0.600000
v 0.100000 1.800000 -0.600000
v 0.100000 3.400000 -0.600000
v -0.200000 0.000000 0.300000
v -0.100000 1.600000 0.600000
v 0.100000 1.600000 0.600000
v -0.100000 1.600000 0.400000
v -0.100000 1.600000 -0.400000
v 0.100000 1.600000 -0.600000
v 0.100000 2.000000 0.400000
v -0.100000 2.000000 0.300000
v 0.000000 2.000000 0.300000
v 0.100000 2.000000 0.300000
v 0.000000 2.000000 -0.100000
v -0.200000 2.000000 -0.500000
v -0.200000 3.600000 0.100000
v -0.300000 3.700000 -0.200000
v -0.300000 3.700000 -0.300000
v 0.300000 4.100000 0.400000
v 0.400000 4.100000 0.200000
v -0.300000 4.100000 0.100000
v -0.400000 4.100000 -0.100000
v -0.300000 4.100000 -0.300000
v -0.300000 4.100000 -0.400000
v 0.300000 4.100000 -0.400000
v -0.200000 0.100000 0.300000
v -0.100000 0.100000 0.300000
v -0.100000 3.400000 0.600000
v -0.100000 3.400000 0.500000
v 0.200000 3.400000 0.500000
v -0.200000 3.400000 0.400000
v -0.200000 3.400000 -0.500000
v 0.200000 3.500000 0.400000
v 0.100000 3.500000 0.300000
v -0.100000 3.500000 0.200000
v -0.200000 3.500000 0.100000
v -0.100000 3.500000 0.100000
v -0.100000 3.500000 -0.100000
v -0.200000 3.500000 -0.200000
v -0.100000 3.500000 -0.200000
v 0.100000 3.500000 -0.300000
v 0.200000 3.500000 -0.400000
v -0.300000 4.500000 0.300000
v 0.400000 4.500000 0.200000
v -0.300000 4.500000 0.100000
v -0.400000 4.500000 -0.100000
v -0.300000 4.500000 -0.100000
v -0.400000 4.500000 -0.300000
v 0.300000 4.500000 -0.400000
vn -1.0000 -0.0000 -0.0000
vn 1.0000 -0.0000 -0.0000
vn -0.0000 -0.0000 1.0000
vn -0.0000 -0.0000 -1.0000
vn -0.0000 -1.0000 -0.0000
vn -0.0000 1.0000 -0.0000
vt 0.958984 0.500000
vt 0.841797 0.500000
vt 0.033203 0.500000
vt 0.873047 0.500000
vt 0.990234 0.500000
vt 0.966797 0.500000
vt 0.982422 0.500000
vt 0.876953 0.500000
vt 0.001953 0.500000
s 0
usemtl palette
f 108/1/1 2/1/1 1/1/1
f 3/2/1 176/2/1 2/2/1
f 3/1/1 2/1/1 108/1/1
f 4/1/1 137/1/1 176/1/1
f 4/2/1 176/2/1 3/2/1
f 5/1/1 137/1/1 4/1/1
f 109/2/1 3/2/1 108/2/1
f 109/2/1 4/2/1 3/2/1
f 109/2/1 5/2/1 4/2/1
f 6/2/1 5/2/1 109/2/1
f 7/2/1 5/2/1 6/2/1
f 8/2/1 5/2/1 7/2/1
f 9/1/1 6/1/1 109/1/1
f 10/2/1 7/2/1 6/2/1
f 10/1/1 6/1/1 9/1/1
f 200/1/1 8/1/1 7/1/1
f 200/2/1 7/2/1 10/2/1
f 202/1/1 8/1/1 200/1/1
f 112/3/1 132/3/1 11/3/1
f 12/3/1 132/3/1 112/3/1
f 13/3/1 132/3/1 12/3/1
f 171/3/1 132/3/1 13/3/1
f 14/3/1 112/3/1 110/3/1
f 14/3/1 12/3/1 112/3/1
f 14/4/1 13/4/1 12/4/1
f 15/3/1 172/3/1 171/3/1
f 15/4/1 13/4/1 14/4/1
f 15/3/1 171/3/1 13/3/1
f 16/3/1 14/3/1 110/3/1
f 16/3/1 15/3/1 14/3/1
f 17/3/1 15/3/1 16/3/1
f 18/3/1 172/3/1 15/3/1
f 18/3/1 15/3/1 17/3/1
f 19/3/1 172/3/1 18/3/1
f 20/4/1 17/4/1 16/4/1
f 20/3/1 16/3/1 110/3/1
f 21/3/1 18/3/1 17/3/1
f 21/4/1 17/4/1 20/4/1
f 22/4/1 19/4/1 18/4/1
f 22/3/1 18/3/1 21/3/1
f 23/3/1 172/3/1 19/3/1
f 23/4/1 19/4/1 22/4/1
f 25/3/1 22/3/1 21/3/1
f 25/3/1 21/3/1 20/3/1
f 25/3/1 23/3/1 22/3/1
f 25/3/1 20/3/1 110/3/1
f 175/3/1 23/3/1 25/3/1
f 26/3/1 23/3/1 175/3/1
f 177/3/1 172/3/1 23/3/1
f 177/3/1 23/3/1 26/3/1
f 27/1/1 25/1/1 24/1/1
f 138/1/1 178/1/1 177/1/1
f 28/1/1 27/1/1 24/1/1
f 139/1/1 178/1/1 138/1/1
f 29/1/1 28/1/1 24/1/1
f 197/1/1 28/1/1 29/1/1
f 140/1/1 178/1/1 139/1/1
f 147/1/1 178/1/1 140/1/1
f 180/5/1 30/5/1 158/5/1
f 32/5/1 30/5/1 180/5/1
f 114/5/1 141/5/1 31/5/1
f 33/5/1 141/5/1 114/5/1
f 34/6/1 169/6/1 103/6/1
f 35/6/1 169/6/1 34/6/1
f 36/6/1 34/6/1 103/6/1
f 37/7/1 35/7/1 34/7/1
f 37/6/1 34/6/1 36/6/1
f 38/6/1 169/6/1 35/6/1
f 38/7/1 35/7/1 37/7/1
f 39/6/1 169/6/1 38/6/1
f 40/7/1 37/7/1 36/7/1
f 40/6/1 36/6/1 103/6/1
f 41/2/1 38/2/1 37/2/1
f 41/7/1 37/7/1 40/7/1
f 42/7/1 39/7/1 38/7/1
f 42/2/1 38/2/1 41/2/1
f 43/6/1 169/6/1 39/6/1
f 43/7/1 39/7/1 42/7/1
f 44/2/1 42/2/1 41/2/1
f 44/2/1 41/2/1 40/2/1
f 44/2/1 43/2/1 42/2/1
f 44/6/1 40/6/1 103/6/1
f 45/2/1 43/2/1 44/2/1
f 46/2/1 43/2/1 45/2/1
f 47/6/1 169/6/1 43/6/1
f 47/2/1 43/2/1 46/2/1
f 48/6/1 44/6/1 103/6/1
f 48/7/1 45/7/1 44/7/1
f 49/2/1 46/2/1 45/2/1
f 49/7/1 45/7/1 48/7/1
f 50/7/1 47/7/1 46/7/1
f 50/2/1 46/2/1 49/2/1
f 51/6/1 169/6/1 47/6/1
f 51/7/1 47/7/1 50/7/1
f 52/6/1 169/6/1 51/6/1
f 53/6/1 50/6/1 49/6/1
f 53/6/1 49/6/1 48/6/1
f 53/6/1 51/6/1 50/6/1
f 54/8/1 52/8/1 51/8/1
f 54/6/1 51/6/1 53/6/1
f 55/6/1 169/6/1 52/6/1
f 55/8/1 52/8/1 54/8/1
f 56/6/1 169/6/1 55/6/1
f 57/6/1 53/6/1 48/6/1
f 58/9/1 54/9/1 53/9/1
f 58/6/1 53/6/1 57/6/1
f 59/6/1 169/6/1 56/6/1
f 59/9/1 56/9/1 55/9/1
f 60/6/1 169/6/1 59/6/1
f 61/9/1 54/9/1 58/9/1
f 61/9/1 58/9/1 57/9/1
f 62/8/1 55/8/1 54/8/1
f 62/9/1 54/9/1 61/9/1
f 63/9/1 60/9/1 59/9/1
f 63/8/1 55/8/1 62/8/1
f 63/9/1 59/9/1 55/9/1
f 64/9/1 60/9/1 63/9/1
f 104/6/1 48/6/1 103/6/1
f 104/6/1 57/6/1 48/6/1
f 185/6/1 57/6/1 104/6/1
f 65/8/1 64/8/1 63/8/1
f 65/8/1 62/8/1 61/8/1
f 65/8/1 63/8/1 62/8/1
f 66/8/1 64/8/1 65/8/1
f 148/6/1 169/6/1 60/6/1
f 186/6/1 169/6/1 148/6/1
f 67/6/1 57/6/1 185/6/1
f 68/9/1 61/9/1 57/9/1
f 68/6/1 57/6/1 67/6/1
f 69/8/1 65/8/1 61/8/1
f 69/9/1 61/9/1 68/9/1
f 190/9/1 66/9/1 65/9/1
f 190/8/1 65/8/1 69/8/1
f 70/8/1 64/8/1 66/8/1
f 70/9/1 66/9/1 190/9/1
f 193/9/1 60/9/1 64/9/1
f 193/8/1 64/8/1 70/8/1
f 71/6/1 148/6/1 60/6/1
f 71/9/1 60/9/1 193/9/1
f 149/6/1 148/6/1 71/6/1
f 170/3/1 70/3/1 190/3/1
f 72/3/1 70/3/1 170/3/1
f 102/3/1 161/3/1 159/3/1
f 124/3/1 161/3/1 102/3/1
f 119/3/1 153/3/1 162/3/1
f 154/3/1 153/3/1 119/3/1
f 73/6/1 124/6/1 102/6/1
f 125/6/1 124/6/1 73/6/1
f 165/7/1 128/7/1 181/7/1
f 129/7/1 128/7/1 165/7/1
f 116/7/1 142/7/1 115/7/1
f 143/7/1 142/7/1 116/7/1
f 120/6/1 154/6/1 119/6/1
f 150/6/1 154/6/1 120/6/1
f 182/6/1 73/6/1 102/6/1
f 183/6/1 73/6/1 182/6/1
f 151/6/1 154/6/1 150/6/1
f 155/6/1 154/6/1 151/6/1
f 74/5/2 75/5/2 78/5/2
f 78/5/2 75/5/2 79/5/2
f 76/5/2 77/5/2 117/5/2
f 117/5/2 77/5/2 80/5/2
f 160/3/2 81/3/2 82/3/2
f 82/3/2 81/3/2 127/3/2
f 122/3/2 163/3/2 123/3/2
f 123/3/2 163/3/2 156/3/2
f 82/6/2 127/6/2 83/6/2
f 83/6/2 127/6/2 164/6/2
f 78/7/2 79/7/2 167/7/2
f 167/7/2 79/7/2 131/7/2
f 117/7/2 80/7/2 118/7/2
f 118/7/2 80/7/2 145/7/2
f 123/6/2 156/6/2 84/6/2
f 84/6/2 156/6/2 85/6/2
f 82/6/2 83/6/2 86/6/2
f 86/6/2 83/6/2 105/6/2
f 85/6/2 156/6/2 152/6/2
f 152/6/2 156/6/2 157/6/2
f 113/3/2 87/3/2 88/3/2
f 88/3/2 87/3/2 89/3/2
f 90/6/2 91/6/2 184/6/2
f 184/6/2 91/6/2 106/6/2
f 106/6/2 91/6/2 92/6/2
f 92/6/2 91/6/2 93/6/2
f 106/6/2 92/6/2 187/6/2
f 187/6/2 92/6/2 196/6/2
f 94/3/2 95/3/2 96/3/2
f 96/3/2 95/3/2 133/3/2
f 111/3/2 97/3/2 98/3/2
f 98/3/2 97/3/2 99/3/2
f 99/3/2 97/3/2 100/3/2
f 100/3/2 97/3/2 146/3/2
f 173/1/2 98/1/2 107/1/2
f 98/1/2 99/1/2 107/1/2
f 107/1/2 99/1/2 101/1/2
f 146/1/2 179/1/2 134/1/2
f 100/1/2 146/1/2 134/1/2
f 134/1/2 179/1/2 203/1/2
f 174/1/2 135/1/2 198/1/2
f 198/1/2 135/1/2 136/1/2
f 160/3/3 102/3/3 159/3/3
f 82/6/3 182/6/3 102/6/3
f 82/3/3 102/3/3 160/3/3
f 86/6/3 182/6/3 82/6/3
f 73/6/3 104/6/3 103/6/3
f 183/6/3 104/6/3 73/6/3
f 90/6/3 105/6/3 83/6/3
f 184/6/3 105/6/3 90/6/3
f 106/6/3 67/6/3 185/6/3
f 187/6/3 67/6/3 106/6/3
f 173/1/3 29/1/3 24/1/3
f 107/1/3 29/1/3 173/1/3
f 25/1/3 108/1/3 1/1/3
f 27/2/3 109/2/3 108/2/3
f 27/1/3 108/1/3 25/1/3
f 28/1/3 9/1/3 109/1/3
f 28/2/3 109/2/3 27/2/3
f 197/1/3 9/1/3 28/1/3
f 181/5/3 180/5/3 158/5/3
f 166/7/3 165/7/3 181/7/3
f 74/5/3 181/5/3 158/5/3
f 78/7/3 166/7/3 181/7/3
f 78/5/3 181/5/3 74/5/3
f 167/7/3 166/7/3 78/7/3
f 111/3/3 25/3/3 110/3/3
f 98/3/3 25/3/3 111/3/3
f 94/3/3 112/3/3 11/3/3
f 96/3/3 112/3/3 94/3/3
f 174/1/3 101/1/3 99/1/3
f 198/1/3 101/1/3 174/1/3
f 191/3/3 170/3/3 190/3/3
f 113/3/3 170/3/3 191/3/3
f 88/3/3 170/3/3 113/3/3
f 115/5/3 114/5/3 31/5/3
f 168/7/3 116/7/3 115/7/3
f 76/5/3 115/5/3 31/5/3
f 117/7/3 168/7/3 115/7/3
f 117/5/3 115/5/3 76/5/3
f 118/7/3 168/7/3 117/7/3
f 121/6/3 120/6/3 119/6/3
f 122/3/3 119/3/3 162/3/3
f 123/6/3 121/6/3 119/6/3
f 123/3/3 119/3/3 122/3/3
f 84/6/3 121/6/3 123/6/3
f 124/6/4 125/6/4 126/6/4
f 161/3/4 124/3/4 81/3/4
f 124/6/4 126/6/4 127/6/4
f 81/3/4 124/3/4 127/3/4
f 127/6/4 126/6/4 164/6/4
f 30/5/4 32/5/4 128/5/4
f 128/7/4 129/7/4 130/7/4
f 30/5/4 128/5/4 75/5/4
f 128/7/4 130/7/4 79/7/4
f 75/5/4 128/5/4 79/5/4
f 79/7/4 130/7/4 131/7/4
f 70/3/4 72/3/4 192/3/4
f 192/3/4 72/3/4 87/3/4
f 87/3/4 72/3/4 89/3/4
f 132/3/4 171/3/4 95/3/4
f 95/3/4 171/3/4 133/3/4
f 100/1/4 134/1/4 135/1/4
f 135/1/4 134/1/4 136/1/4
f 137/1/4 5/1/4 177/1/4
f 5/2/4 8/2/4 138/2/4
f 177/1/4 5/1/4 138/1/4
f 8/1/4 202/1/4 139/1/4
f 138/2/4 8/2/4 139/2/4
f 139/1/4 202/1/4 140/1/4
f 141/5/4 33/5/4 142/5/4
f 142/7/4 143/7/4 144/7/4
f 141/5/4 142/5/4 77/5/4
f 142/7/4 144/7/4 80/7/4
f 77/5/4 142/5/4 80/5/4
f 80/7/4 144/7/4 145/7/4
f 172/3/4 177/3/4 97/3/4
f 97/3/4 177/3/4 146/3/4
f 148/6/4 149/6/4 92/6/4
f 92/6/4 149/6/4 196/6/4
f 178/1/4 147/1/4 179/1/4
f 179/1/4 147/1/4 203/1/4
f 169/6/4 186/6/4 150/6/4
f 150/6/4 186/6/4 151/6/4
f 85/6/4 152/6/4 91/6/4
f 91/6/4 152/6/4 93/6/4
f 153/3/4 154/3/4 163/3/4
f 154/6/4 155/6/4 156/6/4
f 163/3/4 154/3/4 156/3/4
f 156/6/4 155/6/4 157/6/4
f 30/5/5 74/5/5 158/5/5
f 75/5/5 74/5/5 30/5/5
f 141/5/5 76/5/5 31/5/5
f 77/5/5 76/5/5 141/5/5
f 161/3/5 160/3/5 159/3/5
f 81/3/5 160/3/5 161/3/5
f 153/3/5 122/3/5 162/3/5
f 163/3/5 122/3/5 153/3/5
f 125/6/5 73/6/5 103/6/5
f 164/6/5 90/6/5 83/6/5
f 165/6/5 126/6/5 125/6/5
f 165/6/5 125/6/5 103/6/5
f 166/9/5 164/9/5 126/9/5
f 166/6/5 126/6/5 165/6/5
f 167/6/5 90/6/5 164/6/5
f 167/9/5 164/9/5 166/9/5
f 129/6/5 165/6/5 103/6/5
f 131/6/5 90/6/5 167/6/5
f 116/6/5 130/6/5 129/6/5
f 116/6/5 129/6/5 103/6/5
f 168/9/5 131/9/5 130/9/5
f 168/6/5 130/6/5 116/6/5
f 118/6/5 90/6/5 131/6/5
f 118/9/5 131/9/5 168/9/5
f 143/6/5 116/6/5 103/6/5
f 145/6/5 90/6/5 118/6/5
f 120/6/5 144/6/5 143/6/5
f 120/6/5 143/6/5 103/6/5
f 121/9/5 145/9/5 144/9/5
f 121/6/5 144/6/5 120/6/5
f 84/6/5 90/6/5 145/6/5
f 84/9/5 145/9/5 121/9/5
f 169/6/5 120/6/5 103/6/5
f 150/6/5 120/6/5 169/6/5
f 85/6/5 90/6/5 84/6/5
f 91/6/5 90/6/5 85/6/5
f 170/3/5 94/3/5 11/3/5
f 88/3/5 94/3/5 170/3/5
f 72/3/5 170/3/5 11/3/5
f 89/3/5 94/3/5 88/3/5
f 132/3/5 72/3/5 11/3/5
f 132/3/5 89/3/5 72/3/5
f 95/3/5 94/3/5 89/3/5
f 95/3/5 89/3/5 132/3/5
f 112/3/5 111/3/5 110/3/5
f 96/3/5 111/3/5 112/3/5
f 133/3/5 111/3/5 96/3/5
f 172/3/5 133/3/5 171/3/5
f 97/3/5 111/3/5 133/3/5
f 97/3/5 133/3/5 172/3/5
f 25/1/5 173/1/5 24/1/5
f 98/1/5 173/1/5 25/1/5
f 2/1/5 25/1/5 1/1/5
f 175/1/5 25/1/5 2/1/5
f 176/2/5 175/2/5 2/2/5
f 26/2/5 175/2/5 176/2/5
f 100/1/5 174/1/5 99/1/5
f 135/1/5 174/1/5 100/1/5
f 137/1/5 26/1/5 176/1/5
f 177/1/5 26/1/5 137/1/5
f 178/1/5 146/1/5 177/1/5
f 179/1/5 146/1/5 178/1/5
f 180/5/6 181/5/6 32/5/6
f 32/5/6 181/5/6 128/5/6
f 114/5/6 115/5/6 33/5/6
f 33/5/6 115/5/6 142/5/6
f 182/6/6 86/6/6 183/6/6
f 183/6/6 86/6/6 105/6/6
f 104/6/6 183/6/6 185/6/6
f 105/6/6 184/6/6 185/6/6
f 183/6/6 105/6/6 185/6/6
f 185/6/6 184/6/6 106/6/6
f 148/6/6 92/6/6 186/6/6
f 186/6/6 92/6/6 151/6/6
f 151/6/6 92/6/6 152/6/6
f 152/6/6 92/6/6 93/6/6
f 151/6/6 152/6/6 155/6/6
f 155/6/6 152/6/6 157/6/6
f 67/6/6 187/6/6 68/6/6
f 68/6/6 187/6/6 188/6/6
f 68/9/6 188/9/6 69/9/6
f 69/9/6 188/9/6 189/9/6
f 69/8/6 189/8/6 190/8/6
f 189/9/6 188/9/6 191/9/6
f 190/8/6 189/8/6 191/8/6
f 188/6/6 187/6/6 113/6/6
f 191/9/6 188/9/6 113/9/6
f 113/6/6 187/6/6 87/6/6
f 70/8/6 192/8/6 193/8/6
f 192/9/6 87/9/6 194/9/6
f 193/8/6 192/8/6 194/8/6
f 193/9/6 194/9/6 71/9/6
f 87/6/6 187/6/6 195/6/6
f 71/9/6 194/9/6 195/9/6
f 194/9/6 87/9/6 195/9/6
f 71/6/6 195/6/6 149/6/6
f 195/6/6 187/6/6 196/6/6
f 149/6/6 195/6/6 196/6/6
f 29/1/6 107/1/6 197/1/6
f 197/1/6 107/1/6 101/1/6
f 9/1/6 197/1/6 101/1/6
f 9/1/6 101/1/6 10/1/6
f 101/1/6 198/1/6 10/1/6
f 10/1/6 198/1/6 199/1/6
f 10/2/6 199/2/6 200/2/6
f 199/1/6 198/1/6 201/1/6
f 200/2/6 199/2/6 201/2/6
f 200/1/6 201/1/6 134/1/6
f 201/1/6 198/1/6 134/1/6
f 134/1/6 198/1/6 136/1/6
f 200/1/6 134/1/6 202/1/6
f 202/1/6 134/1/6 140/1/6
f 140/1/6 134/1/6 147/1/6
f 147/1/6 134/1/6 203/1/6
