# Blender 4.0.2
# www.blender.org
mtllib nosilki.mtl
o Untitled
v -1.644035 0.100000 0.479804
v -1.644035 0.100000 -0.420196
v -1.644035 0.200000 0.479804
v -1.644035 0.200000 0.379804
v -1.644035 0.200000 -0.520196
v -1.444035 -0.000000 0.379804
v -1.444035 -0.000000 -0.420196
v -1.444035 0.100000 0.379804
v -1.344035 -0.000000 0.479804
v -1.344035 -0.000000 -0.420196
v 1.355965 0.100000 0.379804
v -1.344035 0.100000 -0.420196
v -1.344035 0.200000 -0.420196
v 1.355965 -0.000000 0.379804
v 1.355965 -0.000000 -0.420196
v 1.355965 0.100000 -0.420196
v 1.355965 0.100000 -0.520196
v 1.455965 0.100000 0.379804
v 1.655965 0.100000 0.379804
v 1.655965 0.100000 -0.520196
v 1.655965 0.200000 0.479804
v 1.655965 0.200000 0.379804
v 1.355965 -0.000000 0.479804
v 1.655965 0.100000 0.479804
v -1.344035 -0.000000 0.379804
v 1.455965 0.200000 -0.420196
v 1.655965 0.100000 -0.420196
v 1.455965 0.200000 0.379804
v -1.344035 -0.000000 -0.520196
v 1.355965 -0.000000 -0.520196
v 1.455965 -0.000000 0.379804
v 1.455965 -0.000000 -0.420196
v -1.344035 0.100000 0.479804
v 1.355965 0.100000 0.479804
v -1.644035 0.100000 0.379804
v -1.444035 0.100000 -0.420196
v 1.455965 0.100000 -0.420196
v -1.644035 0.100000 -0.520196
v -1.344035 0.100000 -0.520196
v -1.344035 0.100000 0.379804
v -1.444035 0.200000 0.379804
v -1.344035 0.200000 0.379804
v 1.355965 0.200000 0.379804
v -1.644035 0.200000 -0.420196
v -1.444035 0.200000 -0.420196
v 1.355965 0.200000 -0.420196
v 1.655965 0.200000 -0.420196
v 1.655965 0.200000 -0.520196
vn -1.0000 -0.0000 -0.0000
vn 1.0000 -0.0000 -0.0000
vn -0.0000 -0.0000 1.0000
vn -0.0000 -0.0000 -1.0000
vn -0.0000 -1.0000 -0.0000
vn -0.0000 1.0000 -0.0000
vt 0.373047 0.500000
vt 0.958984 0.500000
s 0
usemtl palette
f 3/1/1 35/1/1 1/1/1
f 4/1/1 35/1/1 3/1/1
f 44/1/1 38/1/1 2/1/1
f 5/1/1 38/1/1 44/1/1
f 8/1/1 7/1/1 6/1/1
f 36/1/1 7/1/1 8/1/1
f 41/1/1 36/1/1 8/1/1
f 45/1/1 36/1/1 41/1/1
f 33/1/1 25/1/1 9/1/1
f 40/1/1 25/1/1 33/1/1
f 12/1/1 29/1/1 10/1/1
f 39/1/1 29/1/1 12/1/1
f 43/1/1 16/1/1 11/1/1
f 46/1/1 16/1/1 43/1/1
f 40/1/2 12/1/2 42/1/2
f 42/1/2 12/1/2 13/1/2
f 23/1/2 14/1/2 34/1/2
f 34/1/2 14/1/2 11/1/2
f 15/1/2 30/1/2 16/1/2
f 16/1/2 30/1/2 17/1/2
f 31/1/2 32/1/2 18/1/2
f 18/1/2 32/1/2 37/1/2
f 18/1/2 37/1/2 28/1/2
f 28/1/2 37/1/2 26/1/2
f 24/1/2 19/1/2 21/1/2
f 21/1/2 19/1/2 22/1/2
f 27/1/2 20/1/2 47/1/2
f 47/1/2 20/1/2 48/1/2
f 33/1/3 3/1/3 1/1/3
f 23/1/3 33/1/3 9/1/3
f 34/1/3 3/1/3 33/1/3
f 34/1/3 33/1/3 23/1/3
f 24/1/3 3/1/3 34/1/3
f 21/1/3 3/1/3 24/1/3
f 25/1/3 8/1/3 6/1/3
f 40/1/3 8/1/3 25/1/3
f 31/1/3 11/1/3 14/1/3
f 18/1/3 11/1/3 31/1/3
f 36/1/3 44/1/3 2/1/3
f 45/1/3 44/1/3 36/1/3
f 16/1/3 13/1/3 12/1/3
f 46/1/3 13/1/3 16/1/3
f 27/1/3 26/1/3 37/1/3
f 47/1/3 26/1/3 27/1/3
f 35/1/4 4/1/4 8/1/4
f 8/1/4 4/1/4 41/1/4
f 40/1/4 42/1/4 11/1/4
f 11/1/4 42/1/4 43/1/4
f 18/1/4 28/1/4 19/1/4
f 19/1/4 28/1/4 22/1/4
f 7/1/4 36/1/4 10/1/4
f 10/1/4 36/1/4 12/1/4
f 15/1/4 16/1/4 32/1/4
f 32/1/4 16/1/4 37/1/4
f 38/1/4 5/1/4 39/1/4
f 29/1/4 39/1/4 30/1/4
f 39/1/4 5/1/4 17/1/4
f 30/1/4 39/1/4 17/1/4
f 17/1/4 5/1/4 20/1/4
f 20/1/4 5/1/4 48/1/4
f 25/1/5 23/1/5 9/1/5
f 14/1/5 23/1/5 25/1/5
f 7/1/5 25/1/5 6/1/5
f 10/2/5 14/2/5 25/2/5
f 10/1/5 25/1/5 7/1/5
f 15/1/5 31/1/5 14/1/5
f 15/2/5 14/2/5 10/2/5
f 32/1/5 31/1/5 15/1/5
f 29/1/5 15/1/5 10/1/5
f 30/1/5 15/1/5 29/1/5
f 35/1/5 33/1/5 1/1/5
f 8/1/5 33/1/5 35/1/5
f 40/1/5 33/1/5 8/1/5
f 11/1/5 24/1/5 34/1/5
f 18/1/5 24/1/5 11/1/5
f 19/1/5 24/1/5 18/1/5
f 38/1/5 36/1/5 2/1/5
f 38/1/5 12/1/5 36/1/5
f 39/1/5 12/1/5 38/1/5
f 17/1/5 27/1/5 37/1/5
f 17/1/5 37/1/5 16/1/5
f 20/1/5 27/1/5 17/1/5
f 40/2/6 11/2/6 12/2/6
f 12/2/6 11/2/6 16/2/6
f 3/1/6 21/1/6 4/1/6
f 4/1/6 21/1/6 41/1/6
f 41/1/6 21/1/6 42/1/6
f 42/1/6 21/1/6 43/1/6
f 43/1/6 21/1/6 28/1/6
f 28/1/6 21/1/6 22/1/6
f 41/1/6 42/1/6 45/1/6
f 45/1/6 42/1/6 13/1/6
f 43/1/6 28/1/6 46/1/6
f 46/1/6 28/1/6 26/1/6
f 45/1/6 13/1/6 5/1/6
f 26/1/6 47/1/6 5/1/6
f 46/1/6 26/1/6 5/1/6
f 13/1/6 46/1/6 5/1/6
f 44/1/6 45/1/6 5/1/6
f 5/1/6 47/1/6 48/1/6
